<svg width="48" height="50" viewBox="0 0 48 50" fill="none" xmlns="http://www.w3.org/2000/svg">
<g clip-path="url(#clip0)">
<path d="M4.91894 46.6486C5.02705 43.8108 5.16218 43.1081 5.70272 42C6.62164 40.1351 8.16218 39.1351 10.2703 38.973C11.7297 38.8649 11.946 38.7838 12.2973 38.1081C12.8379 37.0541 15 35.2162 16.1081 34.8649C16.6216 34.7027 17.027 34.4595 17.027 34.3784C17.027 34.2703 16.4325 33.8919 15.7027 33.5676C13.7838 32.6486 11.7838 30.5405 10.7027 28.3243C9.83786 26.5405 9.67569 26.3513 7.91894 25.4054C4.59461 23.5676 1.97299 20.2973 0.972989 16.7568C1.62401e-05 13.1892 0.189206 8.18919 1.43245 5.7027C2.24326 4.08108 3.97299 2.35135 5.62164 1.51351C7.94596 0.351346 9.70272 0.243238 25.027 0.324319C39.3244 0.4054 39.3244 0.4054 40.946 1.05405C43.1622 1.91891 45.6487 4.4054 46.4595 6.56756C46.9189 7.86486 47.0271 8.7027 47.0271 11.5676C47.0271 15.3243 46.7298 16.8108 45.5135 19.3243C44.4325 21.5676 41.4595 24.5405 39.2703 25.5676C37.8379 26.2162 37.5135 26.5135 37.2703 27.2973C36.4595 29.7568 34.1352 32.4054 31.7838 33.5676C31.1081 33.8919 30.5406 34.2432 30.5406 34.3513C30.5406 34.4595 30.8649 34.6486 31.2973 34.8108C32.4865 35.2432 34.2703 36.6757 34.973 37.8108C35.5946 38.8108 35.7298 38.8649 37.2433 38.973C39.1622 39.1081 40.4325 39.8649 41.5676 41.4865C42.2703 42.5135 42.2973 42.7568 42.3784 46.2973L42.4865 50H23.6216H4.7838L4.91894 46.6486V46.6486ZM38.6487 45.3243C38.6487 44.4865 38.4865 44 37.973 43.4324C37.3244 42.7568 37.1352 42.7027 35.0271 42.7027H32.7568L32.5676 41.3513C32.4325 40.2973 32.2703 40 31.8919 40C31.6216 40 31.2973 39.7568 31.2162 39.4595C31.1352 39.1622 30.8649 38.9189 30.6487 38.9189C30.4325 38.9189 30.2703 38.7297 30.2703 38.5135C30.2703 38.1892 29.8919 38.1081 28.3784 38.1081H26.4865V34.5946V31.0811H27.4054C27.9189 31.0811 28.3784 31 28.4325 30.8919C28.5135 30.6486 30.8379 29.4595 31.1622 29.4595C31.5135 29.4595 31.973 28.8919 32.5676 27.7297C32.8649 27.1622 33.2433 26.6216 33.4325 26.5676C33.6216 26.4865 33.7838 26.1622 33.7838 25.8378C33.7838 25.5135 33.8919 25.1351 34.0271 24.973C34.1622 24.8378 34.3243 24.3784 34.3784 23.9189C34.4595 23.1622 34.5406 23.1081 35.6217 23.027C36.2703 22.973 36.7568 22.8108 36.7568 22.6216C36.7568 22.4324 37.3244 22 38.0541 21.6216C38.7568 21.2432 39.5946 20.6216 39.946 20.2162C40.2973 19.8108 40.8919 19.3243 41.2973 19.1351C41.7568 18.9189 42.0541 18.5135 42.1081 18.1081C42.2162 17.1081 43.0271 14.5135 43.4054 14.0541C43.5676 13.8378 43.7838 12.7568 43.8649 11.6757C44 10.1081 43.946 9.67567 43.6217 9.54054C43.4054 9.45946 43.2433 9.05405 43.2433 8.62162C43.2433 8.13513 43.1081 7.83783 42.8919 7.83783C42.6757 7.83783 42.2973 7.37837 42 6.78378C41.6216 5.97297 41.1622 5.59459 39.946 5.02702C38.5406 4.35135 38.2162 4.29729 36.4865 4.48648C35.1622 4.62162 34.5946 4.56756 34.5946 4.35135C34.5946 4.13513 31.7027 4.05405 24.0541 4.05405C14.5676 4.05405 13.5135 4.1081 13.5135 4.48648C13.5135 4.83783 13.2973 4.89189 12.2433 4.75675C11.5135 4.64864 10.2162 4.51351 9.32434 4.43243C8.43245 4.35135 7.62164 4.13513 7.51353 3.94594C7.3784 3.75675 7.29732 3.81081 7.29732 4.08108C7.29732 4.32432 7.10813 4.59459 6.89191 4.7027C6.67569 4.78378 6.4865 5.1081 6.4865 5.4054C6.4865 5.75675 6.29732 5.94594 5.94596 5.94594C5.59461 5.94594 5.40542 6.13513 5.40542 6.48648C5.40542 6.83783 5.21623 7.02702 4.86488 7.02702C4.35137 7.02702 4.32434 7.21621 4.32434 10.6216C4.32434 14.0811 4.75677 16.7027 5.43245 17.4324C5.56759 17.5676 5.67569 17.8919 5.67569 18.1622C5.67569 18.4324 5.86488 18.6486 6.0811 18.6486C6.29732 18.6486 6.4865 18.7568 6.4865 18.9189C6.4865 19.2162 8.64867 21.3513 8.97299 21.3513C9.0811 21.3513 9.18921 21.5405 9.18921 21.7568C9.18921 22 9.43245 22.1622 9.83786 22.1622C10.1892 22.1622 10.5406 22.3513 10.6487 22.5676C10.7297 22.7838 10.946 22.973 11.1622 22.973C11.3514 22.973 11.8108 23.2703 12.1622 23.6486C12.5135 24.027 12.946 24.3243 13.1352 24.3243C13.5135 24.3243 13.7838 24.9189 13.7838 25.8378C13.7838 26.1892 14 26.7027 14.2703 27C16.2162 29.0811 16.6757 29.6486 16.8379 30.027C16.9189 30.3243 17.4054 30.5405 18.1622 30.6216C18.8108 30.7027 19.7298 30.8649 20.2162 30.9459L21.0811 31.1351V34.4865V37.8108L19.1892 38C18.1622 38.0811 17.2973 38.2973 17.2973 38.4324C17.2973 38.8378 16.1352 39.7027 15.6216 39.7297C15.2162 39.7297 15.1352 39.973 15.1352 41.054V42.3513L12.8649 42.5135C11.5946 42.5946 10.3514 42.8108 10.0541 43C9.29732 43.4865 8.64867 44.6757 8.64867 45.6486V46.4865H23.6487H38.6487V45.3243V45.3243Z" fill="black"/>
<path d="M10.4866 19.9459C9.97306 19.4595 9.37846 18.7297 9.10819 18.3243C8.86495 17.9189 8.35144 17.5135 8.00009 17.4054C6.89198 17.1351 6.48657 15.6216 6.48657 11.8919C6.48657 9.18918 6.56765 8.64864 6.89198 8.64864C7.16225 8.64864 7.29738 8.37837 7.29738 7.83783C7.29738 6.72972 8.13522 6.35134 10.1082 6.59458C10.946 6.70269 11.6217 6.91891 11.6217 7.05404C11.6217 7.18918 11.8649 7.29729 12.1622 7.29729C13.1082 7.29729 13.2433 8.13512 13.2433 14.5676V20.8108H12.3244C11.6487 20.8108 11.1352 20.5676 10.4866 19.9459Z" fill="black"/>
<path d="M34.0541 14.5676V8.32435L34.973 7.40543C35.8379 6.54057 36 6.48651 37.6487 6.48651H39.3784L39.5676 8.32435C39.6757 9.32435 39.7297 11.2162 39.7027 12.5676C39.6757 14.1352 39.7838 15.0271 39.973 15.0811C40.1351 15.1352 40.2703 15.6216 40.2703 16.1892C40.2703 17.6487 38.946 19.1892 37.6757 19.1892C36.8919 19.1892 36.7568 19.2703 36.7568 19.8379C36.7568 20.5676 36.3243 20.8108 34.973 20.8108H34.0541V14.5676Z" fill="black"/>
<path d="M38.3784 43.7838C38.3784 43.4865 38.1892 43.2432 37.973 43.2432C37.7298 43.2432 37.5676 42.973 37.5676 42.5405C37.5676 42.027 37.6757 41.8649 37.946 41.973C38.1622 42.0541 38.4055 42 38.4865 41.8108C38.5406 41.6216 38.6217 41.7568 38.6217 42.0541C38.6487 42.3784 38.8379 42.7838 39.0541 42.973C39.6487 43.4595 39.5676 44.3243 38.919 44.3243C38.5676 44.3243 38.3784 44.1351 38.3784 43.7838V43.7838Z" fill="#090600"/>
<path d="M32.2974 41.3514C32.1893 40.7568 32.0001 40.2703 31.865 40.2703C31.7298 40.2703 31.6217 40.027 31.6217 39.7297C31.6217 39.4324 31.4325 39.1892 31.2163 39.1892C31.0001 39.1892 30.8109 39.0811 30.8109 38.973C30.8109 38.8378 30.3244 38.5946 29.7298 38.4054C28.6758 38.1081 28.1893 37.2973 29.0541 37.2973C29.2704 37.2973 29.4595 37.1892 29.4595 37.027C29.4595 36.1081 31.7839 37.3514 31.9731 38.3784C32.1082 38.9189 32.2974 39.0811 32.7568 39.0811C33.2704 39.0541 33.3785 39.1892 33.3244 39.8108C33.2974 40.2973 33.4055 40.5405 33.6758 40.5405C34.1352 40.5405 34.1352 40.6757 33.7839 41.3784C33.5406 41.8108 33.5947 41.8919 34.0541 41.8919C34.3514 41.8919 34.5947 42.027 34.5947 42.1622C34.5947 42.3243 34.1082 42.4324 33.5406 42.4324C32.5136 42.4324 32.4866 42.4054 32.2974 41.3514V41.3514Z" fill="#090600"/>
<path d="M14.3243 40.5405C14.3243 40.2432 14.2162 40 14.0811 40C13.6757 40 13.4865 39.1351 13.8108 38.7568C14 38.5135 14.2973 38.4865 14.7027 38.6216C15.1351 38.8108 15.4595 38.7027 15.946 38.3243C16.5405 37.8378 16.5676 37.7568 16.1351 37.5405C15.4595 37.1351 15.5405 36.4054 16.2162 36.6216C16.5405 36.7297 16.946 36.6757 17.1622 36.4865C17.4324 36.2703 17.6216 36.3243 17.9189 36.7838C18.1622 37.0811 18.4595 37.2703 18.6216 37.1622C18.8108 37.0811 18.9189 37.2162 18.9189 37.5135C18.9189 38.0811 17.7568 38.6486 16.5946 38.6486C16.0811 38.6486 15.946 38.7838 15.946 39.4054C15.946 39.8108 15.7568 40.3513 15.5676 40.6216C15.0811 41.2432 14.3243 41.2162 14.3243 40.5405V40.5405Z" fill="#090600"/>
<path d="M16.4865 31.4865C16.2703 31.2432 15.973 30.7567 15.8108 30.4324C15.6216 30.054 15.3243 29.8919 14.9189 29.9459C14.5946 30 14.3243 29.8919 14.3243 29.7567C14.3243 29.5946 14.4595 29.4594 14.6216 29.4594C14.8379 29.4594 14.8379 29.3243 14.5946 29.054C14.2973 28.7027 14.3784 28.6486 15.1081 28.6486C15.7568 28.6486 15.946 28.7567 15.946 29.1892C15.946 29.5946 16.1352 29.7297 16.6216 29.7297C17 29.7297 17.2973 29.8648 17.2973 30C17.2973 30.1621 17.5406 30.2702 17.8379 30.2702C18.1892 30.2702 18.3784 30.4594 18.3784 30.8108C18.3784 31.1892 18.1892 31.3513 17.7297 31.3513C17.3784 31.3513 17.027 31.4865 16.973 31.6486C16.9189 31.8378 16.7297 31.7838 16.4865 31.4865Z" fill="#090600"/>
<path d="M27.5676 31.3513C27.5676 30.8919 27.7568 30.8108 28.7838 30.8108C29.4595 30.8108 30.0001 30.9459 30.0001 31.0811C30.0001 31.2432 29.8109 31.3513 29.5947 31.3513C29.3784 31.3513 29.1892 31.4865 29.1892 31.6216C29.1892 31.7838 28.8379 31.8919 28.3784 31.8919C27.7568 31.8919 27.5676 31.7838 27.5676 31.3513Z" fill="#090600"/>
<path d="M31.0812 29.8919C31.0812 29.1351 31.865 28.3784 32.6758 28.3784C33.1623 28.3784 33.2433 28.4865 33.0812 28.973C32.8379 29.7567 32.4325 30.1351 31.7028 30.3243C31.1893 30.4594 31.0812 30.3784 31.0812 29.8919V29.8919Z" fill="#090600"/>
<path d="M13.6757 27.973C13.5946 27.7568 13.2703 27.5676 12.973 27.5676C12.4055 27.5676 12.2163 26.8649 12.7568 26.7028C13.1622 26.5676 12.8109 25.1352 12.3514 25.1352C12.1352 25.1352 11.7028 24.8379 11.3514 24.4865C11.0271 24.1082 10.3784 23.7298 9.91897 23.6217C9.29735 23.4865 9.21627 23.4055 9.48654 23.1892C9.75681 23 9.48654 22.973 8.72978 23.0811C7.59464 23.2433 7.08113 22.8649 7.97302 22.5406C8.3514 22.3784 8.32437 22.3244 7.91897 22C7.6487 21.8109 7.21627 21.6217 6.97302 21.6217C6.72978 21.6217 6.43248 21.4865 6.32437 21.2973C6.18924 21.0811 6.27032 21.0541 6.62167 21.1892C7.10816 21.3784 7.10816 21.3514 6.62167 20.8109C6.3514 20.5136 5.946 20.2703 5.70275 20.2703C5.13518 20.2703 4.56762 19.3244 4.75681 18.7838C4.89194 18.4865 4.75681 18.2973 4.3514 18.1892C3.78383 18.0541 3.54059 17.5676 4.02708 17.5676C4.16221 17.5676 4.21627 17.3244 4.13518 17.0271C4.0541 16.7298 3.75681 16.4865 3.48654 16.4865C3.18924 16.4865 2.97302 16.2973 2.97302 16.0541C2.97302 15.7568 3.10816 15.6757 3.40546 15.7838C3.72978 15.919 3.78383 15.8109 3.6487 15.3784C3.48654 14.919 3.56762 14.8379 3.97302 14.919C4.29735 14.973 4.48654 15.2973 4.54059 15.8109C4.59464 16.2703 4.81086 16.7298 5.02708 16.8379C5.24329 16.946 5.40546 17.2163 5.40546 17.4325C5.40546 17.6487 5.70275 18.1352 6.08113 18.5406C6.45951 18.946 6.75681 19.4865 6.75681 19.7298C6.75681 20.0271 7.02708 20.2703 7.43248 20.3784C7.86491 20.4865 8.10816 20.7298 8.10816 21.0541C8.10816 21.4325 8.37843 21.6217 9.0541 21.7298C9.56762 21.8379 10 22 10 22.1082C10 22.2163 10.7838 22.5406 11.7568 22.8109L13.5136 23.2973V24.5136C13.5136 25.2163 13.6757 25.8919 13.919 26.1082C14.1352 26.3514 14.3244 26.946 14.3244 27.4595C14.3244 28.4055 13.973 28.7028 13.6757 27.973V27.973Z" fill="#090600"/>
<path d="M33.2433 27.3243C33.2433 26.8919 33.4325 26.1081 33.6487 25.5946C33.8649 25.0541 34.0541 24.3243 34.0541 23.973C34.0541 23.4865 34.2973 23.2703 35.3514 22.8919C36.0541 22.6486 37.0541 22.4324 37.5676 22.4324C38.4055 22.4595 38.4595 22.4865 38.0541 22.8108C37.7838 23 37.5676 23.2973 37.5676 23.4324C37.5676 23.5676 37.3244 23.9189 37.0271 24.1892C36.5136 24.6486 36.4595 24.6486 36 24.2432C35.4054 23.7027 35.1352 23.8919 35.1352 24.8649C35.1352 25.2432 35 25.7027 34.8109 25.8919C34.5946 26.1081 34.5946 26.2973 34.8379 26.5946C35.2433 27.0811 35 27.5946 34.4595 27.4054C34.2433 27.2973 33.973 27.4324 33.8919 27.6757C33.6217 28.3784 33.2433 28.1622 33.2433 27.3243V27.3243Z" fill="#090600"/>
<path d="M39.1892 21.4865C39.1892 20.9189 39.3243 20.8108 40 20.8108C40.7297 20.8108 40.8108 20.7297 40.8108 19.973C40.8108 19.4594 41.0541 18.8648 41.4325 18.5135C42.4595 17.4594 42.7027 17.0811 42.7027 16.4865C42.7027 16.1351 42.8919 15.9459 43.2433 15.9459C43.5676 15.9459 43.7027 16.0811 43.6216 16.3243C43.5406 16.5405 43.5946 16.7838 43.7568 16.8919C43.9189 16.9729 44.0541 17.1892 44.0541 17.3513C44.0541 17.5405 43.8919 17.5135 43.6487 17.2973C43.4325 17.1081 43.2433 17.054 43.2162 17.1892C43.1892 17.3243 43.1622 17.8378 43.1081 18.3243C43.027 19.2702 42.5676 20 42.027 20C41.8379 20 41.3243 20.4054 40.8919 20.8919C39.8108 22.1351 39.1892 22.3513 39.1892 21.4865Z" fill="#090600"/>
<path d="M9.81093 19.8649C9.51363 19.6486 9.18931 19.1622 9.0812 18.8108C8.97309 18.4054 8.70282 18.1081 8.29742 18.0541C7.7839 17.973 7.70282 17.7838 7.62174 16.7568C7.56769 15.7297 7.62174 15.6216 7.89201 15.973C8.0812 16.2162 8.51363 16.4865 8.86498 16.5946C9.18931 16.7027 9.67579 17.1351 9.91904 17.5135C10.1893 17.9189 10.7839 18.6216 11.2704 19.1081C11.7569 19.5676 12.1623 20.027 12.1623 20.1081C12.1623 20.4324 10.3515 20.2432 9.81093 19.8649Z" fill="#090600"/>
<path d="M35.5406 19.8378C35.919 19.5405 35.973 19.3513 35.7568 19.2703C35.2973 19.1081 35.3244 18.7838 35.8108 18.2703C36.1081 17.973 36.4325 17.9459 37 18.1081C37.5135 18.2432 37.8919 18.2162 38.0811 18.027C38.2973 17.8108 38.3784 17.973 38.3784 18.5946C38.3784 19.2703 38.2703 19.4594 37.8379 19.4594C37.5406 19.4594 37.2973 19.6486 37.2973 19.8649C37.2973 20.1621 37 20.2703 36.1622 20.2703C35.0541 20.2432 35.0271 20.2432 35.5406 19.8378V19.8378Z" fill="#090600"/>
<path d="M34.6757 18.9189C34.6757 18.2432 34.7297 17.973 34.7838 18.3243C34.8378 18.6487 34.8378 19.1892 34.7838 19.5405C34.7297 19.8649 34.6757 19.5946 34.6757 18.9189Z" fill="#090600"/>
<path d="M39.3514 16.3513C39.4596 16.1081 39.3514 15.9459 39.0812 15.9459C38.7298 15.9459 38.6487 15.4865 38.6758 12.6486C38.6758 10.8108 38.6487 8.86485 38.5947 8.29728L38.5136 7.27026L37.3785 7.40539C36.3244 7.5135 36.2163 7.48647 36.2163 6.97296C36.2163 6.45945 36.3244 6.43242 37.892 6.59458C40.1352 6.86485 40.5406 7.10809 40.5406 8.24323C40.5406 8.75674 40.4325 9.18918 40.2704 9.18918C40.1082 9.18918 40.0001 10.1351 40.0001 11.4865C40.0001 12.8378 40.1082 13.7838 40.2704 13.7838C40.4325 13.7838 40.5406 14.4594 40.5406 15.2703C40.5406 16.6757 40.5136 16.7567 39.865 16.7567C39.3785 16.7567 39.2433 16.6486 39.3514 16.3513V16.3513Z" fill="#090600"/>
<path d="M43.3244 13.5946C43.3784 12.3513 43.2703 10.4054 43.0271 8.86485C42.6487 6.37836 42.5946 6.24323 41.9189 6.16215C41.3244 6.10809 41.1892 5.9189 41.1352 5.16215C41.0541 4.35134 41.1081 4.27025 41.4325 4.56755C41.7027 4.78377 41.8919 4.8108 42.0271 4.59458C42.3244 4.10809 42.7568 4.29728 42.6757 4.94593C42.6216 5.27025 42.8108 5.9189 43.0541 6.35134C43.2973 6.8108 43.4865 6.99998 43.5135 6.83782C43.5135 6.64863 43.6757 6.48647 43.8919 6.48647C44.1892 6.48647 44.2433 6.72971 44.1352 7.45944C44 8.24323 44.0811 8.48647 44.5676 8.83782C45.0271 9.13512 45.1352 9.40539 45.0271 9.89188C44.919 10.2703 44.7838 11.4054 44.7298 12.4594C44.6217 14.2432 44.0271 15.6486 43.4054 15.6757C43.2973 15.6757 43.2433 14.7297 43.3244 13.5946V13.5946Z" fill="#090600"/>
<path d="M6.48657 9.32429C6.48657 8.81077 6.62171 8.37834 6.75684 8.37834C6.919 8.37834 7.02711 8.1351 7.02711 7.8378C7.02711 7.40537 7.2163 7.29726 7.83792 7.29726C8.37846 7.29726 8.64873 7.16213 8.64873 6.89186C8.64873 6.59456 8.97306 6.48645 10.0271 6.48645C11.919 6.48645 12.4325 6.81077 12.4325 8.05402C12.4055 8.86483 12.3514 8.97294 12.1352 8.59456C12.0001 8.32429 11.6217 8.10807 11.3514 8.10807C11.0541 8.10807 10.8109 7.97294 10.8109 7.81077C10.8109 7.67564 10.5947 7.56753 10.3514 7.62159C10.0812 7.64861 9.70279 7.59456 9.54063 7.48645C9.35144 7.37834 8.94603 7.40537 8.62171 7.56753C8.18927 7.81077 8.10819 8.05402 8.24333 8.56753C8.35144 9.08105 8.27036 9.27023 7.83792 9.37834C7.54063 9.45942 7.29738 9.70267 7.29738 9.89186C7.29738 10.1081 7.10819 10.2702 6.89198 10.2702C6.62171 10.2702 6.48657 9.97294 6.48657 9.32429Z" fill="#090600"/>
<path d="M3.51351 8.1081C3.51351 7.8108 3.40541 7.56756 3.24324 7.56756C2.83784 7.56756 2.91892 6.59459 3.37838 6.21621C3.59459 6.02702 3.97297 5.94594 4.18919 6.05405C4.40541 6.13513 4.59459 6.08107 4.59459 5.97297C4.59459 5.83783 4.45946 5.67567 4.27027 5.62161C4.08108 5.54053 4.02703 5.24324 4.16216 4.78378C4.2973 4.24324 4.51351 4.05405 4.97297 4.05405C5.97297 4.05405 6.48649 3.78378 6.48649 3.24324C6.48649 2.32432 7.13513 2.13513 7.91892 2.83783C8.2973 3.21621 8.75675 3.51351 8.91892 3.51351C9.05405 3.51351 9.18919 3.7027 9.18919 3.91891C9.18919 4.29729 7.05405 5.4054 6.32432 5.4054C6.10811 5.4054 5.94595 5.64864 5.94595 5.94594C5.94595 6.24324 5.75676 6.56756 5.54054 6.64864C5.32432 6.75675 5.13513 6.97297 5.13513 7.18918C5.13513 7.4054 5.02703 7.56756 4.86486 7.56756C4.72973 7.56756 4.59459 7.8108 4.59459 8.1081C4.59459 8.45945 4.40541 8.64864 4.05405 8.64864C3.7027 8.64864 3.51351 8.45945 3.51351 8.1081V8.1081Z" fill="#090600"/>
<path d="M34.0541 4.48649C34.0541 4.24325 33.8109 4.05406 33.5136 4.05406C33.2163 4.05406 32.973 3.86487 32.973 3.64865C32.973 3.43244 33.1622 3.24325 33.3784 3.24325C33.5946 3.24325 33.7838 3.08109 33.7838 2.86487C33.7838 2.64865 33.919 2.37838 34.0811 2.2973C34.4325 2.05406 35.4055 2.91892 35.4055 3.45947C35.4055 3.70271 35.5676 3.78379 35.8379 3.67568C36.1622 3.56757 36.2433 3.67568 36.1622 4.13514C36.1082 4.62163 35.8919 4.75676 35.0811 4.81082C34.2973 4.86487 34.0541 4.81082 34.0541 4.48649V4.48649Z" fill="#090600"/>
<path d="M31.8919 39.9999C31.8919 39.3242 31.7838 39.1891 31.2162 39.1891C30.8378 39.1891 30.5405 39.081 30.5405 38.9188C30.5405 38.7837 30.3514 38.6485 30.1351 38.6485C29.8919 38.6485 29.7297 38.4053 29.7297 37.9999C29.7297 37.2972 30.4865 37.1621 30.8919 37.7837C31.027 37.9729 31.2162 38.0539 31.3243 37.9999C31.4324 37.9188 31.7297 38.2161 32 38.6756C32.2432 39.108 32.6216 39.4593 32.7838 39.4593C32.973 39.4593 33.1081 39.7566 33.1081 40.135C33.1081 40.6485 32.973 40.8107 32.5135 40.8107C32 40.8107 31.8919 40.6485 31.8919 39.9999Z" fill="#100B00"/>
<path d="M16.8919 31.081C16.4594 30.9729 16.1892 30.8648 16.3243 30.8378C16.4865 30.8378 16.3513 30.6216 16.054 30.4053C15.5675 30.054 15.6216 30.027 16.7027 29.9999C17.7297 29.9999 17.8378 30.054 17.8378 30.6756C17.8378 31.054 17.8108 31.3243 17.7838 31.3243C17.7297 31.2972 17.3513 31.1891 16.8919 31.081Z" fill="#100B00"/>
<path d="M8.91899 22.7837C8.70277 22.7027 8.29737 22.4054 8.00007 22.1081C7.48655 21.6216 7.48655 21.6216 8.59466 21.6216C9.62169 21.6216 9.7298 21.6756 9.7298 22.2973C9.7298 22.9729 9.62169 23.054 8.91899 22.7837Z" fill="#100B00"/>
<path d="M41.3513 19.4594C41.3513 18.2432 41.8919 17.2972 42.5946 17.2972C43.1621 17.2972 43.1892 17.3783 42.9729 18.1351C42.8378 18.5945 42.4054 19.2702 42.027 19.5945L41.3513 20.2432V19.4594Z" fill="#100B00"/>
<path d="M36.0811 19.5675C36.4595 19.2702 36.5135 19.081 36.2973 19C35.6487 18.7567 35.946 18.3243 36.7027 18.4054C37.1081 18.4594 37.5946 18.4054 37.7838 18.2702C38.0541 18.1081 38.1352 18.2702 38.0541 18.9459C37.973 19.8378 37.9189 19.8648 36.7568 19.9459C35.5946 20 35.5676 19.9729 36.0811 19.5675Z" fill="#100B00"/>
<path d="M8.56761 18.973C8.29734 18.6757 8.10815 18.027 8.10815 17.4054C8.13518 16.5676 8.18924 16.4595 8.40545 16.8108C8.54059 17.0541 8.83788 17.2162 9.0541 17.1351C9.29734 17.027 9.56761 17.2432 9.78383 17.7568C9.94599 18.1622 10.2703 18.7297 10.4865 19C10.8649 19.4324 10.8109 19.4595 9.94599 19.4595C9.37842 19.4595 8.83788 19.2703 8.56761 18.973V18.973Z" fill="#100B00"/>
<path d="M39.6216 15.8108C39.7297 15.5676 39.6216 15.4054 39.3514 15.4054C38.7568 15.4054 38.8108 14.9459 39.4054 14.7838C39.7297 14.7027 39.7568 14.6486 39.4595 14.6216C39.1351 14.5946 39.0541 14.0811 39.1081 11.5946C39.1351 9.59459 39.2703 8.51351 39.4595 8.37838C39.7027 8.21621 39.6487 8.08108 39.2973 7.86486C38.8378 7.62162 38.8919 7.59459 39.6487 7.56757C40.8919 7.56757 41.0811 8.13513 41.0811 11.7297C41.0811 15.1622 40.8378 16.2162 40.027 16.2162C39.6487 16.2162 39.5135 16.0811 39.6216 15.8108V15.8108Z" fill="#100B00"/>
<path d="M43.2433 11.0811C43.2433 10.1892 43.3244 10 43.7838 10C44.2433 10 44.3244 10.1892 44.3244 11.0811C44.3244 11.973 44.2433 12.1622 43.7838 12.1622C43.3244 12.1622 43.2433 11.973 43.2433 11.0811Z" fill="#100B00"/>
<path d="M6.48645 9.21621C6.48645 7.94594 6.75672 7.56757 7.62159 7.56757C8.32429 7.56757 8.37834 7.62162 8.10807 7.97297C7.94591 8.18919 7.86483 8.48648 7.97294 8.64865C8.05402 8.78378 7.94591 9 7.72969 9.08108C7.48645 9.16216 7.29726 9.4054 7.29726 9.62162C7.29726 9.83784 7.10807 10 6.89186 10C6.62159 10 6.48645 9.72973 6.48645 9.21621Z" fill="#100B00"/>
<path d="M3.70271 7.67563C3.78379 7.43239 3.70271 7.13509 3.48649 6.99995C3.1892 6.81077 3.21622 6.75671 3.64866 6.75671C4.29731 6.72968 5.40541 5.35131 4.91893 5.18914C4.72974 5.13509 4.5946 4.91887 4.5946 4.70266C4.5946 4.43239 4.91893 4.35131 5.67568 4.37833C6.54055 4.40536 6.75676 4.51347 6.75676 4.91887C6.75676 5.59455 6.13514 6.21617 5.43244 6.21617C4.97298 6.21617 4.86487 6.37833 4.86487 7.16212C4.86487 7.99995 4.78379 8.10806 4.1892 8.10806C3.70271 8.10806 3.56758 7.99995 3.70271 7.67563Z" fill="#100B00"/>
<path d="M42.7028 6.97296C42.7298 5.89188 42.7568 5.83783 43.0541 6.43242C43.2433 6.75674 43.4865 6.94593 43.5947 6.86485C43.7028 6.75674 43.7838 6.99999 43.7838 7.37837C43.7838 7.91891 43.6487 8.1081 43.2433 8.1081C42.7838 8.1081 42.7028 7.91891 42.7028 6.97296Z" fill="#100B00"/>
<path d="M9.86489 39.3243L9.05408 38.9729L10.3784 38.9459C11.5135 38.9188 11.6487 38.9729 11.3514 39.3243C10.946 39.8107 10.8919 39.8107 9.86489 39.3243Z" fill="#0E0E0E"/>
<path d="M12.4325 37.8919C12.4325 37.7837 12.946 37.1892 13.5406 36.6216C14.1622 36.027 14.5406 35.7837 14.3784 36.081C14.0541 36.7027 12.4325 38.2162 12.4325 37.8919Z" fill="#0E0E0E"/>
<path d="M30.5406 34.8649C30.5406 34.5406 30.7569 34.5406 31.4866 34.8649C31.9731 35.0811 31.9461 35.1081 31.2974 35.1081C30.865 35.1352 30.5406 35.027 30.5406 34.8649Z" fill="#0E0E0E"/>
<path d="M32.0812 33.054C31.7298 32.7297 31.892 32.1351 32.3785 31.973C32.6217 31.8649 33.1082 31.5135 33.4325 31.1621C34.0271 30.5405 35.1352 30.2973 35.1352 30.7838C35.1352 31.054 32.7298 33.2432 32.4325 33.2432C32.3244 33.2432 32.1622 33.1622 32.0812 33.054V33.054Z" fill="#0E0E0E"/>
<path d="M13.8379 32.3783C13.4055 31.9459 13.4325 31.6216 13.892 31.6216C14.4055 31.6216 14.6217 31.9729 14.3514 32.3783C14.2163 32.6216 14.0811 32.6216 13.8379 32.3783V32.3783Z" fill="#0E0E0E"/>
<path d="M11.5135 29.8108C11.1081 29.1892 10.8108 28.5135 10.8919 28.3243C10.973 28.1081 11.1352 28.2702 11.2973 28.7027C11.4595 29.0811 11.7838 29.5405 12.0271 29.6756C12.2973 29.8108 12.4325 30.1351 12.3784 30.4324C12.2973 30.8378 12.1352 30.7297 11.5135 29.8108Z" fill="#0E0E0E"/>
<path d="M35.1622 30.2972C34.8379 30.081 34.8379 29.9729 35.1081 29.6216C35.4865 29.1621 36.2163 29.027 36.2163 29.4054C36.2163 29.9459 35.5136 30.5135 35.1622 30.2972Z" fill="#0E0E0E"/>
<path d="M7.48655 25.2162C7.16223 24.9189 7.27033 24.5945 7.70277 24.5945C7.91898 24.5945 8.10817 24.7837 8.10817 24.9999C8.10817 25.4324 7.78385 25.5405 7.48655 25.2162Z" fill="#0E0E0E"/>
<path d="M5.29736 23.6216C4.89195 23.2432 4.59466 22.8919 4.67574 22.8108C4.89195 22.5675 6.18925 23.5946 6.21628 24C6.21628 24.4324 6.21628 24.4324 5.29736 23.6216Z" fill="#0E0E0E"/>
<path d="M42.4595 22.7297C41.8919 22.3783 42.3244 21.6216 43.1082 21.6216C43.892 21.6216 43.973 21.9189 43.2974 22.5135C43.0001 22.7837 42.6757 22.8648 42.4595 22.7297Z" fill="#0E0E0E"/>
<path d="M3.81084 22.054C3.59462 21.8108 3.51354 21.5405 3.62165 21.4324C3.86489 21.1892 4.40544 21.7838 4.2703 22.1621C4.21625 22.3783 4.05408 22.3513 3.81084 22.054V22.054Z" fill="#0E0E0E"/>
<path d="M7.83789 45.6486C7.83789 43.9189 8.29735 42.7837 9.2433 42.1891C9.54059 42 10.7838 41.7837 12.0541 41.7027C13.4325 41.5946 14.3244 41.4324 14.3244 41.2432C14.3244 41.027 17.1082 40.9189 23.7568 40.8918C32.946 40.8108 33.1892 40.8378 33.3244 41.3513C33.4595 41.8378 33.7028 41.8918 35.7568 41.8918C38.0001 41.8918 38.0811 41.9189 38.7568 42.7297C39.3784 43.4324 39.4595 43.8108 39.4595 45.4324V47.2973H23.6487H7.83789V45.6486V45.6486Z" fill="#8E562E"/>
<path d="M42.6216 13.0811C42.3784 12.8378 42.3784 11.2973 42.5946 10.7027C42.7027 10.4595 43.0811 10.2703 43.4865 10.2703C44.2162 10.2703 44.2433 10.3243 44.2162 11.7027C44.1892 13 44.1351 13.1081 43.5135 13.1892C43.1351 13.2432 42.7297 13.1892 42.6216 13.0811V13.0811Z" fill="#D79C00"/>
<path d="M14.3242 41.1891C14.3242 40.4054 14.7567 39.4594 15.135 39.4594C15.2972 39.4594 15.4053 39.7567 15.4053 40.1351V40.8108H21.6215C26.7296 40.8108 27.8377 40.8648 27.8377 41.1891C27.8377 41.7837 26.9188 41.8918 20.4864 41.8918H14.3242V41.1891Z" fill="#EBAB00"/>
<path d="M30.2703 38.6216V37.5135L31.027 37.9729C31.9189 38.5405 32.4595 39.1892 32.2703 39.4865C32.1892 39.6216 31.7027 39.7297 31.1892 39.7297C30.2973 39.7297 30.2703 39.7027 30.2703 38.6216V38.6216Z" fill="#EBAB00"/>
<path d="M26.7567 31.3513V30H27.9729C28.8648 30 29.1891 29.8919 29.1891 29.5946C29.1891 29.3243 29.4594 29.1892 30 29.1892C30.6216 29.1892 30.8108 29.0811 30.8108 28.6486C30.8108 28.1892 31 28.1081 32.1891 28.1081C33.5675 28.1081 33.5675 28.1081 33.1891 28.7297C32.4864 29.7838 30.5405 31.0811 28.8918 31.5676C28.027 31.8108 27.2973 32.1892 27.2973 32.3784C27.2973 32.5405 27.1891 32.7027 27.027 32.7027C26.8918 32.7027 26.7567 32.1081 26.7567 31.3513V31.3513Z" fill="#EBAB00"/>
<path d="M15.7026 30.1081C14.6215 29.2162 14.6485 28.9189 15.8107 28.9189C16.7026 28.9189 16.7567 28.9729 16.7567 29.8648C16.7567 30.3783 16.7026 30.8108 16.6485 30.8108C16.5675 30.8108 16.1621 30.4864 15.7026 30.1081Z" fill="#EBAB00"/>
<path d="M33.7837 25.027C33.7837 24.2162 33.8918 24.054 34.3513 24.054C34.8107 24.054 34.8918 24.1892 34.8107 24.9189C34.7567 25.5135 34.5675 25.8378 34.2702 25.8919C33.8648 25.9729 33.7837 25.7837 33.7837 25.027V25.027Z" fill="#EBAB00"/>
<path d="M8.64861 22.4865C7.70266 21.8919 6.75671 21.027 6.75671 20.7567C6.75671 20.6486 7.2432 20.5405 7.83779 20.5405C9.02698 20.5405 9.56752 21.1351 9.40536 22.2703C9.32428 22.8919 9.29725 22.8919 8.64861 22.4865V22.4865Z" fill="#EBAB00"/>
<path d="M38.9188 20.8108C38.9188 19.8108 38.9729 19.7297 40.0269 19.4595C40.6215 19.2973 41.3783 19.1892 41.6756 19.2432C42.1621 19.3243 42.108 19.4595 41.081 20.6216C39.6486 22.2432 38.9188 22.3243 38.9188 20.8108Z" fill="#EBAB00"/>
<path d="M37.8379 18.2162L39.0541 16.9999L39.1352 17.8378C39.2703 19.1891 39.0541 19.4594 37.7838 19.4594H36.6487L37.8379 18.2162V18.2162Z" fill="#EBAB00"/>
<path d="M4.72967 18.3783C4.51346 17.9459 4.18913 17.2702 4.054 16.8919C3.81075 16.2432 3.83778 16.2162 4.72967 16.2162H5.67562V17.7027C5.67562 19.3513 5.35129 19.5946 4.72967 18.3783Z" fill="#EBAB00"/>
<path d="M42.7297 13.4865C42.1081 13.2432 42.081 13.1622 42.2702 11.4054C42.3513 10.4054 42.4324 9.13513 42.4324 8.59459C42.4324 7.67567 42.5135 7.56757 43.1081 7.56757C43.4864 7.56757 43.7837 7.62162 43.7837 7.67567C43.7837 7.72973 43.9189 8.4054 44.054 9.18919C44.2973 10.4865 44.2702 10.6757 43.7837 11.1351C43.081 11.7838 43.1081 12.1622 43.8108 12.3513C44.1351 12.4595 44.2973 12.6486 44.2162 12.8919C44.1351 13.1081 44.054 13.4054 44.054 13.5405C44.054 13.8378 43.5675 13.8378 42.7297 13.4865V13.4865Z" fill="#EBAB00"/>
<path d="M34.135 9.27026C33.9188 9.18918 33.7837 8.64863 33.7837 7.9189V6.67566L34.9999 6.83782C35.7026 6.89188 36.2972 7.02701 36.4053 7.10809C36.5404 7.27025 34.8377 9.45945 34.5945 9.43242C34.5134 9.43242 34.2972 9.35134 34.135 9.27026V9.27026Z" fill="#EBAB00"/>
<path d="M34.3242 4.05404C34.3242 3.6216 34.4594 3.24323 34.5945 3.24323C34.7567 3.24323 34.8648 3.43241 34.8648 3.64863C34.8648 3.94593 34.9999 3.97295 35.5404 3.78377C36.135 3.54052 36.2161 3.59458 36.2161 4.18917C36.2161 4.78377 36.108 4.86485 35.2702 4.86485C34.4053 4.86485 34.3242 4.81079 34.3242 4.05404Z" fill="#EBAB00"/>
<path d="M14.4594 40.7567C14.8918 38.8108 16.5675 37.4594 19.027 37.1351L20.2702 36.9459V34.4324C20.2702 32.1081 20.2162 31.8919 19.7567 31.8919C18.8648 31.8919 15.9459 30.4865 15.9459 30.0811C15.9459 29.8648 15.8378 29.7567 15.7297 29.8378C15.4053 30.027 13.9459 28.4594 13.4053 27.3784C13.1621 26.8919 12.8918 25.973 12.8108 25.3243C12.6486 24.1621 12.6216 24.1351 11.108 23.6486C10.1351 23.3513 9.27021 22.8378 8.72967 22.2432C8.24318 21.7297 7.72967 21.3784 7.59453 21.4594C7.4594 21.5676 6.78372 21 6.10805 20.2162C5.1621 19.1351 4.8648 18.5675 4.8648 17.8919C4.8648 17.2162 4.7567 17 4.48643 17.1081C3.8648 17.3513 3.40534 14.8378 3.4594 11.2973C3.48643 8.72971 3.59453 7.9189 4.02697 7.08106C4.72967 5.70268 6.48643 4.16214 7.78372 3.78377C8.83778 3.45944 11.4053 3.5135 12.2432 3.89187C12.5675 4.05404 12.7026 3.99998 12.7026 3.67566C12.7026 3.29728 13.7837 3.24323 23.7837 3.24323C33.7837 3.24323 34.8648 3.29728 34.8648 3.67566C34.8648 3.99998 34.9999 4.05404 35.3513 3.89187C36.1621 3.5135 38.7026 3.45944 39.7567 3.75674C40.3243 3.9189 41.1621 4.37836 41.6216 4.78377C43.081 5.99998 44.3243 8.37836 43.5135 8.37836C43.2162 8.37836 43.1621 9.18917 43.4053 9.83782C43.4864 10.0811 43.7297 10.2703 43.9459 10.2703C44.5135 10.2703 44.4053 10.8378 43.7837 11C42.8378 11.2432 42.7567 12.7027 43.7026 12.7027C44.054 12.7027 44.108 12.973 43.9729 14.2973C43.7567 16.8378 41.8108 20.5135 40.8108 20.3513C40.5945 20.2973 40.2162 20.4054 39.9999 20.5405C39.6486 20.7838 39.6486 20.8378 39.9999 21.0811C40.3513 21.3243 40.3243 21.4054 39.8648 21.7838C39.1081 22.3784 37.081 23.3784 35.8918 23.7567C35.3243 23.9459 34.8648 24.2432 34.8378 24.4054C34.7837 25.6486 34.5405 26.4324 33.8378 27.6486C33.1621 28.8648 32.9459 29.054 32.3243 28.973C31.6216 28.8919 31.3513 29.2973 31.9729 29.5676C32.1891 29.6486 32.1621 29.8108 31.7837 30.1081C31.4324 30.4054 31.108 30.4324 30.6486 30.2703C30.2432 30.1081 29.9999 30.1081 29.9999 30.2703C29.9999 30.4324 30.1351 30.5405 30.2702 30.5405C30.4324 30.5405 30.5405 30.6486 30.5405 30.7838C30.5405 31.1892 29.4324 31.4324 29.108 31.1081C28.9459 30.9459 28.5405 30.8108 28.2162 30.8108C27.4864 30.8108 27.2972 31.6216 27.2972 34.8919V37.2973H28.5135C29.9729 37.2973 31.4053 37.9459 31.1891 38.4865C31.081 38.7567 31.1891 38.8378 31.5405 38.7567C31.9189 38.6486 32.1891 38.8919 32.6486 39.6757C33.8108 41.7567 34.3783 41.6216 23.7567 41.6216H14.2702L14.4594 40.7567V40.7567ZM26.5135 27.3243C27.054 27.2162 27.9189 26.6757 28.4594 26.1081C30.5945 23.973 31.054 22.0811 31.054 15.5405C31.054 10.054 30.8378 8.35133 30.1351 7.56755L29.6216 6.99998L29.081 7.56755C28.5405 8.10809 28.5135 8.40539 28.5135 15.8919V23.6486L27.8648 24.4054C27.4324 24.8648 26.8108 25.2162 26.1621 25.3243C25.5675 25.4054 24.8378 25.7027 24.5135 25.9459C23.9459 26.4324 23.9189 26.4324 24.4324 27C24.9999 27.6216 25.1351 27.6486 26.5135 27.3243V27.3243ZM12.4324 14.4324V8.86485L11.6486 8.08106C11.054 7.5135 10.5945 7.29728 9.8648 7.29728C9.13507 7.29728 8.67561 7.5135 8.08102 8.08106C7.32426 8.86485 7.29724 8.94593 7.29724 11.6757C7.29724 14.5946 7.62156 15.7567 8.94588 17.5946C9.37832 18.1892 11.9189 19.973 12.3783 20C12.4053 20 12.4324 17.4865 12.4324 14.4324V14.4324ZM36.7026 19.2162C38.108 18.4594 38.5945 17.8648 39.6486 15.6757C40.1351 14.6757 40.4594 10.5135 40.1621 9.29728C39.7297 7.67566 37.5945 6.75674 36.3513 7.67566C35.9999 7.9189 35.6216 7.97296 35.2162 7.81079C34.7297 7.64863 34.5945 7.67566 34.5945 7.97296C34.5945 8.18917 34.6756 8.37836 34.8108 8.37836C34.9189 8.37836 34.9729 11 34.9189 14.1892C34.8648 17.3784 34.9189 20 35.054 20C35.1621 19.973 35.9189 19.6216 36.7026 19.2162V19.2162Z" fill="#F6B200"/>
<path d="M23.5135 27.6486C22.4595 26.3243 23.3514 24.8108 25.3514 24.5135C26 24.4054 26.6216 24.054 27.0541 23.5946L27.7027 22.8378V15.1081C27.7027 7.81077 27.7297 7.32428 28.2162 6.78374C28.973 5.94591 30.4324 6.10807 31.1892 7.10807C31.7297 7.8378 31.7568 8.18915 31.7568 14.8108C31.7568 21.9459 31.6757 23.2162 31.1081 24.2702C30.946 24.5946 30.8649 24.8648 30.946 24.8648C31.1081 24.8648 30.3784 25.7837 29.2162 26.9729C28.2433 27.9729 27.1081 28.3513 25.2162 28.3783C24.3243 28.3783 23.973 28.2432 23.5135 27.6486Z" fill="#FFD370"/>
</g>
<defs>
<clipPath id="clip0">
<rect width="47.027" height="50" fill="white"/>
</clipPath>
</defs>
</svg>
