<svg width="50" height="50" viewBox="0 0 50 50" fill="none" xmlns="http://www.w3.org/2000/svg">
<path d="M9.24909 50H44.2624C44.2624 46.4638 45.0282 41.741 43.3426 38.552C40.709 33.5705 35.9331 32.4704 34.8473 26.2533C34.1424 22.2171 39.6856 16.3529 35.1285 13.561C35.6758 10.3888 35.8817 6.9758 34.1546 4.16017C30.9075 -1.13331 22.8754 -1.48623 19.3912 3.74092C17.4213 6.69575 18.466 9.4688 17.9252 12.6255C17.5514 14.8069 16.1501 15.9922 16.5669 18.4741C17.1815 22.1307 19.3322 22.453 18.4534 26.6627C17.2078 32.6317 12.1525 33.9525 9.80359 38.9471C8.41333 41.9032 9.24909 46.7553 9.24909 50Z" fill="black"/>
<path d="M28.6587 3.32544C25.4828 3.32585 17.1534 6.79615 21.2766 11.713C23.2305 14.0426 27.053 12.0536 28.2439 9.87013C29.3712 7.80334 28.9206 5.55313 28.6587 3.32544Z" fill="#757575"/>
<path d="M28.6587 3.32544C29.3255 9.00787 26.3311 13.9476 20.6665 11.1045C21.5418 14.052 23.4813 15.8494 26.3752 16.0177V18.4742H21.8083V21.7496H22.1888L26.3752 20.9308L25.9946 36.489C22.3959 36.489 15.1116 35.822 12.8646 39.355L26.3752 38.5361V47.1341H41.5984C41.5984 43.672 42.9883 39.0729 39.3149 37.7173C36.7186 39.8332 29.5854 38.5361 26.3752 38.5361L25.9946 36.489L37.7926 36.8984V36.489C32.7537 33.4461 31.7463 26.7021 31.3228 20.9308H26.3752V18.4742C28.1186 18.4742 31.3338 19.5846 32.8378 19.0241C36.6577 17.6001 31.9697 15.2058 30.181 15.1988C33.5925 11.3273 33.9868 5.5474 28.6587 3.32544Z" fill="#383838"/>
<path d="M26.3752 18.4741V16.0175C24.5035 15.8587 22.223 15.1278 20.3727 15.7383C18.9462 16.2091 18.9398 18.4626 20.3274 19.0239C21.6914 19.5754 24.7733 18.4741 26.3752 18.4741Z" fill="#757575"/>
<path d="M26.3752 18.4741V20.9307H31.3228V22.9778H31.7034L31.3228 18.4741H26.3752Z" fill="#1F1F1F"/>
<path d="M15.719 36.8983H26.3752V20.9306C25.2773 20.9306 23.385 20.5585 22.4712 21.3515C21.1609 22.4889 21.331 26.5963 20.8842 28.3003C19.87 32.1657 18.0744 34.0372 15.719 36.8983Z" fill="#757575"/>
<path d="M26.3752 36.8984V38.9455L40.2664 38.9455C39.9635 34.7645 29.3887 36.8984 26.3752 36.8984Z" fill="#1F1F1F"/>
<path d="M11.9132 47.1341H26.3752V38.7408H13.6258L12.5233 40.2361L11.9132 47.1341Z" fill="#757575"/>
</svg>
