<svg width="40" height="40" viewBox="0 0 40 40" fill="none" xmlns="http://www.w3.org/2000/svg">
<g clip-path="url(#clip0)">
<path d="M40 13.68C39.84 12.64 38.68 12.08 37.88 11.56C36.44 10.6 35.04 9.67998 33.6 8.71998C30.2 6.43998 26.76 4.15998 23.36 1.87998C22.56 1.35998 21.76 0.79998 20.96 0.27998C20.4 -0.12002 19.64 -0.12002 19.04 0.27998C16.76 1.79998 14.44 3.35998 12.16 4.87998L2.08002 11.6C1.20002 12.16 0.0400168 12.72 1.68316e-05 13.92C-0.0399832 15.24 1.68316e-05 16.6 1.68316e-05 17.92V24.32C1.68316e-05 25.48 -0.239983 26.84 0.840017 27.56C3.40002 29.32 6.00002 31 8.60002 32.72C11.8 34.84 15 37 18.2 39.12C19.08 39.72 19.96 40.36 21.04 39.64C21.96 39.04 22.84 38.44 23.76 37.84C27.32 35.48 30.88 33.08 34.44 30.72L38.4 28.08C38.64 27.92 38.92 27.76 39.16 27.56C39.72 27.16 39.96 26.6 39.96 25.92V14.92C40 14.48 40.04 14.08 40 13.68C40 13.64 40 13.76 40 13.68V13.68ZM21.72 4.91998L35.2 13.92L29.2 17.96L21.72 12.96V4.91998ZM18.28 4.91998V12.92L10.84 17.92L4.80002 13.92L18.28 4.91998V4.91998ZM3.44002 17.12L7.72002 20L3.44002 22.88V17.12ZM18.28 35.08L4.80002 26.08L10.8 22.04L18.24 27.04V35.08H18.28ZM20 24.08L13.92 20L20 15.92L26.08 20L20 24.08ZM21.72 35.08V27.08L29.16 22.08L35.16 26.12L21.72 35.08V35.08ZM36.56 22.88L32.28 20L36.6 17.12L36.56 22.88V22.88Z" fill="black"/>
</g>
<defs>
<clipPath id="clip0">
<rect width="40" height="40" fill="white"/>
</clipPath>
</defs>
</svg>
