<svg width="58" height="45" viewBox="0 0 50 41" fill="none" xmlns="http://www.w3.org/2000/svg">
<g clip-path="url(#clip0)">
<path d="M21.0963 40.2674C19.8129 39.9198 18.7166 39.2513 17.6738 38.1283C17.2995 37.754 16.8182 37.4331 16.5508 37.4331C15.2407 37.4331 13.8236 36.3636 9.4118 32.0053C6.84495 29.4652 4.6257 27.1657 4.46527 26.8716C4.30484 26.5775 4.09094 25.8021 3.98399 25.1337C3.87704 24.4652 3.63639 23.3422 3.44923 22.647C3.18185 21.6577 3.18185 21.0695 3.39575 20.2674C3.68987 19.1711 3.68987 19.1444 2.56688 18.0214C1.12303 16.6042 0.53479 15.3476 0.53479 13.8502C0.561528 12.2994 1.06955 11.4706 3.8503 8.36895C10.1872 1.36361 11.1765 0.534729 13.1284 0.534729C15.0802 0.534729 15.722 0.90906 18.0749 3.39569L20.2674 5.69516L21.2835 4.89302C22.8075 3.71655 23.8503 3.39569 25.6685 3.52938C26.9252 3.6096 27.5401 3.8235 28.476 4.49195C29.1444 4.97323 29.7327 5.34756 29.7861 5.34756C29.8396 5.34756 30.7754 4.43847 31.8449 3.31548C34.0375 1.06949 34.9466 0.534729 36.738 0.534729C38.8236 0.534729 39.5187 1.09623 44.4385 6.76468C46.9786 9.67911 49.1979 12.3529 49.3851 12.647C50.3476 14.3583 49.3851 16.1764 45.4011 20.2406L42.1391 23.5294L42.1123 25.4813C42.1123 28.0214 41.8449 28.3957 36.5508 33.6096C31.9519 38.1551 30.9091 38.8235 28.5027 38.8235C27.5401 38.8502 26.7113 38.9839 26.4706 39.1978C25.2674 40.2406 22.8075 40.7219 21.0963 40.2674V40.2674ZM24.4385 35.5615C25.6685 34.4117 26.631 34.1978 27.9412 34.8128C28.5027 35.0802 28.7968 35.0534 29.492 34.7059C29.9733 34.4652 30.5615 34.1978 30.8289 34.1176C31.0695 34.0374 31.2835 33.7433 31.2835 33.4759C31.2835 32.8877 33.3423 30.8288 34.0909 30.6952C34.3851 30.6417 34.6524 30.3743 34.7326 30.0802C34.8396 29.492 36.6043 27.5401 37.0321 27.5401C37.1925 27.5401 37.5669 27.0588 37.8877 26.4973C38.476 25.4545 38.476 25.4545 37.9679 24.7861C37.6738 24.4117 37.4332 23.7165 37.4332 23.2353C37.4332 22.4331 37.8343 21.9251 40.6952 19.0641C42.5134 17.246 44.1177 15.7754 44.2781 15.7754C44.7327 15.7754 45.4546 14.5454 45.4546 13.77C45.4546 13.3957 45.2941 13.1016 45.107 13.1016C44.7594 13.1016 43.3155 11.7647 43.3155 11.4438C43.3155 11.3636 42.754 10.7219 42.0321 9.99997C41.3369 9.27805 39.8663 7.67377 38.7433 6.44382L36.738 4.17109L35.5081 5.29409C34.8396 5.90906 34.1177 6.41708 33.877 6.41708C33.6097 6.41708 33.4225 6.7112 33.369 7.13901C33.3155 7.67377 33.1284 7.91441 32.7006 7.96788C32.2995 8.02136 32.0856 8.23526 32.0856 8.58286C32.0856 8.98393 31.8984 9.09088 31.2835 9.09088C30.8022 9.09088 30.4011 9.25131 30.3209 9.49195C30.2139 9.73259 29.8129 9.89302 29.3048 9.89302C28.6631 9.89302 28.2086 9.62564 27.4064 8.79676C25.5348 6.87163 24.8931 6.89837 22.8075 8.87698C21.7113 9.94649 21.6845 9.94649 20.1872 9.75933C18.7433 9.5989 18.6364 9.51869 16.3637 7.16575C15.107 5.85558 13.8503 4.65238 13.5829 4.51869C13.2086 4.30478 12.9145 4.49195 12.1123 5.40104C11.5508 6.04275 10.5348 7.13901 9.8396 7.86093C9.11768 8.58286 8.55618 9.22457 8.55618 9.30478C8.55618 9.35826 7.83425 10.2406 6.92516 11.2567C5.80217 12.5401 5.10698 13.1016 4.67917 13.1016C3.77008 13.1016 4.09094 13.9305 5.50805 15.2406C6.14976 15.8288 6.68452 16.4706 6.68452 16.6577C6.71126 17.1123 7.27276 17.7807 7.83425 17.9946C8.39575 18.2085 8.47597 19.9198 7.91447 20.2406C7.7273 20.3476 7.43319 20.7219 7.24602 21.0428C6.97864 21.5508 7.03212 21.7379 7.48666 22.1925C7.91447 22.6203 8.04816 23.0481 7.99468 23.7968C7.94121 24.4385 8.0749 25.0267 8.31554 25.3208C8.55618 25.5882 8.82356 26.016 8.90377 26.2834C9.01073 26.524 9.22463 26.7379 9.4118 26.7379C9.59896 26.7379 11.2567 28.262 13.1284 30.1069C16.2032 33.1818 16.5776 33.4759 17.6738 33.6096C18.6097 33.7433 19.1712 34.0641 20.4011 35.2139C22.2995 36.9518 22.861 37.0053 24.4385 35.5615V35.5615Z" fill="#070605"/>
<path d="M28.8235 35.9091C27.9144 35.6952 28.2888 35.0268 29.2781 35.0268C30 35.0268 30.2139 34.9198 30.2139 34.5455C30.2139 33.8235 31.0695 33.1551 31.9519 33.1551C32.5401 33.1551 32.6203 33.2353 32.3797 33.5027C32.2192 33.7166 32.1658 33.9572 32.2727 34.0374C32.4866 34.2781 31.5508 35.3209 31.2567 35.1604C31.1497 35.0802 30.6684 35.2407 30.1604 35.508C29.6791 35.8022 29.0642 35.9626 28.8235 35.9091V35.9091Z" fill="#120E02"/>
<path d="M16.524 34.4653C15.7218 34.0107 15.9892 33.6899 17.1122 33.6899C17.8876 33.6899 18.1817 33.7968 18.1817 34.091C18.1817 34.3049 18.0748 34.492 17.9411 34.492C17.8074 34.492 17.54 34.5455 17.3261 34.6257C17.1389 34.6792 16.7646 34.6257 16.524 34.4653Z" fill="#120E02"/>
<path d="M33.6898 31.3369C33.6898 30.508 34.4117 29.6791 35.1069 29.6791C35.3743 29.6791 35.5615 29.4652 35.5615 29.1444C35.5615 28.7433 35.7486 28.6096 36.2299 28.6096C36.738 28.6096 36.8984 28.4759 36.8984 28.0481C36.8984 27.2995 37.5134 26.738 38.3422 26.738C39.0107 26.738 39.0107 26.738 38.5561 27.5401C38.3155 27.9679 37.9946 28.3423 37.8342 28.3423C37.4064 28.3423 35.5615 30.3743 35.5615 30.8556C35.5615 31.0963 35.3476 31.3636 35.1069 31.4439C34.8396 31.5241 34.4117 31.7112 34.1711 31.8449C33.77 32.0588 33.6898 31.9786 33.6898 31.3369V31.3369Z" fill="#120E02"/>
<path d="M8.71653 27.5669C8.28872 27.3262 7.96787 27.0054 7.96787 26.8717C7.96787 26.7113 7.86091 26.4439 7.70049 26.2834C7.48658 26.0161 7.62027 25.9359 8.23525 25.9359C9.17107 25.9359 9.70583 26.4706 9.57214 27.353C9.49193 27.9679 9.46519 27.9679 8.71653 27.5669V27.5669Z" fill="#120E02"/>
<path d="M7.11233 19.4118C7.62035 19.0375 7.62035 19.0107 7.08559 18.8235C6.52409 18.6096 5.74869 17.7006 5.74869 17.246C5.74869 17.1123 5.56153 16.8449 5.34762 16.6578C5.02677 16.3904 5.10698 16.3369 5.90912 16.3102C7.21928 16.3102 8.2888 17.4332 8.2888 18.7968C8.2888 19.7326 8.23532 19.7861 7.43319 19.7861C6.63105 19.7861 6.60431 19.7594 7.11233 19.4118V19.4118Z" fill="#120E02"/>
<path d="M44.1176 16.3904C44.1176 15.4546 45.0801 14.4385 45.9357 14.4385C46.2566 14.4385 46.524 14.5188 46.524 14.6524C46.524 15 45.1336 16.8984 44.9999 16.738C44.893 16.6578 44.6791 16.7113 44.4651 16.8717C44.1978 17.1123 44.1176 17.0054 44.1176 16.3904Z" fill="#120E02"/>
<path d="M3.28872 13.984C3.18176 13.7166 3.02134 13.4225 2.88765 13.3423C2.4331 13.0214 2.9946 12.2995 3.71652 12.2995C4.11759 12.2995 4.57214 12.1658 4.7593 11.9786C4.99995 11.738 5.08016 11.8717 5.08016 12.5936C5.08016 14.0107 3.68979 15.0802 3.28872 13.984Z" fill="#120E02"/>
<path d="M45.1068 13.7166C44.9999 13.6364 44.9197 13.1284 44.9197 12.5936C44.9197 11.8717 44.9999 11.738 45.2405 11.9786C45.4277 12.1658 45.7753 12.2995 46.0159 12.2995C46.3368 12.2995 46.4437 12.4599 46.3368 12.8343C46.2566 13.1284 46.3368 13.369 46.4972 13.369C46.6576 13.369 46.7913 13.5027 46.7913 13.6364C46.7913 13.9305 45.3742 14.0107 45.1068 13.7166V13.7166Z" fill="#120E02"/>
<path d="M43.0481 10.5348C43.0481 9.65247 43.1016 9.59899 43.5026 9.91985C43.7433 10.1338 44.0107 10.2674 44.0909 10.2407C44.1711 10.2407 44.2246 10.3477 44.1711 10.4813C44.1443 10.6418 44.2513 10.9092 44.4117 11.1231C44.6524 11.4172 44.5722 11.4974 43.877 11.4974C43.1016 11.4974 43.0481 11.4439 43.0481 10.5348Z" fill="#120E02"/>
<path d="M19.0374 10.107C18.877 9.94655 18.7166 9.35831 18.7166 8.85029C18.7433 8.04815 18.77 7.96794 19.0107 8.36901C19.1711 8.60965 19.385 8.77008 19.5187 8.68986C19.6256 8.60965 20.0267 8.66313 20.401 8.79681C20.8556 8.98398 21.1497 8.95724 21.3636 8.74334C21.631 8.5027 21.6845 8.63639 21.6043 9.35831C21.524 10.2407 21.4706 10.2941 20.4545 10.3744C19.8395 10.4278 19.2246 10.2941 19.0374 10.107V10.107Z" fill="#120E02"/>
<path d="M28.6096 9.46524C28.6096 8.68984 28.6898 8.55615 28.9572 8.77006C29.2246 8.98396 29.385 8.93048 29.6524 8.50268C29.893 8.12834 30.1872 7.99466 30.6417 8.10161C31.3636 8.2353 31.5241 7.91444 30.8556 7.64706C30.1872 7.37968 30.7487 6.8984 31.6043 7.00535C32.4331 7.13904 32.9144 6.79145 32.246 6.52407C31.5775 6.25669 31.7647 5.93583 32.7005 5.74867C33.1551 5.64171 33.7166 5.42781 33.9037 5.26738C34.1978 5.02674 34.2513 5.18717 34.1711 6.04278C34.1176 6.81818 33.9305 7.13904 33.5027 7.35294C33.1551 7.48663 32.8877 7.72728 32.8877 7.86097C32.8877 7.99466 32.3797 8.60963 31.7647 9.25134C30.8021 10.2406 30.4545 10.4278 29.6257 10.4278C28.6364 10.4278 28.6096 10.4011 28.6096 9.46524Z" fill="#120E02"/>
<path d="M7.51326 8.9305C7.78064 8.58291 7.78064 8.47596 7.45978 8.26206C7.16566 8.07489 7.1924 8.02141 7.64695 8.02141C7.94106 8.02141 8.3154 7.88772 8.50256 7.70056C8.7432 7.45992 8.82342 7.59361 8.82342 8.36901C8.82342 9.30484 8.76994 9.35831 7.99454 9.35831C7.24588 9.35831 7.1924 9.30484 7.51326 8.9305V8.9305Z" fill="#120E02"/>
<path d="M11.8181 4.01071C12.0052 3.71659 12.3796 3.47595 12.6202 3.47595C12.9143 3.47595 13.1015 3.68986 13.1015 4.01071C13.1015 4.43852 12.9143 4.54547 12.2993 4.54547C11.5507 4.54547 11.5239 4.49199 11.8181 4.01071Z" fill="#120E02"/>
<path d="M6.76468 23.1016C5.96254 22.2192 5.93581 21.123 6.68447 21.123C7.35292 21.123 7.54008 21.5775 7.43313 22.8075L7.35292 23.7701L6.76468 23.1016V23.1016Z" fill="#D99600"/>
<path d="M37.754 23.0214C37.5401 22.8877 37.4332 22.4332 37.4866 21.8984C37.5401 21.123 37.6738 20.9893 38.3155 20.9091C38.877 20.8289 39.0375 20.6685 39.0375 20.1605C39.0375 19.5722 39.1444 19.5187 40.2407 19.5187C40.9091 19.5187 41.4439 19.6257 41.4439 19.7326C41.4439 19.8396 40.6952 20.6685 39.7861 21.5776C38.6364 22.7273 37.9947 23.1818 37.754 23.0214Z" fill="#D99600"/>
<path d="M43.5828 12.1925C43.5828 11.6845 43.4224 11.5241 42.8609 11.4439C42.1924 11.3637 42.1122 11.23 42.032 10.2407C41.9518 9.19788 41.8983 9.11766 41.0962 9.03745C40.294 8.95724 40.2405 8.87702 40.1603 7.83424C40.1069 7.19253 40.1871 6.68451 40.294 6.68451C40.5347 6.68451 45.7218 12.4064 45.7218 12.6738C45.7218 12.754 45.2405 12.8342 44.6523 12.8342C43.6897 12.8342 43.5828 12.754 43.5828 12.1925V12.1925Z" fill="#D99600"/>
<path d="M19.5187 9.86633C19.5187 9.14441 19.5722 9.06419 19.9197 9.35831C20.2941 9.65243 20.5347 9.54548 21.524 8.55617L22.7272 7.3797V8.31553C22.7272 9.51874 21.524 10.6952 20.3208 10.6952C19.5989 10.6952 19.5187 10.615 19.5187 9.86633Z" fill="#D99600"/>
<path d="M28.0749 9.89303C28.0749 9.54544 27.8877 9.35827 27.5401 9.35827C27.0856 9.35827 27.0054 9.17111 27.0054 8.28876C27.0054 7.70052 27.1123 7.21924 27.246 7.21924C27.3797 7.21924 27.9679 7.754 28.5829 8.42245C29.1979 9.09089 29.8129 9.57218 29.9465 9.49196C30.107 9.38501 30.2139 9.57218 30.2139 9.8663C30.2139 10.3476 30.0535 10.4278 29.1444 10.4278C28.2621 10.4278 28.0749 10.3476 28.0749 9.89303Z" fill="#D99600"/>
<path d="M23.262 7.21925C23.262 6.87166 24.1711 6.41711 24.8395 6.41711C25.2138 6.41711 25.401 6.57754 25.401 6.95187C25.401 7.40642 25.2138 7.48663 24.3315 7.48663C23.7432 7.48663 23.262 7.37968 23.262 7.21925Z" fill="#D99600"/>
<path d="M33.3957 5.90913C33.6898 5.48132 34.4118 4.73265 34.9465 4.25137L35.9626 3.36902L36.0428 4.14442C36.123 4.67918 35.9893 5.05351 35.6417 5.34763C35.3743 5.56153 35.0535 5.9626 34.9465 6.22998C34.8396 6.55084 34.492 6.68453 33.8235 6.68453H32.861L33.3957 5.90913V5.90913Z" fill="#D99600"/>
<path d="M37.3528 5.96258C37.0854 5.72194 37.1122 3.47595 37.3796 3.47595C37.7272 3.47595 39.5721 5.45456 39.5721 5.82889C39.5721 6.17649 37.6737 6.28344 37.3528 5.96258V5.96258Z" fill="#D99600"/>
<path d="M24.5989 36.4171C23.8502 36.1497 21.123 33.6096 21.123 33.1818C21.0962 32.8342 21.0428 32.861 20.8021 33.262C20.6417 33.5561 20.1604 34.1444 19.7059 34.5454C19.0107 35.2406 18.877 35.2941 18.4759 34.9465C18.2353 34.7326 17.5133 34.492 16.8716 34.4118C15.7754 34.2781 15.401 33.9839 11.3101 29.893L6.92511 25.5347L7.03206 24.4118C7.11228 23.77 7.0588 23.262 6.92511 23.262C6.79142 23.262 6.68447 23.0749 6.68447 22.861C6.68447 22.647 6.55078 22.2192 6.39035 21.9519C5.98928 21.3369 6.25666 20.2139 7.00532 19.5187C7.51335 19.0642 7.56682 18.877 7.2727 18.4492C6.95185 17.9412 7.03206 17.9144 8.55613 17.9144C10.4278 17.9144 11.3369 18.369 11.7379 19.5187C11.8984 20.0267 12.3262 20.4278 12.9679 20.6952C13.6631 20.9893 14.0641 21.4171 14.4385 22.246C14.8128 23.1283 15.1871 23.5027 15.8823 23.7433C16.8716 24.1176 17.9144 25.2941 17.9144 26.0695C17.9144 26.3102 18.3155 26.6577 18.7968 26.8716C20.4813 27.6203 20.9091 28.1551 21.0695 29.6524C21.1497 30.6417 21.2834 30.9626 21.4706 30.7754C21.631 30.615 22.3262 30.4813 23.0214 30.4813C24.1711 30.4813 24.3583 30.5882 25.6417 31.9251C26.8182 33.2085 27.0053 33.5294 27.0053 34.492C27.0053 35.2139 26.8984 35.5347 26.7112 35.4011C26.5508 35.3208 26.0962 35.5347 25.7219 35.9091C25.3208 36.2567 24.8128 36.4973 24.5989 36.4171V36.4171Z" fill="#E49E00"/>
<path d="M28.6898 32.4599C26.6043 30.3476 26.4706 30.1605 26.4706 29.0642C26.4706 27.5936 26.8182 27.2728 28.3422 27.2728C29.5722 27.2728 29.6524 27.3262 31.8182 29.5722L34.0374 31.8717L32.5936 33.3156C31.8182 34.1177 31.0963 34.7594 31.016 34.7327C30.9358 34.7327 29.893 33.7166 28.6898 32.4599V32.4599Z" fill="#E49E00"/>
<path d="M35.2941 30.0268C35.0802 29.9466 33.9572 28.9573 32.8342 27.861C30.9091 25.9626 30.7487 25.722 30.7487 24.7327C30.7487 23.3155 31.0963 22.9947 32.6471 22.9947C33.8235 22.9947 33.9572 23.0749 35.8556 25C36.9251 26.0963 37.9679 27.0054 38.1551 27.0054C38.3422 27.0054 38.5027 27.0856 38.5027 27.2193C38.4759 27.8075 35.7754 30.1872 35.2941 30.0268Z" fill="#E49E00"/>
<path d="M31.4974 18.984C28.9038 16.3369 26.7113 14.1711 26.6578 14.1711C26.5776 14.1711 25.6418 15.0535 24.5455 16.1498C22.2728 18.4492 21.23 18.877 18.476 18.6096C17.2193 18.5027 16.4706 18.2621 15.722 17.754C14.7327 17.0588 14.7059 17.0054 14.7059 15.4011V13.7701L17.0321 11.4439C18.2888 10.1337 19.4118 9.09093 19.5188 9.09093C19.6257 9.09093 19.8664 9.27809 20.0535 9.492C20.3476 9.83959 20.5883 9.67916 21.8984 8.31552C23.1017 7.05884 23.6097 6.71125 24.5188 6.55082C25.1337 6.4706 25.9091 6.4706 26.2567 6.55082C27.1391 6.8182 28.0482 7.75403 27.8878 8.18183C27.8075 8.42248 27.9412 8.55617 28.2888 8.55617C28.9573 8.55617 29.599 9.25135 29.091 9.43852C28.8771 9.51873 28.9573 9.59895 29.2514 9.59895C29.7059 9.62569 33.9038 5.90911 34.1979 5.24066C34.5188 4.46526 35.9894 3.47595 36.7915 3.47595C37.7273 3.47595 38.0749 3.79681 38.1017 4.67916C38.1017 5.02675 38.2888 5.21392 38.6364 5.21392C39.2781 5.21392 41.1498 7.19253 40.9894 7.67381C40.9091 7.86098 41.1498 8.12836 41.4974 8.26205C42.3263 8.5829 42.8878 9.27809 42.9145 10C42.9145 10.3209 43.0749 10.5348 43.2888 10.4813C43.7968 10.3743 44.6525 11.2032 44.4653 11.6578C44.3851 11.8984 44.492 12.0321 44.7861 12.0321C45.3476 12.0321 46.7915 13.5294 46.7915 14.1177C46.7915 14.3316 45.4546 15.8824 43.8236 17.5134C41.4706 19.8931 40.7487 20.508 40.2942 20.4011C39.8396 20.2941 39.7861 20.3209 40.107 20.5615C40.4279 20.7754 40.4279 20.9091 40.0001 21.3637C39.7327 21.6578 39.3851 21.8449 39.2514 21.7647C39.1177 21.6845 38.8236 21.6845 38.5562 21.7915C38.1819 21.9252 38.1819 22.0054 38.5027 22.1925C38.7968 22.3797 38.7968 22.4866 38.5295 22.8342C38.3423 23.0481 38.2621 23.369 38.369 23.5294C38.476 23.6899 38.1017 23.7968 37.3797 23.7968C36.2033 23.7968 36.1765 23.7701 31.4974 18.984V18.984Z" fill="#E49E00"/>
<path d="M21.7112 37.5134C21.3904 37.4331 20.4278 36.7647 19.5989 35.9893L18.1016 34.5989L19.0642 33.5829C20.2139 32.4331 20.4545 31.6845 20.2406 30.1337C20.0802 28.9572 19.5187 28.3422 17.9946 27.6738C17.5133 27.4599 17.1123 27.1123 17.1123 26.8716C17.1123 26.0962 16.0695 24.9198 15.0802 24.5454C14.385 24.3048 14.0107 23.9305 13.6363 23.0481C13.262 22.2192 12.8609 21.7914 12.1658 21.4973C11.524 21.2299 11.0962 20.8289 10.9358 20.3208C10.5882 19.3583 9.62565 18.7166 8.50265 18.7166C7.78073 18.6898 7.24597 18.3422 5.56148 16.7647C4.43848 15.6952 3.44918 14.5989 3.36896 14.3048C3.23527 13.877 4.22458 12.6203 7.70051 8.68983C11.9519 3.85026 12.2192 3.60962 13.2353 3.5294C14.2781 3.44919 14.3583 3.50266 17.3262 6.55079L20.3476 9.67913L17.9412 12.139C15.9358 14.1444 15.508 14.7059 15.508 15.4011C15.508 17.0053 18.3422 18.2353 20.6417 17.647C21.5508 17.4064 22.2994 16.8182 24.1444 14.9465C26.4973 12.5936 26.524 12.5668 27.1123 13.0214C27.4331 13.2888 29.7861 15.6417 32.3529 18.262C35.3743 21.3101 37.1925 22.9946 37.5668 22.9946C38.262 22.9946 39.3048 24.5187 39.3048 25.5347C39.3048 26.6577 38.2353 28.1016 37.5668 27.9144C37.2727 27.8342 36.123 26.8716 35.0267 25.7754C32.9946 23.7166 32.3262 23.4492 31.7112 24.385C31.4706 24.7861 31.7647 25.1871 33.5561 27.0053C34.7326 28.1818 35.8289 29.1444 36.016 29.1444C36.631 29.1444 36.3904 29.5454 34.7861 31.123L33.2353 32.6738L31.016 30.3743C28.8235 28.1016 28.2353 27.754 27.5936 28.3957C27.0053 28.9839 27.246 29.4117 29.5989 31.7379L31.8984 34.0374L30.9358 34.9465C30.1337 35.6684 29.7326 35.8289 28.77 35.8289C27.246 35.8289 26.2032 35.3743 26.2032 34.7059C26.2032 34.0642 23.6096 31.2834 23.0214 31.2834C22.4331 31.2834 21.9251 31.7914 21.9251 32.3797C21.9251 32.8342 24.893 35.5615 25.3743 35.5615C25.9091 35.5615 25.6952 36.0428 24.8396 36.7379C24.385 37.1123 23.7968 37.4331 23.5294 37.4331C23.262 37.4331 22.8877 37.4866 22.6738 37.5401C22.4866 37.5936 22.0588 37.5668 21.7112 37.5134V37.5134Z" fill="#F3BE3A"/>
</g>
<defs>
<clipPath id="clip0">
<rect width="50" height="40.9091" fill="white"/>
</clipPath>
</defs>
</svg>
