<svg width="50" height="39" viewBox="0 0 50 39" fill="none" xmlns="http://www.w3.org/2000/svg">
<path d="M21.7914 37.246C20.2406 36.5508 19.9732 36.5241 14.7058 36.3637L9.22455 36.23V33.6631C9.22455 31.1497 9.22455 31.0963 8.31546 30.0802C6.71118 28.2353 6.33685 27.0054 6.20316 23.2353L6.09621 19.8663L3.95717 18.8235C1.2299 17.5134 0.267334 16.4439 0.267334 14.8396C0.267334 12.7006 0.561452 12.5134 13.2085 6.2567L24.6791 0.61499L35.909 6.12301C42.0855 9.17114 47.5668 12.0321 48.1016 12.4866C48.9839 13.2353 49.0641 13.3957 49.0641 14.7861C49.0641 16.6578 48.5561 17.246 45.5614 18.7701L43.3689 19.8931L43.262 23.262C43.1818 26.2834 43.1016 26.7647 42.4331 28.1284C42.032 28.9572 41.2566 30.0268 40.7219 30.4813C40.1871 30.9626 36.8449 32.7808 33.262 34.5722C27.3262 37.5134 26.5775 37.8075 25.0534 37.8877C23.6898 37.9679 23.1016 37.861 21.7914 37.246ZM31.4171 31.0161C39.5187 27.0054 39.5721 26.9251 39.5721 20.8289V17.1123L41.8449 15.9626L44.1176 14.8396L41.3101 13.4225C39.7593 12.6738 38.5026 11.9252 38.5026 11.7647C38.5026 11.4439 37.5133 10.9091 36.4973 10.6952C35.8556 10.5883 27.3796 6.39039 25.3743 5.18718C24.7593 4.83959 23.262 5.02676 23.262 5.4813C23.262 5.80216 22.1657 6.41713 21.524 6.41713C21.3369 6.41713 21.1229 6.52408 21.0695 6.65777C20.9358 7.05884 13.4224 10.6952 12.7272 10.6952C12.3262 10.6952 12.032 10.8824 11.9518 11.23C11.8716 11.5776 11.4973 11.8182 10.9893 11.9252C10.5347 12.0321 10.1604 12.1925 10.1604 12.3262C10.1604 12.4599 9.86626 12.5669 9.49193 12.5669C9.1176 12.5669 8.82348 12.6738 8.82348 12.8342C8.82348 12.9679 8.02134 13.5027 7.05878 13.984L5.29407 14.8663L6.39033 15.3743C7.0053 15.6417 7.48659 15.9626 7.48659 16.0963C7.48659 16.2032 7.67375 16.3102 7.88765 16.3102C8.1283 16.3102 8.66306 16.4973 9.09086 16.7112L9.83953 17.1123L9.94648 21.3369C10.0267 25.4546 10.0534 25.615 10.7486 26.631C11.1497 27.1925 11.8983 27.9145 12.4331 28.1818C13.4492 28.7433 13.5828 29.3048 13.1016 30.9893C12.9679 31.4973 12.8877 31.9519 12.9144 32.0054C12.9679 32.0321 13.877 32.1658 14.9197 32.246C16.7647 32.4332 16.8449 32.4064 16.8449 31.8449C16.8449 30.9091 18.1016 31.1497 21.4171 32.754C23.262 33.6096 24.6791 34.1444 25 34.0642C25.2941 33.984 28.1818 32.6203 31.4171 31.0161V31.0161Z" fill="black"/>
<path d="M13.6631 33.8503C13.476 33.6096 13.0214 33.4225 12.6738 33.4225C12.1658 33.4225 12.0321 33.2888 12.0321 32.754V32.0856H14.8396C17.6203 32.0856 17.6471 32.0856 17.6471 32.7273C17.6471 33.3423 17.5669 33.369 16.2567 33.2888C15.1337 33.2086 14.8129 33.3155 14.4385 33.7433C14.0642 34.2246 13.984 34.2513 13.6631 33.8503V33.8503Z" fill="#090600"/>
<path d="M20.3209 36.6311C20.107 36.4974 20 36.3102 20.0802 36.23C20.2941 36.0161 21.123 36.3637 21.123 36.6578C21.123 36.952 20.8289 36.952 20.3209 36.6311Z" fill="#101010"/>
<path d="M25.4011 34.2514C25.4011 33.3691 25.7755 33.1552 27.2995 33.1552C28.0482 33.1552 28.3423 33.2621 28.3423 33.5562C28.3423 33.7701 28.2888 33.9573 28.2086 33.9573C28.1551 33.9573 27.4867 34.1979 26.738 34.4921L25.4011 35.0268V34.2514Z" fill="#101010"/>
<path d="M31.845 34.7862C31.2568 34.4118 31.7648 33.9573 32.7808 33.9573C33.8503 33.9573 33.9573 34.2781 33.0215 34.7059C32.2193 35.0803 32.2995 35.0803 31.845 34.7862V34.7862Z" fill="#101010"/>
<path d="M22.139 34.3049C20.909 33.7969 20.8021 33.1552 21.8983 33.1552C23.1016 33.1552 23.5294 33.4225 23.5294 34.1177C23.5294 34.8397 23.4759 34.8664 22.139 34.3049V34.3049Z" fill="#101010"/>
<path d="M29.1444 32.46C29.1444 31.5509 29.1444 31.5509 30.3476 31.5509C31.9252 31.5509 31.9252 32.0322 30.3476 32.8076L29.1444 33.3958V32.46Z" fill="#101010"/>
<path d="M36.0962 32.6204C35.7754 32.4065 35.8021 32.353 36.3101 32.353C36.631 32.353 36.8984 32.4867 36.8984 32.6204C36.8984 32.968 36.6042 32.968 36.0962 32.6204Z" fill="#101010"/>
<path d="M33.9573 29.9465C33.9573 29.1979 34.0108 29.1444 35.0268 29.1444C35.9091 29.1444 36.0963 29.0374 36.0963 28.6364C36.0963 28.0214 36.6043 27.8075 38.0482 27.8075C39.1444 27.8075 39.1444 27.8075 38.6364 28.3155C38.0749 28.877 34.6525 30.7487 34.2247 30.7487C34.0642 30.7487 33.9573 30.4011 33.9573 29.9465Z" fill="#101010"/>
<path d="M7.11235 28.3958C6.87171 27.7006 7.08562 27.2995 7.45995 27.7006C7.59364 27.8343 7.59364 28.1819 7.48669 28.476C7.29952 28.984 7.29952 28.984 7.11235 28.3958V28.3958Z" fill="#101010"/>
<path d="M44.7861 18.7167C44.5722 18.3958 44.8396 17.9145 45.2407 17.9145C45.4011 17.9145 45.7487 17.7274 46.0161 17.4867C46.4974 17.0322 47.3262 17.1391 47.3262 17.6204C47.3262 17.7809 46.8449 18.1552 46.2567 18.4493C45.0535 19.0643 45 19.0643 44.7861 18.7167Z" fill="#101010"/>
<path d="M2.13905 17.5134C2.13905 17.2193 2.00536 17.1124 1.73798 17.2193C1.49734 17.2995 1.33691 17.2193 1.33691 16.9787C1.33691 16.6578 1.4706 16.6578 2.00536 16.8985C2.70055 17.2193 2.83424 17.5134 2.40643 17.7808C2.27274 17.861 2.13905 17.7541 2.13905 17.5134V17.5134Z" fill="#101010"/>
<path d="M7.37974 17.1926C7.11236 17.1124 6.63108 16.8183 6.33696 16.5509C5.77546 16.0428 5.77546 16.0428 6.89846 16.0428C7.9145 16.0428 8.02145 16.0963 8.02145 16.7113C8.02145 17.0856 7.99471 17.353 7.96798 17.353C7.9145 17.3263 7.64712 17.2461 7.37974 17.1926V17.1926Z" fill="#101010"/>
<path d="M47.8877 16.8717C47.6738 16.738 47.6204 16.4974 47.7006 16.3369C47.9145 15.9893 48.9305 15.9359 48.9305 16.2835C48.9305 16.7113 48.2621 17.0856 47.8877 16.8717Z" fill="#101010"/>
<path d="M7.21924 12.8611C7.21924 12.7274 7.4064 12.5402 7.64705 12.46C7.91443 12.353 8.02138 12.1391 7.91443 11.8718C7.78074 11.4974 7.88769 11.4439 8.55614 11.6044C9.3048 11.7381 9.38501 11.7113 9.22459 11.23C9.0909 10.8022 9.17111 10.6953 9.59892 10.6953C9.91977 10.6953 10.1604 10.8022 10.1604 10.9627C10.1604 11.4439 10.9893 10.9092 11.2299 10.2675C11.4171 9.78619 11.6577 9.6525 12.2995 9.70598C13.0214 9.75945 13.1016 9.83967 13.0481 10.4279C12.9679 10.9894 12.8075 11.1231 12.0053 11.1766C11.2834 11.23 10.9893 11.4172 10.8823 11.7915C10.8021 12.0589 10.5347 12.2996 10.2941 12.2996C10.0535 12.2996 9.67913 12.4867 9.46523 12.7006C9.03742 13.1284 7.21924 13.2621 7.21924 12.8611V12.8611Z" fill="#101010"/>
<path d="M47.5936 12.5669C47.3797 12.4332 47.2995 12.2461 47.4064 12.1391C47.5134 12.0322 47.8075 12.1391 48.0481 12.3798C48.5294 12.861 48.262 12.9947 47.5936 12.5669V12.5669Z" fill="#101010"/>
<path d="M37.246 11.4171C36.4172 11.016 36.0963 10.6952 36.0963 10.2941C36.0963 9.22461 38.2086 9.75936 39.5188 11.1497C39.8396 11.4973 40.107 11.8449 40.107 11.9251C40.107 12.246 38.2354 11.9251 37.246 11.4171Z" fill="#101010"/>
<path d="M8.36902 8.6631C8.79683 8.4492 9.1979 8.31551 9.30485 8.39572C9.54549 8.63636 9.22464 8.82353 8.39576 8.95722L7.62036 9.09091L8.36902 8.6631Z" fill="#101010"/>
<path d="M19.8663 6.31021C20.1337 6.09631 20.2674 5.77545 20.1604 5.50807C20.0535 5.18722 20.1604 5.08026 20.5615 5.08026C20.8823 5.08026 21.123 5.18722 21.123 5.34764C21.123 5.50807 21.3904 5.48133 21.7914 5.29417C22.4599 5.00005 22.7005 4.54551 22.1658 4.54551C22.0321 4.54551 21.9786 4.41182 22.0588 4.27813C22.1658 4.1177 22.6203 4.01075 23.0749 4.06422C23.5561 4.09096 24.2246 3.95727 24.5722 3.7701C25.1337 3.44925 25.2674 3.47599 25.5348 3.85032C25.7219 4.06422 25.9091 4.19791 25.9893 4.1177C26.1497 3.98401 27.5401 5.24069 27.5401 5.48133C27.5401 5.77545 25.7487 5.56155 25.1604 5.24069C24.5989 4.91984 24.4385 4.91984 24.1176 5.24069C23.9305 5.4546 23.369 5.61502 22.861 5.61502C22.2192 5.61502 21.9519 5.74871 21.8449 6.14978C21.738 6.57759 21.4973 6.68454 20.5348 6.68454C19.5187 6.6578 19.4385 6.63107 19.8663 6.31021V6.31021Z" fill="#101010"/>
<path d="M23.0482 34.5989C22.7274 34.385 22.2461 34.1444 21.952 34.0909C21.6846 34.0374 20.6151 33.5829 19.5455 33.0481C17.7541 32.139 17.6471 32.1123 17.6471 32.6471C17.6471 32.9679 17.5135 33.1551 17.3263 33.1016C17.1124 33.0214 16.8717 32.2193 16.7381 31.2032C16.5509 29.7059 16.4439 29.4385 15.9359 29.3583C15.4012 29.2781 15.3744 29.1444 15.2942 25.0802L15.214 20.8556H16.1766C16.7915 20.8556 18.3691 21.4973 20.9359 22.7808L24.7862 24.6792L32.1926 20.9091C36.7648 18.5562 39.8931 17.1123 40.4011 17.1123C41.23 17.1123 41.4439 17.4866 40.7755 17.754C40.4546 17.861 40.3744 18.5562 40.3744 21.6043C40.3744 23.6631 40.2407 25.7219 40.0803 26.23C39.6525 27.4599 38.6364 28.5294 37.6739 28.7166C37.2461 28.7968 36.8985 29.0374 36.8985 29.2513C36.8985 29.6792 35.9626 30.0802 35.2407 29.9733C34.9733 29.9465 34.7594 30.0802 34.7594 30.2674C34.7594 30.7219 31.1498 32.5134 30.4546 32.4064C30.1605 32.3529 29.9466 32.4599 29.9466 32.7005C29.9466 33.1283 28.1017 34.0374 27.1659 34.0909C26.8183 34.0909 26.337 34.3048 26.0963 34.5722C25.5081 35.1337 23.8503 35.1604 23.0482 34.5989V34.5989Z" fill="#363636"/>
<path d="M12.3797 29.8396C12.4599 29.6257 12.1658 29.2781 11.6043 28.984C11.0963 28.6898 10.3476 27.9947 9.94653 27.4332C9.25134 26.4171 9.22461 26.2567 9.14439 22.139C9.06418 18.7701 8.95723 17.861 8.66311 17.7273C7.99466 17.4866 8.26204 17.1123 9.11765 17.1123C9.62568 17.1123 10.8824 17.6203 12.1925 18.3423L14.4385 19.5455V24.3048C14.4385 28.9305 14.4118 29.0642 13.8235 29.6257C13.1284 30.2941 12.1658 30.4278 12.3797 29.8396V29.8396Z" fill="#363636"/>
<path d="M16.0961 29.9465C15.9357 29.6524 15.7753 28.9572 15.802 28.4225C15.802 27.6471 15.8555 27.5401 16.0159 27.9412C16.1496 28.2621 16.4705 28.476 16.8715 28.476C17.433 28.476 17.5132 28.6096 17.5132 29.4653C17.5132 30.2941 17.4063 30.4813 16.9785 30.4813C16.6844 30.4813 16.2833 30.2407 16.0961 29.9465Z" fill="#423E34"/>
<path d="M24.8662 24.7861C24.8662 23.9839 24.9999 23.8235 25.9625 23.3957C26.5507 23.1283 27.1657 22.6738 27.2994 22.4064C27.4865 22.0855 27.8609 21.9251 28.4758 21.9251C29.0641 21.9251 29.4117 21.7914 29.4117 21.5775C29.4117 21.3903 30.1336 20.8823 31.0427 20.4545C31.925 20.0267 32.7807 19.4652 32.9143 19.1978C33.1282 18.7968 33.5293 18.7166 35.1603 18.7166C38.5561 18.7166 38.048 19.1978 31.1496 22.6738C27.8609 24.3048 25.1069 25.6684 25.0266 25.6684C24.9464 25.6684 24.8662 25.2674 24.8662 24.7861Z" fill="#6F6F6F"/>
<path d="M17.647 22.3261C16.1764 21.524 16.0427 21.524 16.0427 22.1925C16.0427 22.5401 15.9091 22.6737 15.6417 22.5668C15.3743 22.4598 15.2406 22.032 15.2406 21.3636V20.3208H16.4438C17.1123 20.3208 17.647 20.4545 17.647 20.5882C17.647 20.7486 17.8609 20.8556 18.1283 20.8556C18.8235 20.8556 19.2513 21.3903 19.2513 22.2459C19.2513 23.155 19.1711 23.155 17.647 22.3261Z" fill="#6F6F6F"/>
<path d="M13.6363 20.7486C13.6363 20.5347 12.7272 19.8663 11.6309 19.2513C9.4384 18.0214 9.06407 17.3796 10.5614 17.3796C11.0694 17.3796 11.4972 17.4866 11.4972 17.6203C11.4972 17.754 12.1657 17.9411 12.9678 18.0481L14.4384 18.2085V19.6791C14.4384 20.7754 14.3314 21.123 14.0373 21.123C13.8234 21.123 13.6363 20.9625 13.6363 20.7486Z" fill="#6F6F6F"/>
<path d="M38.77 17.2995C38.77 15.8556 39.1176 15.508 40.5614 15.508C41.2031 15.508 41.7112 15.4011 41.7112 15.2406C41.7112 15.107 41.4705 14.9733 41.1764 14.9733C40.7486 14.9733 40.6416 14.7861 40.6416 14.0374C40.6416 13.1016 40.6416 13.1016 39.4384 13.1016H38.2352V11.8984V10.6952L42.2459 12.7005C44.4652 13.7968 46.2566 14.7594 46.2566 14.8396C46.2566 15 39.385 18.4492 39.0374 18.4492C38.9037 18.4492 38.77 17.9412 38.77 17.2995Z" fill="#6F6F6F"/>
<path d="M5.82882 16.2834C4.38497 15.5615 3.2085 14.9198 3.2085 14.8396C3.2085 14.7059 9.49192 11.4973 9.7593 11.4973C9.83951 11.4973 9.89299 11.7914 9.89299 12.139C9.89299 12.647 9.62561 12.9412 8.6363 13.4224C6.95181 14.2246 6.79138 14.5187 7.83416 14.8663C8.60956 15.1337 8.68978 15.2674 8.76999 16.3904C8.82347 17.0855 8.74325 17.647 8.6363 17.6203C8.52935 17.6203 7.24593 17.0321 5.82882 16.2834V16.2834Z" fill="#6F6F6F"/>
<path d="M10.4277 11.2567C10.4277 11.0428 21.8983 5.0802 22.2994 5.0802C22.3796 5.0802 22.4598 5.45453 22.4598 5.88234C22.4598 6.44384 22.3261 6.68448 22.032 6.68448C21.5507 6.68448 19.9732 7.51336 19.8395 7.83421C19.786 7.94116 19.5721 8.02138 19.385 8.02138C19.171 8.02138 18.6096 8.39571 18.1283 8.82352C17.54 9.38501 16.9785 9.62566 16.3636 9.62566C15.8288 9.62566 15.4277 9.78608 15.3475 10.0267C15.2406 10.2406 14.9732 10.4278 14.7058 10.4278C14.4117 10.4278 14.1176 10.5615 14.0374 10.6952C13.9571 10.8556 13.5828 10.9626 13.2085 10.9626C12.8609 10.9626 12.5668 11.0962 12.5668 11.2299C12.5668 11.3904 12.0855 11.4973 11.4973 11.4973C10.909 11.4973 10.4277 11.3904 10.4277 11.2567Z" fill="#6F6F6F"/>
<path d="M33.4224 9.62565C33.4224 9.49196 33.0748 9.35827 32.647 9.35827C32.1924 9.35827 31.7646 9.25131 31.6844 9.09089C31.6042 8.9572 31.2298 8.82351 30.8823 8.82351C30.5347 8.82351 30.0801 8.6096 29.8929 8.34222C29.7058 8.07484 28.9839 7.6203 28.2887 7.32618C27.5667 7.0588 27.0052 6.73794 27.0052 6.63099C27.0052 6.4973 26.8181 6.41709 26.5774 6.41709C26.3635 6.41709 25.9892 6.22992 25.7753 6.01602C25.5347 5.80211 25.0534 5.61495 24.6523 5.61495C23.6897 5.61495 22.7272 5.34757 22.7272 5.08019C22.7272 4.9465 23.1282 4.59891 23.6363 4.27805L24.5721 3.71655L30.1871 6.55078C33.2887 8.10158 35.8288 9.49196 35.8288 9.62565C35.8288 9.78607 35.294 9.89303 34.6256 9.89303C33.9571 9.89303 33.4224 9.78607 33.4224 9.62565Z" fill="#6F6F6F"/>
<path d="M21.7646 24.4118C20.1603 23.5829 18.6095 22.6203 18.2886 22.246C17.9143 21.7914 17.5667 21.631 17.2993 21.738C17.0052 21.8449 16.8448 21.7647 16.8448 21.5241C16.8448 21.3101 16.6576 21.123 16.4437 21.123C16.2298 21.123 16.0426 21.3101 16.0426 21.5241C16.0426 21.738 15.9357 21.9251 15.7753 21.9251C15.6416 21.9251 15.5079 21.5241 15.5079 21.016C15.5079 20.1337 15.5346 20.1069 16.8448 19.9198C18.0213 19.7593 18.1817 19.6524 18.1817 19.1176C18.1817 18.4759 18.3421 18.369 19.9999 18.0481C20.4812 17.9412 20.9624 17.7005 21.0426 17.4866C21.1229 17.2727 21.3368 17.1123 21.5239 17.1123C21.9517 17.1123 23.6095 16.2834 23.8501 15.9358C24.171 15.4545 23.7699 15.2139 23.3689 15.6417C23.1282 15.8556 22.7271 16.0428 22.433 16.0428C22.1656 16.0428 21.925 16.1765 21.925 16.3101C21.925 16.4706 21.4437 16.5775 20.8555 16.5775C19.9464 16.5775 19.786 16.6577 19.786 17.139C19.786 17.647 19.6523 17.6738 18.5025 17.5936C16.7378 17.4866 15.2405 18.262 15.2405 19.3048C15.2405 19.9465 15.1336 20.0535 14.4384 20.0535C13.8234 20.0535 13.6362 19.9465 13.6362 19.5187C13.6362 18.9839 13.4758 18.9305 11.5239 18.877C11.1763 18.8503 10.8287 18.6898 10.7753 18.5027C10.6951 18.3422 10.5346 18.2353 10.4009 18.3155C10.294 18.3957 9.70575 18.2085 9.09078 17.9144C8.2619 17.4866 8.02126 17.2192 8.02126 16.6845C8.02126 16.016 7.16565 15.4545 6.47046 15.6952C6.28329 15.7754 5.96244 15.6684 5.72179 15.4813C5.42768 15.2406 5.26725 15.2139 5.10682 15.4545C5.02661 15.615 4.78597 15.6417 4.5988 15.5347C4.0373 15.1872 4.75923 13.9037 5.50789 13.9037C5.85548 13.9037 6.25655 13.6631 6.41698 13.369C6.57741 13.0749 6.79131 12.861 6.89827 12.9412C7.00522 12.9946 7.56671 12.754 8.15495 12.4064C8.74318 12.0588 9.99987 11.3904 10.9624 10.9358C11.925 10.4813 12.9143 9.99999 13.1549 9.8663C13.4223 9.73261 13.7967 9.62566 14.0106 9.62566C14.2245 9.62566 14.4384 9.43849 14.5453 9.22459C14.6255 8.98394 15.0266 8.82352 15.5614 8.82352C16.1763 8.82352 16.7378 8.58288 17.3261 8.02138C17.8074 7.56683 18.3689 7.21924 18.5828 7.21924C18.7699 7.21924 18.9838 7.13902 19.0373 7.03207C19.171 6.71122 20.7485 5.88234 21.2298 5.88234C21.4705 5.88234 21.6576 5.77539 21.6576 5.61496C21.6576 5.18715 23.2886 4.49197 23.9838 4.62566C24.3582 4.70587 24.7058 4.59892 24.8394 4.35828C25.0266 4.01068 25.1603 4.01068 25.8287 4.38501C26.2566 4.59892 26.4972 4.78608 26.3902 4.81282C25.9892 4.81282 26.9517 5.61496 27.3795 5.61496C27.6202 5.61496 27.8074 5.72191 27.8074 5.82886C27.8074 6.06951 29.679 6.81817 30.0801 6.73796C30.2405 6.71122 30.4812 6.95186 30.6148 7.29945C30.7753 7.62031 31.1763 7.91443 31.5507 7.9679C31.925 8.02138 32.3261 8.18181 32.4865 8.3155C32.6202 8.44919 33.0747 8.55614 33.4758 8.55614C33.8769 8.55614 34.2245 8.68983 34.2245 8.82352C34.2245 8.98394 34.4384 9.0909 34.7057 9.0909C34.9464 9.0909 36.0426 9.54544 37.0854 10.0802C38.663 10.9091 39.0373 11.2299 39.0373 11.7112C39.0373 12.2727 39.1175 12.3262 39.8394 12.1658C41.1763 11.8716 41.6309 12.1658 41.4972 13.2353C41.417 13.9572 41.4705 14.1711 41.818 14.1711C42.0854 14.1711 42.2459 13.9305 42.2459 13.5027C42.2459 12.6203 42.6202 12.647 43.2886 13.6096C43.9571 14.5187 44.0106 14.9733 43.4491 14.9733C42.941 14.9733 42.4598 15.8823 42.6737 16.4438C42.8341 16.7914 42.7271 16.8449 42.0854 16.6577C40.802 16.3369 40.0533 16.4171 39.7325 16.9251C39.5186 17.2995 39.5186 17.4599 39.8394 17.647C40.294 17.9412 40.3475 17.8877 38.4758 18.9037C37.1656 19.5989 36.7378 19.6791 35.4811 19.5722C34.2245 19.4652 33.9571 19.5454 33.7432 19.9733C33.5828 20.2406 32.7271 20.8289 31.8448 21.2567C30.3475 21.9519 29.786 22.4599 30.4812 22.4599C30.6416 22.4599 30.7485 22.5668 30.7485 22.6738C30.7485 22.8075 30.187 22.8877 29.5186 22.861C28.6362 22.8342 28.2352 22.9412 28.0747 23.262C27.941 23.5027 27.3528 23.9037 26.7646 24.1711C26.1763 24.4385 25.7753 24.8128 25.8287 24.9733C25.909 25.1604 25.6683 25.4278 25.3207 25.5882C24.7592 25.8556 24.2779 25.6684 21.7646 24.4118V24.4118Z" fill="#757575"/>
<path d="M15.2941 20.8556C15.3743 19.8128 15.3743 19.786 14.5187 19.786C14.0374 19.786 13.6364 19.6791 13.6364 19.5187C13.6364 19.385 13.8235 19.2513 14.0374 19.2513C14.5187 19.2513 14.5187 19.1176 14.1711 18.4491C13.9572 18.0481 14.1176 17.8609 15.3743 17.2459C16.5241 16.6577 17.0588 16.524 17.9412 16.6577C18.77 16.7647 18.9572 16.7112 18.7433 16.4973C18.3422 16.0962 18.369 15.7753 18.7968 15.7753C18.9839 15.7753 19.3583 15.508 19.6257 15.2138C19.9733 14.786 20.1604 14.7326 20.3208 14.9732C20.4545 15.2138 20.5615 15.2138 20.6952 14.9999C20.8289 14.786 21.0428 14.786 21.3904 14.9732C22.0856 15.3475 22.7807 15.0267 22.5936 14.4117C22.4866 14.0641 22.5668 13.9037 22.8342 13.9037C23.0749 13.9037 23.262 14.0374 23.262 14.1711C23.262 14.3315 23.4492 14.4384 23.6631 14.4384C23.877 14.4384 24.0642 14.6791 24.0642 14.9732C24.0642 15.401 23.877 15.508 23.262 15.508C22.8075 15.508 22.4599 15.6417 22.4599 15.8556C22.4331 16.2032 20.3208 17.3796 19.6524 17.3796C19.4385 17.3796 19.2513 17.4598 19.2513 17.5935C19.2513 17.7005 18.9305 17.9946 18.5294 18.2352C17.8075 18.6898 17.8075 18.6898 18.3957 18.7165C18.7166 18.7165 18.9839 18.6096 18.9839 18.4491C18.9839 18.0748 23.6631 15.7753 24.4652 15.7753C25.2139 15.7753 25.2674 15.9625 24.7861 16.6042C24.4118 17.0855 22.8342 17.9144 22.2727 17.9144C22.0856 17.9144 21.9251 18.0481 21.9251 18.1818C21.9251 18.3422 21.7112 18.5294 21.4706 18.6363C21.2032 18.7165 20.7487 18.9839 20.4813 19.2245C20.1069 19.5187 19.9465 19.5721 19.8663 19.3315C19.8128 19.1443 19.5722 19.0909 19.385 19.1443C19.1176 19.2513 19.0642 19.5454 19.1711 20.1069C19.3315 20.909 19.3048 20.9358 18.5027 20.7753C17.9946 20.6684 17.647 20.7219 17.647 20.8556C17.647 21.016 17.3529 21.0695 16.9519 20.9625C16.4171 20.8288 16.2567 20.909 16.123 21.3636C16.0428 21.6577 15.8021 21.9251 15.5882 21.9251C15.2674 21.9251 15.2139 21.6577 15.2941 20.8556V20.8556Z" fill="#787671"/>
<path d="M12.1124 31.6577C12.1926 30.401 12.4065 29.6791 12.8076 29.1711C13.1284 28.7968 13.4493 28.262 13.5562 28.0214C13.7167 27.5133 14.4386 27.3529 14.4386 27.8075C14.4386 27.9679 14.6258 28.0748 14.8397 28.0748C15.0536 28.0748 15.2407 27.9679 15.2407 27.8075C15.2407 27.3529 15.9627 27.5133 16.1498 28.0214C16.23 28.262 16.6044 28.877 16.9787 29.385C17.5135 30.1069 17.6472 30.6149 17.6472 31.8449C17.6472 32.7272 17.5937 33.4224 17.5135 33.4224C17.4332 33.4224 17.1391 33.262 16.845 33.1016C16.4439 32.8342 16.2568 32.8342 16.0161 33.0748C15.7755 33.3155 15.5883 33.3155 15.214 33.0748C14.8397 32.8342 14.6525 32.8342 14.4119 33.0748C14.1712 33.3155 13.984 33.3155 13.6097 33.0748C13.2354 32.8342 13.0482 32.8342 12.7808 33.1016C12.1391 33.7433 11.952 33.3957 12.1124 31.6577Z" fill="#E29C00"/>
<path d="M13.6365 23.1818V19.3583L14.6525 19.0107C15.1873 18.8235 16.3103 18.262 17.1124 17.7807C19.4386 16.3903 23.476 14.4385 24.0108 14.4385C24.6793 14.4385 25.1338 14.9465 25.1338 15.6952C25.1338 16.2299 24.4921 16.631 20.5883 18.5829L16.0429 20.8556V23.9305V27.0053H14.8397H13.6365V23.1818V23.1818Z" fill="#E29C00"/>
<path d="M13.6364 27.5401V26.2032H14.8396H16.0428V27.5401V28.877H14.8396H13.6364V27.5401Z" fill="#FFD678"/>
</svg>
