<svg width="50" height="38" viewBox="0 0 50 38" fill="none" xmlns="http://www.w3.org/2000/svg">
<g clip-path="url(#clip0)">
<path d="M6.9519 19.2513V18.1818H8.15511C9.25137 18.1818 9.35832 18.2352 9.35832 18.8502C9.35832 19.4117 9.22463 19.5187 8.55618 19.5187C8.02142 19.5187 7.75404 19.6524 7.75404 19.9197C7.75404 20.1336 7.56688 20.3208 7.35297 20.3208C7.05886 20.3208 6.9519 20.0267 6.9519 19.2513Z" fill="#C0C0C0"/>
<path d="M28.6096 19.9197C28.6096 19.6524 28.3423 19.5187 27.8075 19.5187C27.1391 19.5187 27.0054 19.4117 27.0054 18.8502C27.0054 18.2352 27.1123 18.1818 28.2086 18.1818H29.4118V19.2513C29.4118 20.0267 29.3048 20.3208 29.0107 20.3208C28.7968 20.3208 28.6096 20.1336 28.6096 19.9197Z" fill="#C0C0C0"/>
<path d="M13.369 19.9198C13.369 19.599 12.9144 19.5187 10.9625 19.5187C9.54543 19.5187 8.55613 19.4118 8.55613 19.2514C8.55613 19.1177 8.36896 18.984 8.15506 18.984C7.94116 18.984 7.75399 19.1711 7.75399 19.385C7.75399 19.599 7.56682 19.7861 7.35292 19.7861C6.76468 19.7861 6.76468 16.7112 7.35292 16.4706C7.6203 16.3637 7.75399 16.4973 7.75399 16.8717C7.75399 17.2727 7.88768 17.3797 8.1818 17.2727C8.42244 17.1925 9.67912 17.1123 10.9893 17.1123C12.9144 17.1123 13.369 17.0321 13.369 16.7113C13.369 16.4973 13.5561 16.3102 13.77 16.3102C14.0909 16.3102 14.1711 16.7113 14.1711 18.3155C14.1711 19.9198 14.0909 20.3209 13.77 20.3209C13.5561 20.3209 13.369 20.1337 13.369 19.9198Z" fill="#A3A3A3"/>
<path d="M22.3531 19.8931C22.2728 19.6524 22.1926 18.7701 22.1926 17.8877C22.1926 16.6578 22.2728 16.3102 22.5937 16.3102C22.8076 16.3102 22.9948 16.4973 22.9948 16.7112C22.9948 17.0321 23.476 17.1123 25.8022 17.1123C28.1284 17.1123 28.6097 17.0321 28.6097 16.7112C28.6097 16.4973 28.7969 16.3102 29.0108 16.3102C29.3317 16.3102 29.4119 16.6845 29.4119 18.0481C29.4119 19.4118 29.3317 19.7861 29.0108 19.7861C28.7969 19.7861 28.6097 19.5989 28.6097 19.385C28.6097 19.1711 28.4226 18.984 28.2087 18.984C27.9948 18.984 27.8076 19.1177 27.8076 19.2514C27.8076 19.6524 23.3424 19.5989 23.1819 19.1979C23.1017 19.0107 23.0215 19.1711 23.0215 19.5989C22.9948 20.4011 22.6204 20.5615 22.3531 19.8931Z" fill="#A3A3A3"/>
<path d="M27.7272 23.6097C27.6203 23.5295 27.754 23.2087 27.9946 22.9145C28.3689 22.5135 28.5026 21.7915 28.5561 19.4921C28.663 16.3905 28.7165 16.3103 30.0267 16.9252C30.6951 17.2193 30.7486 17.353 30.7486 19.0643C30.7486 20.4279 30.6684 20.8557 30.3743 20.8557C30.0534 20.8557 30.0267 21.1498 30.1336 22.3263L30.2941 23.7969H29.0908C28.4224 23.7969 27.8074 23.7167 27.7272 23.6097Z" fill="#7C7C7C"/>
<path d="M12.7272 22.9679C13.155 22.5134 13.262 21.8984 13.3155 19.492C13.3957 17.4599 13.3155 16.4438 13.1016 16.1765C12.8074 15.8289 12.9144 15.7754 13.7433 15.7754C14.5989 15.7754 14.7058 15.8556 14.7058 16.4438C14.7058 16.8716 14.8663 17.1123 15.1069 17.1123C15.4278 17.1123 15.508 17.5401 15.508 19.3583C15.508 21.4973 15.4812 21.631 14.9198 21.7112C14.4385 21.7647 14.278 22.0053 14.2246 22.6738C14.1443 23.4759 14.0641 23.5294 13.1818 23.5294C12.2192 23.5294 12.2192 23.5294 12.7272 22.9679Z" fill="#7C7C7C"/>
<path d="M16.3101 8.2888C16.3101 6.79148 16.3903 6.41714 16.7111 6.41714C16.9518 6.41714 17.1122 6.1765 17.1122 5.77543C17.1122 5.42784 17.2994 5.00003 17.5133 4.81287C17.7272 4.6257 17.9143 4.19789 17.9143 3.8503C17.9143 2.83426 18.8234 2.67383 24.3582 2.67383H29.4117V3.47597C29.4117 4.01073 29.5453 4.27811 29.8127 4.27811C30.0266 4.27811 30.2138 4.4118 30.2138 4.54549C30.2138 4.70591 30.3742 4.81287 30.5881 4.81287C30.7753 4.81287 31.0159 5.1872 31.1229 5.64174C31.2298 6.14976 31.4705 6.5241 31.8181 6.60431C32.2726 6.738 32.3528 6.97864 32.3528 8.44923V10.1605H29.679H27.0052V9.09094V8.02142H24.3314H21.6576V9.09094V10.1605H18.9839H16.3101V8.2888Z" fill="#7C7C7C"/>
<path d="M10.9625 24.4652C10.9625 24.2513 11.123 24.0642 11.3101 24.0642C11.4705 24.0642 12.0855 23.6364 12.6203 23.1016C13.1818 22.5936 13.7433 22.246 13.9037 22.3262C14.0374 22.4064 14.1711 22.9412 14.1711 23.5294C14.1711 24.6792 13.9037 24.8663 12.139 24.8663C11.2834 24.8663 10.9625 24.7594 10.9625 24.4652Z" fill="#857678"/>
<path d="M25.9358 24.4652C25.9358 24.2513 26.0962 24.0641 26.3101 24.0641C26.524 24.0641 27.0588 23.7433 27.5133 23.369C28.5026 22.5401 28.877 22.7005 28.877 23.9572V24.8663H27.4064C26.2834 24.8663 25.9358 24.7861 25.9358 24.4652Z" fill="#857678"/>
<path d="M12.9414 23.9305C13.3692 23.6096 13.396 23.4759 13.1018 23.1283C12.8879 22.8877 12.8879 22.7273 13.0484 22.7273C13.2088 22.7273 13.3692 22.3262 13.4227 21.8716C13.4762 21.2032 13.6366 20.9626 14.1179 20.9091C14.4387 20.8556 14.7061 20.6417 14.7061 20.4278C14.7061 20.2139 14.8933 20.0535 15.1339 20.0535C15.535 20.0535 15.5617 20.2941 15.4013 21.8449C15.2944 22.8342 15.0805 23.7968 14.92 23.9839C14.7596 24.1711 14.1446 24.3315 13.5297 24.3315C12.5136 24.3048 12.4601 24.2781 12.9414 23.9305Z" fill="#767273"/>
<path d="M28.4225 23.3423C27.7808 23.1016 28.0749 22.7273 28.7434 22.8877C29.3584 23.0481 29.7327 22.6471 29.1979 22.4064C28.7969 22.246 29.1712 20.0535 29.5723 20.0535C29.7862 20.0535 29.9466 19.8663 29.9466 19.6524C29.9466 19.4385 30.1338 19.2513 30.3477 19.2513C30.6685 19.2513 30.7487 19.6257 30.7487 20.9626C30.7487 23.2353 30.615 23.5294 29.5723 23.5027C29.1177 23.5027 28.583 23.4225 28.4225 23.3423Z" fill="#767273"/>
<path d="M14.7059 18.2887C14.7059 17.9679 14.5455 17.8877 14.0375 18.0214C13.4225 18.1818 13.369 18.1283 13.369 17.2994C13.369 16.4171 12.7273 15.508 12.0856 15.508C11.8985 15.508 11.7648 15.3208 11.7648 15.1069C11.7648 14.6256 13.7166 14.5454 14.8129 14.9732C15.4546 15.2139 15.5081 15.3476 15.5081 16.9786C15.5081 18.3422 15.4279 18.7165 15.107 18.7165C14.8931 18.7165 14.7059 18.5294 14.7059 18.2887Z" fill="#767273"/>
<path d="M29.9465 18.369C29.9465 18.1818 29.6792 17.9144 29.3583 17.7807C29.0107 17.6203 28.7166 17.2727 28.6631 16.9786C28.5294 16.3102 27.8342 15.508 27.353 15.508C27.1658 15.508 27.0054 15.3209 27.0054 15.0802C27.0054 14.7059 27.2728 14.6524 28.6364 14.7594C29.6524 14.8396 30.3476 15.0267 30.508 15.2674C30.6417 15.4813 30.7487 16.3369 30.7487 17.1925C30.7487 18.369 30.6685 18.7166 30.3476 18.7166C30.1337 18.7166 29.9465 18.5561 29.9465 18.369Z" fill="#767273"/>
<path d="M26.738 9.09099C26.738 8.50275 26.6311 8.02147 26.4706 8.02147C26.3369 8.02147 26.2032 7.8343 26.2032 7.6204C26.2032 7.4065 26.3904 7.21933 26.6043 7.21933C26.8182 7.21933 27.0054 7.11238 27.0054 6.95195C27.0054 6.81826 27.1926 6.68457 27.4065 6.68457C27.7006 6.68457 27.8075 7.00543 27.8075 8.02147C27.8075 9.03751 27.9145 9.35837 28.2086 9.35837C28.4225 9.35837 28.6097 9.54553 28.6097 9.75944C28.6097 10.0268 28.3156 10.1605 27.6738 10.1605C26.7647 10.1605 26.738 10.1338 26.738 9.09099Z" fill="#767273"/>
<path d="M4.06429 7.9679C4.1445 7.78073 4.57231 7.48662 5.02685 7.29945C5.85573 6.95186 5.88247 6.97859 5.88247 7.62031C5.88247 8.20854 5.77552 8.28876 4.9199 8.28876C4.30493 8.28876 4.01081 8.1818 4.06429 7.9679Z" fill="#767273"/>
<path d="M31.5509 7.91448C31.5509 7.72731 31.3103 7.48667 31.0162 7.40646C30.6686 7.32624 30.4279 6.95191 30.321 6.44389C30.214 5.98935 29.9734 5.61502 29.7862 5.61502C29.5723 5.61502 29.4119 5.50806 29.4119 5.34764C29.4119 5.21395 29.1445 5.08026 28.8504 5.08026C28.3691 5.08026 28.2889 4.94657 28.3958 4.27812C28.5028 3.63641 28.4226 3.47598 27.9948 3.47598C27.0322 3.47598 27.7274 2.80753 28.7702 2.72731C30.1071 2.6471 31.444 3.44924 31.9787 4.67919C32.4867 5.93587 32.4867 8.28881 31.952 8.28881C31.7381 8.28881 31.5509 8.12838 31.5509 7.91448Z" fill="#767273"/>
<path d="M16.3102 6.39041C16.3102 4.8396 16.3637 4.67918 17.353 3.71661C18.2086 2.83426 18.5562 2.67383 19.492 2.67383C20.8556 2.67383 20.9893 3.2888 19.7326 3.6364C19.0642 3.82356 18.8235 4.0642 18.7701 4.59896C18.7166 5.00003 18.5027 5.45458 18.2888 5.615C18.0749 5.80217 17.9145 6.22998 17.9145 6.57757C17.9145 6.97864 17.754 7.21928 17.5134 7.21928C17.2995 7.21928 17.1123 7.40645 17.1123 7.62035C17.1123 7.83426 16.9252 8.02142 16.7113 8.02142C16.3904 8.02142 16.3102 7.67383 16.3102 6.39041Z" fill="#767273"/>
<path d="M27.0054 24.3316C26.6845 24.1177 26.7647 24.0643 27.353 24.0643C27.754 24.0643 28.0749 23.9573 28.0749 23.7969C28.0749 23.6632 27.9412 23.5295 27.754 23.5295C27.5134 23.5295 27.5401 23.3958 27.8075 23.1284C28.4492 22.4867 29.4118 22.9145 29.4118 23.8236C29.4118 24.5455 29.3316 24.599 28.4225 24.599C27.861 24.599 27.2193 24.4653 27.0054 24.3316Z" fill="#7C6E6F"/>
<path d="M14.3583 22.7273C14.4652 22.353 14.3583 22.1925 14.0641 22.1925C13.7968 22.1925 13.7166 22.0321 13.7968 21.7915C13.9037 21.5776 14.1176 21.3904 14.3315 21.3904C14.5454 21.3904 14.7059 21.2032 14.7059 20.9893C14.7059 20.7754 14.893 20.5883 15.1069 20.5883C15.401 20.5883 15.508 20.9091 15.508 21.9252C15.508 23.1551 15.4545 23.2621 14.8663 23.2621C14.3583 23.2621 14.2513 23.1551 14.3583 22.7273Z" fill="#7C6E6F"/>
<path d="M28.2086 23.9305C28.6631 23.5562 28.6899 23.4759 28.3423 23.262C28.0214 23.0481 28.1017 22.9947 28.6899 22.9947C29.091 22.9947 29.492 22.8075 29.5722 22.5936C29.8664 21.8182 30.2407 22.1925 30.1605 23.2086C30.0803 24.1711 30.0535 24.1979 28.8771 24.2781C27.7541 24.3316 27.7006 24.3048 28.2086 23.9305Z" fill="#82696B"/>
<path d="M18.984 31.9518V31.016H20.4546H21.9252V31.9518V32.8877H20.4546H18.984V31.9518Z" fill="#CF2835"/>
<path d="M30.829 31.4973C30.936 30.7219 31.0162 27.5133 31.0162 24.4117V18.7166H31.952H32.8878L32.8344 25.7486L32.7541 32.754L31.7114 32.8342L30.6686 32.9144L30.829 31.4973Z" fill="#CF2835"/>
<path d="M31.0161 15.4545C31.0161 14.0909 31.1498 12.5133 31.3102 11.9518C31.5509 11.0695 31.6578 10.9625 32.4867 10.9625C33.3423 10.9625 33.3958 10.9091 33.476 9.97323C33.5562 8.98393 33.583 8.95719 34.706 8.87698C35.8289 8.79676 35.8289 8.79676 35.8289 9.67912C35.8289 10.8021 35.4279 11.2299 34.3584 11.2299H33.5027L33.2086 13.3155C33.0215 14.4385 32.8878 15.9358 32.8878 16.6577V17.9144H31.9519H31.0161V15.4545Z" fill="#CF2835"/>
<path d="M2.40649 26.8716C2.40649 23.5026 2.48671 20.2674 2.56692 19.7059L2.75409 18.7166H5.21398H7.70061L7.80756 20.6149C7.88778 22.3529 7.96799 22.5936 8.77013 23.2887C9.49206 23.9572 9.86639 24.0641 11.1231 24.0641C12.7274 24.0641 13.984 23.5561 14.4386 22.754C14.5723 22.4599 14.706 21.4438 14.706 20.4813V18.7166H18.8503H22.9947V20.4813C22.9947 22.139 23.0482 22.2994 23.9038 23.1551C24.7327 23.9839 24.9733 24.0641 26.3102 24.0641C29.0375 24.0641 29.9466 23.1283 29.9466 20.3208V18.7166H31.2835H32.6204V25.6684C32.6204 31.0962 32.5402 32.6738 32.2728 32.7807C32.0856 32.8342 25.2942 32.9412 17.1659 32.9679L2.40649 33.0214V26.8716ZM32.0322 25.508L31.952 19.385L31.8183 25.7219C31.7381 29.1978 31.7648 31.9786 31.8985 31.8449C32.0054 31.7379 32.0589 28.877 32.0322 25.508Z" fill="#E41627"/>
<path d="M2.45998 15.1604C2.59367 11.8716 3.20865 10.4813 4.94661 9.49195C5.96266 8.90371 6.33699 8.85024 11.5776 8.77002C15.8824 8.71655 17.1124 8.77002 17.1124 9.0374C17.1124 9.2513 17.6739 9.35826 18.984 9.35826C20.2942 9.35826 20.8557 9.2513 20.8557 9.0374C20.8557 8.77002 21.7113 8.68981 24.198 8.68981C26.6846 8.68981 27.5402 8.77002 27.5402 9.0374C27.5402 9.2513 28.1284 9.35826 29.5455 9.35826C31.2033 9.35826 31.5509 9.27804 31.5509 8.93045C31.5509 8.60959 31.7113 8.52938 32.1659 8.66307C32.4867 8.74328 33.3423 8.8235 34.0643 8.8235H35.3744L35.2407 9.99997C35.1338 10.8556 34.8664 11.3903 34.2782 11.9786C33.0215 13.2085 32.6204 14.2246 32.6204 16.1764V17.9144H31.2835C30.0001 17.9144 29.9466 17.8877 29.9466 17.1925C29.9466 15.8021 29.6525 15.6417 26.7381 15.5615C23.6899 15.4545 22.9947 15.7486 22.9947 17.1657V17.9144H18.8504H14.706V16.9786C14.706 15.7486 14.091 15.508 10.9894 15.508C8.39581 15.508 7.7541 15.8288 7.7541 17.1925V17.9144H5.05357H2.32629L2.45998 15.1604ZM32.1391 14.7593C32.1926 14.0107 32.1391 13.369 32.0322 13.369C31.8985 13.369 31.845 14.2513 31.845 15.3208C31.8985 17.3529 32.0054 17.139 32.1391 14.7593Z" fill="#E41627"/>
<path d="M3.18184 34.7593C2.48666 34.0641 2.3797 33.7968 2.45992 32.7005C2.54013 31.524 3.20858 30.6417 3.20858 31.7379C3.20858 32.1925 3.79682 32.2192 17.2995 32.1658C25.0535 32.1123 31.5508 32.0321 31.738 31.9786C32.0054 31.8716 32.0856 30.401 32.0856 25.6684V19.5187H31.0161H29.9466V18.2353V16.9519L31.0161 17.0588L32.0856 17.1658L32.1123 15.3476C32.1391 14.3315 32.1658 13.3957 32.2193 13.2353C32.246 13.1016 32.2995 12.8075 32.2995 12.647C32.3262 12.4599 32.9679 11.7112 33.7433 10.9625C35.1337 9.62565 35.1337 9.62565 34.3583 9.62565C33.6097 9.62565 33.6097 9.59891 34.0375 9.1711C34.4653 8.7433 35.0802 8.68982 39.1444 8.68982L43.7968 8.71656L45.0802 9.49196C47.0054 10.6952 47.5669 12.0321 47.5936 15.3208V17.9144H40.2407C33.877 17.9144 32.8877 17.9679 32.8877 18.3155C32.8877 18.6631 33.877 18.7166 40.2407 18.7166H47.5936V26.4171C47.5669 34.4652 47.5669 34.5989 46.3369 35.2406C45.9091 35.4813 40.2407 35.5615 24.8663 35.5615H3.95724L3.18184 34.7593Z" fill="#A70C18"/>
<path d="M2.40637 18.984C2.40637 16.7915 2.48659 16.3102 2.80744 16.3102C3.02135 16.3102 3.20851 16.4973 3.20851 16.7113C3.20851 17.0321 3.63632 17.1123 5.48124 17.1123H7.75397V18.3155V19.5187H5.64167H3.5561L3.36894 20.5883C3.26199 21.2834 3.07482 21.6578 2.80744 21.6578C2.48659 21.6578 2.40637 21.1765 2.40637 18.984Z" fill="#A70C18"/>
<path d="M14.7593 19.2514L14.7058 16.9786L18.8502 17.0589L22.9946 17.1391V18.3155V19.5187H19.0106H14.9999L14.893 20.5348C14.8395 21.0695 14.786 20.5081 14.7593 19.2514Z" fill="#A70C18"/>
<path d="M46.7915 19.9198C46.7915 19.5722 45.8021 19.5187 39.4385 19.5187H32.0856V18.3155V17.1123H39.4385C45.8021 17.1123 46.7915 17.0588 46.7915 16.7113C46.7915 16.4973 46.9251 16.3102 47.0588 16.3102C47.2193 16.3102 47.3262 17.1658 47.3262 18.3155C47.3262 19.4653 47.2193 20.3209 47.0588 20.3209C46.9251 20.3209 46.7915 20.1337 46.7915 19.9198Z" fill="#2B2B2B"/>
<path d="M4.14433 37.4599C2.32615 37.0054 1.01599 35.722 0.534705 33.9305C0.320801 33.2086 0.267325 29.4653 0.320801 22.7808C0.401015 12.8075 0.401015 12.6738 1.04273 11.2835C1.81813 9.57222 3.71652 7.80752 5.50797 7.11233C6.47053 6.76474 7.80743 6.57757 10.508 6.49736C13.877 6.36367 14.1711 6.31019 14.1711 5.82891C14.1711 5.02677 14.9465 3.39575 15.7219 2.56688C16.1229 2.13907 17.0588 1.52409 17.7807 1.1765C19.0374 0.588266 19.4117 0.53479 24.3582 0.53479C29.4652 0.53479 29.5989 0.561528 30.9893 1.22998C32.5133 2.00538 34.0106 3.93051 34.3582 5.50805L34.5187 6.33693L39.0374 6.47062C43.262 6.60431 43.6363 6.65778 45.0267 7.32623C46.9251 8.26206 48.0481 9.38506 48.9037 11.23L49.5989 12.7006L49.6791 22.9145C49.7326 29.492 49.6524 33.5294 49.4652 34.1979C49.1176 35.4813 47.5133 37.0054 46.0695 37.4064C44.9197 37.7273 5.48123 37.7808 4.14433 37.4599ZM45.5347 34.4653C46.7914 33.9038 46.8449 33.476 46.6844 25.7754C46.6042 21.8182 46.5508 18.3423 46.5508 18.0482C46.5508 17.754 46.6042 16.6043 46.6577 15.5081C46.8449 12.9145 46.1764 11.4974 44.2513 10.2941L42.9679 9.49201L37.2459 9.54549L31.5508 9.57222V7.99468C31.5508 5.9626 31.016 4.70591 29.893 4.01073C29.0909 3.52944 28.5561 3.47597 24.1176 3.47597H19.2513L18.2352 4.38506C17.2994 5.26741 17.2459 5.4011 17.1122 7.40645L16.9786 9.49201L11.7647 9.6257C5.80209 9.78613 5.21385 9.97329 4.01064 12.0856L3.34219 13.2353L3.26198 23.2086L3.18176 33.1551L3.9839 33.9572L4.7593 34.7594H24.8395C38.9572 34.7594 45.0802 34.6792 45.5347 34.4653Z" fill="#070707"/>
<path d="M20.8556 8.42245V7.21924H24.1978H27.5401V8.42245V9.62566H24.1978H20.8556V8.42245Z" fill="#070707"/>
</g>
<defs>
<clipPath id="clip0">
<rect width="50" height="37.7005" fill="white"/>
</clipPath>
</defs>
</svg>
