<svg width="28" height="35" viewBox="0 0 32 41" fill="none" xmlns="http://www.w3.org/2000/svg">
<path d="M22.5692 22.0179C22.5692 22.0179 22.569 22.0167 22.5687 22.014C22.5692 22.0165 22.5693 22.0178 22.5692 22.0179ZM22.5907 21.7824C22.6216 21.6066 22.6846 21.3574 22.7826 20.9984C22.7942 20.9557 22.8062 20.912 22.8184 20.8675C23.0854 19.8924 23.4736 18.4747 23.4628 16.7669C23.4399 13.1113 21.6055 8.38806 13.9189 3.37191L11.9839 2.10916L12.805 4.25861C12.8059 4.26149 12.8075 4.26641 12.8095 4.2734C12.8159 4.29508 12.8273 4.33674 12.8404 4.3987C12.8664 4.52247 12.8993 4.72828 12.9121 5.01885C12.9376 5.59903 12.8832 6.52514 12.5266 7.81852C11.8125 10.4086 9.88439 14.4778 4.95449 20.1736C2.37638 23.1416 1.31068 25.8846 1.25252 28.3583C1.19445 30.8286 2.14375 32.9217 3.39011 34.5885C4.63311 36.2508 6.1926 37.5191 7.42543 38.3668C8.04462 38.7925 8.58825 39.1168 8.97913 39.3356C9.17472 39.4451 9.33251 39.5285 9.44292 39.5852C9.46057 39.5943 9.47702 39.6027 9.49221 39.6104C9.50572 39.6175 9.51843 39.6241 9.53032 39.6301C9.56112 39.6458 9.58643 39.6581 9.60557 39.6672L9.6296 39.6783L9.63801 39.6821L9.64128 39.6835L9.64268 39.6842C9.64332 39.6844 9.64393 39.6847 9.94493 38.9978L9.64393 39.6847L10.2589 38.3378C10.2672 38.3205 10.2672 38.3205 10.2673 38.3206L10.2668 38.3204L10.2667 38.3203L10.2614 38.3177L10.2359 38.3052C10.222 38.2984 10.2037 38.2893 10.1812 38.2779C10.149 38.2608 10.1065 38.2372 10.0558 38.2068C9.91776 38.1241 9.72117 37.9923 9.50398 37.8042C9.06999 37.4283 8.56194 36.8351 8.26167 35.9598C7.67242 34.2419 7.79454 31.1342 11.657 25.9634L11.657 25.9634L11.6602 25.9591C12.0494 25.4301 12.4941 24.8944 12.9867 24.3009C13.9972 23.0834 15.2099 21.6225 16.5611 19.4764C16.6248 19.6358 16.6885 19.8144 16.7487 20.0124C17.0839 21.114 17.32 22.8441 16.8209 25.2596L16.8206 25.2611C16.4043 27.2963 16.6205 28.8235 17.3368 29.9228C18.0531 31.0221 19.1736 31.5464 20.2482 31.7827C21.3202 32.0184 22.4242 31.9865 23.2402 31.9118C23.6508 31.8742 23.9992 31.8246 24.2424 31.7887C24.6092 32.2541 24.7151 32.7741 24.6531 33.3446C24.5759 34.0545 24.2338 34.8389 23.7521 35.6068C23.2761 36.3657 22.6976 37.0553 22.2141 37.5667C21.9733 37.8214 21.7607 38.0269 21.6026 38.1701C21.5231 38.242 21.4612 38.2947 21.419 38.3285C21.4103 38.3355 21.4032 38.3411 21.3975 38.3455C21.3897 38.35 21.3809 38.3551 21.3728 38.36C21.3673 38.3634 21.3535 38.3723 21.345 38.3779C21.3299 38.3884 21.2805 38.4267 21.2475 38.4562C21.1187 38.6179 21.1525 39.434 21.7054 39.7477C21.8235 39.7477 21.9718 39.7207 22.0033 39.7109C22.0177 39.7059 22.04 39.6975 22.0482 39.6942L22.0663 39.6866L22.0836 39.6788C22.1153 39.6642 22.1464 39.6471 22.1758 39.6292C22.1948 39.6187 22.2196 39.6051 22.2484 39.5891C22.3478 39.5339 22.5009 39.4473 22.6967 39.3305C23.0878 39.0973 23.6497 38.7432 24.2968 38.2759C25.5854 37.3456 27.2387 35.9474 28.5486 34.1385C29.861 32.3261 30.8532 30.0654 30.7414 27.4371C30.6294 24.8029 29.4135 21.915 26.5302 18.8444L26.0501 18.333L25.5078 18.7779C25.2101 19.0221 24.9421 19.4368 24.7338 19.7592L24.7308 19.7638C24.7024 19.8078 24.6741 19.8518 24.6457 19.8958C24.4343 20.2242 24.2225 20.5533 23.982 20.8582C23.5052 21.4628 23.071 21.7776 22.5907 21.7824ZM21.3797 38.3587C21.3798 38.3586 21.3807 38.3579 21.3824 38.3568C21.3805 38.3582 21.3796 38.3587 21.3797 38.3587Z" fill="white" stroke="black" stroke-width="1.5"/>
</svg>
