<svg width="48" height="50" viewBox="0 0 48 50" fill="none" xmlns="http://www.w3.org/2000/svg">
<path d="M28.8157 49.0527C25.7367 48.4474 23.6052 47.2106 20.5262 44.2106C19.0525 42.7632 17.8157 41.579 17.7894 41.579C17.7631 41.579 17.7367 42 17.7104 42.5C17.6578 43.7369 16.8946 44.9737 15.7631 45.7369C14.9473 46.3158 14.6578 46.3685 12.7631 46.2369C8.97358 46 5.57885 44.1579 3.31569 41.0527C1.71043 38.8948 0.9999 36.9211 0.868321 34.3421C0.763057 32.5527 0.842005 32.1053 1.28937 31.3685C1.94727 30.3421 3.28937 29.4737 4.28937 29.4737C4.68411 29.4737 4.9999 29.4211 4.9999 29.3685C4.9999 29.3158 4.76306 28.7632 4.47358 28.1316C3.81569 26.6579 3.81569 24.8685 4.44727 23.579C4.94727 22.6053 4.94727 22.6053 4.39464 21.6316C3.4999 20.1316 3.57885 17.6316 4.55253 15.9737C5.26306 14.7632 7.10516 13.1579 7.76306 13.1579C7.94727 13.1579 8.28937 12.6843 8.55253 12.1053C9.4999 10 11.6841 8.6053 14.0788 8.55267C15.3946 8.52636 15.842 8.39478 16.7894 7.71057C18.7367 6.28951 21.2894 6.00004 23.2367 7.00004L23.9736 7.39478L23.5262 6.55267C22.9999 5.50004 23.1578 3.63162 23.8683 2.65794C24.7631 1.47373 25.9473 0.94741 27.6841 1.00004C30.9999 1.1053 33.6315 2.28951 36.2104 4.84215C38.0789 6.71057 39.0262 8.18425 39.6052 10.1316C39.8946 11.079 40.0525 11.2106 41.2104 11.5527C43.1052 12.079 44.4999 13.1579 45.3946 14.7895L46.1841 16.1843L46.1315 26.5C46.1052 34.9474 46.0262 37.1053 45.6841 38.4474C44.2894 43.8948 39.6841 48.079 34.0262 49.079C31.5525 49.5264 31.1841 49.5264 28.8157 49.0527V49.0527Z" fill="black"/>
<path d="M29.5526 46.8684C29.4737 46.5789 29 46.2631 28.3421 46.0526C26.5 45.5 25.5263 44.921 24.6842 43.8947C24.2105 43.2894 23.6842 42.8947 23.3421 42.8947C22.8684 42.8947 22.8421 42.8421 23.1579 42.6316C23.4737 42.421 23.4737 42.3684 23.079 42.2105C22.8421 42.1315 22.4737 42.1052 22.2632 42.1842C22.079 42.2631 21.5526 41.9737 21.1579 41.5263C20.6053 40.9473 20.5 40.6842 20.7368 40.6052C21.1842 40.4473 20.1053 39.2105 19.5526 39.2105C19.3158 39.2105 19.2632 39.0789 19.3684 38.8947C19.5263 38.6316 19.4737 38.6316 19.1842 38.8947C18.6842 39.3421 18.4211 39.2894 18.4211 38.6842C18.4211 38.2894 18.2368 38.1579 17.7632 38.1579C17.079 38.1579 16.8947 37.7894 17.3947 37.4737C17.7368 37.2631 16.3947 35.7894 15.8684 35.7894C15.6579 35.7894 15.5526 35.6842 15.6316 35.5526C15.7895 35.2894 14.6316 34.1316 14.4211 34.3684C14.1316 34.6316 13.1053 33.921 13.2632 33.5526C13.4737 32.9737 12.2632 32.0526 11.5 32.2368C11.0526 32.3684 10.8684 32.5526 10.9737 32.7894C11.0526 33 10.9737 33.3158 10.8158 33.5C10.6579 33.7105 10.579 34.1316 10.6579 34.4737C10.7895 35.1579 11.0526 35.5263 11.0526 35.0263C11.0526 34.7894 11.3421 34.7368 12.1053 34.8684C12.6842 34.9737 13.3158 35.0789 13.5 35.1052C14.079 35.1842 14.4737 35.5526 14.4737 35.9737C14.4737 36.2105 14.6579 36.5263 14.8421 36.6842C15.0526 36.8421 15.3158 37.2631 15.3947 37.6316C15.5263 38.2105 15.4474 38.3421 14.6842 38.6316C13.5263 39.0263 11.2895 38.9737 10.7632 38.5263C10.1316 37.9737 9.47369 38.3421 9.47369 39.2368C9.47369 40.1052 9.52632 40.1316 10.2632 39.6842C10.6579 39.421 10.8421 39.4473 11.2632 39.8158C11.5263 40.0526 11.8684 40.2631 12 40.2631C12.1316 40.2631 12.4474 40.5 12.7105 40.7894C13.1053 41.2631 13.9474 41.4737 14.9474 41.3421C15.3947 41.2631 15.3421 42.5263 14.8421 43.2894C14.5263 43.7894 14.1842 43.9473 13.5263 43.9473C13.0263 43.9473 12.6316 43.8421 12.6316 43.6842C12.6316 43.5526 12.0526 43.421 11.3158 43.421C10.3158 43.421 9.89474 43.2894 9.44737 42.8421C9.05264 42.421 8.84211 42.3421 8.76316 42.5789C8.55264 43.1579 7.89474 42.921 7.89474 42.2631C7.89474 41.4473 7.73685 41.3684 6.36843 41.2894C5.76316 41.2368 5.23685 41.1579 5.21053 41.0789C5.07895 40.5263 5.10527 39.4737 5.28948 39.4737C5.42106 39.4737 5.44737 39.2894 5.34211 39.0526C5.23685 38.7631 5 38.7105 4.44737 38.8158C3.60527 39 3.5 38.8158 4.05264 38.1842C4.57895 37.6052 4.28948 36.3158 3.6579 36.3158C3.13158 36.3158 2.92106 35.3947 3.39474 35.2105C3.52632 35.1842 3.68421 34.1842 3.76316 33.0263L3.86843 30.9473L4.84211 30.8684C5.73685 30.8158 5.81579 30.8684 5.73685 31.4473C5.71053 31.7631 5.89474 32.2894 6.1579 32.6052C6.5 33 6.57895 33.2368 6.36843 33.4737C6.13158 33.7894 6.31579 36.1579 6.60527 36.421C6.6579 36.4737 7.13158 36.5789 7.63158 36.6579C8.13158 36.7368 8.39474 36.7368 8.23685 36.6579C7.71053 36.4737 7.81579 35.7105 8.31579 35.8947C8.63158 36.0263 8.71053 35.9473 8.55264 35.6052C8.44737 35.3421 8.23685 34.6579 8.07895 34.0789C7.92106 33.5 7.68421 32.9473 7.52632 32.8421C7.36843 32.7105 7.47369 32.6316 7.81579 32.6316C8.13158 32.6316 8.47369 32.5 8.57895 32.3421C8.6579 32.1842 9.02632 32.1052 9.36842 32.1842C9.92106 32.2894 10 32.2105 10 31.4473C10 30.8947 9.84211 30.5263 9.57895 30.421C9.34211 30.3421 9.21053 30.0789 9.28948 29.8947C9.47369 29.421 8.81579 28.8421 8.39474 29.1052C8.1579 29.2368 8.13158 29.1579 8.23685 28.8684C8.36842 28.5526 8.26316 28.421 7.89474 28.421C7.28948 28.421 6.97369 28 7.42106 27.8158C7.63158 27.7105 7.52632 27.6052 7.1579 27.4737C6.68421 27.3421 6.63158 27.2368 6.89474 27.0789C7.1579 26.921 7.10527 26.8421 6.71053 26.8421C6.39474 26.8421 6.28948 26.7631 6.47369 26.6316C6.63158 26.5263 6.84211 26 6.92106 25.4737C7.05264 24.6579 6.97369 24.421 6.57895 24.2105C5.92106 23.8684 6.18421 23.1052 6.94737 23.2105C7.39474 23.2631 7.5 23.1579 7.44737 22.5789C7.42106 22.1579 7.52632 21.8421 7.68421 21.8421C7.84211 21.8421 7.84211 21.6842 7.63158 21.4473C7.44737 21.2368 7.10527 21.0526 6.86843 21.0526C6.5 21.0526 6.5 21 6.84211 20.7894C7.1579 20.5789 7.10527 20.5263 6.57895 20.5C6.13158 20.5 6.05264 20.421 6.31579 20.3158C6.86843 20.0526 6.97369 17.1052 6.42106 17.1052C6.07895 17.1052 6.10527 17 6.44737 16.2894C6.78948 15.6579 6.97369 15.5263 7.44737 15.6842C8.23685 15.9473 8.39474 15.9473 9.68421 15.6842C10.6579 15.5 10.7895 15.3947 10.7895 14.7894C10.7895 13.1579 12.7105 11.3158 14.4211 11.3158C14.8684 11.3158 15.2632 11.2105 15.2632 11.0526C15.2632 10.921 15.3947 10.7894 15.5526 10.7894C15.7105 10.7894 15.7895 11 15.7368 11.2631C15.6316 11.5789 15.8421 11.8684 16.3421 12.1579C17.0526 12.5789 17.0526 12.5526 17.2368 11.8947C17.3421 11.5 17.2632 11.1579 17.1053 11.0526C16.6053 10.7368 16.9211 9.86839 17.579 9.78945C17.8947 9.73682 18.1579 9.84208 18.1579 10.0263C18.1579 10.2368 18.3158 10.2105 18.6316 9.92103C18.8947 9.68418 19.5 9.39471 19.9474 9.31576C20.4211 9.2105 20.7895 8.97366 20.7895 8.78945C20.7895 8.57892 20.9211 8.42103 21.0526 8.42103C21.2105 8.42103 21.3158 8.65787 21.3158 8.94734C21.3158 9.26313 21.5 9.47366 21.7368 9.47366C21.9737 9.47366 23.2632 10.5526 24.6053 11.8421C25.9211 13.1579 27.079 14.1316 27.1842 14.0526C27.2895 13.9473 27.4737 14.1579 27.6053 14.5C27.7368 14.8421 29.8158 17.0789 32.2105 19.4737L36.579 23.8158V20.3421C36.579 18.4473 36.6579 16.7105 36.7368 16.5C36.8421 16.2105 36.6842 16.0789 36.1316 16C35.579 15.9473 35.3947 15.7894 35.3947 15.3421C35.3947 15.0263 35.2895 14.6842 35.1842 14.5789C35.079 14.4737 35 13.9737 35 13.4473C35 12.3947 34.8421 12.1052 34.079 11.6842C33.4211 11.3158 33.2368 10.5263 33.7895 10.5263C34.0526 10.5263 34.1316 10.3684 34.0526 10.1316C33.9474 9.92103 33.7105 9.73682 33.5 9.73682C33.2895 9.73682 32.7895 9.5526 32.3684 9.34208C31.9474 9.13155 31.5526 9.0526 31.4737 9.15787C31.2105 9.57892 31.6316 10.4737 32.1579 10.6052C32.5526 10.7105 32.6579 10.921 32.5526 11.2894C32.4737 11.5789 32.5263 12.3158 32.6579 12.921C33.0526 14.6316 32.8158 15 31.2895 15C30.3158 15 30 14.8947 30 14.6052C30 14.3947 30.1316 14.2105 30.2632 14.2105C30.8684 14.2105 30.4737 13.7105 29.7368 13.5526C28.9211 13.3684 28.7368 13.0526 29.2368 12.7368C29.4474 12.6052 29.3947 12.4737 29.1053 12.3158C28.8684 12.1842 28.6842 11.8947 28.6842 11.6842C28.6842 11.3947 28.5263 11.3421 28.1842 11.4473C27.579 11.6316 27.1579 11.0789 27.6579 10.7631C27.9211 10.6052 27.7105 10.5263 27.079 10.5263C26.079 10.5263 25.2105 9.92103 25.8421 9.65787C26.0526 9.55261 26.0263 9.49997 25.7368 9.49997C25.079 9.47366 25.1316 8.65787 25.7895 8.49997C26.3421 8.34208 26.5263 7.89471 26.0263 7.89471C25.8684 7.89471 25.7895 7.68418 25.8421 7.44734C25.9474 6.84208 28.1316 6.47366 28.3421 7.02629C28.4737 7.34208 28.8421 7.5526 30.8421 8.44734C31.1579 8.60524 31.2368 8.52629 31.1842 8.2105C31.1579 7.97366 31.2368 7.68418 31.3684 7.60524C31.8158 7.31576 29.9737 6.57892 27.7105 6.13155C26.5 5.89471 25.5263 5.60524 25.5263 5.47366C25.5263 5.36839 25.6579 5.26313 25.7895 5.26313C26.1579 5.26313 26.1053 4.26313 25.7368 4.13155C25.5526 4.07892 25.4474 3.94734 25.5263 3.86839C25.6842 3.7105 29.7105 4.07892 30.3421 4.34208C30.6579 4.47366 30.7895 4.39471 30.7895 4.10524C30.7895 3.52629 31.8158 3.55261 32.0263 4.13155C32.2368 4.7105 32.579 5.10524 33.3684 5.86839C33.9737 6.44734 34.8684 6.73682 34.579 6.26313C34.4737 6.10524 34.6316 6.05261 34.8947 6.10524C35.1842 6.15787 35.3947 6.36839 35.3947 6.57892C35.3947 6.78945 35.5526 7.13155 35.7368 7.31576C36.1053 7.73682 36.1579 8.52629 35.7895 8.28945C35.2105 7.92103 36.1842 9.49997 36.7895 9.89471C37.2632 10.2105 37.3421 10.3947 37.1316 10.6052C36.6842 11.0526 36.7895 11.3158 37.3684 11.3158C37.6579 11.3158 37.8947 11.4473 37.8947 11.5789C37.8947 11.7368 37.7895 11.8421 37.6316 11.8421C37.5 11.8421 37.3684 12.421 37.3684 13.1316C37.3684 14.0789 37.4737 14.4473 37.8158 14.5789C38.0526 14.6842 38.3684 14.6316 38.5263 14.4737C38.6579 14.3421 39.1842 14.2105 39.6579 14.2105C40.3421 14.2105 40.5263 14.1052 40.5263 13.6842C40.5263 12.8684 41.0526 13.0526 41.2368 13.9473C41.3158 14.3947 41.5263 14.7368 41.6842 14.7631C41.8421 14.7894 42.2105 14.8158 42.5 14.8421C42.7895 14.8421 43.0526 15.0789 43.1053 15.3684C43.1842 15.7105 43.1053 15.7894 42.8421 15.6316C42.6316 15.5 42.6842 15.7105 42.9737 16.1579C43.4474 16.8421 43.4737 17.5263 43.3421 26.9473C43.2368 37.0789 43.1579 37.8158 42.1579 39.9473C41.8158 40.7105 41.8158 40.8684 42.1316 41.1052C42.4211 41.2894 42.3684 41.3421 41.9211 41.2368C41.2632 41.1052 40.9211 41.7105 41.2105 42.4737C41.3158 42.7894 41.2105 42.8947 40.8158 42.8947C40.5 42.8947 40.1842 43.0789 40.1053 43.2894C40 43.5 39.7368 43.6842 39.4737 43.6842C39.2368 43.6842 38.8158 43.921 38.5526 44.2105C38.2895 44.5 37.9737 44.7368 37.8421 44.7368C37.7105 44.7368 37.1316 45.0263 36.5526 45.421C35.7895 45.8947 34.8947 46.1579 33.3684 46.3158C32.2105 46.4473 31.1579 46.5263 31.0526 46.4473C30.9737 46.3947 30.7105 46.5789 30.5263 46.8684C30.0526 47.5 29.7368 47.5 29.5526 46.8684V46.8684Z" fill="#010708"/>
<path d="M29.5527 46.8684C29.4738 46.579 29.0001 46.2632 28.3422 46.0526C26.5001 45.5 25.5264 44.9211 24.6843 43.8948C24.2106 43.2895 23.6843 42.8948 23.3422 42.8948C22.8685 42.8948 22.8422 42.8421 23.158 42.6316C23.4738 42.4211 23.4738 42.3684 23.079 42.2105C22.8422 42.1316 22.4738 42.1053 22.2633 42.1842C22.079 42.2632 21.5527 41.9737 21.158 41.5263C20.6054 40.9474 20.5001 40.6842 20.7369 40.6053C21.1843 40.4474 20.1054 39.2105 19.5527 39.2105C19.3159 39.2105 19.2633 39.079 19.3685 38.8948C19.5264 38.6316 19.4738 38.6316 19.1843 38.8948C18.6843 39.3421 18.4211 39.2895 18.4211 38.6842C18.4211 38.2895 18.2369 38.1579 17.7633 38.1579C17.079 38.1579 16.8948 37.7895 17.3948 37.4737C17.7369 37.2632 16.3948 35.7895 15.8685 35.7895C15.658 35.7895 15.5527 35.6842 15.6317 35.5527C15.7896 35.2895 14.6317 34.1316 14.4211 34.3684C14.1317 34.6316 13.1054 33.9211 13.2633 33.5526C13.4738 32.9474 12.2633 32.0526 11.4738 32.2632C10.6317 32.4737 10.0001 32 10.0001 31.1842C10.0001 30.8421 9.81588 30.5 9.57904 30.4211C9.3422 30.3421 9.21062 30.079 9.28957 29.8948C9.47378 29.4211 8.81588 28.8421 8.39483 29.1053C8.15799 29.2369 8.13167 29.1579 8.23694 28.8684C8.36852 28.5526 8.26325 28.4211 7.89483 28.4211C7.28957 28.4211 6.97378 28 7.42115 27.8158C7.63167 27.7105 7.52641 27.6053 7.15799 27.4737C6.68431 27.3421 6.63167 27.2369 6.89483 27.079C7.15799 26.9211 7.10536 26.8421 6.71062 26.8421C6.39483 26.8421 6.28957 26.7632 6.47378 26.6316C6.63167 26.5263 6.8422 26 6.92115 25.4737C7.05273 24.6579 6.97378 24.4211 6.57904 24.2105C5.92115 23.8684 6.18431 23.1053 6.94746 23.2105C7.39483 23.2632 7.50009 23.1579 7.44746 22.579C7.42115 22.1579 7.52641 21.8421 7.68431 21.8421C7.8422 21.8421 7.8422 21.6842 7.63167 21.4474C7.44746 21.2369 7.10536 21.0526 6.86852 21.0526C6.50009 21.0526 6.50009 21 6.8422 20.7895C7.15799 20.579 7.10536 20.5263 6.57904 20.5C6.13167 20.5 6.05273 20.4211 6.31588 20.3158C6.86852 20.0526 6.97378 17.1053 6.42115 17.1053C6.07904 17.1053 6.10536 17 6.44746 16.2895C6.78957 15.6579 6.97378 15.5263 7.44746 15.6842C8.23694 15.9474 8.39483 15.9474 9.68431 15.6842C10.658 15.5 10.7896 15.3948 10.7896 14.7895C10.7896 13.1579 12.7106 11.3158 14.4211 11.3158C14.8685 11.3158 15.2633 11.2105 15.2633 11.0527C15.2633 10.9211 15.3948 10.7895 15.5527 10.7895C15.7106 10.7895 15.7896 11 15.7369 11.2632C15.6317 11.579 15.8422 11.8684 16.3422 12.1579C17.0527 12.579 17.0527 12.5527 17.2369 11.8948C17.3422 11.5 17.2633 11.1579 17.1054 11.0527C16.6054 10.7369 16.9211 9.86844 17.579 9.78949C17.8948 9.73686 18.158 9.84212 18.158 10.0263C18.158 10.2369 18.3159 10.2105 18.6317 9.92107C18.8948 9.68423 19.5001 9.39476 19.9475 9.31581C20.4211 9.21055 20.7896 8.9737 20.7896 8.78949C20.7896 8.57897 20.9211 8.42107 21.0527 8.42107C21.2106 8.42107 21.3159 8.65791 21.3159 8.94739C21.3159 9.26318 21.5001 9.4737 21.7369 9.4737C21.9738 9.4737 23.2633 10.5527 24.6054 11.8421C25.9211 13.1579 27.079 14.1316 27.1843 14.0527C27.2896 13.9474 27.4738 14.1579 27.6054 14.5C27.7369 14.8421 29.8159 17.079 32.1843 19.4474L36.5264 23.7632L36.6317 19.9474C36.6843 16.7369 36.7896 16.0263 37.1843 15.6053C37.8422 14.8421 37.7369 14.6842 36.7106 14.8948C35.5264 15.1053 35.0001 14.6842 35.0001 13.5263C35.0001 12.079 34.0001 9.84212 32.7896 8.60528C31.4475 7.21055 30.4211 6.68423 28.3159 6.26318C26.3685 5.89476 25.9211 5.55265 26.158 4.6316C26.3159 4.00002 26.4475 3.94739 27.7369 3.94739C28.5001 3.94739 29.5264 4.07897 30.0001 4.26318C30.6843 4.50002 30.9211 4.50002 31.0001 4.26318C31.158 3.76318 31.579 3.89476 31.579 4.42107C31.579 4.71055 31.8685 5.05265 32.2369 5.21055C33.2896 5.68423 35.1843 7.57897 35.9211 8.86844C36.7106 10.3158 37.3685 12.4211 37.3685 13.579C37.3685 14.4737 38.0264 14.9737 38.5264 14.4737C38.658 14.3421 39.1843 14.2105 39.658 14.2105C40.3422 14.2105 40.5264 14.1053 40.5264 13.6842C40.5264 12.8684 41.0527 13.0527 41.2369 13.9474C41.3159 14.3948 41.5264 14.7369 41.6843 14.7632C41.8422 14.7895 42.2106 14.8158 42.5001 14.8421C42.7896 14.8421 43.0527 15.079 43.1054 15.3684C43.1843 15.7105 43.1054 15.7895 42.8422 15.6316C42.6317 15.5 42.6843 15.7105 42.9738 16.1579C43.4475 16.8421 43.4738 17.5263 43.3422 26.9474C43.2369 37.079 43.158 37.8158 42.158 39.9474C41.8159 40.7105 41.8159 40.8684 42.1317 41.1053C42.4211 41.2895 42.3685 41.3421 41.9211 41.2369C41.2633 41.1053 40.9211 41.7105 41.2106 42.4737C41.3159 42.7895 41.2106 42.8948 40.8159 42.8948C40.5001 42.8948 40.1843 43.079 40.1054 43.2895C40.0001 43.5 39.7369 43.6842 39.4738 43.6842C39.2369 43.6842 38.8159 43.9211 38.5527 44.2105C38.2896 44.5 37.9738 44.7369 37.8422 44.7369C37.7106 44.7369 37.1317 45.0263 36.5527 45.4211C35.7896 45.8948 34.8948 46.1579 33.3685 46.3158C32.2106 46.4474 31.158 46.5263 31.0527 46.4474C30.9738 46.3948 30.7106 46.579 30.5264 46.8684C30.0527 47.5 29.7369 47.5 29.5527 46.8684V46.8684Z" fill="#0B0902"/>
<path d="M10.7895 43.1053C10.421 42.9474 9.78947 42.6579 9.36841 42.4737C8.94736 42.2632 8.47368 42.1842 8.31578 42.2895C8.15789 42.3685 8.10526 42.3685 8.21052 42.2369C8.44736 42 7.44736 41.1579 6.71052 41C6.42105 40.9474 6.21052 40.7369 6.26315 40.5527C6.31578 40.3421 6.13157 39.9474 5.8421 39.6316C4.49999 38.1053 3.6842 35.9474 3.6842 33.8948C3.6842 32.9211 3.78947 32.579 4.1842 32.3685C5.21052 31.8422 6.05262 32.6843 6.05262 34.2369C6.05262 35.079 7.28947 38.1843 7.60526 38.079C7.89473 38 8.8421 38.7895 9.15789 39.3685C9.55262 40.1053 10.9474 40.7632 12.921 41.1316C14.6842 41.4474 15.2368 41.9737 14.7368 42.8948C14.5 43.3421 14.1842 43.4211 12.9474 43.3948C12.1316 43.3948 11.1579 43.2632 10.7895 43.1053V43.1053Z" fill="#030E10"/>
<path d="M11.9736 38.7632C11.7104 38.6842 11.2104 38.4474 10.8947 38.2369C10.5789 38.0263 10.0789 37.8948 9.81571 37.9474C9.47361 38 9.34203 37.8685 9.36834 37.4474C9.36834 37.1053 9.23676 36.8421 9.07887 36.8421C8.57887 36.8421 8.05255 36.1316 8.44729 36C8.68413 35.9211 8.68413 35.7632 8.44729 35.3158C8.26308 34.9737 8.15782 34.2106 8.21045 33.6053C8.2894 32.579 8.34203 32.5 9.07887 32.4211C10.1578 32.3421 10.4473 32.6053 10.5789 33.8421C10.7368 35.079 10.9736 35.6053 11.342 35.3948C11.4736 35.2895 11.5789 35.4211 11.5789 35.6316C11.5789 36.1316 12.1841 36.4474 13.4736 36.6842C14.8157 36.9211 15.3157 38.1053 14.3683 38.7369C14.0526 38.9474 12.7894 38.9737 11.9736 38.7632V38.7632Z" fill="#030E10"/>
<path d="M30.8421 14.6842C30.6579 14.5 30.5263 14.1579 30.5263 13.8948C30.5263 13.6316 30.3421 13.4211 30.1316 13.4211C29.921 13.4211 29.7368 13.3158 29.7368 13.1579C29.7368 13.0263 29.8684 12.8948 30 12.8948C30.4737 12.8948 30.2631 12.4211 29.7368 12.2895C29.4473 12.2105 29.1052 11.8421 28.9473 11.4737C28.7631 10.9474 28.4473 10.7632 27.6579 10.6316C26.1316 10.3948 25.8947 10 26.3684 8.4737C26.6842 7.55265 26.921 7.21054 27.3684 7.15791C27.8947 7.07897 27.9473 7.1316 27.7895 7.73686C27.6579 8.23686 27.7368 8.42107 28 8.42107C28.2105 8.42107 28.421 8.31581 28.4737 8.15791C28.5789 7.86844 29.7368 8.10528 29.7368 8.44739C29.7368 8.55265 30.3158 9.23686 31.0263 9.94739C32.1052 11.0263 32.3684 11.5 32.6316 12.7369C32.8684 13.8948 32.8684 14.3158 32.6316 14.6053C32.2368 15.079 31.2631 15.1053 30.8421 14.6842V14.6842Z" fill="#030E10"/>
<path d="M35.3157 14.6842C35.1315 14.5 34.9999 13.9737 34.9999 13.5C34.9999 12.079 33.9999 9.84212 32.7894 8.60528C31.4472 7.21054 30.4209 6.68423 28.3157 6.26318C26.3683 5.89476 25.9209 5.55265 26.1578 4.6316C26.3157 4.00002 26.4473 3.94739 27.7367 3.94739C28.4999 3.94739 29.5262 4.07897 29.9999 4.26318C30.6841 4.50002 30.9209 4.50002 30.9999 4.26318C31.1578 3.76318 31.5788 3.89476 31.5788 4.42107C31.5788 4.71055 31.8683 5.05265 32.2367 5.21054C34.1315 6.07897 36.1841 8.76317 36.9736 11.3948C37.6841 13.7895 37.4209 15 36.1841 15C35.8683 15 35.4999 14.8684 35.3157 14.6842Z" fill="#030E10"/>
<path d="M28.7632 46.0526C26.4474 45.4473 25.3947 44.921 24.8421 44.0789C24.6053 43.7105 20.579 39.8684 15.8684 35.5C11.1842 31.1315 7.23685 27.3421 7.07896 27.0789C6.44738 25.8684 7.00001 24.2105 8.3158 23.5263L9.21054 23.0526L8.18422 21.9736C7.63159 21.3947 7.02633 20.6579 6.86843 20.3421C5.92106 18.4736 7.39475 16.0526 9.73685 15.6579C10.6579 15.5 10.7895 15.3947 10.7895 14.7894C10.7895 13.2105 12.7105 11.3157 14.2895 11.3157C14.6842 11.3157 15.4737 11.6052 16.0263 11.9736L17.0526 12.6052L17.2105 11.9736C17.4474 11 18.8684 9.52627 19.7369 9.34206C21.579 8.94733 21.8947 9.18417 29.3947 16.6579L36.5263 23.7631L36.6316 19.8947L36.7105 16L37.5526 15.2631C39.2105 13.7631 41.3947 14.0263 42.7368 15.8684C43.2632 16.5789 43.2895 16.9736 43.3684 25.2105C43.4211 30.0526 43.3158 34.7894 43.1842 36.0526C42.8421 38.8684 41.8158 41.0263 39.9211 42.9473C36.8947 46 32.9211 47.1052 28.7632 46.0526V46.0526Z" fill="#C68605"/>
<path d="M28.7632 46.0526C26.4474 45.4473 25.3947 44.921 24.8421 44.0789C24.6053 43.7105 20.579 39.8684 15.8684 35.5C11.1842 31.1315 7.23685 27.3421 7.07896 27.0789C6.44738 25.8684 7.00001 24.2105 8.3158 23.5263L9.21054 23.0526L8.18422 21.9736C7.47369 21.2368 7.1579 20.6842 7.1579 20.1579C7.1579 19.7631 7.05264 19.3421 6.86843 19.2368C6.39475 18.921 7.05264 17.2105 7.92106 16.4736C8.94738 15.6052 10.6579 15.421 11.1053 16.1052C11.2369 16.3421 11.3421 16.2894 11.4737 15.9473C11.6053 15.6315 11.5263 15.3421 11.2369 15.1315C10.9737 14.9473 10.7895 14.6579 10.7895 14.4473C10.7895 13.7894 11.8158 12.3684 12.6842 11.8421C13.8421 11.1579 14.7895 11.1842 16.0263 11.9736L17.0526 12.6052L17.2105 11.9736C17.4474 11 18.8684 9.52627 19.7369 9.34206C21.579 8.94733 21.8947 9.18417 29.3947 16.6579L36.5263 23.7631L36.6316 19.8947L36.7105 16L37.5526 15.2631C39.2105 13.7631 41.3947 14.0263 42.7369 15.8684C43.2632 16.5789 43.2895 16.9736 43.3684 25.2105C43.4211 30.0526 43.3158 34.7894 43.1842 36.0526C42.8421 38.8684 41.8158 41.0263 39.9211 42.9473C36.8947 46 32.9211 47.1052 28.7632 46.0526V46.0526Z" fill="#D18A01"/>
<path d="M28.7631 46.0526C26.4473 45.4474 25.3947 44.921 24.8421 44.0789C24.6052 43.7105 20.5789 39.8684 15.8684 35.5C11.1842 31.1316 7.2368 27.3421 7.07891 27.0789C6.76312 26.4737 6.76312 25.421 7.13154 24.6579C7.52628 23.7631 8.81575 23.0526 9.3947 23.3947C9.65786 23.5263 11.5789 25.3684 13.6842 27.4737C17.2631 31.0789 17.5 31.2631 17.9473 30.8684C18.2105 30.6316 18.421 30.5789 18.421 30.7105C18.421 30.8684 18.6579 31.0526 18.9473 31.1316C19.2368 31.2105 19.4736 31.1579 19.4736 31.0263C19.4736 30.8947 19.3421 30.7895 19.1842 30.7895C19.0263 30.7895 18.9473 30.5526 19.0263 30.2895C19.1842 29.6053 13.921 24.3158 13.3158 24.5526C12.8158 24.7368 10.7105 22.6842 10.8947 22.2105C11.0526 21.8158 7.86838 18.6842 7.28944 18.6842C6.92102 18.6842 6.86838 18.5263 6.99996 17.9737C7.2368 16.9474 8.07891 16.1053 9.13154 15.8158C10.0789 15.5526 11.0526 15.7105 11.0526 16.1316C11.0526 16.2895 13.421 18.8158 16.3421 21.7368C21.6842 27.1053 22.3684 27.5789 22.7105 26.3158C22.7894 25.9737 22.6052 25.6579 22.1842 25.3947C21.8158 25.1316 21.5789 24.7631 21.6315 24.4737C21.7105 23.921 18.0263 20 17.421 20C17.2368 20 17.1579 19.8684 17.2631 19.7105C17.3684 19.5263 17.2631 19.4737 16.8947 19.5789C16.2368 19.7895 15.0263 18.4737 15.5789 18.1053C15.7894 17.9737 15.6052 17.8947 15.0526 17.8947C14.3684 17.8947 14.1315 17.7631 14.0263 17.3421C13.9473 17.0263 13.7368 16.8684 13.5263 16.9474C13.1579 17.0789 13.1315 17.0263 13.0526 16.0789C13.0526 15.7895 12.6315 15.1579 12.1842 14.6842C11.7105 14.1842 11.3158 13.6053 11.3158 13.3947C11.3158 12.9474 12.1842 12.0789 13.0789 11.6053C14.4473 10.8947 16.3947 11.6842 17.421 13.3684C17.7368 13.8947 18.0789 14.3947 18.1842 14.4737C18.2894 14.5526 18.3947 14.8421 18.4736 15.1316C18.5263 15.4474 18.7368 15.6316 19.0263 15.5789C19.2894 15.5263 19.5263 15.7368 19.6052 16.1316C19.7105 16.4737 20.9473 17.921 22.3947 19.3684C24.7631 21.7105 25.0789 21.9474 25.8684 21.8684C26.3158 21.8421 26.7368 21.7631 26.7894 21.7105C26.9736 21.5526 26.4736 20.7895 26.1579 20.7895C25.7631 20.7895 25.1579 19.8421 25.3684 19.5263C25.4473 19.3947 24.3947 18.2105 23.0526 16.8684C21.2894 15.1053 20.5 14.5 20.1842 14.6316C19.921 14.7368 19.7368 14.6579 19.7368 14.4737C19.7368 14.2895 19.5526 14.2105 19.3421 14.3158C19.1052 14.3947 18.8421 14.2368 18.6579 13.8684C18.4736 13.5526 18.1579 13.1842 17.9473 13.0526C17.6052 12.8421 17.6052 12.7631 18.0526 12.4474C18.5263 12.1053 18.5263 12.0789 17.9473 11.9474C17.1842 11.7368 17.2105 11.5 18.1842 10.421C19.1052 9.3421 20.3158 9.02631 21.6315 9.44736C22.2368 9.65789 24.6842 11.8947 29.4736 16.7368L36.4473 23.7105L36.5789 19.8684L36.7105 16L37.5526 15.2631C39.2105 13.7631 41.3947 14.0263 42.7368 15.8684C43.2631 16.5789 43.2894 16.9737 43.3684 25.2105C43.421 30.0526 43.3158 34.7895 43.1842 36.0526C42.8421 38.8684 41.8158 41.0263 39.921 42.9474C36.8947 46 32.921 47.1053 28.7631 46.0526V46.0526ZM32.5789 38C33.1315 37.8947 33.1315 37.8684 32.7368 37.2368C32.5 36.8684 32.0789 36.5789 31.8158 36.5789C31.5 36.5789 31.3158 36.3947 31.3158 36.0526C31.3158 35.7631 31.421 35.5263 31.5526 35.5263C31.6842 35.5263 31.7368 35.2895 31.6579 35C31.5789 34.7105 31.3421 34.4737 31.1579 34.4737C30.8947 34.4737 30.7894 34.1053 30.7894 33.1579C30.7894 32.1579 30.8947 31.8421 31.1842 31.8421C31.3947 31.8421 31.5789 31.7368 31.5789 31.5789C31.5789 31.4474 31.4736 31.3158 31.3158 31.3158C31.1842 31.3158 31.0526 31.1316 31.0526 30.8947C31.0526 30.6579 31.2368 30.5263 31.5263 30.5789C32.1579 30.7105 33.0789 29.2368 32.5789 28.8947C32.3421 28.7105 32.3947 28.6842 32.8158 28.7631C33.6579 28.9474 34.1842 28.2631 33.5526 27.7895C32.921 27.3421 33.4736 26.9737 34.2105 27.3684C34.5526 27.5526 34.7368 27.5526 34.7368 27.3684C34.7368 27.2368 34.6315 27.1053 34.4736 27.1053C34.3421 27.1053 34.2105 26.9737 34.2105 26.8158C34.2105 26.6316 34.4736 26.5789 34.8684 26.6316C35.6579 26.7895 35.7631 26.4474 35 26.2368C34.2631 26.0526 34.3421 25.7105 35.2631 25.3158C35.7105 25.1053 36.0526 24.7895 36.0526 24.5789C36.0526 24.3684 36.1842 24.2105 36.3684 24.2105C36.5263 24.2105 36.6052 24.1579 36.5526 24.0789C36.3421 23.8947 34.1315 25.0263 33.3158 25.7631C32.921 26.1316 32.4736 26.7105 32.3421 27.0526C32.2105 27.3684 31.9473 27.6316 31.7631 27.6316C31.2368 27.6316 30 29.2105 30 29.8947C30 30.2105 29.8684 30.5263 29.7105 30.5789C29.3684 30.6842 29.0526 34.7368 29.3947 34.7368C29.5263 34.7368 29.6052 35.1053 29.5263 35.5263C29.4736 35.9737 29.5263 36.3158 29.6315 36.2895C29.7631 36.2631 30.0789 36.3158 30.3421 36.4474C30.7105 36.6053 30.7631 36.8421 30.6315 37.5C30.4736 38.421 30.4736 38.421 32.5789 38V38Z" fill="#D89105"/>
<path d="M28.7631 46.0526C26.4473 45.4473 25.3947 44.921 24.8421 44.0789C24.6052 43.7105 20.5789 39.8684 15.8684 35.5C11.1842 31.1315 7.2368 27.3421 7.07891 27.0789C6.76312 26.4737 6.76312 25.421 7.13154 24.6579C7.3947 24.0789 8.60523 23.1579 9.10523 23.1579C9.21049 23.1579 11.2631 25.1052 13.6842 27.5C16.1052 29.8947 18.2631 31.8421 18.4736 31.8421C19.1052 31.8421 19.4473 31.2631 19.2894 30.4473C19.1842 29.921 17.421 28.0263 13.1315 23.8684C9.81575 20.6579 7.10523 17.8421 7.10523 17.6052C7.10523 17.0263 8.18417 16.0789 9.15786 15.8158C10.0789 15.5526 11.0526 15.7105 11.0526 16.1315C11.0526 16.5789 21.3421 26.8158 22.2368 27.2631C22.9736 27.6315 23.0526 27.6315 23.5 27.0789C23.7368 26.7894 23.9473 26.421 23.9473 26.3158C23.9473 26.0789 14.9736 17.1842 12.5789 15C11.1842 13.7368 11.0526 13.2368 11.8947 12.4473C13.9473 10.5789 16.2894 11.1579 17.5 13.7894C17.9473 14.8158 19.1315 16.1579 22.2894 19.2894C24.6052 21.5526 26.6579 23.421 26.8947 23.421C27.5526 23.421 27.8684 22.8158 27.6842 21.9473C27.5526 21.3684 26.1579 19.8421 22.4473 16.2105L17.3947 11.3158L18.1842 10.3947C18.6052 9.92102 19.3158 9.42102 19.7368 9.34207C21.5526 8.94734 21.921 9.21049 29.0263 16.2631C32.7368 19.9737 35.7894 23.1052 35.7894 23.1842C35.7894 23.2894 35 24.1315 34.0263 25.0526C33.0526 25.9737 31.7894 27.1842 31.2631 27.7631C28.6579 30.5 28.421 35.2105 30.7105 38.5C31.5789 39.7368 32.2105 40.1052 32.8684 39.7631C33.3947 39.4737 33.4736 38.1842 32.9736 37.5789C32.5 36.9737 31.5789 35.0263 31.5789 34.6052C31.5789 34.3947 31.4736 34.2105 31.3158 34.2105C31.1842 34.2105 31.0526 33.7368 31.0526 33.1579C31.0526 32.5789 31.1579 32.1052 31.2894 32.1052C31.3947 32.1052 31.7105 31.6052 31.9473 30.9737C32.2368 30.2105 33.1842 29.0263 34.8421 27.3684C37.1052 25.1052 37.2894 24.8158 36.9473 24.421C36.6052 24.0789 36.5526 23.2631 36.6315 20L36.7105 16L37.5526 15.2631C39.2105 13.7631 41.3947 14.0263 42.7368 15.8684C43.2631 16.5789 43.2894 16.9737 43.3684 25.2105C43.421 30.0526 43.3158 34.7894 43.1842 36.0526C42.8421 38.8684 41.8158 41.0263 39.921 42.9473C36.8947 46 32.921 47.1052 28.7631 46.0526V46.0526Z" fill="#E8B637"/>
<path d="M10.3948 42.9211C7.92108 41.8948 6.36845 40.6316 5.10529 38.6316C3.71056 36.4211 3.18424 32.9211 4.18424 32.3684C5.21056 31.8421 6.05266 32.6842 6.05266 34.2632C6.05266 35.3948 7.34214 38.079 8.31582 39C9.4474 40.0263 11.0527 40.7632 12.8685 41.1053C14.6842 41.4474 15.2369 41.9737 14.7369 42.8948C14.5 43.3421 14.2106 43.4211 12.9474 43.3948C12.1316 43.3684 10.9737 43.1579 10.3948 42.9211V42.9211Z" fill="#2EC7EA"/>
<path d="M11.9474 38.7632C11.079 38.6053 9.26324 36.921 8.65797 35.7368C8.31587 35.0526 8.15797 34.3158 8.2106 33.6053C8.28955 32.5263 8.31587 32.5 9.2106 32.5C10.1053 32.5 10.1317 32.5526 10.4474 33.8158C10.8422 35.4211 11.8685 36.421 13.3685 36.6842C14.4738 36.8421 15.0527 37.421 14.7896 38.1579C14.5264 38.921 13.6317 39.1053 11.9474 38.7632V38.7632Z" fill="#2EC7EA"/>
<path d="M30.8684 14.6842C30.7105 14.5 30.5263 13.8948 30.421 13.3685C30.1842 12.0527 28.921 10.8421 27.6053 10.6316C26.3684 10.4211 25.9474 9.97371 26.1579 9.07898C26.3158 8.50003 26.4737 8.42108 27.5263 8.42108C29.9474 8.42108 32.1053 10.2895 32.6316 12.8158C32.8684 13.8948 32.8684 14.3158 32.6316 14.6053C32.2368 15.079 31.2105 15.1053 30.8684 14.6842Z" fill="#2EC7EA"/>
<path d="M35.3158 14.6842C35.1316 14.5 35 13.9737 35 13.5C35 12.079 34 9.84213 32.7895 8.60529C31.4474 7.21055 30.4211 6.68424 28.3158 6.26318C26.3684 5.89476 25.9211 5.55266 26.1579 4.60529C26.3421 3.89476 26.3684 3.89476 28.1053 4.00003C32.2368 4.23687 35.7105 7.15792 36.9737 11.3948C37.6842 13.7895 37.4211 15 36.1842 15C35.8684 15 35.5 14.8684 35.3158 14.6842Z" fill="#2EC7EA"/>
<path d="M31.3158 46.1842C31.3158 45.9737 31.0789 45.7894 30.7895 45.7894C30.5 45.7894 30.2631 45.921 30.2631 46.0526C30.2631 46.4473 29.7368 46.3684 27.7631 45.7631C26.1579 45.2631 25.8158 45.0263 23.6579 42.8158C22.3684 41.4737 21.3158 40.1842 21.3158 39.921C21.3158 39.6052 21.1579 39.4736 20.8158 39.5263C20.2368 39.6315 17.5789 37.2631 17.3684 36.4473C17.2895 36.1579 17.0263 35.921 16.7895 35.921C16.1842 35.921 10.0789 30.2631 9.97367 29.6052C9.89473 29.2894 9.6842 29.1052 9.42104 29.1052C9.15788 29.1315 8.47367 28.6315 7.89473 28C6.78946 26.7894 6.57894 25.8684 7.13157 24.6579C7.39473 24.0789 8.60525 23.1579 9.10525 23.1579C9.21052 23.1579 11.2631 25.1052 13.6842 27.5C16.1053 29.8947 18.2368 31.8421 18.4474 31.8421C18.6579 31.8421 18.9737 31.7105 19.1579 31.5263C20 30.6842 19.5 30.0789 13.2895 24.0263C9.89473 20.7368 7.10525 17.8421 7.10525 17.6052C7.10525 16.1579 10.7631 14.9473 11.1842 16.2894C11.3947 16.9473 21.8947 27.2894 22.5526 27.5C23.3684 27.7368 24.1579 26.5526 23.6316 25.8684C23.4474 25.5789 20.6316 22.7894 17.3684 19.6052C14.1053 16.4473 11.3947 13.6842 11.3684 13.5C11.1579 12.7105 13.0526 11.3158 14.3158 11.3158C15.6316 11.3158 17.6842 12.9736 17.2368 13.6842C17.1579 13.8421 17.2105 13.9473 17.3947 13.9473C17.5789 13.9473 17.6316 14.0263 17.5526 14.1315C17.3158 14.3421 26 23.1052 26.6579 23.3158C27.2895 23.5263 27.8947 22.9736 27.8947 22.1842C27.8947 21.6842 26.7105 20.3684 22.7631 16.5263C19.9474 13.7631 17.6316 11.3684 17.6316 11.2105C17.6316 10.7631 18.9474 9.57891 19.6842 9.34207C20.0263 9.23681 20.7368 9.23681 21.2631 9.34207C22.0789 9.49996 23.2631 10.5263 29.0263 16.2631C32.7368 19.9736 35.7895 23.1052 35.7895 23.1842C35.7895 23.2894 35 24.1315 34.0263 25.0526C33.0526 25.9736 31.7895 27.1842 31.2631 27.7631C30.2895 28.7894 29.2105 31.0789 29.2105 32.1052C29.2105 32.3947 29.1053 32.6315 28.9474 32.6315C28.8158 32.6315 28.6842 33 28.6842 33.421C28.6842 33.8684 28.8158 34.2105 28.9474 34.2105C29.1053 34.2105 29.2105 34.421 29.2105 34.7105C29.2105 36.0789 30.8684 39.2105 31.8947 39.7631C32.6316 40.1579 33.421 39.6052 33.421 38.6842C33.421 38.2631 33.2895 37.8421 33.1579 37.7631C33 37.6579 32.5789 37 32.2368 36.2894C30.5789 33.0526 31.1842 31.0526 34.8421 27.3684C37.1052 25.1052 37.2895 24.8158 36.9474 24.421C36.6052 24.0789 36.5526 23.2631 36.6316 20L36.7105 16L37.5526 15.2631C39.2105 13.7631 41.3947 14.0263 42.7368 15.8684C43.2631 16.6052 43.2895 16.8947 43.2895 26.2631C43.2895 36.7631 43.1579 38.3947 42.3158 38.6315C41.921 38.7368 41.8684 38.8158 42.1579 38.9737C42.6579 39.2894 41.5263 41.2894 39.8684 43C37.8684 45.0263 35.5789 46.1052 32.7105 46.421C31.6053 46.5263 31.3158 46.4737 31.3158 46.1842V46.1842Z" fill="#F2BE3A"/>
<path d="M11.8158 43.2368C11.3947 43.1842 11.0526 42.921 10.9737 42.6052C10.8421 42.1052 10 41.8947 10 42.3684C10 42.921 9.21053 42.6052 8.89474 41.921C8.6579 41.421 8.34211 41.1842 7.89474 41.1842C7.39474 41.1842 7.21053 41.0263 7.1579 40.5263C7.02632 39.6052 6.57895 39.1316 6.18422 39.4737C5.78948 39.8158 4.89474 38.5789 5.10527 38C5.18422 37.7895 5.07895 37.6316 4.89474 37.6316C4.68422 37.6316 4.36843 36.9474 4.10527 35.8684C3.55264 33.5526 3.55264 32.7895 4.10527 33C4.34211 33.0789 4.78948 33.1579 5.13159 33.1579C5.57895 33.1579 5.76316 33.3421 5.89474 34C6.00001 34.5526 5.94737 34.8947 5.73685 35.0526C5.47369 35.2105 5.50001 35.2631 5.8158 35.2631C6.28948 35.2631 6.71053 36.8947 6.28948 37.0526C5.78948 37.2631 6.07895 37.8684 6.71053 37.9474C7.07895 38 7.39474 38.1579 7.39474 38.2895C7.39474 38.4474 7.6579 38.6579 7.94738 38.7631C8.36843 38.921 8.44738 39.0263 8.21053 39.2631C7.68422 39.7895 7.84211 40.0263 8.57895 39.8421C8.94737 39.7368 9.34211 39.7895 9.44738 39.921C9.6579 40.2368 11.4211 41.0526 11.8947 41.0526C12.079 41.0526 12.3947 41.3684 12.579 41.7631C12.9211 42.5526 13 43.4473 12.7105 43.3947C12.579 43.3684 12.1842 43.2895 11.8158 43.2368V43.2368Z" fill="#31D1F7"/>
<path d="M11.9473 38.7631C11.0789 38.6052 9.26314 36.921 8.65787 35.7368C7.97366 34.3947 8.05261 32.7631 8.81577 32.7631C9.15787 32.7631 9.34208 32.9473 9.34208 33.2894C9.34208 33.6315 9.55261 33.8421 9.94735 33.8947C10.2631 33.9473 10.5263 34.1579 10.5263 34.3947C10.5263 34.6315 10.9737 35.2631 11.5526 35.7894C12.1052 36.3158 12.6052 36.921 12.6842 37.1315C12.7631 37.3684 13.1842 37.5 13.8421 37.5C14.7105 37.5 14.8684 37.5789 14.7895 38.0263C14.7368 38.3158 14.5526 38.6315 14.3947 38.7368C14.0789 38.9473 12.921 38.9473 11.9473 38.7631V38.7631Z" fill="#31D1F7"/>
<path d="M30.8158 14.6315C30.6053 14.3947 30.5527 13.8947 30.6842 13.3158C30.7895 12.6579 30.7632 12.3684 30.5264 12.3684C30.0264 12.3684 29.2106 11.2368 29.3685 10.7368C29.5264 10.1842 29.0527 9.86839 28.7632 10.3947C28.6053 10.6842 28.2895 10.7368 27.5527 10.6052C26.7632 10.4737 26.579 10.3421 26.579 9.86839C26.579 8.92102 26.8685 8.42102 27.3948 8.42102C27.7369 8.42102 27.8948 8.60523 27.8948 8.97365C27.8948 9.3947 28.0263 9.47365 28.4211 9.36839C28.7106 9.28944 29.1842 9.15786 29.4474 9.07892C29.7632 8.97365 30.2369 9.18418 30.7106 9.57892C31.1053 9.94734 31.2895 10.2631 31.1316 10.2631C30.4474 10.2631 30.7895 11.0526 31.4737 11.0526C32.079 11.0526 32.1316 11.1315 32 11.7105C31.8685 12.1842 31.9474 12.3684 32.2369 12.3684C32.5 12.3684 32.6316 12.6315 32.6316 13.1579C32.6316 13.6842 32.5 13.9473 32.2369 13.9473C32.0264 13.9473 31.8421 14.0789 31.8421 14.2105C31.8421 14.3684 31.9737 14.4737 32.1053 14.4737C32.2632 14.4737 32.3685 14.6052 32.3685 14.7368C32.3685 15.1315 31.1579 15.0526 30.8158 14.6315Z" fill="#31D1F7"/>
<path d="M35.3158 14.6842C35.1316 14.5 35 13.7368 35 12.9736C35 11.7894 34.8421 11.3684 34.0789 10.2631C33.2895 9.13154 33.2105 8.86838 33.4737 8.42101C33.8684 7.78943 33.7105 7.63154 32.6053 7.52627C31.4737 7.42101 30.5526 6.97364 29.7895 6.0789C29.3684 5.63154 29.1316 5.49996 29.0526 5.7368C28.9737 5.92101 28.421 6.05259 27.7631 6.05259C26.6579 6.05259 26.6316 6.02627 26.5263 5.13154C26.4737 4.60522 26.4737 4.13154 26.5526 4.0789C26.8684 3.7368 28.9474 3.97364 29.3684 4.39469C29.6053 4.63154 30.1842 4.84206 30.6842 4.84206C31.1579 4.84206 31.5 4.92101 31.421 5.02627C31.2631 5.31575 32.7631 6.31575 33.3421 6.31575C34.3421 6.31575 36.2631 8.97364 36.9474 11.3157C37.6842 13.7894 37.421 15 36.1842 15C35.8684 15 35.5 14.8684 35.3158 14.6842V14.6842Z" fill="#31D1F7"/>
<path d="M29.0264 45.8947C28.9211 45.6316 28.658 45.5526 28.1843 45.6316C27.8158 45.7368 27.2106 45.6316 26.8422 45.3947C26.4737 45.1842 25.9211 44.8947 25.6053 44.7632C25.0264 44.5 24.8685 44.1053 24.9474 43.1053C24.9737 42.8421 24.8158 42.6316 24.6053 42.6316C24.3948 42.6316 24.2106 42.5 24.2106 42.3421C24.2106 42.2105 23.9737 42.1053 23.7106 42.1579C23.0264 42.2632 21.579 40.8684 21.579 40.1053C21.579 39.4474 20.3158 38.4474 20.0264 38.8947C19.9474 39.0526 19.3948 38.7105 18.7369 38.1316C18.1316 37.5526 17.6843 36.9474 17.7895 36.8158C17.8685 36.6842 17.7369 36.2632 17.5001 35.8947C17.1843 35.3947 16.8948 35.2368 16.4474 35.3421C16.0001 35.4211 15.579 35.2105 14.9737 34.5789C14.5264 34.1053 14.2106 33.6053 14.3158 33.4737C14.5001 33.1842 13.7632 32.8158 13.3948 33.0526C13.2632 33.1316 13.158 32.9737 13.158 32.7105C13.158 32.1842 12.158 31.1842 11.8948 31.4211C11.6053 31.7105 10.2632 30.1579 10.2632 29.5526C10.2632 29.1316 10.0527 28.8421 9.57901 28.6842C9.21058 28.5263 8.81585 28.4737 8.68427 28.5526C8.26322 28.8158 7.55269 27.6579 7.7369 27C7.86848 26.5 7.76322 26.2368 7.36848 26C7.07901 25.8158 6.84216 25.5263 6.84216 25.3684C6.84216 24.7632 7.92111 23.7105 8.71058 23.5526C9.50006 23.3684 9.7369 23.5789 13.8158 27.6316C18.3158 32.0789 18.7106 32.3421 19.4211 31.0526C19.7895 30.4211 19.6843 30.3158 15.7369 26.3684C13.5001 24.1579 11.4211 22.1842 11.1053 21.9474C10.7895 21.7368 10.5264 21.3684 10.5264 21.1316C10.5264 20.8947 10.4474 20.7895 10.3422 20.8947C10.079 21.1316 7.10532 18.1316 7.10532 17.6316C7.10532 16.2632 10.658 15.1053 11.2106 16.3158C11.6053 17.2105 22.1843 27.6316 22.6843 27.6316C22.9474 27.6316 23.3422 27.3421 23.5527 27C23.9474 26.4211 23.9474 26.2895 23.579 25.7368C23.3685 25.3947 22.6316 24.6842 21.9737 24.1316C21.3158 23.5789 20.7895 22.9474 20.7895 22.7632C20.7895 22.5526 20.6843 22.3947 20.579 22.4474C20.2369 22.5263 11.3158 13.7895 11.3158 13.3684C11.3158 12.5526 13.1843 11.3158 14.4211 11.3158C15.3422 11.3158 15.6053 11.5526 15.2369 12.0263C15.0001 12.2895 15.0264 12.3684 15.3158 12.3684C16.079 12.3684 17.3948 13.2105 17.2632 13.5789C17.1843 13.7895 17.2632 13.9474 17.4211 13.9474C17.579 13.9474 17.6316 14.0263 17.5527 14.1316C17.3158 14.3684 26.0001 23.1053 26.6843 23.3158C27.2632 23.5 28.158 22.6053 28.1316 21.8684C28.1316 21.6316 27.3685 20.8158 26.4211 20.0263C25.5001 19.2368 24.7369 18.4211 24.7369 18.2105C24.7369 17.9737 24.658 17.8947 24.5527 18C24.3422 18.2105 17.6316 11.6053 17.6316 11.1842C17.6316 10.7632 18.9737 9.55263 19.6843 9.34211C20.658 9.05263 22.1053 9.42105 21.9211 9.89474C21.7106 10.5 22.8685 11.5789 23.7106 11.5789C24.2895 11.5789 24.4211 11.6842 24.2895 12C24.1316 12.4474 25.8685 14.2105 26.4737 14.2105C26.6843 14.2105 26.8422 14.4211 26.8422 14.6842C26.8422 15.3421 28.7106 17.1053 29.4474 17.1053C29.7632 17.1053 29.9737 17.2105 29.8948 17.3421C29.658 17.6842 30.3422 18.9211 30.8685 19.1053C31.1053 19.1842 31.3158 19.3947 31.3158 19.5789C31.3158 20.1053 32.079 20.6316 32.8422 20.6579C33.3685 20.6579 33.5264 20.7895 33.4737 21.1316C33.4211 21.3684 33.5264 21.5789 33.6843 21.5789C33.8422 21.5789 33.9211 21.6842 33.8422 21.7895C33.7632 21.9211 34.079 22.4211 34.5001 22.8947L35.3158 23.7632L32.8158 26.2368C30.7895 28.2105 30.1843 28.9737 29.7632 30.1316C29.4474 30.9474 29.2106 31.8421 29.2106 32.1053C29.2106 32.3947 29.0264 32.6316 28.8158 32.6316C28.579 32.6316 28.4211 32.8684 28.4211 33.2895C28.4211 33.6579 28.6053 34.0263 28.8158 34.1053C29.0264 34.2105 29.2106 34.4737 29.2106 34.7368C29.2106 36.0789 30.8948 39.2105 31.8948 39.7632C33.0527 40.3684 34.1053 38.7895 33.2106 37.8158C31.579 36.0263 31.079 32.8158 32.079 30.6579C32.3422 30.0789 33.6316 28.5526 34.9474 27.2368C37.1316 25.0526 37.2895 24.8421 36.9211 24.4211C36.3158 23.7368 36.5001 16.3421 37.1579 15.7105C37.3948 15.4737 37.7632 15.2632 38.0001 15.2632C38.2106 15.2632 38.5001 15.1053 38.6053 14.9211C39.079 14.1053 41.7106 14.2895 41.8685 15.1316C42.0001 15.9211 42.3948 16.5789 42.7106 16.5789C42.9474 16.5789 43.1579 17.0263 43.2632 17.7895C43.4737 19.3947 43.4737 33.2895 43.2369 35.6053C43.1053 37.1842 43.0001 37.4474 42.4474 37.6579C41.8158 37.8947 41.6053 38.4211 42.1843 38.4211C42.4211 38.4211 42.3948 38.5 42.1316 38.6579C41.8422 38.8421 41.8422 38.8947 42.1316 39.0263C42.4474 39.1316 42.4474 39.2368 42.1579 39.6316C41.9737 39.9211 41.7632 40.3158 41.6843 40.5526C41.579 40.8421 41.3422 40.9474 41.0264 40.8684C40.7632 40.7895 40.5264 40.8684 40.5264 41.0263C40.5264 41.1842 40.6579 41.3158 40.7895 41.3158C40.9474 41.3158 41.0527 41.4211 41.0527 41.5526C41.0527 41.7105 40.7369 41.7105 40.2632 41.5789C39.5264 41.3684 39.4474 41.4211 39.1053 42.1842C38.8158 42.8947 38.8422 43.0526 39.1316 43.1053C39.6316 43.2368 39.5527 43.5 38.8948 43.9474C37.8422 44.6316 37.4474 44.7105 36.7369 44.3421C36.158 44.0263 36.0527 44.0263 36.0527 44.3421C36.0527 44.5526 36.1843 44.7895 36.3158 44.8684C36.4737 44.9474 36.579 45.1316 36.579 45.2895C36.579 45.6316 35.6843 45.5789 35.3422 45.2368C34.8685 44.7632 33.6843 45.1842 33.6843 45.7895C33.6843 46.5 32.5527 46.5 31.658 45.7895C31.2895 45.5 30.7632 45.2632 30.5001 45.2632C30.2369 45.2632 29.9474 45.5 29.8685 45.7895C29.658 46.4211 29.2632 46.4737 29.0264 45.8947V45.8947Z" fill="#FDC63B"/>
</svg>
