<svg width="50" height="45" viewBox="0 0 50 45" fill="none" xmlns="http://www.w3.org/2000/svg">
<g clip-path="url(#clip0)">
<path d="M13.9096 33.2978C4.17552 23.6436 2.92552 22.2872 2.18084 20.7447C0.372324 17.0478 0.106367 13.484 1.32977 9.8404C1.94147 7.9521 3.56381 5.29252 4.70743 4.2021C5.74467 3.21806 8.27126 1.6755 9.62764 1.17018C11.4628 0.50529 16.1436 0.372311 18.2447 0.930822C20.0798 1.43614 22.5266 2.87231 23.7766 4.22869C24.2287 4.68082 24.6808 5.05316 24.7872 5.05316C24.9202 5.05316 25.4521 4.62763 26.0106 4.09572C27.2872 2.87231 29.5745 1.48933 31.3032 0.930822C32.3936 0.585077 33.4042 0.50529 35.8245 0.585077C38.6968 0.664865 39.1223 0.744652 40.7979 1.54252C43.4042 2.76593 45.0532 4.06912 46.4096 5.98401C49.5479 10.3457 50 15.6383 47.6862 20.4787C46.8085 22.3138 46.1436 23.0585 39.9202 29.3351C36.1702 33.1383 31.25 38.0053 28.9628 40.1861L24.8138 44.1489L13.9096 33.2978ZM33.9096 29.7872C39.0159 24.6808 43.3245 20.4787 43.4308 20.4787C43.8298 20.4787 44.4149 19.734 44.4149 19.2287C44.4149 18.9627 44.6542 18.1649 44.9202 17.4202C45.7979 15.0798 45.6649 11.3564 44.6542 10.2659C44.3617 9.97337 44.1489 9.41486 44.1489 8.98933C44.1489 8.5372 44.0159 8.24465 43.7766 8.24465C43.3776 8.24465 41.2234 6.19678 41.2234 5.82444C41.2234 5.69146 40.984 5.58508 40.6915 5.58508C40.3989 5.58508 39.9468 5.37231 39.6808 5.10635C39.1755 4.60103 36.9149 3.98933 35.5585 3.98933C35.1064 3.98933 34.0159 4.14891 33.1383 4.36167C32.234 4.57444 31.0638 4.8138 30.5319 4.92018C29.7074 5.05316 29.5213 5.18614 29.5213 5.69146C29.5213 6.38295 29.0691 6.64891 27.9521 6.64891C27.0213 6.64891 26.0638 7.71274 26.0638 8.77657C26.0638 9.52125 25.984 9.57444 25.133 9.57444C24.3085 9.57444 24.2021 9.49465 24.2021 8.90955C24.2021 8.37763 24.0691 8.24465 23.5638 8.24465C23.0851 8.24465 22.8457 8.03189 22.633 7.44678C22.5 6.99465 22.1808 6.64891 21.9415 6.64891C21.7021 6.64891 20.3723 6.0904 18.9628 5.37231C16.4893 4.1755 16.3032 4.12231 14.0691 4.12231C12.5532 4.12231 11.6223 4.22869 11.383 4.46806C11.2234 4.62763 10.7181 4.78721 10.3191 4.78721C9.86701 4.78721 9.57445 4.92018 9.57445 5.15955C9.57445 5.55848 9.01594 5.85103 8.21807 5.85103C7.89892 5.85103 7.71275 6.0372 7.71275 6.38295C7.71275 6.6755 7.47339 7.04784 7.18084 7.23401C6.88828 7.42018 6.64892 7.71274 6.64892 7.89891C6.64892 8.05848 6.54254 8.24465 6.40956 8.29784C6.27658 8.35103 5.79786 9.14891 5.31913 10.1064C4.22871 12.2606 3.96275 14.734 4.62764 16.6489C4.86701 17.3404 5.05318 18.1915 5.05318 18.5372C5.05318 18.8829 5.21275 19.1489 5.42552 19.1489C5.66488 19.1489 5.85105 19.4681 5.90424 20C5.95743 20.6383 6.1436 20.9042 6.51594 20.9574C7.12764 21.0638 23.1383 36.9415 23.1383 37.4468C23.1383 37.633 23.3245 37.8457 23.5372 37.9255C23.75 38.0319 23.9362 38.3244 23.9362 38.5904C23.9362 38.8564 24.0957 39.0957 24.2819 39.0957C24.4415 39.0957 28.8032 34.9202 33.9096 29.7872V29.7872Z" fill="black"/>
<path d="M23.75 40.1862C23.4043 39.8936 23.1383 39.4681 23.1383 39.2287C23.1383 38.9894 23.0319 38.8564 22.899 38.9362C22.7128 39.0692 22.3405 38.5372 22.3405 38.1383C22.3405 38.0851 22.8192 38.0319 23.4309 38.0319C24.2819 38.0319 24.5479 38.1383 24.6543 38.5638C24.7341 38.8564 24.9734 39.0958 25.1596 39.0958C25.6649 39.0958 25.6383 39.867 25.133 40.0532C24.9202 40.1596 24.8139 40.3192 24.8936 40.4521C25.1596 40.8777 24.3617 40.6915 23.75 40.1862Z" fill="#0B0001"/>
<path d="M43.0852 21.3298C43.0852 20.2393 44.1224 18.6436 44.8405 18.617C45.266 18.617 45.4256 18.7766 45.399 19.2287C45.399 19.5479 45.4788 20.0266 45.5852 20.2925C45.7448 20.6383 45.665 20.7447 45.2395 20.7447C44.9203 20.7447 44.6809 20.8776 44.6809 21.0106C44.6809 21.1702 44.548 21.2766 44.3618 21.2766C44.2022 21.2766 43.8299 21.4628 43.5639 21.7287C43.1118 22.1276 43.0852 22.1276 43.0852 21.3298V21.3298Z" fill="#0B0001"/>
<path d="M5.05325 21.4096C4.86708 21.1968 4.81389 21.0106 4.94687 21.0106C5.07985 21.0106 5.00006 20.8776 4.7873 20.7447C4.44155 20.5053 4.44155 20.4521 4.7873 20.2127C5.10645 20 5.07985 19.9468 4.62772 19.9468C4.30857 19.9468 3.90964 19.7606 3.72347 19.5478C3.45751 19.2287 3.48411 19.1223 3.82985 18.9893C4.09581 18.883 4.22879 18.6436 4.149 18.4574C4.04262 18.1915 4.20219 18.0851 4.65432 18.0851C5.13304 18.0851 5.34581 18.2713 5.47879 18.75C5.55857 19.0957 5.79793 19.5213 6.0107 19.7074C6.22347 19.867 6.38304 20.4255 6.38304 20.9042C6.38304 21.6223 6.27666 21.8085 5.87772 21.8085C5.61176 21.8085 5.23942 21.6223 5.05325 21.4096V21.4096Z" fill="#0B0001"/>
<path d="M45.4787 12.234C45.4787 11.8085 45.3724 11.4361 45.2128 11.4361C45.0798 11.4361 44.9468 10.9574 44.9468 10.3723C44.9468 9.57445 44.8404 9.30849 44.5213 9.30849C43.8564 9.30849 43.3777 8.51062 43.3777 7.44679C43.3777 6.67551 43.4309 6.59572 43.6968 6.91487C43.883 7.12764 44.2553 7.31381 44.5479 7.31381C44.9734 7.31381 45.0798 7.47338 45.0266 8.08508C44.9734 8.82976 45.5319 9.97338 45.9575 9.97338C46.0639 9.97338 46.117 10.2925 46.0639 10.7181C46.0107 11.117 46.0904 11.4361 46.25 11.4361C46.4096 11.4361 46.4894 11.7819 46.4628 12.234C46.383 13.351 45.4787 13.351 45.4787 12.234Z" fill="#0B0001"/>
<path d="M23.8565 9.65426C23.7501 9.57447 23.6703 9.25532 23.6703 8.98937C23.6703 8.69681 23.4841 8.51064 23.165 8.51064C22.899 8.51064 22.1809 7.97873 21.5692 7.31383C20.9575 6.64894 20.3458 6.11703 20.2129 6.11703C20.0533 6.11703 19.9469 5.82447 19.9469 5.45213C19.9469 4.68086 20.1331 4.62766 20.9575 5.21277C21.2767 5.42554 21.5426 5.53192 21.5426 5.42554C21.5426 5.34575 21.7022 5.39894 21.915 5.55852C22.1278 5.71809 22.4469 5.82447 22.6331 5.79788C22.8458 5.74469 23.165 6.11703 23.3778 6.59575C23.7501 7.39362 24.7341 7.81915 24.7341 7.18086C24.7341 7.04788 24.9203 6.9149 25.1597 6.9149C25.399 6.9149 25.8246 6.62235 26.1171 6.25001C26.516 5.71809 26.8618 5.58511 27.5533 5.6383C28.5373 5.69149 29.0426 5.39894 28.4841 5.07979C28.0586 4.81384 28.3246 4.25532 28.8831 4.25532C29.0958 4.25532 29.4948 4.01596 29.8139 3.69681C30.2926 3.21809 30.399 3.19149 30.665 3.56383C31.0639 4.06915 32.2873 3.82979 32.0746 3.29788C31.9948 3.05852 32.1277 2.92554 32.4469 2.92554C32.7395 2.92554 32.9788 3.05852 32.9788 3.21809C32.9788 3.37766 33.165 3.45745 33.3777 3.35107C33.6437 3.24469 33.7767 3.37766 33.7767 3.72341C33.7767 4.17554 33.5905 4.25532 32.7129 4.25532C32.048 4.25532 31.649 4.3883 31.649 4.60107C31.649 4.92022 29.6543 6.11703 29.0958 6.11703C28.9097 6.11703 28.7235 6.35639 28.6437 6.67554C28.5639 6.96809 28.2448 7.28724 27.9522 7.36703C27.6331 7.44681 27.3937 7.65958 27.3937 7.84575C27.3937 8.45745 25.5852 9.84043 24.7873 9.84043C24.3618 9.84043 23.9363 9.76064 23.8565 9.65426V9.65426Z" fill="#0B0001"/>
<path d="M5.21284 7.84576C5.31923 7.42022 5.26604 7.18086 5.05327 7.18086C4.89369 7.18086 4.78731 7.02129 4.8671 6.86171C4.92029 6.67554 5.26604 6.54256 5.63838 6.59576C6.46284 6.70214 7.20752 5.93086 6.64901 5.58512C6.01072 5.18618 6.80859 4.49469 7.55327 4.78725C8.24476 5.0532 8.82987 4.76065 8.72348 4.22874C8.67029 3.96278 8.90965 3.85639 9.49476 3.85639C9.94689 3.85639 10.4256 3.77661 10.532 3.64363C10.6384 3.53725 11.0107 3.45746 11.3565 3.45746C11.782 3.45746 11.9682 3.61703 11.9682 3.98937C11.9682 4.36171 11.782 4.52129 11.4097 4.52129C11.1171 4.52129 10.6916 4.70746 10.4788 4.92022C10.2394 5.13299 9.78731 5.31916 9.41497 5.31916C9.06923 5.31916 8.77667 5.45214 8.77667 5.61171C8.77667 6.06384 8.05859 6.64895 7.47348 6.64895C7.07455 6.64895 6.91497 6.80852 6.91497 7.20746C6.91497 7.89895 6.30327 8.51065 5.61178 8.51065C5.13306 8.51065 5.07986 8.40427 5.21284 7.84576V7.84576Z" fill="#0B0001"/>
<path d="M40.6384 5.58511C40.4523 5.29255 40.1065 5.05319 39.8406 5.05319C39.1225 5.05319 38.564 4.76064 38.564 4.3617C38.564 4.12234 38.032 3.98936 36.6491 3.93617C35.4257 3.88298 34.7076 3.75 34.6278 3.53723C34.5746 3.32447 34.7608 3.19149 35.0799 3.19149C35.4523 3.19149 35.5852 3.05851 35.4789 2.79255C35.3725 2.57979 35.4523 2.39362 35.6118 2.39362C35.798 2.39362 35.9842 2.57979 36.064 2.79255C36.2501 3.24468 37.2342 3.35106 37.2342 2.92553C37.2342 2.79255 37.3672 2.65957 37.5001 2.65957C37.6597 2.65957 37.7661 2.81915 37.7661 3.03191C37.7661 3.53723 39.6278 3.88298 39.9203 3.40425C40.0799 3.16489 40.1597 3.21808 40.1597 3.64362C40.1597 3.96276 40.3991 4.3617 40.665 4.52128C41.0906 4.73404 41.2235 4.68085 41.3831 4.17553C41.5693 3.64362 41.5959 3.67021 41.8086 4.49468C41.9416 5 42.2608 5.58511 42.5001 5.77128C42.8991 6.06383 42.8193 6.09042 41.9682 6.11702C41.2501 6.11702 40.8778 5.95745 40.6384 5.58511V5.58511Z" fill="#0B0001"/>
<path d="M24.2552 39.9734C23.8828 39.8936 23.6701 39.6808 23.7233 39.4148C23.7765 39.0957 23.6169 38.9627 23.2446 38.9893C22.8456 38.9893 22.5531 38.7234 22.2605 38.1117L21.8616 37.2074L22.819 37.2872C23.5371 37.3404 23.8828 37.5265 24.069 37.9521C24.202 38.2712 24.5211 38.5904 24.7871 38.6436C25.0797 38.7234 25.2658 39.0425 25.2658 39.468C25.2658 39.8404 25.186 40.1329 25.0797 40.1329C24.9467 40.1063 24.6009 40.0265 24.2552 39.9734Z" fill="#180103"/>
<path d="M6.56909 22.1543C6.43612 21.9681 6.11697 21.8085 5.82441 21.8085C5.45207 21.8085 5.31909 21.6489 5.37229 21.3564C5.39888 21.0904 5.34569 20.7181 5.23931 20.5585C5.07973 20.3192 5.23931 20.2128 5.85101 20.2128C6.75526 20.2128 6.99463 20.5851 6.86165 21.7287C6.80846 22.2074 6.70207 22.367 6.56909 22.1543Z" fill="#180103"/>
<path d="M23.1914 8.98937C22.7393 8.53724 22.7659 7.07447 23.218 7.36703C23.3776 7.47341 23.75 7.5266 23.9893 7.50001C24.3085 7.44681 24.468 7.63298 24.5212 8.1649C24.5744 8.59043 24.734 8.88298 24.9468 8.85639C25.1063 8.8032 25.2659 8.90958 25.2659 9.04256C25.2659 9.4149 23.5638 9.36171 23.1914 8.98937Z" fill="#180103"/>
<path d="M26.3297 7.57978C26.6489 7.20744 26.6489 7.10106 26.3297 6.91489C26.0106 6.72872 26.0372 6.64893 26.4095 6.48936C26.6755 6.40957 26.968 6.38298 27.0478 6.48936C27.1276 6.56915 27.3935 6.51595 27.5797 6.32978C27.8989 6.06383 27.952 6.17021 27.8723 6.94149C27.7925 7.76595 27.7127 7.84574 26.8882 7.92553C26.0638 8.00532 26.0106 7.97872 26.3297 7.57978V7.57978Z" fill="#180103"/>
<path d="M7.04785 5.95742C7.49998 5.61167 7.52658 5.53188 7.18083 5.29252C6.86168 5.07976 6.88828 5.05316 7.31381 5.10635C7.60636 5.13295 8.0053 5.07976 8.19147 4.97337C8.40424 4.8138 8.51062 4.97337 8.51062 5.55848C8.51062 6.32976 8.45743 6.38295 7.52658 6.38295C6.56913 6.35635 6.54253 6.35635 7.04785 5.95742Z" fill="#180103"/>
<path d="M15.0266 30.5319C6.38303 21.9148 4.25537 19.5212 4.25537 18.484C4.25537 18.4042 4.62771 18.351 5.05324 18.351C5.79792 18.351 5.85112 18.4308 5.85112 19.2819C5.85112 20.1595 5.90431 20.2127 6.78197 20.2127C7.57984 20.2127 7.71282 20.2925 7.71282 20.851C7.71282 21.25 7.89899 21.5425 8.24473 21.6223C8.56388 21.7021 8.77665 21.9946 8.77665 22.3138C8.77665 22.7393 8.93622 22.8723 9.44154 22.8723C9.81388 22.8723 10.1064 22.9787 10.1064 23.1382C10.1064 23.2712 10.532 23.7765 11.0373 24.2287C11.5426 24.7074 11.9681 25.2393 11.9681 25.4521C11.9681 25.6382 12.1277 25.7978 12.3405 25.7978C12.6862 25.7978 14.3618 27.234 14.3618 27.5531C14.3618 27.6329 14.7341 28.0053 15.1596 28.3776C15.6118 28.7234 15.9575 29.2021 15.9575 29.4148C15.9575 29.6276 16.1703 29.7872 16.4628 29.7872C17.0213 29.7872 19.149 31.7819 19.149 32.3138C19.149 32.5 19.3883 32.7127 19.7075 32.7925C20 32.8723 20.3192 33.1648 20.3724 33.4308C20.4522 33.7234 20.8777 34.0691 21.3032 34.2287C21.8086 34.4414 22.0745 34.7074 22.0745 35.0797C22.0745 35.4787 22.2341 35.6382 22.7128 35.6382C23.4043 35.6382 23.6703 36.0638 23.6703 37.2074C23.6703 37.8723 23.75 37.9521 24.3352 37.8191C24.7075 37.7659 25 37.6063 25 37.5C25 37.2074 26.8618 35.3723 27.1277 35.3723C27.2873 35.3723 27.3937 35.2393 27.3937 35.0797C27.3937 34.6808 30.1064 31.9414 30.4788 31.9148C30.6649 31.9148 30.8511 31.6755 30.9309 31.3829C31.0107 31.0904 31.2235 30.851 31.4362 30.851C31.6224 30.851 32.0479 30.4255 32.3937 29.9202C32.8724 29.1489 33.1383 28.9893 33.9096 28.9893C34.7341 28.9893 34.8405 28.9095 34.8405 28.2978C34.8405 27.2606 35.3192 26.5957 36.0373 26.5957C36.516 26.5957 36.7022 26.4627 36.7022 26.0904C36.7022 25.8244 36.8883 25.5053 37.1277 25.4255C37.7128 25.1861 39.6277 25.2393 39.6277 25.4787C39.6277 25.7446 25.1862 40.1595 24.9203 40.1595C24.7873 40.1595 20.3458 35.8244 15.0266 30.5319Z" fill="#D61021"/>
<path d="M39.7074 25.0798C39.5213 25 39.3617 24.5479 39.3617 24.0426C39.3617 23.1383 39.3617 23.1383 40.5585 23.1383C41.2234 23.1383 41.7553 23.2447 41.7553 23.3511C41.7553 23.75 40.0266 25.2128 39.7074 25.0798V25.0798Z" fill="#D61021"/>
<path d="M44.3617 10.8776C44.0426 10.6914 43.883 10.2925 43.883 9.57442C43.883 8.72336 43.7766 8.51059 43.4043 8.51059C42.7926 8.51059 41.7553 7.34038 41.7553 6.67549C41.7553 6.27655 41.5426 6.11698 40.9043 6.06378C40.2926 6.01059 39.9468 5.79783 39.7607 5.39889C39.5745 4.94676 39.2819 4.78719 38.6437 4.78719C37.8724 4.78719 37.766 4.7074 37.766 4.12229C37.766 3.24464 38.2181 3.27123 40.2128 4.28187C42.633 5.50527 45.1596 8.32442 45.8511 10.5851C46.0107 11.0638 45.9575 11.1702 45.4256 11.1702C45.0798 11.1702 44.6011 11.0372 44.3617 10.8776V10.8776Z" fill="#D61021"/>
<path d="M4.78723 8.80314C4.78723 8.4574 6.91489 5.85101 7.20744 5.85101C7.36702 5.85101 7.44681 6.24995 7.39361 6.72867C7.34042 7.36697 7.18085 7.60633 6.72872 7.65952C6.27659 7.73931 6.11702 7.92548 6.11702 8.4042C6.11702 8.90952 5.98404 9.0425 5.45213 9.0425C5.07978 9.0425 4.78723 8.93612 4.78723 8.80314Z" fill="#D61021"/>
<path d="M26.9947 6.91486C27.2607 6.46273 29.8139 4.52124 30.1064 4.52124C30.2394 4.52124 30.3192 4.84039 30.266 5.26592C30.2128 5.77124 30.0266 6.0106 29.6011 6.06379C29.2022 6.11699 28.9894 6.32975 28.9894 6.6755C28.9894 7.10103 28.8032 7.18082 27.899 7.18082C27.2341 7.18082 26.8883 7.07443 26.9947 6.91486Z" fill="#D61021"/>
<path d="M19.8936 6.35635C19.4149 6.09039 19.2021 4.52124 19.6276 4.52124C19.9202 4.52124 21.9681 5.98401 22.2074 6.35635C22.4202 6.72869 20.5053 6.72869 19.8936 6.35635Z" fill="#D61021"/>
<path d="M9.0426 4.7872C9.0426 4.52124 10.0798 3.90954 11.1171 3.61698C11.6224 3.45741 11.7022 3.5106 11.7022 4.06911C11.7022 4.52124 11.516 4.7872 11.1171 4.89358C10.1862 5.13294 9.0426 5.07975 9.0426 4.7872Z" fill="#D61021"/>
<path d="M16.4894 4.12227C16.4894 3.35099 16.8883 3.2712 18.2181 3.82972C19.5479 4.38823 19.3617 4.78716 17.8192 4.78716C16.5692 4.78716 16.4894 4.73397 16.4894 4.12227Z" fill="#D61021"/>
<path d="M32.7128 3.88296C32.7128 3.53721 33.4575 3.19147 34.2553 3.19147C34.4149 3.19147 34.5745 3.43083 34.5745 3.72338C34.5745 4.14891 34.3883 4.2553 33.6436 4.2553C33.0319 4.2553 32.7128 4.12232 32.7128 3.88296Z" fill="#D61021"/>
<path d="M23.2978 38.5905C22.8989 38.1915 22.6595 37.6862 22.7393 37.4734C22.9787 36.8085 22.4734 36.3564 21.8617 36.6756C21.4095 36.9149 21.2766 36.8883 21.1436 36.4362C21.0638 36.1436 21.0372 35.7979 21.1436 35.6649C21.3297 35.3458 20.4787 34.867 20.0266 35.0266C19.8138 35.1064 19.6808 34.9202 19.6808 34.6277C19.6808 33.9096 19.0691 33.4309 18.6702 33.8298C18.4308 34.0692 18.351 33.9894 18.351 33.4575C18.351 32.5798 16.3297 30.5053 15.6383 30.6649C15.3191 30.7713 15.1595 30.6649 15.1595 30.3192C15.1595 30.0532 14.8138 29.5213 14.3617 29.1756C13.9361 28.8032 13.5638 28.4309 13.5638 28.3511C13.5638 28.0053 11.8351 26.5692 11.7553 26.8351C11.6223 27.2607 11.1702 26.9149 11.1702 26.3564C11.1702 25.7713 9.84038 24.4681 9.81379 25.0266C9.81379 25.2394 9.68081 25 9.54783 24.4947C9.33507 23.8032 9.17549 23.6436 8.77655 23.75C8.21804 23.883 7.65953 23.3777 7.76592 22.8458C7.81911 22.633 7.60634 22.4734 7.31379 22.4734C6.88826 22.4734 6.78187 22.3139 6.83507 21.6756C6.88826 21.0107 6.86166 20.9575 6.5957 21.3032C6.32975 21.7022 6.22336 21.6756 5.66485 21.0107C5.31911 20.6117 5.05315 20 5.05315 19.6809C5.05315 19.3883 4.94677 19.1756 4.81379 19.2819C4.68081 19.3617 4.30847 18.7234 3.98932 17.899C3.5106 16.5958 3.43081 15.9309 3.5106 13.6968C3.59038 11.3032 3.69677 10.8777 4.49464 9.38833C5.63826 7.23407 7.92549 4.94684 9.52124 4.33513C10.2127 4.09577 11.0638 3.72343 11.4361 3.53726C12.5532 2.95216 17.7659 3.16492 17.3936 3.75003C17.3138 3.88301 17.5532 3.98939 17.9255 3.98939C18.75 3.98939 20.5053 4.78726 20.3191 5.10641C20.2393 5.21279 20.5319 5.45216 20.9308 5.63833C21.3297 5.7979 22.3936 6.64896 23.2712 7.50003L24.8936 9.04258L26.1968 7.71279C26.9149 6.99471 27.6595 6.38301 27.8457 6.38301C28.0319 6.38301 28.1914 6.22343 28.1914 6.06386C28.218 5.66492 30.0266 4.46811 31.4893 3.85641C33.2978 3.08513 39.1489 3.00535 38.6968 3.75003C38.5904 3.88301 38.8297 3.98939 39.2021 3.98939C39.5744 3.98939 40.1063 4.25535 40.4255 4.5745C40.718 4.89364 41.3563 5.29258 41.8351 5.45216C42.2872 5.61173 42.6595 5.87769 42.6329 6.06386C42.5266 6.46279 43.617 7.71279 44.0425 7.71279C44.5212 7.71279 44.9468 8.59045 44.7872 9.22875C44.6808 9.60109 44.8404 9.89364 45.2925 10.1862C46.8085 11.1702 46.8085 16.0639 45.3191 19.0692C44.8936 19.867 43.8032 21.3564 42.8989 22.3405C41.5691 23.7766 41.0904 24.1224 40.6117 24.016C40.1595 23.9096 40.1063 23.9362 40.4255 24.1756C40.7446 24.3883 40.6914 24.6011 39.9468 25.3458C39.4414 25.8777 38.8563 26.2234 38.617 26.1702C38.351 26.117 37.9787 26.1702 37.7659 26.3298C37.4202 26.5692 37.4202 26.6224 37.7393 26.8351C38.4042 27.2607 37.6063 27.9522 36.8085 27.6596C36.3031 27.4468 36.117 27.5 35.8776 27.9788C35.6649 28.4043 35.6649 28.5639 35.9308 28.75C36.5425 29.1224 35.5053 29.9734 34.601 29.8405C33.9361 29.7607 33.7234 29.8936 33.1914 30.6649C32.8457 31.1968 32.367 31.6756 32.1276 31.7553C31.6223 31.8617 31.4627 32.7128 31.9149 32.7128C32.0744 32.7128 32.1808 32.8192 32.1808 32.9788C32.1808 33.1383 31.9414 33.1383 31.5691 33.0053C31.0638 32.7926 30.7978 32.9256 30.1063 33.6436C29.6276 34.0958 29.2553 34.6277 29.2553 34.8139C29.2553 34.9734 29.1223 35.0798 28.9627 35.0532C28.5106 34.9468 27.9787 35.9309 28.4042 36.0905C28.5638 36.1702 28.7234 36.3298 28.7234 36.4628C28.7234 36.6224 28.5106 36.6224 28.218 36.4362C27.7659 36.2234 27.5266 36.3298 26.7287 37.1543C25.9308 37.9788 25.851 38.1649 26.1968 38.3777C26.8085 38.6968 26.4095 39.149 25.7978 38.8298C25.1329 38.4575 24.8404 38.4841 24.3883 38.9362C24.0425 39.2819 23.9095 39.2288 23.2978 38.5905V38.5905ZM22.0212 26.5426C22.2074 26.3564 22.3404 25.8777 22.3404 25.4256C22.3404 24.7607 21.6755 23.9894 18.218 20.4788C15.9574 18.1915 14.0957 16.1968 14.0957 16.0107C14.0957 15.8245 13.9893 15.6915 13.8297 15.6915C13.6702 15.6915 13.5638 14.7873 13.5638 13.5373C13.5638 11.516 13.5106 11.3564 12.7659 10.5851L11.9414 9.78726L11.1702 10.5851C10.1861 11.6224 9.99996 12.3936 10.1861 14.5213C10.3989 16.8617 11.0372 17.7394 15.9308 22.6596C19.468 26.2234 20.2127 26.8617 20.9042 26.8617C21.3297 26.8617 21.8351 26.7288 22.0212 26.5426V26.5426Z" fill="#E41123"/>
<path d="M15.266 23.5372C10.7447 19.0691 9.78725 17.8191 9.44151 16.0904C8.93619 13.4042 9.4947 10.0532 10.5053 9.65424C10.7181 9.57446 10.8245 9.41488 10.7447 9.2819C10.6649 9.14892 11.117 9.04254 11.7287 9.04254C12.633 9.04254 12.9787 9.20212 13.6702 9.9202C14.4947 10.7979 14.4947 10.8776 14.4149 12.8457C14.3351 14.2287 14.3883 14.8936 14.6011 14.8936C14.7607 14.8936 14.8936 15.0266 14.8936 15.2128C14.8936 15.3723 16.7819 17.4468 19.0958 19.7872L23.2979 24.0691L23.2713 25.4787C23.2181 27.2872 22.7926 27.7128 20.9575 27.7659L19.5479 27.7925L15.266 23.5372V23.5372Z" fill="#EE624D"/>
</g>
<defs>
<clipPath id="clip0">
<rect width="50" height="44.9468" fill="white"/>
</clipPath>
</defs>
</svg>
