<svg width="41" height="50" viewBox="0 0 41 50" fill="none" xmlns="http://www.w3.org/2000/svg">
<path d="M8.03669 13.2004C4.17442 13.4119 1.54432 17.0773 3.45959 20.808C4.96245 23.7356 9.51459 26.1479 12.6895 26.3129L6.67722 36.404L0 44.9242L12.6895 50L17.7653 37.3105H18.6113C20.2195 43.6692 24.8583 41.339 29.5924 42.5191C31.2293 42.9273 32.3219 44.4703 33.8404 45.1708C35.7798 46.065 38.1028 45.7702 40.1834 45.7702V32.2347H30.4548V31.3887H33.4157L31.7238 26.3129C36.2522 26.31 41.4926 22.2519 37.0559 17.7132C35.4202 16.0401 32.7055 14.1568 30.4548 13.4749C28.6284 12.9216 26.6628 13.2849 25.0905 11.9442C22.5932 9.81458 24.5707 5.01084 21.5278 2.36799C13.5139 -4.59254 6.1413 5.23857 8.03669 13.2004Z" fill="black"/>
<path d="M10.5746 8.97062L18.6113 9.81659L20.3032 13.2005C21.2807 10.8842 21.7185 7.76787 20.0858 5.60993C16.7506 1.20211 11.0081 4.19434 10.5746 8.97062Z" fill="#8E562E"/>
<path d="M10.5746 8.97058C11.1067 15.6453 20.5109 18.0028 18.6113 10.2395L10.5746 8.97058Z" fill="#FFC83D"/>
<path d="M15.6504 16.5843C16.49 18.0842 17.0462 19.73 16.0734 21.2371V21.6601C16.9519 23.3098 17.3377 25.975 18.5834 27.3266C20.2161 29.0975 26.4783 28.0048 28.7629 28.0048C28.323 22.6207 26.9132 20.3911 21.5722 20.3911V16.1613H24.956C22.7053 13.8631 17.863 14.5133 15.6504 16.5843Z" fill="#F03A17"/>
<path d="M16.4963 17.0072C15.1995 17.4194 13.6585 18.6285 12.2665 18.3555C10.5915 18.0271 8.76757 15.5941 6.90221 16.6355C5.54739 17.3918 6.01352 19.1809 6.90221 20.0696C9.10257 22.2703 14.9524 25.3175 16.6262 20.6764C17.0064 19.6223 16.5437 18.1108 16.4963 17.0072Z" fill="#FFC83D"/>
<path d="M21.5721 16.1613V20.3912C23.6989 20.3912 26.3222 19.9815 28.3399 20.7479C30.094 21.4143 32.1027 23.9153 34.1652 23.0887C37.1455 21.8939 33.8425 19.1233 32.5693 18.2782C29.026 15.926 25.6628 16.1613 21.5721 16.1613Z" fill="#FFC83D"/>
<path d="M9.30566 39.4254L13.1125 40.6944C15.1018 35.567 16.6042 34.1936 21.9952 33.0807C21.9952 40.0629 25.228 39.4254 31.3008 39.4254V35.6186H27.494V28.4279C24.8558 28.4279 20.7766 29.2224 18.6113 27.5819C12.8689 29.5366 10.6761 33.6551 9.30566 39.4254Z" fill="#0078D7"/>
<path d="M31.7238 35.6185V39.4254L36.7996 42.3863V35.6185H31.7238Z" fill="#D48C00"/>
<path d="M36.7996 35.6185C36.7996 37.7647 37.5259 41.0928 35.5306 42.3863V42.8093H37.2226L36.7996 35.6185Z" fill="#B07400"/>
<path d="M8.88268 39.4254L4.22986 43.2323L10.9976 45.7702L12.6895 40.6944L8.88268 39.4254Z" fill="#D48C00"/>
</svg>
