<svg width="42" height="50" viewBox="0 0 42 50" fill="none" xmlns="http://www.w3.org/2000/svg">
<g clip-path="url(#clip0)">
<path d="M0.282471 45C0.282471 38.0791 0.819194 35.9604 3.41806 32.5988C4.68925 30.9604 7.25987 29.0678 8.95479 28.531C10.5367 28.0226 10.6215 27.8248 9.68925 26.6384C8.44631 25.0847 7.40111 22.8813 6.92089 20.8474C6.38417 18.5028 6.35592 9.77398 6.89264 7.76833C7.51411 5.4237 9.12428 3.22031 11.2147 1.94912C13.2486 0.677936 14.4633 0.564941 25.8192 0.564941H36.5254L36.3559 3.36155C36.2429 5.56494 36.0452 6.52539 35.4802 7.79658C34.774 9.322 34.7457 9.57624 34.7457 14.661C34.7457 21.3277 34.2938 23.1356 31.9491 26.2994L30.7909 27.8248L33.0508 28.87C34.7457 29.661 35.7909 30.3672 37.1186 31.6949C40.3107 34.887 41.2429 37.8813 41.2429 45V49.435H20.7627H0.282471V45ZM18.2203 45.4802C18.3051 45.339 19.4068 45.1977 20.6215 45.1977C21.8361 45.1977 22.9378 45.339 23.0226 45.4802C23.1073 45.6497 23.8983 45.7627 24.7457 45.7627C25.5932 45.7627 26.2712 45.6497 26.2712 45.4802C26.2712 45.3107 28.3051 45.1977 31.7796 45.1977H37.2881V43.0791C37.2881 41.9209 37.1751 40.9604 37.0339 40.9604C36.9209 40.9604 36.7231 40.3955 36.6384 39.7175C36.2429 36.8644 34.1525 33.983 31.5537 32.6836C29.3785 31.5819 27.6554 31.3559 21.1582 31.3559H15.2542V38.5593V45.7627H16.6384C17.4294 45.7627 18.1356 45.6497 18.2203 45.4802ZM13.2768 38.3898V31.5819L12.3729 31.7514C9.46326 32.3164 6.41241 34.774 5.16948 37.5141C4.43501 39.0678 3.98304 41.5819 3.95479 43.87V45.1977H8.6158H13.2768V38.3898ZM24.6893 26.9774C27.9378 25.339 30.2542 22.0339 30.7909 18.3051C30.9322 17.3164 31.0734 14.4915 31.0734 11.9774C31.0734 8.02257 31.1582 7.28811 31.6384 6.27116C31.9491 5.64969 32.2034 4.97172 32.2034 4.80223C32.2034 4.60449 29.4633 4.51974 23.8135 4.51974C14.5198 4.51974 14.0113 4.60449 12.2881 6.38415C10.7062 8.05082 10.452 9.03952 10.452 14.0113C10.452 18.9548 10.7627 20.5932 12.0621 22.7118C13.4746 25 14.9435 26.2429 17.4859 27.3164C19.661 28.2486 22.4576 28.1073 24.6893 26.9774Z" fill="black"/>
<path d="M19.0395 26.5254C17.6271 26.1299 16.8643 25.0847 16.7231 23.3051L16.6101 21.7514H20.5932H24.5762V23.2768C24.5762 25.113 23.8982 26.1299 22.3728 26.5537C21.1581 26.8926 20.2542 26.8926 19.0395 26.5254Z" fill="black"/>
<path d="M14.0396 19.8305C13.6723 19.435 13.5593 18.7571 13.5593 17.0056C13.5593 14.9718 13.6158 14.661 14.1808 14.2938C15 13.7288 16.9209 13.7288 17.7401 14.2938C18.3051 14.6893 18.3616 14.9718 18.3616 17.0904C18.3616 19.209 18.3051 19.4915 17.7401 19.887C16.8362 20.5367 14.6328 20.4802 14.0396 19.8305V19.8305Z" fill="black"/>
<path d="M23.8418 20.113C23.1921 19.6893 22.8813 18.6441 22.8813 16.9491C22.8813 14.6893 23.6158 13.8418 25.565 13.8418C27.5141 13.8418 27.9661 14.4633 27.9661 17.0904C27.9661 19.7457 27.5141 20.339 25.5085 20.339C24.7458 20.339 24.0113 20.226 23.8418 20.113Z" fill="black"/>
<path d="M14.4067 38.5593C14.4067 33.3898 14.5197 30.5085 14.6892 30.5085C14.8587 30.5085 14.9717 33.3898 14.9717 38.5593C14.9717 43.7288 14.8587 46.6102 14.6892 46.6102C14.5197 46.6102 14.4067 43.7288 14.4067 38.5593Z" fill="#373737"/>
<path d="M18.3616 45.791C18.3616 44.5198 19.0113 44.0678 20.7627 44.0678C22.0056 44.0678 22.3729 44.1808 22.7119 44.6893C23.2768 45.4802 23.3051 46.6102 22.7684 46.6102C22.5424 46.6102 22.2599 46.4972 22.1751 46.3277C22.0904 46.1864 21.3842 46.0452 20.6215 46.0452C19.8587 46.0452 19.1525 46.1864 19.0678 46.3277C18.7288 46.8927 18.3616 46.6102 18.3616 45.791Z" fill="#373737"/>
<path d="M26.2429 42.1469L26.3276 37.6836L25.1977 37.7966C24.5762 37.8531 23.8135 37.7684 23.531 37.5989C23.2203 37.4576 22.7118 37.4011 22.3728 37.4859C21.7514 37.6271 21.7514 37.6271 22.4576 38.1921C23.0226 38.6441 23.1638 38.9831 23.1638 40.0848C23.1638 41.8927 22.6271 42.3729 20.5932 42.3729C19.7457 42.3729 18.8983 42.2317 18.7005 42.0339C18.5028 41.8362 18.3615 40.9605 18.3615 40.0848C18.3615 38.7571 18.4745 38.3616 18.9265 38.0509C19.4067 37.7119 19.435 37.5989 19.096 37.4859C18.8418 37.3729 18.2768 37.4294 17.8248 37.5989C17.3728 37.7684 16.6384 37.8531 16.1864 37.7966L15.3954 37.7119L15.3107 34.5198L15.226 31.2994L16.7231 31.4689C18.531 31.6384 18.3898 31.6384 20.4519 31.4689C21.4406 31.3559 22.2034 31.4124 22.4011 31.6102C22.5988 31.8079 22.8531 31.8079 23.2486 31.6102C23.531 31.4407 24.3502 31.3559 25.0282 31.4124C26.0734 31.4972 26.2712 31.4124 26.2712 31.017C26.2712 30.6497 26.4971 30.5085 27.0904 30.5085C28.6158 30.5085 30.9322 31.0735 32.4011 31.8362C33.8418 32.5424 36.1582 34.6893 36.1582 35.2825C36.1582 35.452 36.2994 35.5932 36.4689 35.5932C36.6101 35.5932 36.6666 35.7062 36.5819 35.8757C36.4971 36.0452 36.5536 36.1582 36.7231 36.1582C36.8926 36.1582 36.9491 36.2994 36.8644 36.4407C36.7796 36.6102 36.8361 36.7232 37.0056 36.7232C37.1751 36.7232 37.2316 36.8644 37.1469 37.0057C37.0621 37.1752 37.1186 37.2881 37.3164 37.2881C37.4858 37.2881 37.5706 37.5141 37.4858 37.8531C37.4011 38.1639 37.4576 38.4181 37.6271 38.4181C37.7683 38.4181 37.8248 38.7571 37.7118 39.2655C37.5988 39.8023 37.6271 40.113 37.8248 40.113C38.0226 40.113 38.1356 41.1582 38.1356 43.0791V46.0452H32.6271C29.1525 46.0452 27.1186 46.1582 27.1186 46.3277C27.1186 46.4972 26.8926 46.6102 26.6384 46.6102C26.1582 46.6102 26.1299 46.2429 26.2429 42.1469Z" fill="#373737"/>
<path d="M3.19207 42.5706C3.36157 38.6158 3.92654 36.7232 5.53671 34.661C7.20337 32.5141 9.774 31.1017 12.7966 30.678L14.1243 30.4802V38.2486V46.0452H8.55931H3.02258L3.19207 42.5706Z" fill="#373737"/>
<path d="M18.7006 28.7853C14.6045 27.9943 11.243 24.9152 10.0565 20.9039C9.43505 18.8418 9.4068 13.8418 10.0283 13.8418C10.339 13.8418 10.452 13.4746 10.452 12.3164V10.7627L18.5876 10.678C26.356 10.5932 26.7514 10.565 27.9379 9.97174C28.6441 9.60451 29.6328 9.32202 30.1413 9.32202H31.0735V11.5819C31.0735 13.3898 31.1582 13.8418 31.4972 13.8418C31.8362 13.8418 31.9209 14.2373 31.9209 15.6215C31.8927 22.7966 28.7006 27.4576 22.9379 28.6723C20.8475 29.1243 20.452 29.1525 18.7006 28.7853ZM23.1074 24.7175C23.4463 24.2938 23.7288 23.6723 23.7288 23.2768V22.5989H20.5932H17.4576L17.6554 23.3898C18.2486 25.8192 21.4407 26.5819 23.1074 24.7175ZM16.8927 19.0395C17.4012 18.7006 17.5141 18.3333 17.5141 17.0904C17.5141 15.7345 17.4294 15.4802 16.7797 15.0565C16.1017 14.6328 15.9605 14.6328 15.2825 15C14.661 15.3672 14.548 15.6215 14.4633 16.9209C14.3221 19.1808 15.3955 20.0847 16.8927 19.0395ZM26.5537 18.9265C27.7401 17.7401 27.0057 14.6893 25.565 14.6893C24.8023 14.6893 23.7288 16.0169 23.7288 16.9491C23.7288 19.096 25.2825 20.1977 26.5537 18.9265Z" fill="#FFC83D"/>
<path d="M31.0169 14.7457C30.226 14.661 30.226 14.6328 30.226 12.4011C30.226 11.1864 30.1977 10.1695 30.1412 10.1695C30.0847 10.1695 29.4915 10.452 28.7853 10.8192C27.5988 11.4124 27.2034 11.4407 19.435 11.5254L11.2994 11.6102V13.1638C11.2994 14.661 11.2994 14.6893 10.4519 14.6893H9.60449V11.6667C9.60449 8.30507 9.99997 7.06213 11.4407 5.53671C13.1921 3.75705 13.5875 3.6723 23.983 3.6723H33.4181L33.2203 4.83049C33.1356 5.45196 32.7966 6.49716 32.4859 7.14688C32.0621 8.07908 31.9209 9.06778 31.8644 11.5819L31.7796 14.8305L31.0169 14.7457Z" fill="#8E562E"/>
<path d="M14.4067 38.5593V30.5085H20.7627H27.1186L27.0621 38.5028L26.9774 46.4689L24.7175 46.5537C22.4576 46.6102 22.4576 46.6102 21.9774 45.7627C21.2711 44.5198 19.9717 44.6045 19.2372 45.9887C18.9265 46.5537 18.7005 46.6102 16.6666 46.6102H14.4067V38.5593ZM21.8079 41.0452C22.4293 40.4802 22.4576 39.887 21.8361 39.2091C21.3276 38.6441 20.0565 38.5311 19.548 39.0396C19.1243 39.4633 19.1243 40.7627 19.548 41.1865C20.0282 41.6667 21.1864 41.6102 21.8079 41.0452ZM18.305 36.13C18.757 35.8475 18.983 35.8757 19.6327 36.4124C20.4802 37.0622 21.3559 37.0057 21.9774 36.2147C22.2881 35.8192 22.4293 35.8192 23.6158 36.3842C24.322 36.7232 25.0282 36.9492 25.1695 36.8644C25.3107 36.7514 25.4237 35.7345 25.4237 34.5763C25.4237 32.0904 25.1977 31.8927 23.4463 32.7684L22.2598 33.3616L21.8361 32.7966C21.3276 32.0339 20.2259 32.0339 19.5197 32.7966L18.983 33.3616L17.8248 32.7966C17.2033 32.4576 16.5536 32.2034 16.3841 32.2034C16.0734 32.2034 15.9604 36.4972 16.2711 36.8079C16.4689 36.9774 17.4576 36.6667 18.305 36.13Z" fill="white"/>
<path d="M19.548 20.565C18.8135 19.8305 19.1807 19.4915 20.7909 19.4915C22.3728 19.4915 22.3728 19.4915 21.9773 20.1412C21.4971 20.8474 20.0847 21.1017 19.548 20.565Z" fill="#F7894A"/>
</g>
<defs>
<clipPath id="clip0">
<rect width="41.5254" height="50" fill="white"/>
</clipPath>
</defs>
</svg>
