<svg width="52" height="50" viewBox="0 0 52 50" fill="none" xmlns="http://www.w3.org/2000/svg">
<path d="M18.9048 34.5545C18.0814 35.7332 16.9933 36.8225 16.6196 38.2474C13.4798 50.2084 27.8618 51.8926 35.7259 48.3757C39.5787 46.6526 42.7661 44.3358 45.5125 41.1127C60.4094 23.6325 43.9284 -2.61481 22.1869 0.210484C11.8387 1.55523 3.328 9.60143 1.26475 19.7848C0.360101 24.2502 0.278872 29.5929 4.15142 32.6952C7.97474 35.7574 14.3106 34.5545 18.9048 34.5545Z" fill="black"/>
<path d="M24.6486 3.13931C14.7479 4.32532 5.94471 10.0861 4.30895 20.6053C3.82565 23.7135 3.09783 27.0277 5.45812 29.5882C9.67694 34.1656 17.1927 28.9165 21.2232 32.6812C23.6733 34.9697 20.424 36.9242 19.6195 39.0675C17.9176 43.5989 22.4511 47.5868 26.6999 47.2028C34.8442 46.4671 42.2418 42.6721 45.8501 34.9648C52.6229 20.498 41.6572 1.10186 24.6486 3.13931Z" fill="#FFB900"/>
<path d="M25.4708 7.76059C19.9875 9.2486 22.5595 17.375 27.9291 15.9141C33.0706 14.5153 30.5741 6.37576 25.4708 7.76059Z" fill="#F03A17"/>
<path d="M12.3466 14.3455C7.23008 16.3614 10.9758 23.9459 16.025 21.9418C21.1559 19.9056 17.4733 12.3257 12.3466 14.3455Z" fill="#16C60C"/>
<path d="M36.1379 15.578C30.9808 17.505 33.6147 25.383 38.9917 23.6197C44.2477 21.8961 41.1887 13.6906 36.1379 15.578Z" fill="#FCE100"/>
<path d="M34.1233 28.3423C29.3667 30.4495 32.7338 37.8897 37.7694 35.8913C42.8469 33.876 39.1258 26.1262 34.1233 28.3423Z" fill="#0046FF"/>
<path d="M26.7606 36.2075C23.0743 38.3684 28.0751 44.246 31.4451 41.9279C34.7564 39.6505 29.9665 34.3281 26.7606 36.2075Z" fill="white"/>
</svg>
