<svg width="50" height="50" viewBox="0 0 50 50" fill="none" xmlns="http://www.w3.org/2000/svg">
<path d="M0.238684 7.62431V31.5877C0.238684 34.3431 -0.629683 38.9266 0.946215 41.3177C3.0225 44.467 8.3704 43.3663 11.6111 43.3663H38.8238C41.8505 43.3663 46.646 44.3334 48.8015 41.6974C50.678 39.4034 49.7901 34.7809 49.7901 31.9939V7.62431L34.7622 7.60051L30.2945 6.05954L21.359 6L15.6727 7.56444L0.238684 7.62431Z" fill="black"/>
<path d="M19.7343 12.9043H30.2945C30.3111 11.9195 30.6738 10.3099 29.9805 9.49398C28.8952 8.21701 21.1335 8.21701 20.0483 9.49398C19.355 10.3099 19.7177 11.9195 19.7343 12.9043Z" fill="#CCCCCC"/>
<path d="M3.08179 12.0921V18.9968L16.0789 18.768L25.0144 15.0098L33.6595 18.7884L46.947 18.9968V12.0921L34.8308 12.7098L30.2945 10.0613V12.9044H19.7343V10.0613C13.4685 12.9093 9.67294 12.1147 3.08179 12.0921Z" fill="#E5E5E5"/>
<path d="M6.33105 10.4674V12.9044H13.2358L12.8296 10.4674H6.33105Z" fill="#CCCCCC"/>
<path d="M33.95 10.4674V12.9044H37.6054V10.4674H33.95Z" fill="#CCCCCC"/>
<path d="M40.0422 10.4674V12.9044H43.6977V10.4674H40.0422Z" fill="#CCCCCC"/>
<path d="M6.33105 13.7167V17.3721H9.98649V13.7167H6.33105Z" fill="#F03A17"/>
<path d="M23.3898 15.1238C8.96907 17.7015 12.5579 39.561 27.0452 37.1415C41.0418 34.8045 37.2154 12.6525 23.3898 15.1238Z" fill="#CCCCCC"/>
<path d="M24.6082 16.7484C11.5851 17.935 13.5477 37.0472 26.639 35.5785C38.1382 34.2882 36.1789 15.6941 24.6082 16.7484Z" fill="#1F1F1F"/>
<path d="M3.08176 18.9967V34.0246C3.08176 35.5818 2.50866 38.617 3.73283 39.8156C5.37615 41.424 10.2858 40.5231 12.4234 40.5231H36.793C39.0431 40.5231 44.5372 41.5178 46.2394 39.8156C47.49 38.565 46.947 35.6285 46.947 34.0246V18.9967H33.5437C34.7325 21.1426 35.8913 22.9853 36.1106 25.4953C37.4181 40.4565 12.9417 40.9131 13.7962 25.9014C13.9449 23.2834 15.1731 21.178 16.485 18.9967H3.08176Z" fill="#383838"/>
<path d="M36.4482 34.0437C34.2631 35.2545 36.3105 38.1447 38.2885 36.8547C40.1211 35.6594 38.332 33.0003 36.4482 34.0437Z" fill="#1F1F1F"/>
</svg>
