<svg width="42" height="50" viewBox="0 0 42 50" fill="none" xmlns="http://www.w3.org/2000/svg">
<g clip-path="url(#clip0)">
<path d="M0.450439 25V0H16.9594H33.4459L37.3423 3.8964L41.2162 7.77027V28.8964V50H20.8333H0.450439V25ZM37.3874 28.2207V10.473L34.1892 7.27477L30.9685 4.05405H17.7477H4.50449V24.8423C4.50449 36.2838 4.57206 45.7207 4.66215 45.7883C4.72972 45.8784 12.1396 45.9459 21.1036 45.9459H37.3874V28.2207Z" fill="black"/>
<path d="M40.0901 49.6621C40.0901 49.482 40.2477 49.3243 40.4279 49.3243C40.7207 49.3243 40.7658 46.9144 40.7658 28.9865C40.7658 13.4685 40.6982 8.58107 40.4955 8.37836C40.2928 8.17566 40.3378 8.10809 40.7207 8.10809H41.2162V29.054V50H40.6532C40.2928 50 40.0901 49.8648 40.0901 49.6621Z" fill="#202020"/>
<path d="M3.98652 46.4639C3.89643 46.3964 3.82886 36.6666 3.82886 24.8423C3.82886 3.53602 3.82886 3.37836 4.27931 3.37836C4.72976 3.37836 4.72976 3.53601 4.72976 24.5495V45.7207H21.3964C37.9054 45.7207 38.0631 45.7207 38.0631 46.1711C38.0631 46.6216 37.9054 46.6216 21.1036 46.6216C11.7568 46.6216 4.05408 46.554 3.98652 46.4639V46.4639Z" fill="#404040"/>
<path d="M6.89197 41.6216C6.8244 41.3288 6.75684 40.6756 6.75684 40.1576V39.1891H8.06314C8.80639 39.1891 10.4731 39.2567 11.7794 39.3468L14.1893 39.4819V40.6531C14.1893 41.5315 14.0992 41.8693 13.8289 41.9819C13.6262 42.0495 12.0271 42.1171 10.2478 42.1171C7.09467 42.1171 7.02711 42.1171 6.89197 41.6216Z" fill="#A3A3A3"/>
<path d="M6.75684 36.1487V34.6847H20.2703H33.7839V36.1487V37.6126H20.2703H6.75684V36.1487Z" fill="#A3A3A3"/>
<path d="M6.75684 31.5991V30.1126L12.3424 30.2477C15.4055 30.3378 21.1262 30.4054 25.0676 30.4054H32.2073V31.5991V32.8153L24.7298 32.9504C20.6307 33.0405 14.91 33.1081 12.0046 33.1081H6.75684V31.5991V31.5991Z" fill="#A3A3A3"/>
<path d="M6.75684 27.1396V25.6757H20.946H35.1352V27.1396V28.6036H20.946H6.75684V27.1396Z" fill="#A3A3A3"/>
<path d="M6.80182 22.7027L6.86939 21.2838H20.2703H33.6712L33.7388 22.7027L33.8063 24.0991H20.2703H6.73425L6.80182 22.7027V22.7027Z" fill="#A3A3A3"/>
<path d="M6.75684 18.2432V16.8918H19.4595H32.1397L32.2974 17.7477C32.3649 18.1982 32.4325 18.8063 32.4325 19.0991V19.5945H19.5947H6.75684V18.2432V18.2432Z" fill="#A3A3A3"/>
<path d="M6.75684 13.7838V12.455L12.6803 12.3198C15.9235 12.2297 22.2974 12.1622 26.8244 12.1622H35.0676L35.2253 12.8604C35.2929 13.2433 35.3604 13.9189 35.3604 14.3243V15.0901H21.0586H6.75684V13.7838V13.7838Z" fill="#A3A3A3"/>
<path d="M6.75684 9.23423V7.88287H14.3019H21.8469V9.23423V10.5856H14.3019H6.75684V9.23423Z" fill="#A3A3A3"/>
<path d="M36.4866 9.07656V8.24323L37.2749 9.00899C37.7028 9.43692 38.0631 9.79728 38.0631 9.84232C38.0631 9.88737 37.7028 9.90989 37.2749 9.90989C36.5091 9.90989 36.4866 9.88737 36.4866 9.07656V9.07656Z" fill="#A3A3A3"/>
<path d="M33.7838 6.64411C33.7838 6.21618 33.6712 6.08104 33.3108 6.08104C32.6126 6.08104 32.1622 5.49546 32.2523 4.72969L32.3198 4.03149L33.8964 5.63059L35.4505 7.20717H34.6171C33.8739 7.20717 33.7838 7.1396 33.7838 6.64411V6.64411Z" fill="#A3A3A3"/>
<path d="M6.91437 42.1847C6.82428 42.1171 6.75671 41.5991 6.75671 41.0586C6.75671 39.9099 7.31978 39.6847 7.545 40.7658L7.70266 41.4415H10.1576C12.4549 41.4415 12.6126 41.464 12.6126 41.8919C12.6126 42.3198 12.4549 42.3424 9.8423 42.3424C8.31077 42.3424 6.98194 42.2748 6.91437 42.1847V42.1847Z" fill="#BFBFBF"/>
<path d="M13.1306 41.3514C13.6035 40.991 13.6486 40.0901 13.1756 40.0901C12.9954 40.0901 12.8378 40 12.8378 39.8649C12.8378 39.7523 13.1981 39.6396 13.6261 39.6396C14.4143 39.6396 14.4143 39.6396 14.4143 40.6532V41.6667H13.581C12.8152 41.6441 12.7702 41.6216 13.1306 41.3514Z" fill="#BFBFBF"/>
<path d="M10.0901 39.9325C9.86487 39.8874 9.68469 39.6847 9.68469 39.5045C9.68469 39.2568 10.0225 39.1892 11.1487 39.1892C12.455 39.1892 12.6126 39.2343 12.6126 39.6397C12.6126 40.0225 12.4775 40.0901 11.5541 40.0676C10.946 40.0451 10.2928 40 10.0901 39.9325Z" fill="#BFBFBF"/>
<path d="M20.9459 32.7928C20.9459 32.2973 21.7117 32.2072 26.5315 32.2072C30.9234 32.2072 31.0811 32.2297 31.0811 32.6577C31.0811 33.0856 30.9234 33.1081 26.0135 33.1081C21.8468 33.1081 20.9459 33.0631 20.9459 32.7928Z" fill="#BFBFBF"/>
<path d="M13.2432 30.9234C13.0179 30.8784 12.8378 30.6757 12.8378 30.4955C12.8378 30.2252 13.7612 30.1802 18.6936 30.1802C24.3918 30.1802 24.5495 30.2027 24.5495 30.6306C24.5495 31.0586 24.4143 31.0811 19.099 31.0586C16.081 31.036 13.4459 30.991 13.2432 30.9234Z" fill="#BFBFBF"/>
<path d="M33.7837 28.2658C33.7837 28.0856 33.9413 27.9279 34.1215 27.9279C34.3468 27.9279 34.4594 27.6802 34.4594 27.1396C34.4594 26.5991 34.3468 26.3513 34.1215 26.3513C33.9413 26.3513 33.7837 26.1937 33.7837 26.0135C33.7837 25.7883 34.0314 25.6757 34.572 25.6757H35.3603V27.1396V28.6036H34.572C34.0314 28.6036 33.7837 28.491 33.7837 28.2658Z" fill="#BFBFBF"/>
<path d="M7.43237 21.4639V20.9459H13.7387C19.8648 20.9459 20.045 20.9684 20.045 21.3964C20.045 21.8243 19.8423 21.8243 13.7387 21.8919L7.43237 21.9594V21.4639Z" fill="#BFBFBF"/>
<path d="M30.8558 19.1442C30.8558 19.0315 31.036 18.9189 31.2612 18.9189C31.5991 18.9189 31.6666 18.7838 31.5766 18.2433C31.5315 17.8604 31.3513 17.5676 31.1711 17.5676C30.991 17.5676 30.8558 17.4099 30.8558 17.2297C30.8558 17.0045 31.1036 16.8919 31.6441 16.8919H32.4324V18.1306V19.3694H31.6441C31.2162 19.3694 30.8558 19.2793 30.8558 19.1442Z" fill="#BFBFBF"/>
<path d="M6.75671 17.455V16.6667H10.8108C14.7072 16.6667 14.8648 16.6892 14.8648 17.1171C14.8648 17.5451 14.7072 17.5676 11.1486 17.5676C7.99545 17.5676 7.43239 17.6126 7.43239 17.9054C7.43239 18.0856 7.27473 18.2433 7.09455 18.2433C6.86933 18.2433 6.75671 17.9955 6.75671 17.455Z" fill="#BFBFBF"/>
<path d="M6.75671 12.9505V12.1622H11.3738C15.1576 12.1622 15.9909 12.2297 15.9909 12.4775C15.9909 12.973 15.2477 13.0631 11.2162 13.0631C7.99545 13.0631 7.43239 13.1081 7.43239 13.4009C7.43239 13.5811 7.27473 13.7387 7.09455 13.7387C6.86933 13.7387 6.75671 13.491 6.75671 12.9505Z" fill="#BFBFBF"/>
<path d="M6.75671 8.44594V7.65765H14.3018H21.8468V8.44594C21.8468 8.98648 21.7342 9.23423 21.509 9.23423C21.3288 9.23423 21.1711 9.07657 21.1711 8.89639C21.1711 8.6036 20.2477 8.55855 14.3018 8.55855C8.35581 8.55855 7.43239 8.6036 7.43239 8.89639C7.43239 9.07657 7.27473 9.23423 7.09455 9.23423C6.86933 9.23423 6.75671 8.98648 6.75671 8.44594Z" fill="#BFBFBF"/>
<path d="M11.6666 39.9324C11.4414 39.8873 11.2612 39.6846 11.2612 39.5045C11.2612 39.2792 11.554 39.1891 12.3874 39.1891C13.3558 39.1891 13.5135 39.2567 13.5135 39.6396C13.5135 40 13.3784 40.09 12.7928 40.0675C12.3874 40.045 11.8693 40 11.6666 39.9324Z" fill="#DFDFDF"/>
<path d="M29.7298 32.7703C29.7298 32.545 30.0451 32.3874 30.6307 32.2973C31.3964 32.1622 31.5316 32.0721 31.5316 31.6216V31.0811H27.8829C23.9415 31.0811 23.1982 30.991 23.1982 30.4955C23.1982 30.2477 24.0091 30.1802 27.7027 30.1802H32.2073V31.6441V33.1081H30.9685C30.0226 33.1081 29.7298 33.018 29.7298 32.7703Z" fill="#DFDFDF"/>
<path d="M19.0991 21.6892C18.8739 21.6441 18.6937 21.4414 18.6937 21.2612C18.6937 20.991 19.5721 20.9459 24.2117 20.9459C29.5721 20.9459 29.7298 20.9684 29.7298 21.3964C29.7298 21.8243 29.5946 21.8468 24.6171 21.8243C21.7793 21.8018 19.3018 21.7567 19.0991 21.6892Z" fill="#DFDFDF"/>
<path d="M6.75684 19.0315C6.75684 18.491 6.86945 18.2432 7.09467 18.2432C7.27485 18.2432 7.43251 18.4009 7.43251 18.5811C7.43251 18.8739 8.94152 18.9189 19.5947 18.9189C30.2478 18.9189 31.7568 18.8739 31.7568 18.5811C31.7568 18.4009 31.9145 18.2432 32.0947 18.2432C32.3199 18.2432 32.4325 18.491 32.4325 19.0315V19.8198H19.5947H6.75684V19.0315Z" fill="#DFDFDF"/>
<path d="M13.919 17.4099C13.6937 17.3648 13.5135 17.1621 13.5135 16.9819C13.5135 16.7117 14.482 16.6666 19.5946 16.6666C25.5181 16.6666 25.6757 16.6666 25.6757 17.1171C25.6757 17.5675 25.5406 17.5675 20 17.545C16.8694 17.5225 14.1217 17.4774 13.919 17.4099Z" fill="#DFDFDF"/>
<path d="M6.75684 14.527C6.75684 13.9865 6.86945 13.7387 7.09467 13.7387C7.27485 13.7387 7.43251 13.8964 7.43251 14.0765C7.43251 14.3693 9.09918 14.4144 21.0586 14.4144C33.0181 14.4144 34.6848 14.3693 34.6848 14.0765C34.6848 13.8964 34.8424 13.7387 35.0226 13.7387C35.2478 13.7387 35.3604 13.9865 35.3604 14.527V15.3153H21.0586H6.75684V14.527Z" fill="#DFDFDF"/>
<path d="M6.75684 10.0225C6.75684 9.48194 6.86945 9.23419 7.09467 9.23419C7.27485 9.23419 7.43251 9.39185 7.43251 9.57203C7.43251 9.86482 8.35594 9.90987 14.3019 9.90987C20.2478 9.90987 21.1713 9.86482 21.1713 9.57203C21.1713 9.39185 21.3289 9.23419 21.5091 9.23419C21.7343 9.23419 21.8469 9.48194 21.8469 10.0225V10.8108H14.3019H6.75684V10.0225Z" fill="#DFDFDF"/>
<path d="M32.3875 9.21169C32.0496 9.03151 31.9821 8.67115 31.9821 7.40989V5.81079L33.0631 5.87836C34.0316 5.9234 34.2568 6.05854 35.5406 7.29728C36.3064 8.04052 36.937 8.7162 36.937 8.82881C36.937 8.9189 36.5766 9.00899 36.1487 9.00899C35.7208 9.00899 35.3604 9.1216 35.3604 9.23422C35.3604 9.52701 32.883 9.50449 32.3875 9.21169V9.21169Z" fill="#DFDFDF"/>
<path d="M4.05408 3.82881C4.05408 3.37836 4.21174 3.37836 17.8604 3.37836C31.3964 3.37836 31.6892 3.37836 32.0946 3.82881C32.5 4.27926 32.4775 4.27926 18.2883 4.27926C4.21173 4.27926 4.05408 4.27926 4.05408 3.82881Z" fill="#DFDFDF"/>
<path d="M4.05408 25V3.60358H17.973H31.8694L33.1532 4.90988C33.8514 5.6306 34.5946 6.64412 34.7973 7.16214C35.0225 7.68015 35.2703 8.06304 35.3604 7.99547C35.473 7.9279 35.6307 7.99547 35.6982 8.1306C35.7883 8.24322 35.991 8.31078 36.1261 8.26574C36.2838 8.19817 36.7793 8.53601 37.2298 9.00898L38.0631 9.84232V28.1306V46.3964H21.0586H4.05408V25ZM13.2433 41.2387C13.5135 41.1036 13.7388 40.8333 13.7388 40.6306C13.7388 40.0901 12.7027 39.8648 10 39.8648H7.43246V40.6081C7.43246 41.036 7.50002 41.4414 7.61264 41.5315C7.86038 41.8018 12.6577 41.554 13.2433 41.2387ZM33.1081 36.1486V35.3603H20.2703H7.43246V36.1486V36.9369H20.2703H33.1081V36.1486ZM31.5316 31.6441V30.8558H19.482H7.43246V31.6441V32.4324H19.482H31.5316V31.6441ZM34.6847 27.1396V26.3513H21.0586H7.43246V27.1396V27.9279H21.0586H34.6847V27.1396ZM33.0631 22.7027L32.9955 21.9594L30.7433 21.8243C26.8243 21.5765 8.35588 21.5991 7.86038 21.8468C7.59011 22.0045 7.43246 22.3198 7.43246 22.7477V23.4234H20.2928H33.1307L33.0631 22.7027ZM31.7568 18.4009V17.6351L26.6442 17.5C23.8514 17.4099 18.3784 17.3423 14.482 17.3423H7.43246V18.2432V19.1441H19.5946H31.7568V18.4009ZM34.6847 14.4369C34.6847 14.3243 34.6171 13.9189 34.5496 13.536L34.4144 12.8378H20.9234H7.43246V13.7387V14.6396H21.0586C28.6937 14.6396 34.6847 14.5495 34.6847 14.4369ZM21.1712 9.23421V8.33331H14.3018H7.43246V9.23421V10.1351H14.3018H21.1712V9.23421ZM33.964 7.7252C32.973 6.3288 32.6577 6.26123 32.6577 7.40988C32.6577 8.4234 33.018 8.76123 34.0766 8.78376H34.7298L33.964 7.7252Z" fill="#F4F4F4"/>
</g>
<defs>
<clipPath id="clip0">
<rect width="41.2162" height="50" fill="white"/>
</clipPath>
</defs>
</svg>
