<svg width="100" height="35" viewBox="0 0 100 35" fill="none" xmlns="http://www.w3.org/2000/svg">
<path d="M76.0557 28.7601H86.3825C86.361 27.7166 85.5433 25.6534 86.3093 24.7978C87.2312 23.7684 89.3842 24.2137 89.9586 22.6667C90.2675 21.8349 89.6554 20.3312 89.7019 19.3553L87.1202 19.1709C87.5934 18.6238 88.3085 18.1602 88.643 17.5111C88.8872 17.0373 88.627 16.5195 88.8925 16.0526C89.1878 15.5333 90.0373 15.1257 89.686 14.4149C89.2086 13.4491 87.7005 13.5341 87.0726 12.6772C86.0941 11.342 86.6699 9.21459 85.2414 8.03971C84.0448 7.05553 82.3178 7.00009 80.8503 7C77.2479 6.99978 72.5086 8.1025 71.3172 12.1634C70.6179 14.5471 71.0883 17.928 72.5962 19.9078C73.5074 21.1041 74.9072 21.8764 75.6126 23.2281C76.4358 24.8055 76.0557 27.0324 76.0557 28.7601Z" fill="#FFC83D" stroke="black" stroke-width="2"/>
<mask id="path-2-inside-1" fill="white">
<path d="M94.1277 11.6102L90.2551 16.5892C91.9629 16.9652 94.4561 13.679 95.603 12.5323L94.1277 11.6102Z"/>
</mask>
<path d="M94.1277 11.6102L90.2551 16.5892C91.9629 16.9652 94.4561 13.679 95.603 12.5323L94.1277 11.6102Z" fill="#FFC83D"/>
<path d="M94.1277 11.6102L95.1877 9.91423L93.6571 8.95762L92.549 10.3823L94.1277 11.6102ZM90.2551 16.5892L88.6764 15.3614L86.7319 17.8614L89.8251 18.5425L90.2551 16.5892ZM95.603 12.5323L97.0171 13.9466L98.795 12.1688L96.663 10.8363L95.603 12.5323ZM92.549 10.3823L88.6764 15.3614L91.8338 17.8171L95.7064 12.8381L92.549 10.3823ZM89.8251 18.5425C90.9497 18.7901 91.9546 18.3938 92.6209 18.0237C93.3211 17.6349 93.967 17.0968 94.5065 16.5916C95.0574 16.0756 95.5739 15.5204 96.003 15.0488C96.4639 14.5422 96.7749 14.1887 97.0171 13.9466L94.1888 11.118C93.8576 11.4491 93.4268 11.9365 93.0444 12.3568C92.6301 12.8122 92.2015 13.27 91.7723 13.672C91.3317 14.0846 90.9624 14.3693 90.6789 14.5268C90.3616 14.703 90.4144 14.5764 90.6852 14.636L89.8251 18.5425ZM96.663 10.8363L95.1877 9.91423L93.0677 13.3062L94.543 14.2283L96.663 10.8363Z" fill="#FFC83D" mask="url(#path-2-inside-1)"/>
<mask id="path-4-inside-2" fill="white">
<path d="M91.3616 17.88L96.3406 18.2489V16.4048C95.054 16.4155 91.6172 16.3478 91.3616 17.88Z"/>
</mask>
<path d="M91.3616 17.88L96.3406 18.2489V16.4048C95.054 16.4155 91.6172 16.3478 91.3616 17.88Z" fill="#FFC83D"/>
<path d="M91.3616 17.88L89.3888 17.551L89.0282 19.7127L91.2138 19.8746L91.3616 17.88ZM96.3406 18.2489L96.1928 20.2434L98.3406 20.4025V18.2489H96.3406ZM96.3406 16.4048H98.3406V14.3881L96.324 14.4049L96.3406 16.4048ZM91.2138 19.8746L96.1928 20.2434L96.4883 16.2543L91.5093 15.8855L91.2138 19.8746ZM98.3406 18.2489V16.4048H94.3406V18.2489H98.3406ZM96.324 14.4049C95.749 14.4096 94.3795 14.391 93.1345 14.5992C92.5162 14.7027 91.7653 14.8855 91.0981 15.2547C90.4116 15.6346 89.5891 16.3505 89.3888 17.551L93.3343 18.2091C93.2619 18.6435 92.9648 18.7933 93.0347 18.7546C93.1241 18.7052 93.3608 18.617 93.7944 18.5444C94.6534 18.4008 95.6456 18.4106 96.3572 18.4047L96.324 14.4049Z" fill="#FFC83D" mask="url(#path-4-inside-2)"/>
<mask id="path-6-inside-3" fill="white">
<path d="M96.525 23.4122C96.0441 22.7296 95.4593 22.156 94.8654 21.5689C94.4482 21.1566 94.0171 20.7678 93.5745 20.3835C93.2512 20.1027 92.0057 18.6053 91.515 19.1251C91.054 19.6134 92.2717 20.6906 92.5437 21.0149C93.63 22.3098 94.723 24.6282 96.525 23.4122Z"/>
</mask>
<path d="M96.525 23.4122C96.0441 22.7296 95.4593 22.156 94.8654 21.5689C94.4482 21.1566 94.0171 20.7678 93.5745 20.3835C93.2512 20.1027 92.0057 18.6053 91.515 19.1251C91.054 19.6134 92.2717 20.6906 92.5437 21.0149C93.63 22.3098 94.723 24.6282 96.525 23.4122Z" fill="#FFC83D"/>
<path d="M96.525 23.4122L97.6437 25.0701L99.3353 23.9286L98.16 22.2604L96.525 23.4122ZM94.8654 21.5689L96.2714 20.1465L96.2714 20.1465L94.8654 21.5689ZM93.5745 20.3835L92.2628 21.8933L92.2632 21.8936L93.5745 20.3835ZM91.515 19.1251L92.9693 20.4981L92.9694 20.498L91.515 19.1251ZM92.5437 21.0149L91.0112 22.3L91.0114 22.3004L92.5437 21.0149ZM98.16 22.2604C97.5584 21.4064 96.8394 20.7081 96.2714 20.1465L93.4593 22.9912C94.0792 23.604 94.5298 24.0528 94.89 24.5641L98.16 22.2604ZM96.2714 20.1465C95.8121 19.6926 95.3458 19.2728 94.8858 18.8734L92.2632 21.8936C92.6883 22.2628 93.0843 22.6206 93.4593 22.9913L96.2714 20.1465ZM94.8862 18.8737C94.9121 18.8963 94.9086 18.8954 94.8366 18.8224C94.8222 18.8078 94.6585 18.6406 94.6072 18.5888C94.4267 18.4064 94.1709 18.1536 93.8884 17.918C93.6374 17.7087 93.216 17.3838 92.7016 17.1906C92.1715 16.9915 90.9875 16.7703 90.0606 17.7522L92.9694 20.498C92.6886 20.7955 92.3111 20.97 91.9324 21.0083C91.6055 21.0413 91.3737 20.9647 91.2952 20.9352C91.1624 20.8854 91.1646 20.8549 91.3267 20.9901C91.4573 21.099 91.6041 21.2407 91.7634 21.4018C91.8821 21.5217 91.8725 21.5135 91.99 21.6326C92.0499 21.6932 92.156 21.8005 92.2628 21.8933L94.8862 18.8737ZM90.0608 17.7521C89.2647 18.5953 89.3606 19.6117 89.5309 20.1671C89.6882 20.6802 89.9751 21.0947 90.1599 21.3387C90.3662 21.6112 90.5884 21.8537 90.7472 22.0224C90.8224 22.1023 90.9093 22.1927 90.953 22.2387C91.0156 22.3045 91.0229 22.3141 91.0112 22.3L94.0762 19.7299C93.9964 19.6347 93.9062 19.5396 93.8519 19.4825C93.7788 19.4057 93.7295 19.3548 93.6595 19.2805C93.5279 19.1407 93.4235 19.0226 93.349 18.9243C93.3321 18.902 93.3194 18.8841 93.3103 18.8706C93.3011 18.857 93.2972 18.8503 93.2973 18.8504C93.2974 18.8507 93.2989 18.8533 93.3016 18.8584C93.3042 18.8634 93.3082 18.8714 93.3132 18.8823C93.3227 18.9032 93.3388 18.9411 93.3551 18.9945C93.3849 19.0917 93.4369 19.3086 93.398 19.5989C93.3548 19.9209 93.2105 20.2426 92.9693 20.4981L90.0608 17.7521ZM91.0114 22.3004C91.2335 22.5651 91.4329 22.8534 91.7667 23.3015C92.0578 23.6923 92.4441 24.1924 92.9045 24.6202C93.3616 25.0451 94.0398 25.5401 94.9439 25.7016C95.9195 25.8758 96.8453 25.6089 97.6437 25.0701L95.4063 21.7544C95.3037 21.8236 95.4172 21.7228 95.6471 21.7639C95.8055 21.7922 95.8046 21.8547 95.6274 21.6901C95.4535 21.5285 95.2503 21.2822 94.9746 20.912C94.7416 20.5993 94.397 20.1122 94.0759 19.7295L91.0114 22.3004Z" fill="#FFC83D" mask="url(#path-6-inside-3)"/>
<path d="M39.9801 6L40.1324 6.15232L39.9801 6Z" fill="#565656"/>
<path d="M37 7.39604V28.605L46.9064 28.6137L50.065 29.5L53.3671 28.6133L63.13 28.605V7.39604L60.8329 7.30603L59.2536 6.50863L52.075 6.52535L50.065 7.07703L47.7679 6.51325L41.4507 6.5L39.2843 7.34867L37 7.39604Z" fill="black"/>
<path d="M48.4592 6.05078L48.5611 6.10179L48.4592 6.05078Z" fill="#555555"/>
<path d="M48.7638 6.05078L48.8657 6.10179L48.7638 6.05078Z" fill="#C8C8C8"/>
<path d="M51.9625 6.05078L52.0644 6.10179L51.9625 6.05078Z" fill="#6D6D6D"/>
<path d="M49.2715 6.15234L49.4238 6.30466L49.2715 6.15234Z" fill="#9A9A9A"/>
<path d="M49.5762 6.30469L49.7285 6.45701L49.5762 6.30469Z" fill="#757575"/>
<path d="M50.947 6.30469L51.0993 6.45701L50.947 6.30469Z" fill="#989898"/>
<path d="M49.8807 6.45703L50.0331 6.60935L49.8807 6.45703Z" fill="#7B7B7B"/>
<path d="M50.4901 6.60925L50.6424 6.76157L50.4901 6.60925Z" fill="#5B5B5B"/>
<path d="M40.6401 7.7771L40.6911 7.87909L40.6401 7.7771Z" fill="#636363"/>
<path d="M40.7417 7.67555V24.2782C43.0313 24.2782 46.3762 23.6656 48.5099 24.5821C49.5519 25.0296 49.7262 26.3944 50.6424 26.7153C50.7967 22.2631 50.6424 17.7701 50.6424 13.3113C50.6424 11.5554 51.0413 9.41664 49.4215 8.2297C48.5089 7.56098 47.4467 7.67555 46.3775 7.67555H40.7417Z" fill="#FFC83D"/>
<path d="M50.6424 25.6491C53.438 23.7396 56.6472 24.2782 59.9338 24.2782V7.67554H54.1457C53.0641 7.67554 51.9915 7.58161 51.1153 8.34428C50.0593 9.26361 50.6424 11.5476 50.6424 12.8544V25.6491Z" fill="#FFC83D"/>
<path d="M59.9338 7.67554V24.2782H52.9271V24.4305H60.0861V12.702L59.9338 7.67554Z" fill="#EAEAEA"/>
<path d="M48.8146 7.82788L48.9669 7.9802L48.8146 7.82788Z" fill="#727272"/>
<path d="M51.7086 7.82788L51.8609 7.9802L51.7086 7.82788Z" fill="#8F8F8F"/>
<path d="M40.5894 7.9801C38.6456 9.67837 39.0662 11.4962 39.0662 13.9205V26.1059C42.6004 26.1059 46.5572 25.6129 50.0331 26.2583C49.7994 25.1007 48.8622 24.5246 47.7483 24.3452C45.508 23.9843 43.0102 24.2781 40.7417 24.2781V13.0066L40.5894 7.9801Z" fill="#D48C00"/>
<path d="M49.1193 7.9801L49.2716 8.13242L49.1193 7.9801Z" fill="#5C5C5C"/>
<path d="M51.4041 7.9801L51.5564 8.13242L51.4041 7.9801Z" fill="#737373"/>
<path d="M60.0861 7.9801V24.4304C57.6683 24.4304 54.843 24.0239 52.4702 24.4822C51.4685 24.6757 50.7535 25.4121 50.6423 26.4106L54.4503 26.1059H61.6092V13.3112C61.6092 11.1908 62.0188 9.34176 60.0861 7.9801Z" fill="#D48C00"/>
<path d="M40.1323 8.28479L40.2846 8.43711L40.1323 8.28479Z" fill="#626262"/>
<path d="M49.5762 8.28479L49.7285 8.43711L49.5762 8.28479Z" fill="#5D5D5D"/>
<path d="M38.1523 8.43713V8.58945H39.9802L38.1523 8.43713Z" fill="#1D4B6F"/>
<path d="M49.7285 8.43713L49.8808 8.58945L49.7285 8.43713Z" fill="#878787"/>
<path d="M38.1523 8.58936V26.8675H46.6822V26.1059H38.9139V14.5298C38.9139 12.3761 38.574 10.3997 39.8278 8.58936H38.1523Z" fill="black"/>
<path d="M49.8807 8.58936L50.0331 8.74167L49.8807 8.58936Z" fill="#606060"/>
<path d="M60.8477 8.58936C62.1016 10.3997 61.7616 12.3761 61.7616 14.5298V26.1059H53.9934V26.8675H62.5232V8.58936H60.8477Z" fill="black"/>
<path d="M50.4901 8.89404L50.6424 9.04636L50.4901 8.89404Z" fill="#8A8A8A"/>
<path d="M50.3378 9.19861L50.4901 9.35093L50.3378 9.19861Z" fill="#969696"/>
<path d="M38.9138 9.5033V26.106H39.0661V14.5298L38.9138 9.5033Z" fill="#71AAD7"/>
<path d="M61.6093 9.5033V26.106H61.7616V14.5298L61.6093 9.5033Z" fill="#A9BFCF"/>
<path d="M46.6821 26.106V27.0199L50.1854 27.7809L53.9934 27.0199V26.106L50.0331 26.7153C49.673 25.6913 47.5857 26.106 46.6821 26.106Z" fill="#F03A17"/>
<path d="M50.0839 26.5122L50.135 26.6141L50.0839 26.5122Z" fill="#5C9BCD"/>
<path d="M47.7483 28.6954L47.9006 28.8478L47.7483 28.6954Z" fill="#7A7A7A"/>
<path d="M52.6226 28.8477L52.7749 29L52.6226 28.8477Z" fill="#959595"/>
<line x1="50.1219" y1="26.1998" x2="50.1219" y2="9.3612" stroke="black"/>
<path d="M21.8889 4L22.0741 4.18519L21.8889 4Z" fill="#7D7D7D"/>
<path d="M29.4815 27.1519V15.311L25.118 15.1607L22.0635 12.3873C23.0814 11.3643 24.1091 10.3501 25.1172 9.31739C25.4444 8.9823 25.9946 8.53571 25.8813 8.00172C25.6998 7.14528 24.4009 6.25778 23.8089 5.66277C23.3748 5.22638 22.7172 4.26692 22.0635 4.18941C21.4125 4.1122 20.7209 5.11181 20.3181 5.51658C18.8339 7.00816 17.4126 8.66575 15.8092 10.0267C14.5704 11.078 12.6871 10.0405 11.3002 10.8329C9.59959 11.8046 8.16821 13.7808 6.79123 15.1648C6.0442 15.9156 5.20728 16.6132 4.86402 17.6499C4.51406 18.7071 5.26735 19.9868 4.9014 20.866C4.2348 22.4676 2.01203 24.5628 3.50682 26.413C4.6937 27.882 8.56442 27.1519 10.282 27.1519H29.4815Z" fill="black"/>
<path d="M21.9297 6.40747L20.4073 7.92984V8.06824C20.8451 8.50594 21.4474 9.38804 22.0681 9.54277C22.6329 9.68356 23.6835 8.63301 23.5426 8.06824C23.3815 7.42194 22.4458 6.77097 21.9297 6.40747Z" fill="#CCCCCC"/>
<path d="M5.40747 24.7408L7.5459 24.5065L8.93009 22.1938L10.3898 21.7296L15.5807 16.5812L22.2593 9.97965C21.8944 9.46311 20.9534 8.09098 20.2078 8.27638C18.9314 8.59372 17.32 10.9598 16.3978 11.8796C13.8089 14.4616 11.2243 17.0476 8.6313 19.6254C6.97718 21.2697 5.40747 22.3033 5.40747 24.7408Z" fill="#F03A17"/>
<path d="M16.3334 9.37036L16.5186 9.55555L16.3334 9.37036Z" fill="#A7A7A7"/>
<path d="M15.963 9.74072L16.1482 9.92591L15.963 9.74072Z" fill="#A1A1A1"/>
<path d="M15.7778 9.9259L15.963 10.1111L15.7778 9.9259Z" fill="#9A9A9A"/>
<path d="M15.5925 10.1111L15.7777 10.2963L15.5925 10.1111Z" fill="#9A9A9A"/>
<path d="M11.1481 10.8518L11.3333 11.037L11.1481 10.8518Z" fill="#959595"/>
<path d="M10.5925 11.2223L10.7777 11.4075L10.5925 11.2223Z" fill="#939393"/>
<path d="M10.4073 11.4073L10.5925 11.5925L10.4073 11.4073Z" fill="#6D6D6D"/>
<path d="M10.2223 11.5925L10.4075 11.7777L10.2223 11.5925Z" fill="#696969"/>
<path d="M10.037 11.7778L10.2222 11.963L10.037 11.7778Z" fill="#696969"/>
<path d="M9.85181 11.963L10.037 12.1482L9.85181 11.963Z" fill="#696969"/>
<path d="M12.6296 11.963V12.1482H16.3333L12.6296 11.963Z" fill="#80641E"/>
<path d="M9.66675 12.1481L9.85193 12.3333L9.66675 12.1481Z" fill="#696969"/>
<path d="M16.1482 12.0643C15.0036 12.0643 13.4565 11.7884 12.364 12.1473C10.7361 12.682 9.18048 14.9864 7.99763 16.1841C7.04983 17.1438 5.30867 19.2039 7.13076 20.3593C8.02091 20.9239 9.05735 19.3797 9.59863 18.8325C11.7352 16.6726 14.4088 14.5606 16.1482 12.0643Z" fill="#FFC83D"/>
<path d="M9.48145 12.3334L9.66663 12.5186L9.48145 12.3334Z" fill="#6C6C6C"/>
<path d="M13.4165 18.7114H16.0343C15.5441 20.8263 14.3182 21.8199 12.1075 21.8734C10.7992 21.9052 8.51694 21.4123 7.97184 23.0284C7.04423 25.7782 10.4598 25.4713 12.1075 25.4713H27.8148V17.1292C26.7906 17.1292 25.0698 17.4549 24.1789 16.8987C22.6929 15.971 21.5245 13.1416 19.8157 12.7203C19.1735 12.562 18.4597 13.5801 18.0705 13.965C16.532 15.4863 14.6713 16.9497 13.4165 18.7114Z" fill="#FFC83D"/>
<path d="M9.29627 12.5186L9.48145 12.7037L9.29627 12.5186ZM9.11108 12.7037L9.29627 12.8889L9.11108 12.7037Z" fill="#707070"/>
<path d="M8.9259 12.8889L9.11109 13.0741L8.9259 12.8889Z" fill="#707070"/>
<path d="M8.74072 13.0741L8.92591 13.2593L8.74072 13.0741Z" fill="#707070"/>
<path d="M10.037 15.8518L10.2222 16.037L10.037 15.8518Z" fill="#707070"/>
<path d="M9.85193 16.037L10.0371 16.2222L9.85193 16.037ZM9.66675 16.2222L9.85193 16.4074L9.66675 16.2222Z" fill="#707070"/>
<path d="M9.48145 16.4073L9.66664 16.5925L9.48145 16.4073ZM9.29626 16.5925L9.48145 16.7777L9.29626 16.5925Z" fill="#707070"/>
<path d="M9.11108 16.7778L9.29627 16.963L9.11108 16.7778Z" fill="#707070"/>
<path d="M8.9259 16.963L9.11109 17.1482L8.9259 16.963Z" fill="#707070"/>
<path d="M8.74072 17.1481L8.92591 17.3333L8.74072 17.1481Z" fill="#707070"/>
<path d="M8.55554 17.3334L8.74073 17.5186L8.55554 17.3334Z" fill="#787878"/>
<path d="M8.37036 17.5186L8.55555 17.7037L8.37036 17.5186Z" fill="#787878"/>
<path d="M8.18518 17.7037L8.37037 17.8889L8.18518 17.7037Z" fill="#787878"/>
<path d="M22.0741 14.7407L22.2593 14.9259L22.0741 14.7407Z" fill="#84671F"/>
<path d="M8 17.8889L8.18519 18.0741L8 17.8889Z" fill="#787878"/>
<path d="M22.2593 14.9259L22.4445 15.1111L22.2593 14.9259Z" fill="#735A1B"/>
<path d="M7.81482 18.0741L8 18.2593L7.81482 18.0741Z" fill="#787878"/>
<path d="M7.62964 18.2593L7.81482 18.4445L7.62964 18.2593Z" fill="#787878"/>
<path d="M7.44446 18.4445L7.62964 18.6296L7.44446 18.4445Z" fill="#787878"/>
<path d="M7.25928 18.6296L7.44446 18.8148L7.25928 18.6296Z" fill="#787878"/>
<path d="M7.0741 18.8148L7.25928 19L7.0741 18.8148Z" fill="#787878"/>
<path d="M6.88892 19L7.0741 19.1852L6.88892 19Z" fill="#787878"/>
<path d="M6.70374 19.1852L6.88893 19.3704L6.70374 19.1852ZM6.51855 19.3704L6.70374 19.5556L6.51855 19.3704Z" fill="#787878"/>
<path d="M6.33337 19.5555L6.51856 19.7407L6.33337 19.5555Z" fill="#7F7F7F"/>
<path d="M6.14819 19.7407L6.33338 19.9259L6.14819 19.7407Z" fill="#959595"/>
<path d="M5.59253 20.4816L5.77771 20.6667L5.59253 20.4816Z" fill="#6D6D6D"/>
<path d="M5.40747 20.8518L5.59266 21.037L5.40747 20.8518Z" fill="#696969"/>
<path d="M5.28394 21.3457L5.34578 21.469L5.28394 21.3457Z" fill="#424242"/>
<path d="M10.2223 21.9629C12.9787 21.9629 15.6581 22.0343 16.1482 18.694C15.3407 18.694 14.246 18.501 13.4815 18.7836C12.3164 19.2145 10.9238 20.9641 10.2223 21.9629Z" fill="#D48C00"/>
<path d="M7.25928 23.8148L7.44446 24L7.25928 23.8148Z" fill="#876A20"/>
<path d="M5.22229 24.3704L5.40748 24.5555L5.22229 24.3704Z" fill="#A4A4A4"/>
<path d="M7.62964 24.3704L7.81482 24.5555L7.62964 24.3704Z" fill="#7C611D"/>
<path d="M7.81482 24.5555L8 24.7407L7.81482 24.5555Z" fill="#765C1C"/>
<path d="M5.40747 24.7407L5.59266 24.9259L5.40747 24.7407Z" fill="#808080"/>
<path d="M3.18518 33.8148L3.37037 34L3.18518 33.8148Z" fill="#A6A6A6"/>
</svg>
