<svg width="50" height="50" viewBox="0 0 50 50" fill="none" xmlns="http://www.w3.org/2000/svg">
<path d="M4.16463 33.7375V34.1468C1.48367 36.0579 -2.77616 44.3046 2.54402 45.8372C6.93726 47.103 13.0997 46.0149 17.6697 46.0149H50V23.9157C45.7111 23.9157 38.4577 24.1796 36.9889 18.5955C36.0615 15.0694 44.8263 12.9577 42.7719 9.18286C42.174 8.08445 41.0502 7.19188 40.1781 6.31815C39.1337 5.27212 37.6678 3.19848 36.0857 3.01186C34.6206 2.83916 33.3139 4.59482 32.4025 5.50007C29.7121 8.17203 27.0226 11.8176 23.8084 13.847C21.7449 15.1496 19.0967 14.0913 16.8512 14.7686C13.8539 15.6727 11.6133 18.5132 9.4848 20.6417C6.34385 23.7827 0.237926 28.9404 4.16463 33.7375Z" fill="black"/>
<path d="M35.6765 6.72742L32.8118 9.59213V10.0014L36.0857 13.2753H36.495L39.3597 10.4106V10.0014L35.6765 6.72742Z" fill="#CCCCCC"/>
<path d="M32.4025 9.59216C27.4207 16.6643 19.5878 23.3575 13.168 29.1663C9.13816 32.8127 4.57467 35.7339 4.57385 41.5132C9.22123 41.5095 7.90551 39.0381 11.1295 36.8474C20.572 30.4321 27.1388 20.2751 36.4949 13.6846L32.4025 9.59216Z" fill="#F03A17"/>
<path d="M24.6269 17.777C17.1557 17.777 14.7678 19.8326 9.48525 25.1434C7.7963 26.8409 4.41593 30.34 7.15951 32.7647C8.92458 34.3248 11.1386 31.2796 12.3495 30.2278C16.5656 26.5676 21.4078 22.3466 24.6269 17.777Z" fill="#FFC83D"/>
<path d="M20.1251 30.0543H24.6268C23.9434 34.5945 20.6952 36.186 16.4419 36.193C13.9377 36.1971 10.3695 35.6384 9.32883 38.6505C7.61778 43.6023 14.5103 43.1501 17.2604 43.1501H47.1352V27.1896L39.7688 26.241L31.9932 18.7371L28.31 21.0513L20.1251 30.0543Z" fill="#FFC83D"/>
<path d="M13.5773 36.193C18.6188 36.193 24.0642 36.4512 24.6269 30.0543C19.3378 30.0539 16.7334 31.713 13.5773 36.193Z" fill="#D48C00"/>
</svg>
