<svg width="95" height="50" viewBox="0 0 95 50" fill="none" xmlns="http://www.w3.org/2000/svg">
<path d="M0.891968 44.7534H3.93499V32.6863L8.70939 43.1794C9.23405 44.4386 10.021 44.9108 11.5425 44.9108C13.0641 44.9108 13.7461 44.4386 14.3232 43.1794L19.0452 32.6863V44.7534H22.0882V32.6863C22.0882 31.532 21.616 30.9549 20.6191 30.6401C18.3106 29.958 16.7367 30.5352 16.0546 32.1091L11.4376 42.4974L6.92555 32.1091C6.24349 30.5352 4.66951 29.958 2.36101 30.6401C1.36416 30.9549 0.891968 31.4795 0.891968 32.6863V44.7534Z" fill="#00678F"/>
<path d="M24.6066 34.9423H27.6496V41.553C27.6496 41.9203 27.7545 42.7597 29.4334 42.8122C30.3253 42.8122 36.0441 42.8122 36.0966 42.8122V34.8898H39.1396C39.1396 34.8898 39.1396 45.6978 39.1396 45.7503C39.1396 48.426 35.8343 49.0032 34.3128 49.0032H24.7115V46.957H34.3652C36.3065 46.7471 36.0966 45.7503 36.0966 45.4355V44.6485H29.5908C26.5478 44.6485 24.6066 43.2844 24.6066 41.7629C24.6066 41.6055 24.7115 34.9948 24.6066 34.9423Z" fill="#00678F"/>
<path d="M88.6783 26.0682C86.7895 26.0157 85.373 26.2256 84.1138 26.6978C83.7465 26.8552 83.2219 26.8552 83.1694 27.2749C83.3793 27.4848 83.3793 27.7471 83.5367 28.0094C83.799 28.4816 84.3236 29.1112 84.7434 29.426C85.2156 29.7933 85.7402 30.1605 86.2649 30.5278C87.1568 31.1049 88.2061 31.4197 89.098 31.9968C89.6227 32.3116 90.1474 32.7314 90.6196 33.0986C90.8819 33.3085 91.0393 33.5708 91.3541 33.7282V33.6757C91.1967 33.4659 91.1442 33.1511 90.9868 32.9412C90.7769 32.7314 90.5146 32.5215 90.3048 32.2592C89.6227 31.3672 88.7832 30.5278 87.8913 29.8982C87.1568 29.3735 85.4779 28.6915 85.2156 27.7996C85.2156 27.7996 85.2156 27.7996 85.1631 27.7471C85.6878 27.6946 86.2649 27.5372 86.7895 27.3798C87.5765 27.17 88.3111 27.2224 89.1505 27.0126C89.5178 26.9076 89.885 26.8027 90.2523 26.6978C90.2523 26.6453 90.2523 26.5404 90.2523 26.4879C89.8326 26.0682 89.5178 25.4911 89.098 25.1238C87.8913 24.0745 86.5797 23.0776 85.2156 22.2382C84.481 21.766 83.5367 21.4512 82.8021 21.0839C82.5398 20.9265 82.0676 20.8741 81.9102 20.6642C81.4905 20.1395 81.2282 19.4575 80.9658 18.8804C80.2838 17.5687 79.6542 16.1521 79.0246 14.788C78.6049 13.8961 78.3425 12.9517 77.8179 12.1123C75.4045 8.12485 72.7812 5.71142 68.7413 3.35045C67.8494 2.87826 66.8525 2.6684 65.7507 2.40607C65.1736 2.40607 64.5965 2.3536 64.0194 2.30114C63.6521 2.14374 63.2848 1.67155 62.9176 1.46168C61.6059 0.622228 58.1432 -1.21408 57.1463 1.19935C56.5167 2.72086 58.0907 4.24237 58.6154 4.9769C59.0351 5.50156 59.5073 6.13115 59.8221 6.70827C59.9795 7.128 60.0319 7.54773 60.1893 7.96745C60.5566 9.01677 60.9239 10.1186 61.3961 11.1154C61.6584 11.5876 61.9207 12.1123 62.288 12.5845C62.4978 12.8468 62.8126 12.9517 62.8651 13.3714C62.5503 13.8436 62.4978 14.5257 62.3404 15.1028C61.501 17.7261 61.8158 21.0315 63.0225 22.9727C63.3898 23.5498 64.2817 24.8615 65.4884 24.3368C66.5377 23.9171 66.3278 22.6054 66.5902 21.3987C66.6426 21.1364 66.5902 20.9265 66.7476 20.7691V20.8216C67.0624 21.4512 67.3772 22.1332 67.692 22.7628C68.4265 23.9171 69.6857 25.1238 70.735 25.9108C71.3121 26.3305 71.7318 27.065 72.4664 27.3274V27.2749C72.4664 27.2749 72.4664 27.2749 72.4139 27.2749C72.2565 27.065 72.0466 26.9601 71.8892 26.8027C71.4695 26.383 70.9973 25.8583 70.6825 25.3861C69.6857 24.0745 68.8462 22.6054 68.0592 21.1364C67.692 20.4019 67.3772 19.6149 67.0624 18.8804C66.905 18.618 66.905 18.1983 66.6951 18.0409C66.3278 18.5656 65.8032 18.9853 65.5933 19.6149C65.1736 20.6117 65.1211 21.8709 64.9637 23.1301C64.8588 23.1301 64.9113 23.1301 64.8588 23.1826C64.1243 22.9727 63.862 22.2382 63.5472 21.5561C62.8651 19.8772 62.7077 17.2014 63.3373 15.3127C63.4947 14.8405 64.2292 13.2665 63.9144 12.7943C63.757 12.3746 63.2848 12.1123 63.0225 11.745C62.7077 11.3253 62.3929 10.7481 62.183 10.2235C61.6059 8.91184 61.3436 7.44279 60.714 6.13115C60.4517 5.50156 59.927 4.87196 59.5598 4.34731C59.14 3.71772 58.6154 3.24552 58.2481 2.511C58.1432 2.24867 57.9858 1.82894 58.1432 1.56661C58.1956 1.35675 58.3006 1.30428 58.458 1.25182C58.7728 0.989489 59.6122 1.30428 59.927 1.46168C60.8189 1.82894 61.501 2.14374 62.2355 2.61593C62.5503 2.8258 62.9176 3.29799 63.3373 3.40292C63.4947 3.40292 63.6521 3.40292 63.8095 3.40292C64.544 3.56032 65.3835 3.45539 66.118 3.66525C67.3772 4.08498 68.4789 4.6621 69.4758 5.29169C72.5188 7.23293 75.0897 10.0136 76.7686 13.319C77.0309 13.8436 77.1883 14.3683 77.3982 14.893C77.8703 16.0472 78.4999 17.2014 78.9721 18.3557C79.4443 19.4575 79.9165 20.5593 80.651 21.5037C81.0183 21.9758 82.3824 22.2382 83.0645 22.5005C83.5367 22.7104 84.2712 22.9202 84.6909 23.1301C85.4779 23.6023 86.2649 24.1794 87.0519 24.7041C87.4191 25.0189 88.6259 25.596 88.6783 26.0682Z" fill="#00678F"/>
<path d="M65.9444 13C65.5247 13 65.2623 13.0525 65 13.1049C65 13.1049 65 13.1049 65 13.1574C65 13.1574 65 13.1574 65.0525 13.1574C65.2623 13.5247 65.5771 13.787 65.787 14.1018C65.9969 14.469 66.1543 14.8363 66.3117 15.2036L66.3641 15.1511C66.6789 14.9412 66.8363 14.5215 66.8363 13.9969C66.6789 13.8395 66.6789 13.6821 66.574 13.5247C66.4166 13.2623 66.1018 13.1574 65.9444 13Z" fill="#00678F"/>
<path d="M41.5006 44.7534H50.3149C51.3642 44.7534 52.3086 44.5435 53.148 44.1763C54.4597 43.5467 55.0893 42.7597 55.0893 41.6579V39.4019C55.0893 38.51 54.3548 37.723 52.9382 37.1459C52.2037 36.8835 51.2593 36.7261 50.3149 36.7261H46.6423C45.3831 36.7261 44.806 36.3589 44.6486 35.5194C44.6486 35.4145 44.6486 35.3095 44.6486 35.2571V33.893C44.6486 33.8405 44.6486 33.7356 44.6486 33.6306C44.806 33.001 45.1208 32.8437 46.2225 32.7387C46.3275 32.7387 46.4324 32.7387 46.4849 32.7387H55.1942V30.6926H46.6423C45.3831 30.6926 44.7535 30.745 44.1764 30.9549C42.3925 31.532 41.5531 32.4239 41.5531 33.9979V35.6768C41.5531 37.0409 43.0746 38.2476 45.6979 38.51C45.9602 38.51 46.275 38.51 46.5898 38.51H49.7378C49.8427 38.51 49.9476 38.51 50.0526 38.51C50.9969 38.6149 51.4167 38.7723 51.7315 39.1396C51.9413 39.3494 51.9413 39.5068 51.9413 39.7167V41.5005C51.9413 41.7104 51.7839 41.9727 51.5216 42.235C51.2593 42.4974 50.7871 42.6548 50.2099 42.6548C50.105 42.6548 50.0001 42.6548 49.8952 42.6548H41.5006V44.7534Z" fill="#E38D1A"/>
<path d="M74.1343 41.1857C74.1343 43.2844 75.7083 44.4386 78.8562 44.6485C79.171 44.6485 79.4333 44.701 79.7481 44.701H87.7229V42.6548H79.6957C77.9118 42.6548 77.2298 42.2351 77.2298 41.1333V30.6401H74.1867L74.1343 41.1857Z" fill="#E38D1A"/>
<path d="M57.0305 41.2907V34.0504C57.0305 32.2141 58.3422 31.0598 60.913 30.745C61.1753 30.745 61.4901 30.6926 61.7524 30.6926H67.5762C67.891 30.6926 68.1533 30.6925 68.4681 30.745C71.0389 31.1123 72.2981 32.2141 72.2981 34.0504V41.2907C72.2981 42.8122 71.7734 43.5992 70.5142 44.1238L73.5048 46.852H69.9896L67.5762 44.6485L65.1103 44.8059H61.8574C61.3327 44.8059 60.7031 44.7534 60.0735 44.596C57.9749 44.0189 57.0305 42.9696 57.0305 41.2907ZM60.3359 41.1333C60.3359 41.2382 60.3883 41.3431 60.3883 41.4481C60.5457 42.2875 61.3327 42.7597 62.5394 42.7597H65.3201L62.8018 40.4512H66.317L68.5205 42.4449C68.9403 42.235 69.2026 41.8678 69.3075 41.4481C69.3075 41.3431 69.3075 41.2382 69.3075 41.1333V34.2078C69.3075 34.1028 69.3075 33.9979 69.3075 33.9454C69.1501 33.1584 68.3631 32.6863 67.1564 32.6863H62.5394C61.1753 32.6863 60.2834 33.2634 60.2834 34.2078L60.3359 41.1333Z" fill="#E38D1A"/>
<path d="M89.0871 44.7534H89.5068V43.022H90.084V42.6548H88.4575V43.022H89.0871V44.7534ZM92.4974 44.7534H92.9171V42.7072H92.2875L91.7629 44.1238L91.1857 42.7072H90.5562V44.7534H90.9759V43.1794L91.553 44.7534H91.8678L92.4449 43.1794L92.4974 44.7534Z" fill="#E38D1A"/>
</svg>
