<svg width="83" height="50" viewBox="0 0 83 50" fill="none" xmlns="http://www.w3.org/2000/svg">
<path d="M29.4654 25.7804C29.4316 25.832 29.3661 25.9949 29.2767 26.2671C29.1853 26.5412 29.0741 26.8829 28.943 27.3C28.8119 27.7112 28.6689 28.174 28.5179 28.6845L28.0471 30.2498C27.8683 30.7822 27.7293 31.3026 27.5704 31.8151L27.1731 33.2016L26.8751 34.2385L26.7361 34.7352C26.6765 34.9 26.6169 35.0828 26.5176 35.2854C26.4182 35.484 26.2991 35.6767 26.1799 35.8575C26.0408 36.0363 25.9018 36.1892 25.7429 36.3084C25.584 36.4276 25.425 36.4872 25.2463 36.4872C24.9682 36.4872 24.7695 36.3918 24.6305 36.2091C24.4914 36.0204 24.4318 35.6807 24.4318 35.1841V34.7352C24.4318 34.5703 24.5113 34.2584 24.6305 33.8055C24.7497 33.3486 24.8887 32.8361 25.0675 32.2641C25.2264 31.688 25.425 31.096 25.6038 30.4822L26.1401 28.8137C25.6634 29.3301 25.1668 29.8466 24.6305 30.3432C24.0941 30.8597 23.5379 31.3165 22.9818 31.7138C22.4057 32.1111 21.8296 32.4488 21.2536 32.707C20.6775 32.9653 20.1213 33.0844 19.585 33.0844C18.9692 33.0844 18.4527 32.9454 18.0157 32.6673C17.5787 32.3892 17.2013 32.0515 16.9232 31.6145C16.6451 31.1775 16.4266 30.6809 16.2875 30.1446C16.2101 29.6301 16.1306 29.0739 16.1306 28.5375V28.3389C16.1306 28.2793 16.1386 28.2138 16.1505 28.1522C16.1982 27.159 16.3392 26.1459 16.5676 25.105C16.806 24.0562 17.104 23.0193 17.4814 21.9864C17.8588 20.9534 18.2958 19.9403 18.7924 18.9551C19.3089 18.0096 19.8452 17.0759 20.4213 16.2019C20.9973 15.3279 21.6171 14.5135 22.2686 13.7785C22.9241 13.0395 23.5936 12.4039 24.2829 11.8715C24.9702 11.3352 25.6654 10.9181 26.3686 10.6201C27.0638 10.3221 27.7591 10.1632 28.4464 10.1632C29.2409 10.1632 30.0077 10.3817 30.7506 10.8128C31.4856 11.2558 32.1808 11.951 32.8324 12.9243C32.9794 13.1428 33.0707 13.3613 33.1105 13.5838C33.1502 13.8023 33.1701 14.0149 33.1701 14.2095C33.1701 14.6744 33.0608 15.0438 32.8383 15.31C32.6198 15.5881 32.3616 15.7073 32.0438 15.7073C31.7657 15.7073 31.5074 15.5683 31.2691 15.2703C31.0307 14.9723 30.7526 14.5552 30.4745 14.0189C30.1964 13.5222 29.8984 13.1647 29.5608 12.9462C29.2231 12.7277 28.8655 12.6284 28.4682 12.6284C27.8524 12.6284 27.2168 12.8866 26.5215 13.4031C25.8263 13.9195 25.1509 14.575 24.4755 15.4093C23.8002 16.2436 23.1446 17.1971 22.5289 18.2698C21.9131 19.3424 21.3569 20.435 20.8801 21.5672C20.4034 22.6995 20.026 23.792 19.7479 24.8845C19.4698 25.9771 19.3307 26.9504 19.3307 27.8244C19.3307 28.1224 19.3506 28.4203 19.3903 28.7183C19.43 29.0361 19.5095 29.2944 19.6088 29.5526C19.7081 29.8108 19.8671 30.0095 20.0657 30.1684C20.2643 30.3273 20.5027 30.4068 20.7808 30.4068C21.0986 30.4068 21.4761 30.3074 21.8733 30.0889C22.2905 29.8704 22.7076 29.5923 23.1446 29.2348C23.5816 28.8772 24.0385 28.4799 24.4755 28.0429C24.9125 27.6059 25.3496 27.149 25.727 26.6922C26.1044 26.2353 26.4619 25.7983 26.74 25.3811C27.038 24.964 27.2565 24.6064 27.4154 24.2886L28.5656 20.5919C28.7126 20.2006 28.9032 19.9205 29.1476 19.7576C29.3859 19.5907 29.6303 19.5073 29.8826 19.5073C30.0017 19.5073 30.1269 19.5272 30.25 19.5669C30.3692 19.6066 30.4844 19.6702 30.5818 19.7576C30.6811 19.8371 30.7546 19.9562 30.8122 20.0953C30.8718 20.2343 30.9115 20.3933 30.9115 20.5919C30.9115 21.0885 30.8718 21.5573 30.7923 21.9903C30.7129 22.4273 30.5937 22.8445 30.4546 23.2616C30.3355 23.6688 30.1765 24.084 30.0176 24.5031C29.8587 24.9203 29.6998 25.3573 29.5409 25.8142L29.4654 25.7804ZM45.9586 28.8156C45.5752 29.3321 45.1283 29.8367 44.6198 30.3253C44.1092 30.8179 43.5828 31.255 43.0425 31.6363C42.5022 32.0177 41.9699 32.3256 41.4474 32.558C40.923 32.7905 40.4542 32.9057 40.0371 32.9057C39.6199 32.9057 39.2763 32.7666 39.0141 32.4885C38.7519 32.2104 38.6208 31.7337 38.6208 31.0583C38.6208 30.5816 38.6923 30.0254 38.8313 29.3897C38.6049 29.787 38.3208 30.2041 37.9812 30.6014C37.6435 31.0186 37.2521 31.396 36.8171 31.7337C36.3801 32.0714 35.8915 32.3495 35.3511 32.5481C34.8108 32.7468 34.2229 32.8659 33.5832 32.8659C33.2992 32.8659 33.0211 32.8262 32.7549 32.7468C32.4768 32.6673 32.2384 32.5481 32.0398 32.3693C31.8412 32.1906 31.6822 31.9522 31.5432 31.6542C31.424 31.3563 31.3644 30.9788 31.3644 30.5418L31.4041 30.0651C31.4439 29.7671 31.5432 29.2705 31.7418 28.615C31.9405 27.9595 32.2186 27.1053 32.6159 26.0525C33.0131 24.9997 33.5495 23.7483 34.2646 22.2585C34.4434 21.8612 34.642 21.5831 34.9002 21.4043C35.1386 21.2256 35.3968 21.1461 35.6749 21.1461C35.7941 21.1461 35.9133 21.166 36.0523 21.2057C36.1715 21.2256 36.2907 21.2851 36.4099 21.3646C36.5291 21.4441 36.6085 21.5434 36.688 21.6626C36.7476 21.7619 36.7873 21.9009 36.7873 22.0599C36.7873 22.1592 36.7675 22.2585 36.7476 22.3379C36.688 22.5167 36.6085 22.7352 36.4695 23.0133L35.953 23.9946C35.7544 24.3522 35.5557 24.7495 35.3372 25.1706C35.1187 25.5937 34.9201 26.0446 34.7413 26.4856C34.5625 26.9425 34.4036 27.4093 34.2646 27.8761C34.1255 28.3528 34.0461 28.8097 34.0262 29.2467C34.0262 29.4453 34.0659 29.6042 34.1454 29.7632C34.2248 29.9221 34.3838 30.0015 34.5824 30.0015C35.1386 30.0015 35.6948 29.8228 36.2113 29.4453C36.7277 29.0739 37.2045 28.611 37.6415 28.0588C38.0785 27.5026 38.4758 26.9067 38.8333 26.271C39.1909 25.6354 39.469 25.0593 39.7073 24.5349C39.8663 24.1833 40.0252 23.8059 40.1444 23.4027C40.2635 23.0054 40.4026 22.628 40.5615 22.2903C40.7006 21.9526 40.8793 21.6626 41.078 21.4361C41.2568 21.2097 41.4951 21.0984 41.7931 21.0984C42.091 21.0984 42.3493 21.2176 42.5281 21.456C42.7068 21.6944 42.8062 21.9724 42.8062 22.3101C42.8062 22.4889 42.7466 22.7471 42.6274 23.065C42.5082 23.3828 42.3691 23.7602 42.1904 24.1774L41.6143 25.5222C41.3958 25.9989 41.217 26.4756 41.0382 26.9723C40.8595 27.4589 40.7006 27.9456 40.5814 28.4104C40.4622 28.8872 40.4026 29.3242 40.4026 29.7214C40.4026 30.0989 40.6012 30.2776 40.9787 30.2776C41.2568 30.2776 41.5944 30.1982 41.9917 29.9995C42.389 29.8208 42.8062 29.5625 43.2432 29.2248C43.6802 28.8872 44.1172 28.4899 44.5542 28.033C44.9912 27.5761 45.3885 27.0914 45.7262 26.563L45.8652 28.6686L45.9586 28.8156Z" fill="#F44336" stroke="#F44336" stroke-miterlimit="10"/>
<path d="M46.3637 28.0409C46.2684 28.2793 46.175 28.5574 46.0856 28.8713C45.9923 29.1851 45.9466 29.4672 45.9466 29.7155C45.9466 29.8704 45.9724 29.9936 46.026 30.087C46.0777 30.1803 46.177 30.226 46.324 30.226C46.5087 30.226 46.7372 30.1624 47.0133 30.0333C47.2874 29.9042 47.5834 29.7354 47.9012 29.5208C48.219 29.3103 48.5528 29.0679 48.8944 28.7938C49.2401 28.5157 49.5837 28.2177 49.9234 27.9396C50.2611 27.6417 50.5868 27.3437 50.8967 27.0458C51.2066 26.7478 51.4847 26.4697 51.731 26.2313C51.7986 26.1519 51.88 26.1121 51.9773 26.0724C52.0727 26.0327 52.1561 26.0128 52.2256 26.0128C52.4044 26.0128 52.5435 26.0724 52.6626 26.2313C52.7818 26.3704 52.8414 26.569 52.8414 26.8074C52.8414 27.0259 52.7818 27.2643 52.6626 27.5225C52.5435 27.7807 52.325 28.039 52.027 28.2972C51.4708 28.8931 50.9146 29.4692 50.3385 30.0254C49.7823 30.5617 49.2063 31.0583 48.6501 31.4755C48.0939 31.8926 47.5377 32.2104 46.9815 32.4687C46.4253 32.707 45.889 32.8262 45.3725 32.8262C45.015 32.8262 44.717 32.7666 44.4786 32.6474C44.2403 32.5283 44.0615 32.3693 43.9026 32.1707C43.7635 31.9721 43.6642 31.7337 43.6046 31.4755C43.545 31.1974 43.5251 30.9193 43.5251 30.6213C43.5251 30.1048 43.5847 29.5884 43.7238 29.052C43.8628 28.5157 44.0019 28.0191 44.1807 27.5821C44.4985 26.7677 44.7965 25.9731 45.1143 25.1785L45.9883 22.9935L49.9393 13.0435C50.0883 12.6462 50.2968 12.3642 50.565 12.1894C50.8351 12.0305 51.1013 11.951 51.3735 11.951C51.6516 11.951 51.8899 12.0305 52.1164 12.2092C52.3349 12.3801 52.4541 12.6661 52.4541 13.0574C52.4541 13.2422 52.4143 13.4388 52.3448 13.6454C52.2654 13.8441 52.1859 14.0705 52.0667 14.3069C51.8482 14.7876 51.59 15.3796 51.292 16.0827L50.2988 18.387C49.9611 19.2113 49.6036 20.0754 49.246 20.9693L48.1734 23.5914C47.8158 24.4416 47.498 25.2401 47.2 26.0029L46.4253 27.9754L46.3637 28.0409Z" fill="#F44336" stroke="#F44336" stroke-miterlimit="10"/>
<path d="M64.897 25.2401C65.0222 25.1547 65.1354 25.0872 65.2407 25.0355C65.344 24.9839 65.4453 24.9561 65.5386 24.9561C65.7313 24.9561 65.8763 25.0435 65.9717 25.2143C66.071 25.3851 66.1306 25.5917 66.1306 25.842C66.1306 26.1102 66.071 26.3843 65.9518 26.6624C65.8326 26.9405 65.6737 27.1749 65.4353 27.3576C64.5017 28.186 63.6674 28.9408 62.9523 29.6221C62.2174 30.3035 61.542 30.8895 60.8865 31.3801C60.2309 31.8767 59.5953 32.2541 58.9795 32.5322C58.3637 32.8103 57.7082 32.9494 56.9931 32.9494C56.3376 32.9494 55.8211 32.8103 55.4636 32.5124C55.106 32.2343 54.9272 31.837 54.9272 31.3205V31.2013C54.9272 31.1815 54.9471 31.1219 54.9471 31.0822C54.9868 30.7842 55.1259 30.4266 55.3642 30.0095C55.6026 29.6122 55.8807 29.1951 56.2184 28.7581C56.5561 28.321 56.9136 27.884 57.2911 27.447C57.6685 27.01 58.0062 26.5929 58.3439 26.1956C58.6617 25.7983 58.9199 25.4407 59.1384 25.1031C59.3569 24.7852 59.4562 24.5071 59.4562 24.3085C59.4562 24.1893 59.4165 24.09 59.3331 24.0105C59.2397 23.9509 59.0947 23.9112 58.8961 23.9112C58.5385 23.9112 58.181 24.0105 57.8115 24.1893C57.4341 24.3681 57.0646 24.6263 56.6991 24.9243C56.3415 25.2421 55.984 25.5798 55.6423 25.9771C55.3007 26.3744 54.9868 26.7915 54.669 27.2086C54.371 27.6457 54.0929 28.0628 53.8347 28.4998C53.5963 28.9368 53.3778 29.3341 53.199 29.6917L52.9805 30.1684L52.6826 30.8835L52.325 31.6781L51.9873 32.4528L51.7092 33.1083C51.6298 33.3069 51.5702 33.4261 51.5305 33.5056C51.4907 33.6049 51.4311 33.7837 51.3318 34.0419L50.9743 34.9517L50.5571 36.0442L50.1598 37.1169L49.8221 38.0267C49.7228 38.2849 49.6632 38.4597 49.6434 38.5531C49.544 38.8113 49.4447 39.0695 49.3255 39.3079C49.2063 39.5463 49.0772 39.7509 48.9243 39.9316C48.7733 40.1104 48.5985 40.2594 48.4019 40.3686C48.2032 40.468 47.9847 40.5276 47.7463 40.5276C47.4285 40.5276 47.1703 40.4481 46.9716 40.3051C46.773 40.166 46.6538 39.8681 46.6538 39.4509C46.6538 39.2523 46.6737 39.0338 46.7333 38.8153C46.773 38.5968 46.8525 38.3941 46.9319 38.1796C46.9915 37.9611 47.0908 37.7625 47.1703 37.5638C47.2497 37.3652 47.3292 37.1665 47.3888 36.9758C47.8457 35.9429 48.3323 34.91 48.819 33.8651C49.3057 32.8203 49.7725 31.7992 50.2294 30.7862C50.6783 29.7731 51.0934 28.7799 51.4808 27.7867C51.8582 26.8134 52.176 25.8678 52.4343 24.966L52.7124 24.1794C52.8316 23.8417 52.9706 23.504 53.1295 23.1862C53.2884 22.8683 53.4672 22.5704 53.6658 22.332C53.8645 22.0936 54.083 21.9685 54.3015 21.9685C54.6591 21.9685 54.9113 22.0479 55.0683 22.2069C55.2272 22.3817 55.3066 22.6041 55.3066 22.922C55.3066 22.9816 55.2987 23.0809 55.2808 23.2199C55.2609 23.359 55.2411 23.498 55.2093 23.647L55.1239 24.0642C55.104 24.2032 55.0643 24.3025 55.0444 24.3621C55.3622 24.0125 55.7198 23.6669 56.0932 23.3193C56.4707 22.9756 56.8679 22.6637 57.2652 22.3856C57.6625 22.1075 58.0797 21.8692 58.4968 21.7003C58.9139 21.5215 59.3311 21.4322 59.7482 21.4322C60.0462 21.4322 60.3243 21.4719 60.6143 21.5513C60.8924 21.6348 61.1507 21.7559 61.3692 21.9168C61.6016 22.0758 61.7823 22.2744 61.9214 22.5128C62.0604 22.7511 62.13 23.0352 62.13 23.355C62.13 23.7781 62.0187 24.229 61.8121 24.7058C61.5936 25.1905 61.3354 25.6791 61.0056 26.1559C60.6878 26.6445 60.3362 27.1173 59.9608 27.5761C59.5834 28.033 59.2457 28.4502 58.908 28.8276L58.0737 29.8009C57.8552 30.0592 57.736 30.2379 57.732 30.3372C57.732 30.4564 57.7718 30.5558 57.8512 30.6352C57.9307 30.7147 58.0697 30.7544 58.2485 30.7544C58.4034 30.7544 58.6219 30.665 58.904 30.4962C59.198 30.3174 59.5993 30.0393 60.1157 29.6301C60.6322 29.2129 61.2996 28.6766 62.0962 27.9814C62.8908 27.2941 63.884 26.432 65.05 25.3851L64.897 25.2401Z" fill="#F44336" stroke="#F44336" stroke-miterlimit="10"/>
</svg>
