<svg width="50" height="50" viewBox="0 0 50 50" fill="none" xmlns="http://www.w3.org/2000/svg">
<path d="M46.875 3.125H3.125V46.875H46.875V3.125Z" fill="url(#paint0_radial)"/>
<path d="M47.9167 47.9167H2.08337V2.08333H47.9167V47.9167ZM4.16671 45.8333H45.8334V4.16666H4.16671V45.8333Z" fill="#00B5EF"/>
<path d="M16.6667 37.5H12.5V12.5L18.3787 12.5C22.7284 12.5 26.6202 15.6715 27.0426 20.0007C27.5273 24.9679 23.6196 29.1667 18.75 29.1667H16.6667V37.5ZM16.6667 25H18.75C21.048 25 22.9167 23.1313 22.9167 20.8333C22.9167 18.5354 21.048 16.6667 18.75 16.6667H16.6667V25Z" fill="#00B5EF"/>
<path d="M31.744 37.4526C29.2562 37.2367 27.419 36.3515 27.1932 36.2386L29.0569 32.5114C29.063 32.5149 30.7663 33.3333 32.8258 33.3333C33.6803 33.3333 34.3751 32.6385 34.3751 31.7841C34.3751 31.1167 33.9499 30.5257 33.3162 30.3151L32.3112 29.9804C30.1854 29.2725 28.4852 27.49 28.1805 25.2703C27.699 21.7628 30.4252 18.75 33.8411 18.75C36.8635 18.75 39.2155 19.8824 39.4736 20.0114L37.6191 23.7427C37.6035 23.7348 35.9004 22.9167 33.8411 22.9167C32.9866 22.9167 32.2918 23.6115 32.2918 24.4659C32.2918 25.1333 32.717 25.7243 33.3508 25.9349L34.6335 26.3621C37.153 27.2019 38.7816 29.6678 38.5128 32.3638C38.1876 35.6274 35.0115 37.7362 31.744 37.4526Z" fill="#00B5EF"/>
<path d="M47.9167 47.9167H2.08337V2.08333H47.9167V47.9167Z" fill="url(#paint1_linear)"/>
<defs>
<radialGradient id="paint0_radial" cx="0" cy="0" r="1" gradientUnits="userSpaceOnUse" gradientTransform="translate(18.4028 12.8472) scale(36.6422)">
<stop stop-color="#193458" stop-opacity="0.98"/>
<stop offset="0.933387" stop-color="#210021"/>
</radialGradient>
<linearGradient id="paint1_linear" x1="-2.60116" y1="12.1293" x2="52.6012" y2="37.8706" gradientUnits="userSpaceOnUse">
<stop stop-color="white" stop-opacity="0.2"/>
<stop offset="1" stop-color="white" stop-opacity="0"/>
</linearGradient>
</defs>
</svg>
