<svg width="50" height="50" viewBox="0 0 50 50" fill="none" xmlns="http://www.w3.org/2000/svg">
<path d="M47.4608 2.53915H2.53931V47.4608H47.4608V2.53915Z" fill="#FFE200"/>
<path d="M26.9855 37.5741C26.9855 41.9459 24.4185 43.9413 20.6783 43.9413C17.2993 43.9413 15.344 42.1967 14.3412 40.0811L17.7804 38.0054C18.4423 39.1785 19.0439 40.1711 20.4978 40.1711C21.8815 40.1711 22.7641 39.6297 22.7641 37.5141V23.165H26.9855V37.5741Z" fill="#323330"/>
<path d="M36.9724 43.9413C33.0518 43.9413 30.515 42.0762 29.2816 39.6297L32.721 37.6441C33.6234 39.1182 34.8065 40.2111 36.8822 40.2111C38.6269 40.2111 39.7498 39.3389 39.7498 38.1257C39.7498 36.6816 38.6068 36.1705 36.6717 35.3181L35.6188 34.8669C32.5706 33.5733 30.5551 31.9389 30.5551 28.4997C30.5551 25.331 32.9716 22.9245 36.7316 22.9245C39.4189 22.9245 41.3441 23.857 42.7279 26.3037L39.4389 28.4094C38.7171 27.1158 37.9349 26.6046 36.7217 26.6046C35.4883 26.6046 34.7061 27.3868 34.7061 28.4094C34.7061 29.6728 35.4883 30.1844 37.3032 30.9763L38.3559 31.4275C41.9457 32.9617 43.9611 34.5361 43.9611 38.0656C43.9613 41.8556 40.9731 43.9413 36.9724 43.9413Z" fill="#323330"/>
</svg>
