<svg width="50" height="50" viewBox="0 0 50 50" fill="none" xmlns="http://www.w3.org/2000/svg">
<path d="M18.0555 45.8333C21.8889 45.8333 25 42.7222 25 38.8889V31.9444H18.0555C14.2222 31.9444 11.1111 35.0556 11.1111 38.8889C11.1111 42.7222 14.2222 45.8333 18.0555 45.8333Z" fill="#0ACF83"/>
<path d="M11.1111 25C11.1111 21.1667 14.2222 18.0556 18.0555 18.0556H25V31.9444H18.0555C14.2222 31.9444 11.1111 28.8333 11.1111 25Z" fill="#A259FF"/>
<path d="M11.1111 11.1111C11.1111 7.27777 14.2222 4.16666 18.0555 4.16666H25V18.0556H18.0555C14.2222 18.0556 11.1111 14.9444 11.1111 11.1111Z" fill="#F24E1E"/>
<path d="M25 4.16666H31.9444C35.7778 4.16666 38.8889 7.27777 38.8889 11.1111C38.8889 14.9444 35.7778 18.0556 31.9444 18.0556H25V4.16666Z" fill="#FF7262"/>
<path d="M38.8889 25C38.8889 28.8333 35.7778 31.9444 31.9444 31.9444C28.1111 31.9444 25 28.8333 25 25C25 21.1667 28.1111 18.0556 31.9444 18.0556C35.7778 18.0556 38.8889 21.1667 38.8889 25Z" fill="#1ABCFE"/>
</svg>
