<svg width="50" height="50" viewBox="0 0 50 50" fill="none" xmlns="http://www.w3.org/2000/svg">
<path d="M43.9922 10.5359L34.6172 4.91093C34.575 4.88593 34.5281 4.87343 34.4828 4.85312C33.8625 4.48125 33.061 4.54843 32.5469 5.09843L19.3922 19.1937L12.1422 12.5469C11.6641 12.1094 10.9641 12.0141 10.3875 12.3016L6.62034 14.1844C6.17815 14.4047 5.86721 14.8187 5.78127 15.3047C5.69534 15.7906 5.84065 16.2875 6.17659 16.6469L13.9719 25L6.17659 33.3531C5.84065 33.7125 5.69377 34.2109 5.78127 34.6953C5.86877 35.1797 6.17971 35.5953 6.62034 35.8156L10.3875 37.7C10.6094 37.8109 10.8485 37.8641 11.086 37.8641C11.4438 37.8641 11.8 37.7406 12.0875 37.5016L19.711 31.1484L32.5469 44.9016C32.8547 45.2313 33.2719 45.3984 33.6891 45.3984C33.975 45.3984 34.25 45.2938 34.5016 45.1375C34.5391 45.1188 34.5797 45.1109 34.6156 45.0891L43.9906 39.4641C44.461 39.1828 44.75 38.6734 44.75 38.125V11.875C44.75 11.3266 44.461 10.8172 43.9922 10.5359ZM10.8703 34.4469L9.88752 33.9562L16.1078 27.2906L17.5735 28.8609L10.8703 34.4469ZM32.25 40.0031L9.88752 16.0437L10.8235 15.5766L32.25 35.2188V40.0031ZM32.25 30.9781L26.3766 25.5937L32.25 20.7V30.9781ZM32.25 16.6312L24.0516 23.4625L21.6969 21.3031L32.25 9.99687V16.6312ZM41.625 37.2391L35.375 40.9891V9.00937L41.625 12.7594V37.2391Z" fill="#529CD7"/>
</svg>
