<svg width="50" height="50" viewBox="0 0 50 50" fill="none" xmlns="http://www.w3.org/2000/svg">
<path d="M41.5625 30.6152C41.5625 36.6309 36.6895 41.5039 30.6738 41.5039H19.3262C13.3105 41.5039 8.4375 36.6309 8.4375 30.6152V26.7285H1.85547V31.1914C1.85547 40.498 9.4043 48.0469 18.7109 48.0469H31.2891C40.5957 48.0469 48.1445 40.498 48.1445 31.1914V26.7285H41.5625V30.6152Z" fill="#FF0099"/>
<path d="M8.4375 19.4824C8.4375 13.4668 13.3105 8.59375 19.3262 8.59375H30.6738C36.6895 8.59375 41.5625 13.4668 41.5625 19.4824V23.4863H48.1445V18.9062C48.1445 9.59961 40.5957 2.05078 31.2891 2.05078H18.7109C9.4043 2.05078 1.85547 9.59961 1.85547 18.9062V23.4863H8.4375V19.4824Z" fill="#FF0099"/>
<path d="M31.543 11.9727V30.1953C31.543 31.0645 30.8398 31.7676 29.9707 31.7676C29.1016 31.7676 28.3984 31.0645 28.3984 30.1953V23.4863H21.6016V30.1953C21.6016 31.0645 20.8984 31.7676 20.0293 31.7676C19.1602 31.7676 18.457 31.0645 18.457 30.1953V11.9727C14.6387 12.6074 11.7285 15.918 11.7285 19.9121V30.1855C11.7285 34.6289 15.332 38.2324 19.7754 38.2324H20.3418C21.4355 38.2324 22.4707 38.0176 23.418 37.6172C23.9746 37.3828 24.502 37.0898 24.9902 36.748C25.4785 37.0898 26.0059 37.3828 26.5625 37.6172C27.5098 38.0078 28.5547 38.2324 29.6387 38.2324H30.2051C34.6484 38.2324 38.252 34.6289 38.252 30.1855V19.9121C38.2715 15.918 35.3613 12.6074 31.543 11.9727Z" fill="#FF0099"/>
</svg>
