<svg width="50" height="50" viewBox="0 0 50 50" fill="none" xmlns="http://www.w3.org/2000/svg">
<path d="M24.9584 29.15C27.2687 29.15 29.1417 27.2771 29.1417 24.9667C29.1417 22.6563 27.2687 20.7833 24.9584 20.7833C22.648 20.7833 20.775 22.6563 20.775 24.9667C20.775 27.2771 22.648 29.15 24.9584 29.15Z" fill="#00D8FF"/>
<path d="M24.9583 34.55C19.0833 34.55 13.95 33.8584 10.1083 32.5417C7.61663 31.6917 5.49996 30.5584 3.99163 29.2667C2.39163 27.9 1.54163 26.4084 1.54163 24.9667C1.54163 22.2 4.57496 19.4917 9.66663 17.725C13.8333 16.275 19.2666 15.4667 24.95 15.4667C30.5333 15.4667 35.8916 16.25 40.0333 17.6833C42.4583 18.5167 44.5 19.6 45.95 20.8C47.525 22.1167 48.3583 23.5583 48.3583 24.9667C48.3583 27.8417 44.9666 30.75 39.5 32.5584C35.6333 33.8417 30.4666 34.55 24.9583 34.55ZM24.9583 17.4667C19.5666 17.4667 14.2333 18.25 10.3333 19.6083C5.64996 21.2417 3.54996 23.475 3.54996 24.9667C3.54996 26.5167 5.80829 28.9584 10.7583 30.65C14.3916 31.8917 19.3083 32.55 24.9583 32.55C30.2583 32.55 35.2 31.8834 38.875 30.6584C44.0166 28.95 46.3666 26.5084 46.3666 24.9667C46.3666 24.175 45.7666 23.2417 44.675 22.3333C43.4166 21.2833 41.5833 20.325 39.3916 19.5667C35.45 18.2167 30.325 17.4667 24.9583 17.4667Z" fill="#00D8FF"/>
<path d="M15.4666 45.8167C14.6166 45.8167 13.8666 45.6333 13.2333 45.2667C10.8416 43.8833 10.0083 39.9 11.0166 34.6083C11.8416 30.2667 13.8583 25.1667 16.7 20.2417C19.4916 15.4083 22.8416 11.1583 26.15 8.28333C28.0833 6.59999 30.0416 5.36666 31.8083 4.71666C33.7333 4.00833 35.4 4.00833 36.6166 4.70833C39.1083 6.14166 39.9333 10.5417 38.7666 16.175C37.9416 20.175 35.975 25 33.225 29.775C30.2916 34.8583 27.125 38.9583 24.0666 41.6333C22.0833 43.3667 20.0416 44.6333 18.175 45.2917C17.2 45.6417 16.2833 45.8167 15.4666 45.8167ZM17.5583 20.7417L18.425 21.2417C15.7333 25.9083 13.7416 30.9167 12.975 34.9833C12.05 39.8583 12.9416 42.7917 14.225 43.5333C14.5416 43.7167 14.9583 43.8167 15.4666 43.8167C17.125 43.8167 19.7333 42.7667 22.75 40.1333C25.6416 37.6083 28.6666 33.675 31.4916 28.7833C34.1416 24.1917 36.025 19.575 36.8083 15.7833C37.9 10.475 36.9583 7.225 35.6166 6.45C34.9333 6.05833 33.825 6.10833 32.4916 6.59999C30.95 7.16666 29.2083 8.275 27.4583 9.8C24.3166 12.5333 21.1083 16.6 18.425 21.25L17.5583 20.7417Z" fill="#00D8FF"/>
<path d="M34.4499 45.8417C32.1832 45.8417 29.3083 44.475 26.3083 41.8917C22.9583 39.0083 19.5499 34.7167 16.6999 29.7917C13.8999 24.9583 11.8999 19.9333 11.0583 15.625C10.5666 13.1083 10.4749 10.8 10.7916 8.94167C11.1416 6.91667 11.9666 5.475 13.1916 4.76667C15.6749 3.325 19.8999 4.80834 24.1999 8.63334C27.2499 11.3417 30.4499 15.4583 33.2082 20.225C36.1499 25.3083 38.1249 30.1 38.9082 34.0833C39.4166 36.6667 39.4999 39.0667 39.1416 41.0167C38.7582 43.0917 37.8916 44.5667 36.6416 45.2917C36.0166 45.6583 35.2749 45.8417 34.4499 45.8417ZM18.4333 28.7917C21.1333 33.4583 24.4833 37.6833 27.6166 40.375C31.3749 43.6083 34.3582 44.3083 35.6499 43.5583C36.9916 42.7833 37.9749 39.6083 36.9582 34.475C36.2082 30.7083 34.3166 26.125 31.4832 21.2333C28.8249 16.6417 25.7666 12.7 22.8749 10.1333C18.8249 6.53334 15.5416 5.725 14.1999 6.5C13.5166 6.89167 13.0083 7.88334 12.7666 9.28334C12.4916 10.9 12.5749 12.9667 13.0249 15.2417C13.8249 19.3333 15.7416 24.1417 18.4333 28.7917Z" fill="#00D8FF"/>
</svg>
