<svg width="50" height="50" viewBox="0 0 50 50" fill="none" xmlns="http://www.w3.org/2000/svg">
<path d="M41.2119 27.5188C39.64 27.5258 38.2788 27.9048 37.1421 28.4662C36.728 27.6309 36.2999 26.9013 36.2297 26.354C36.1457 25.7153 36.0543 25.3365 36.1526 24.5787C36.2509 23.8207 36.6928 22.7471 36.6859 22.67C36.679 22.5929 36.5877 22.2068 35.6825 22.1998C34.7773 22.1929 33.9985 22.3752 33.9072 22.6138C33.8158 22.8523 33.6406 23.3928 33.5353 23.9541C33.3739 24.7751 31.7248 27.7083 30.7915 29.238C30.4828 28.6417 30.2232 28.1152 30.167 27.6942C30.0828 27.0556 29.9916 26.6768 30.0898 25.9189C30.188 25.1609 30.63 24.0873 30.623 24.0102C30.616 23.9331 30.5248 23.5471 29.6197 23.54C28.7144 23.5331 27.9357 23.7154 27.8443 23.9541C27.7531 24.1926 27.6548 24.754 27.4724 25.2945C27.2901 25.8346 25.0936 30.7184 24.5182 31.9887C24.2234 32.6341 23.971 33.1534 23.7884 33.5044C23.7605 33.5604 23.7394 33.5956 23.7254 33.6237C23.7464 33.5887 23.7605 33.5534 23.7605 33.5677C23.6061 33.8692 23.5148 34.0377 23.5148 34.0377V34.0446C23.3955 34.2691 23.2622 34.4725 23.1991 34.4725C23.1569 34.4725 23.0658 33.8833 23.2202 33.0763C23.5499 31.3781 24.3288 28.7399 24.3217 28.6485C24.3147 28.5994 24.469 28.1434 23.8094 27.8976C23.171 27.6661 22.9393 28.0521 22.8833 28.0521C22.8272 28.0521 22.785 28.1926 22.785 28.1926C22.785 28.1926 23.4938 25.2173 21.4237 25.2173C20.1326 25.2173 18.3363 26.6349 17.4522 27.9189C16.8978 28.2207 15.6978 28.8732 14.4348 29.5679C13.9506 29.8346 13.4524 30.1081 12.9823 30.3679C12.9472 30.3326 12.9191 30.2976 12.884 30.2625C10.3719 27.5821 5.73366 25.6875 5.93024 22.0876C6.00036 20.7754 6.45651 17.3302 14.8489 13.1479C21.7256 9.72363 27.2269 10.664 28.1744 12.755C29.5355 15.7373 25.234 21.2878 18.0908 22.0876C15.3681 22.3893 13.9368 21.3368 13.5789 20.9439C13.2069 20.53 13.1507 20.5088 13.0104 20.586C12.7788 20.7123 12.9262 21.0772 13.0104 21.2947C13.221 21.849 14.098 22.8314 15.5927 23.3226C16.9048 23.7507 20.0976 23.9893 23.9569 22.4946C28.2934 20.8245 31.6687 16.1722 30.6793 12.2778C29.6689 8.32031 23.108 7.02207 16.8979 9.22539C13.2 10.5376 9.20026 12.6007 6.32321 15.2881C2.90592 18.488 2.35866 21.2736 2.58307 22.4386C3.38307 26.5715 9.08082 29.2661 11.3614 31.2589C11.2491 31.3221 11.1438 31.3782 11.0457 31.4344C9.90192 32.0026 5.55836 34.2762 4.47067 36.6763C3.24284 39.3988 4.67409 41.3494 5.61442 41.6162C8.54752 42.4301 11.5508 40.9636 13.1648 38.5566C14.7786 36.1499 14.5822 33.0062 13.8384 31.5747C13.8313 31.5537 13.8173 31.5398 13.8104 31.5185C14.105 31.3433 14.4067 31.1678 14.7086 30.9924C15.2909 30.6485 15.8593 30.3326 16.3575 30.0592C16.0767 30.8171 15.8733 31.7289 15.768 33.0483C15.6418 34.592 16.2803 36.5919 17.1084 37.3778C17.4731 37.7217 17.9152 37.7288 18.1889 37.7288C19.1573 37.7288 19.5923 36.9287 20.0764 35.9744C20.6729 34.8094 21.1992 33.4551 21.1992 33.4551C21.1992 33.4551 20.5396 37.1183 22.3429 37.1183C23.0025 37.1183 23.6623 36.2691 23.9568 35.8341V35.841C23.9568 35.841 23.971 35.8131 24.006 35.757C24.0761 35.6517 24.1112 35.5885 24.1112 35.5885V35.5673C24.3778 35.1112 24.9603 34.0656 25.8373 32.3395C26.9742 30.108 28.0617 27.3222 28.0617 27.3222C28.0617 27.3222 28.1599 28.003 28.4969 29.1327C28.6933 29.7993 29.1073 30.5291 29.4371 31.2379C29.1706 31.6027 29.009 31.8133 29.009 31.8133C29.009 31.8133 29.009 31.8202 29.0159 31.8272C28.8054 32.1081 28.567 32.4099 28.3214 32.7046C27.4231 33.7711 26.3565 34.9922 26.2163 35.343C26.0477 35.757 26.0899 36.0655 26.4128 36.3043C26.6512 36.4868 27.0723 36.5147 27.5143 36.4798C28.3214 36.4234 28.8897 36.2271 29.1633 36.1006C29.5983 35.9465 30.1037 35.7007 30.5808 35.3569C31.458 34.7115 31.9914 33.7852 31.9421 32.5643C31.914 31.8906 31.6964 31.2169 31.4298 30.5855C31.507 30.4731 31.5913 30.3537 31.6684 30.2347C33.058 28.2064 34.1315 25.9823 34.1315 25.9823C34.1315 25.9823 34.2297 26.6628 34.5665 27.7926C34.7349 28.361 35.0647 28.9855 35.3664 29.5959C34.0612 30.6556 33.2544 31.8837 32.9736 32.6904C32.4543 34.1851 32.8613 34.8586 33.6261 35.0133C33.97 35.0834 34.4612 34.9219 34.8261 34.7675C35.2822 34.6131 35.8296 34.3675 36.3418 33.9886C37.2189 33.3432 38.068 32.4378 38.012 31.2099C37.9908 30.6555 37.8365 30.1012 37.633 29.5679C38.7345 29.1049 40.1663 28.852 41.9906 29.0627C45.8991 29.5187 46.6638 31.9606 46.5165 32.978C46.3693 34.0026 45.5483 34.5641 45.2746 34.7324C45.0007 34.9009 44.9167 34.9641 44.9379 35.0903C44.9728 35.2727 45.0991 35.2658 45.3306 35.2235C45.6536 35.1675 47.3797 34.3955 47.4567 32.5079C47.5692 30.1221 45.2748 27.4978 41.2119 27.5188ZM11.0878 37.6725C9.79674 39.0829 7.98629 39.6162 7.20748 39.1671C6.37243 38.6831 6.70221 36.6059 8.29508 35.1042C9.26344 34.1921 10.5125 33.3501 11.3405 32.8309C11.5299 32.7186 11.8037 32.5502 12.1405 32.3467C12.1966 32.3118 12.2247 32.2976 12.2247 32.2976C12.2878 32.2554 12.358 32.2204 12.4282 32.1782C13.0104 34.3114 12.4491 36.1919 11.0878 37.6725ZM20.5187 31.2589C20.0696 32.3604 19.1222 35.1674 18.547 35.02C18.0558 34.8936 17.754 32.7535 18.4488 30.6485C18.7996 29.5889 19.5433 28.3259 19.9855 27.8348C20.6941 27.0417 21.473 26.7891 21.6555 27.1049C21.901 27.5188 20.7993 30.5713 20.5187 31.2589ZM28.3075 34.9781C28.1181 35.0763 27.9426 35.1393 27.8585 35.0902C27.7954 35.0552 27.9357 34.9218 27.9357 34.9218C27.9357 34.9218 28.9109 33.8763 29.2969 33.3989C29.5215 33.1184 29.781 32.7885 30.0618 32.4237C30.0618 32.4586 30.0686 32.4939 30.0686 32.5358C30.0619 33.7921 28.8549 34.6413 28.3075 34.9781ZM34.3142 33.6097C34.1739 33.5114 34.1948 33.1816 34.665 32.157C34.8475 31.757 35.2686 31.0835 35.9982 30.4379C36.0825 30.7045 36.1315 30.957 36.1315 31.1956C36.1244 32.7745 34.9948 33.364 34.3142 33.6097Z" fill="#CF649A"/>
</svg>
