<svg width="60" height="31" viewBox="0 0 60 31" fill="none" xmlns="http://www.w3.org/2000/svg">
<path d="M31.746 11.6402L26.8783 6.77249L22.0106 11.6402L23.7566 13.3862L25.3439 11.7989V12.381V21.2169C25.3439 21.8519 25.3968 23.4921 22.4339 23.4921C19.4709 23.4921 19.3122 21.9577 19.3122 20.8995V20.6349H15.6085V20.9524C15.6085 22.4868 15.3968 26.1376 22.4339 26.1376C28.6243 26.1376 28.4127 22.7513 28.4127 21.6402V12.328V11.746L30 13.3333L31.746 11.6402Z" fill="#177BC0"/>
<path d="M9.99995 20.3704V20.6349L7.88354 15.5026V15.1852L9.99995 20.3704Z" fill="#024774"/>
<path d="M7.88354 15.1852V15.5026L5.71423 20.6349V20.3704L7.88354 15.1852Z" fill="#044A79"/>
<path d="M10.8995 22.5926H4.76196V22.8571H10.8995V22.5926Z" fill="#024774"/>
<path d="M9.89418 12.2222L15.7672 25.291H12.0106L10.8995 22.5926H4.7619L3.65079 25.291H0L5.92593 12.2222H9.89418V12.2222ZM5.71429 20.3704H10L7.8836 15.2381L5.71429 20.3704Z" fill="url(#paint0_linear)"/>
<path d="M9.89418 12.2222L15.7672 25.291H12.0106L10.8995 22.5926H4.7619L3.65079 25.291H0L5.92593 12.2222H9.89418V12.2222ZM5.71429 20.3704H10L7.8836 15.2381L5.71429 20.3704Z" fill="#0A74BB"/>
<path d="M3.65079 25.291H0V25.5555H3.65079V25.291Z" fill="#024774"/>
<path d="M4.76187 22.5926V22.9101L3.65076 25.5556V25.291L4.76187 22.5926Z" fill="#044A78"/>
<path d="M15.7672 25.291H12.0106V25.5555H15.7672V25.291Z" fill="#024774"/>
<path d="M12.0105 25.291V25.5556L10.8994 22.9101V22.5926L12.0105 25.291Z" fill="#024774"/>
<path d="M9.99995 20.1587V20.4233L7.88354 15.291V15.0265L9.99995 20.1587Z" fill="white"/>
<path d="M7.88354 15.0265V15.291L5.71423 20.4233V20.1587L7.88354 15.0265Z" fill="white"/>
<path d="M10.8995 22.4339H4.76196V22.6984H10.8995V22.4339Z" fill="white"/>
<path d="M3.65079 25.1323H0V25.3968H3.65079V25.1323Z" fill="white"/>
<path d="M4.76187 22.4339V22.6984L3.65076 25.3968V25.1323L4.76187 22.4339Z" fill="white"/>
<path d="M15.7672 25.1323H12.0106V25.3968H15.7672V25.1323Z" fill="white"/>
<path d="M12.0105 25.1323V25.3968L10.8994 22.6984V22.4339L12.0105 25.1323Z" fill="white"/>
<path d="M38.5186 12.2222L44.3916 25.291H40.635L39.5239 22.5926H33.3863L32.2752 25.291H28.6244L34.5503 12.2222H38.5186V12.2222ZM34.3387 20.3704H38.6244L36.508 15.2381L34.3387 20.3704Z" fill="url(#paint1_linear)"/>
<path d="M38.5714 20.3704V20.6349L36.5079 15.5026V15.1852L38.5714 20.3704Z" fill="#024774"/>
<path d="M36.5079 15.1852V15.5026L34.3386 20.6349V20.3704L36.5079 15.1852Z" fill="#044A79"/>
<path d="M39.5239 22.5926H33.3864V22.8571H39.5239V22.5926Z" fill="#024774"/>
<path d="M32.2752 25.291H28.6244V25.5555H32.2752V25.291Z" fill="#024774"/>
<path d="M33.3863 22.5926V22.9101L32.2751 25.5556V25.291L33.3863 22.5926Z" fill="#044A78"/>
<path d="M44.3916 25.291H40.635V25.5555H44.3916V25.291Z" fill="#024774"/>
<path d="M40.6349 25.291V25.5556L39.5238 22.9101V22.5926L40.6349 25.291Z" fill="#024774"/>
<path d="M38.5714 20.1587V20.4233L36.5079 15.291V15.0265L38.5714 20.1587Z" fill="white"/>
<path d="M36.5079 15.0265V15.291L34.3386 20.4233V20.1587L36.5079 15.0265Z" fill="white"/>
<path d="M39.5239 22.4339H33.3864V22.6984H39.5239V22.4339Z" fill="white"/>
<path d="M32.2752 25.1323H28.6244V25.3968H32.2752V25.1323Z" fill="white"/>
<path d="M33.3863 22.4339V22.6984L32.2751 25.3968V25.1323L33.3863 22.4339Z" fill="white"/>
<path d="M44.3916 25.1323H40.635V25.3968H44.3916V25.1323Z" fill="white"/>
<path d="M40.6349 25.1323V25.3968L39.5238 22.6984V22.4339L40.6349 25.1323Z" fill="white"/>
<path d="M54.6031 18.5185L59.9999 25.291H55.7671L52.5925 20.8466L49.2592 25.291H45.238L50.5819 18.6243L45.4497 12.2222H49.6296L52.5925 16.455L55.6613 12.2222H59.6825L54.6031 18.5185Z" fill="url(#paint2_linear)"/>
<path d="M59.6825 12.2222V12.4868L54.6031 18.7831V18.5185L59.6825 12.2222Z" fill="#034775"/>
<path d="M50.582 18.6243V18.8889L45.4497 12.4868V12.2222L50.582 18.6243Z" fill="#024774"/>
<path d="M55.7671 25.291V25.5556L52.5925 21.1111V20.8466L55.7671 25.291Z" fill="#024774"/>
<path d="M49.2592 25.291H45.238V25.5556H49.2592V25.291Z" fill="#024774"/>
<path d="M52.5926 20.8466V21.1111L49.2593 25.5556V25.291L52.5926 20.8466Z" fill="#034875"/>
<path d="M60 25.291H55.7672V25.5556H60V25.291Z" fill="#024774"/>
<path d="M59.6825 12.0106V12.328L54.6031 18.6243V18.3598L59.6825 12.0106Z" fill="white"/>
<path d="M50.582 18.4656V18.7302L45.4497 12.328V12.0106L50.582 18.4656Z" fill="white"/>
<path d="M55.7671 25.1323V25.3968L52.5925 20.9524V20.6349L55.7671 25.1323Z" fill="white"/>
<path d="M49.2592 25.1323H45.238V25.3968H49.2592V25.1323Z" fill="white"/>
<path d="M52.5926 20.6349V20.9524L49.2593 25.3968V25.1323L52.5926 20.6349Z" fill="white"/>
<path d="M60 25.1323H55.7672V25.3968H60V25.1323Z" fill="white"/>
<path d="M25.3439 11.5873V11.9048L23.7566 13.4921V13.1746L25.3439 11.5873Z" fill="#024774"/>
<path d="M23.7565 13.1746V13.4921L22.0105 11.746V11.4815L23.7565 13.1746Z" fill="#024774"/>
<path d="M29.9999 13.1746V13.4921L28.4126 11.9048V11.6402L29.9999 13.1746Z" fill="#024774"/>
<path d="M31.746 11.4815V11.746L30 13.4921V13.1746L31.746 11.4815Z" fill="#024774"/>
<path d="M28.4127 21.6931V21.9577C28.4127 22.1693 28.4127 22.4868 28.3597 22.8043V22.5397C28.4127 22.2222 28.4127 21.9577 28.4127 21.6931Z" fill="#084F80"/>
<path d="M28.4126 22.5397V22.8043C28.3597 23.0159 28.3597 23.2275 28.2539 23.4392V23.1746C28.3068 22.963 28.3597 22.7513 28.4126 22.5397Z" fill="#074D7D"/>
<path d="M28.2539 23.1746V23.4392C28.201 23.6508 28.0952 23.8095 27.9894 24.0212V23.7566C28.0952 23.545 28.201 23.3863 28.2539 23.1746Z" fill="#054B7A"/>
<path d="M27.9894 23.7566V24.0212C27.4073 25.1852 25.9259 26.2434 22.4338 26.2434C15.82 26.2434 15.6084 22.963 15.6084 21.3228V21.0582C15.6084 22.6984 15.82 25.9788 22.4338 25.9788C25.9259 25.9788 27.4073 24.9206 27.9894 23.7566Z" fill="#044977"/>
<path d="M26.8783 6.61375L31.746 11.4815L30 13.2275L28.4127 11.6402V12.2222V21.5344C28.4127 22.6455 28.5714 26.0317 22.4339 26.0317C15.3968 26.0317 15.6085 22.3809 15.6085 20.8466V20.5291H19.3122V20.8466C19.3651 21.8518 19.4709 23.4391 22.4339 23.4391C25.3439 23.4391 25.3439 21.7989 25.3439 21.164V12.2222V11.6402L23.7566 13.2275L22.0106 11.5344L26.8783 6.61375Z" fill="url(#paint3_linear)"/>
<path d="M21.8519 0C28.889 0 28.6773 3.65079 28.6773 5.18519V5.50265H24.9736V5.18519C24.9736 4.17989 24.8678 2.6455 21.8519 2.6455C18.9419 2.6455 18.9419 4.28571 18.9419 4.92064V13.7566V14.3386L20.5292 12.7513L22.2752 14.4444L17.4604 19.3651L12.5927 14.4974L14.3387 12.7513L15.926 14.3386V13.7566V4.49735C15.8731 3.38624 15.7143 0 21.8519 0Z" fill="url(#paint4_linear)"/>
<path d="M38.5186 12.2222L44.3916 25.291H40.635L39.5239 22.5926H33.3863L32.2752 25.291H28.6244L34.5503 12.2222H38.5186V12.2222ZM34.3387 20.3704H38.6244L36.508 15.2381L34.3387 20.3704Z" fill="#0A74BB"/>
<path d="M54.6031 18.5185L59.9999 25.291H55.7671L52.5925 20.8466L49.2592 25.291H45.238L50.5819 18.6243L45.4497 12.2222H49.6296L52.5925 16.455L55.6613 12.2222H59.6825L54.6031 18.5185Z" fill="#0A74BB"/>
<path d="M26.8783 6.61375L31.746 11.4815L30 13.2275L28.4127 11.6402V12.2222V21.5344C28.4127 22.6455 28.5714 26.0317 22.4339 26.0317C15.3968 26.0317 15.6085 22.3809 15.6085 20.8466V20.5291H19.3122V20.8466C19.3651 21.8518 19.4709 23.4391 22.4339 23.4391C25.3439 23.4391 25.3439 21.7989 25.3439 21.164V12.2222V11.6402L23.7566 13.2275L22.0106 11.5344L26.8783 6.61375Z" fill="#0A74BB"/>
<path d="M21.8519 0C28.889 0 28.6773 3.65079 28.6773 5.18519V5.50265H24.9736V5.18519C24.9736 4.17989 24.8678 2.6455 21.8519 2.6455C18.9419 2.6455 18.9419 4.28571 18.9419 4.92064V13.7566V14.3386L20.5292 12.7513L22.2752 14.4444L17.4604 19.3651L12.5927 14.4974L14.3387 12.7513L15.926 14.3386V13.7566V4.49735C15.8731 3.38624 15.7143 0 21.8519 0Z" fill="#0A74BB"/>
<path d="M25.0266 5.18519V5.44974C24.9737 4.44445 24.8679 2.85715 21.9049 2.85715C20.2647 2.85715 19.5239 3.38625 19.2594 3.96826V3.70371C19.5239 3.17461 20.2118 2.64551 21.852 2.64551C24.8679 2.64551 24.9737 4.1799 25.0266 5.18519Z" fill="#044977"/>
<path d="M19.2064 3.7037V3.96826C19.1535 4.07408 19.1006 4.1799 19.1006 4.28572V4.02117C19.1006 3.91534 19.1535 3.80952 19.2064 3.7037Z" fill="#054B7A"/>
<path d="M19.1007 4.02116V4.28571C19.0478 4.44444 19.0478 4.55026 18.9949 4.65608V4.39153C19.0478 4.28571 19.0478 4.12698 19.1007 4.02116Z" fill="#074D7D"/>
<path d="M18.9948 4.39154V4.65609C18.9948 4.86773 18.9419 5.02646 18.9419 5.13228V4.86773C18.9948 4.709 18.9948 4.55027 18.9948 4.39154Z" fill="#084F80"/>
<path d="M28.7302 5.50266H25.0265V5.76721H28.7302V5.50266Z" fill="#024774"/>
<path d="M22.2753 14.4974V14.8148L17.4604 19.6825V19.3651L22.2753 14.4974Z" fill="#024774"/>
<path d="M17.4604 19.3651V19.6825L12.5927 14.8148V14.4974L17.4604 19.3651Z" fill="#024774"/>
<path d="M18.986 4.97355V4.65609C18.986 3.96826 19.0389 2.43387 21.896 2.43387C24.859 2.43387 25.0177 3.96826 25.0177 5.02646V5.29101C24.9648 4.28572 24.859 2.69842 21.896 2.69842C19.0389 2.75133 18.986 4.28572 18.986 4.97355Z" fill="white"/>
<path d="M25.0266 5.02646V5.29101C24.9737 4.28572 24.8679 2.69842 21.9049 2.69842C20.2647 2.69842 19.5239 3.22752 19.2594 3.80953V3.54498C19.5769 2.96297 20.2647 2.43387 21.9049 2.43387C24.8679 2.43387 24.9737 4.02117 25.0266 5.02646Z" fill="white"/>
<path d="M19.2064 3.54497V3.80952C19.1535 3.91534 19.1006 4.02116 19.1006 4.12698V3.86243C19.1006 3.75661 19.1535 3.65079 19.2064 3.54497Z" fill="white"/>
<path d="M19.1007 3.86244V4.12699C19.0478 4.23281 19.0478 4.39154 18.9949 4.49736V4.1799C19.0478 4.07408 19.0478 3.96826 19.1007 3.86244Z" fill="white"/>
<path d="M18.9948 4.1799V4.44445C18.9948 4.65609 18.9419 4.81482 18.9419 4.92064V4.65609C18.9948 4.55027 18.9948 4.39154 18.9948 4.1799Z" fill="white"/>
<path d="M28.7302 5.34392H25.0265V5.60847H28.7302V5.34392Z" fill="white"/>
<path d="M22.2753 14.3386V14.6032L17.4604 19.4709V19.2063L22.2753 14.3386Z" fill="white"/>
<path d="M17.4604 19.2063V19.4709L12.5927 14.6032V14.3386L17.4604 19.2063Z" fill="white"/>
<path d="M25.3439 11.4286V11.6931L23.7566 13.2804V13.0159L25.3439 11.4286Z" fill="white"/>
<path d="M23.7565 13.0159V13.2804L22.0105 11.5873V11.2698L23.7565 13.0159Z" fill="white"/>
<path d="M29.9999 13.0159V13.2804L28.4126 11.6931V11.4286L29.9999 13.0159Z" fill="white"/>
<path d="M31.746 11.2698V11.5873L30 13.2804V13.0159L31.746 11.2698Z" fill="white"/>
<path d="M28.4126 21.5344V21.7989C28.4126 23.0688 28.2539 26.0846 22.4338 26.0846C15.82 26.0846 15.6084 22.8042 15.6084 21.164V20.8995C15.6084 22.5397 15.82 25.8201 22.4338 25.8201C28.2539 25.8201 28.4126 22.8042 28.4126 21.5344Z" fill="white"/>
<path d="M28.4127 21.5344V21.7989C28.4127 22.0106 28.4127 22.328 28.3597 22.6455V22.3809C28.4127 22.0106 28.4127 21.746 28.4127 21.5344Z" fill="white"/>
<path d="M28.4126 22.328V22.5926C28.3597 22.8042 28.3597 23.0159 28.2539 23.2275V22.963C28.3068 22.7513 28.3597 22.5397 28.4126 22.328Z" fill="white"/>
<path d="M28.2539 22.963V23.2804C28.201 23.4921 28.0952 23.6508 27.9894 23.8624V23.5979C28.0952 23.3862 28.201 23.1746 28.2539 22.963Z" fill="white"/>
<path d="M27.9894 23.5979V23.8624C27.4073 25.0264 25.9259 26.0846 22.4338 26.0846C15.82 26.0846 15.6084 22.8042 15.6084 21.164V20.8995C15.6084 22.5397 15.82 25.8201 22.4338 25.8201C25.9259 25.8201 27.4073 24.709 27.9894 23.5979Z" fill="white"/>
<defs>
<linearGradient id="paint0_linear" x1="7.88767" y1="25.2948" x2="7.88767" y2="12.204" gradientUnits="userSpaceOnUse">
<stop stop-color="#3C95D1"/>
<stop offset="0.1" stop-color="#0684C3"/>
<stop offset="0.4" stop-color="#0A74BB"/>
<stop offset="0.6" stop-color="#0A74BB"/>
<stop offset="0.9" stop-color="#0684C3"/>
<stop offset="1" stop-color="#3C95D1"/>
</linearGradient>
<linearGradient id="paint1_linear" x1="36.5013" y1="25.2948" x2="36.5013" y2="12.204" gradientUnits="userSpaceOnUse">
<stop stop-color="#3C95D1"/>
<stop offset="0.1" stop-color="#0684C3"/>
<stop offset="0.4" stop-color="#0A74BB"/>
<stop offset="0.6" stop-color="#0A74BB"/>
<stop offset="0.9" stop-color="#0684C3"/>
<stop offset="1" stop-color="#3C95D1"/>
</linearGradient>
<linearGradient id="paint2_linear" x1="52.6041" y1="25.2948" x2="52.6041" y2="12.204" gradientUnits="userSpaceOnUse">
<stop stop-color="#3C95D1"/>
<stop offset="0.1" stop-color="#0684C3"/>
<stop offset="0.4" stop-color="#0A74BB"/>
<stop offset="0.6" stop-color="#0A74BB"/>
<stop offset="0.9" stop-color="#0684C3"/>
<stop offset="1" stop-color="#3C95D1"/>
</linearGradient>
<linearGradient id="paint3_linear" x1="23.6815" y1="25.9851" x2="23.6815" y2="6.60936" gradientUnits="userSpaceOnUse">
<stop stop-color="#3C95D1"/>
<stop offset="0.1" stop-color="#0684C3"/>
<stop offset="0.4" stop-color="#0A74BB"/>
<stop offset="0.6" stop-color="#0A74BB"/>
<stop offset="0.75" stop-color="#0684C3"/>
<stop offset="0.9" stop-color="#3C95D1"/>
</linearGradient>
<linearGradient id="paint4_linear" x1="20.6372" y1="19.3786" x2="20.6372" y2="0" gradientUnits="userSpaceOnUse">
<stop offset="0.1" stop-color="#0684C3"/>
<stop offset="0.4" stop-color="#0A74BB"/>
<stop offset="0.65" stop-color="#3C95D1"/>
<stop offset="1" stop-color="#6BB3E2"/>
</linearGradient>
</defs>
</svg>
