<svg width="50" height="50" viewBox="0 0 50 50" fill="none" xmlns="http://www.w3.org/2000/svg">
<path fill-rule="evenodd" clip-rule="evenodd" d="M24.9984 0.520706C11.1937 0.520706 0 11.7574 0 25.6215C0 36.709 7.1625 46.1164 17.0984 49.4359C18.3484 49.6664 18.8047 48.8914 18.8047 48.2266C18.8047 47.6305 18.7828 46.0523 18.7703 43.9582C11.8156 45.475 10.3484 40.5934 10.3484 40.5934C9.2125 37.6945 7.57344 36.9227 7.57344 36.9227C5.30313 35.3648 7.74531 35.3965 7.74531 35.3965C10.2531 35.5738 11.5734 37.9832 11.5734 37.9832C13.8047 41.8188 17.425 40.7113 18.85 40.068C19.0766 38.4461 19.7234 37.3398 20.4375 36.7125C14.8859 36.0789 9.05 33.9266 9.05 24.309C9.05 21.5684 10.0234 19.3285 11.6234 17.573C11.3656 16.9379 10.5078 14.3871 11.8672 10.9313C11.8672 10.9313 13.9672 10.2566 18.7422 13.5039C20.7375 12.9469 22.875 12.6695 25.0016 12.6582C27.125 12.6691 29.2641 12.9469 31.2609 13.5039C36.0328 10.2566 38.1281 10.9313 38.1281 10.9313C39.4922 14.3871 38.6344 16.9379 38.3766 17.573C39.9797 19.3285 40.9469 21.5684 40.9469 24.309C40.9469 33.95 35.1016 36.0727 29.5328 36.6938C30.4297 37.4688 31.2297 38.9996 31.2297 41.3418C31.2297 44.6973 31.1984 47.4031 31.1984 48.227C31.1984 48.8984 31.6484 49.6797 32.9172 49.4332C42.8437 46.107 50 36.7059 50 25.6215C50 11.7574 38.8062 0.520706 24.9984 0.520706Z" fill="#AAAAAA"/>
</svg>
