<svg width="50" height="50" viewBox="0 0 50 50" fill="none" xmlns="http://www.w3.org/2000/svg">
<path d="M24.991 47.4608C24.3937 47.4608 23.7876 47.3005 23.2617 46.9974L17.7618 43.7438C16.9418 43.2803 17.3428 43.1199 17.6103 43.0307C18.7066 42.6474 18.9295 42.5673 20.0971 41.8986C20.222 41.8274 20.3825 41.854 20.5072 41.9344L24.7324 44.4391C24.884 44.5281 25.0977 44.5281 25.2404 44.4391L41.7045 34.9367C41.8561 34.8476 41.954 34.6693 41.954 34.4911V15.4866C41.954 15.2994 41.8561 15.1301 41.6957 15.0321L25.2405 5.53867C25.089 5.44951 24.8841 5.44951 24.7325 5.53867L8.2863 15.0409C8.12576 15.1301 8.02781 15.3083 8.02781 15.4955V34.4911C8.02781 34.6693 8.12576 34.8475 8.2863 34.9279L12.7969 37.5308C15.2482 38.7519 16.7457 37.3168 16.7457 35.864V17.1089C16.7457 16.8415 16.9595 16.6365 17.2271 16.6365H19.313C19.5715 16.6365 19.7942 16.8415 19.7942 17.1089V35.8728C19.7942 39.1352 18.0114 41.0072 14.9184 41.0072C13.9645 41.0072 13.2158 41.0072 11.13 39.9732L6.8156 37.4862C5.74587 36.8711 5.0863 35.7212 5.0863 34.4823V15.4866C5.0863 14.2565 5.74587 13.0978 6.8156 12.4827L23.2617 2.98037C24.3046 2.39209 25.6863 2.39209 26.7203 2.98037L43.1845 12.4915C44.2542 13.1065 44.9137 14.2564 44.9137 15.4955V34.4911C44.9137 35.7212 44.2542 36.8711 43.1845 37.4951L26.7203 46.9974C26.1943 47.3005 25.5969 47.4608 24.991 47.4608ZM38.2818 28.7328C38.2818 25.1761 35.875 24.2312 30.8209 23.5628C25.7041 22.8853 25.1872 22.5376 25.1872 21.3432C25.1872 20.3538 25.624 19.0345 29.4124 19.0345C32.7909 19.0345 34.0388 19.7654 34.5557 22.0475C34.6004 22.2613 34.7967 22.4218 35.0192 22.4218H37.1589C37.2924 22.4218 37.4172 22.3684 37.5064 22.2702C37.5957 22.1723 37.6401 22.0385 37.6309 21.9047C37.3013 17.9738 34.6894 16.1464 29.4124 16.1464C24.7148 16.1464 21.9159 18.1253 21.9159 21.4502C21.9159 25.0514 24.7058 26.0499 29.2073 26.4953C34.6004 27.0214 35.0192 27.8147 35.0192 28.8755C35.0192 30.7119 33.5397 31.4961 30.0721 31.4961C25.7133 31.4961 24.7593 30.3997 24.4385 28.2338C24.4028 28.002 24.2066 27.8327 23.9661 27.8327H21.8355C21.5681 27.8327 21.3633 28.0467 21.3633 28.305C21.3633 31.0774 22.8697 34.3845 30.0811 34.3845C35.2867 34.3755 38.2818 32.316 38.2818 28.7328Z" fill="#539E43"/>
</svg>
