<svg width="50" height="50" viewBox="0 0 50 50" fill="none" xmlns="http://www.w3.org/2000/svg">
<g clip-path="url(#clip0)">
<path d="M41.9533 19.8828C41.8752 18.1641 42.1095 16.6406 41.3283 15.3516C39.4533 12.1484 34.7658 10.2734 25.3907 10.2734V10.5469H25.1954H25.3907V10.2734C16.0157 10.2734 11.0938 12.1484 9.2188 15.3906C8.47661 16.7188 8.55473 18.2031 8.43755 19.9219C8.35942 21.2891 7.73442 22.7344 8.00786 24.2969C8.32036 26.3281 8.43754 28.3594 8.75005 30.2344C8.98442 31.7578 11.0938 33.0469 11.2891 34.4922C11.836 38.4766 15.9766 40.3125 25.3517 40.3125V40.625H25.1173H25.3907V40.3125C34.7658 40.3125 38.7501 38.4766 39.258 34.4922C39.4533 33.0078 41.4064 31.7578 41.6408 30.2344C41.9533 28.3594 42.0705 26.3281 42.383 24.2969C42.6564 22.7344 42.0314 21.25 41.9533 19.8828Z" fill="#EFCCA3"/>
<path d="M25.2344 21.2891C26.9141 21.3281 28.0859 22.3828 29.1797 23.3594C30.4687 24.4922 32.6562 25.2734 33.5547 26.25C34.4531 27.2266 35.625 28.2031 36.0547 29.7266C36.4844 31.25 36.6016 33.2031 36.6016 33.7109C36.6016 34.2188 36.875 34.1016 37.6562 33.7109C39.4922 32.8125 41.5234 30.3906 41.5234 30.3906C41.2891 31.9141 39.2969 33.2813 39.1016 34.7266C38.6328 38.7109 34.7656 40.625 25.1953 40.625H25.1562H25.3906" fill="#CCAC8D"/>
<path d="M31.4062 18.2422C31.7578 19.4531 33.0078 23.5547 30.5859 22.1875C30.5859 22.1875 31.6016 22.7734 32.2266 25C32.8906 27.2266 34.4922 27.5 34.4922 27.5C34.4922 27.5 37.1094 28.0078 39.0625 26.3281C40.7031 24.9219 40.9765 22.4219 40.2734 20.5078C39.5703 18.6328 38.3203 18.0469 36.4844 17.6562C34.6484 17.2266 30.9766 16.875 31.4062 18.2422Z" fill="#CCAC8D"/>
<path d="M36.0547 26.1328C37.9531 26.1328 39.4922 24.5938 39.4922 22.6953C39.4922 20.7968 37.9531 19.2578 36.0547 19.2578C34.1562 19.2578 32.6172 20.7968 32.6172 22.6953C32.6172 24.5938 34.1562 26.1328 36.0547 26.1328Z" fill="black"/>
<path d="M35.1563 22.0703C35.6525 22.0703 36.0548 21.668 36.0548 21.1719C36.0548 20.6757 35.6525 20.2734 35.1563 20.2734C34.6601 20.2734 34.2578 20.6757 34.2578 21.1719C34.2578 21.668 34.6601 22.0703 35.1563 22.0703Z" fill="white"/>
<path d="M30.8203 22.5391C30.8203 22.5391 33.9062 24.6484 35.5859 26.7187C37.2656 28.789 37.2265 29.1797 37.2265 29.1797L36.0156 29.7265C36.0156 29.7265 34.2969 26.4844 32.1875 25.2734C30.0391 24.0625 29.8047 23.0469 29.8047 23.0469L30.8203 22.5391Z" fill="#EFCCA3"/>
<path d="M25.3516 21.2891C23.6719 21.3281 22.4219 22.3828 21.2891 23.3594C20 24.4922 17.7344 25.2734 16.8359 26.25C15.9375 27.2266 14.7266 28.2031 14.2969 29.7266C13.8672 31.25 13.7109 33.2031 13.7109 33.7109C13.7109 34.2188 13.7891 34.2578 12.6563 33.7109C10.8203 32.8516 8.78906 30.3906 8.78906 30.3906C9.02344 31.9141 11.0156 33.2813 11.2109 34.7266C11.7578 38.7109 15.625 40.625 25.1953 40.625H25.3906" fill="#CCAC8D"/>
<path d="M34.4142 27.8906C32.5392 25.5859 29.5314 23.4375 25.3517 23.4375H25.3126C21.133 23.4375 18.1252 25.5859 16.2502 27.8906C14.297 30.2734 14.4533 31.2109 14.4533 33.4765C14.4533 41.6796 17.3439 39.3359 19.258 40.3515C21.2111 41.3281 23.2423 41.0156 25.3126 41.0156H25.3517C27.4611 41.0156 29.4533 41.289 31.4064 40.3124C33.3204 39.3359 36.211 41.7577 36.211 33.5547C36.2501 31.289 36.3673 30.2734 34.4142 27.8906Z" fill="#56332B"/>
<path d="M25.1563 25.4688C25.1563 25.4688 24.8828 29.2579 24.3359 30.0001L25.3516 29.7657L25.1563 25.4688Z" fill="#442823"/>
<path d="M25.4297 25.4688C25.4297 25.4688 25.7031 29.2579 26.25 30.0001L25.2344 29.7657L25.4297 25.4688Z" fill="#442823"/>
<path d="M22.1485 24.5703C21.7579 23.6719 23.1641 22.2266 25.3907 22.1875C27.6173 22.1875 29.0235 23.6328 28.6329 24.5703C28.2423 25.5078 26.836 25.7812 25.3907 25.8203C23.9844 25.7812 22.5391 25.5078 22.1485 24.5703Z" fill="#56332B"/>
<path d="M25.3906 25.4687C25.3906 25.3125 26.7187 25.2734 27.4218 24.8047C27.4218 24.8047 25.9765 25.2734 25.664 25.0781C25.3515 24.9219 25.2734 24.4531 25.2734 24.4531C25.2734 24.4531 25.1562 24.9219 24.9218 25.0781C24.6484 25.2344 23.0078 24.8047 23.0078 24.8047C23.0078 24.8047 25.1953 25.3516 25.1953 25.4687C25.1953 25.5859 25.1562 25.9766 25.1562 26.25C25.1562 27.2266 25.1562 29.6484 25.3125 29.8438C25.5468 30.1953 25.4687 27.2266 25.4687 26.25C25.4296 25.9375 25.4296 25.625 25.3906 25.4687Z" fill="black"/>
<path d="M25.4687 30.7031C26.1328 30.7031 27.3046 31.1718 28.3593 31.9139C27.3437 30.7812 26.1328 30 25.4687 30C24.7656 30 23.2812 30.8593 22.2266 32.1093C23.3203 31.2499 24.7265 30.7031 25.4687 30.7031Z" fill="#7F4A41"/>
<path d="M25.1953 37.6172C23.7109 37.6172 22.2656 37.1485 20.9375 36.7969C20.6641 36.7188 20.3906 36.9141 20.1172 36.836C17.6562 36.0547 15.6641 34.7266 14.4531 33.0469V33.4375C14.4531 41.6407 17.3437 39.336 19.2578 40.3126C21.2109 41.2892 23.2422 40.9767 25.3125 40.9767H25.3516C27.4609 40.9767 29.4531 41.2501 31.4062 40.2735C33.3203 39.2969 36.2109 41.6798 36.2109 33.4766C36.2109 33.1641 36.2109 32.8516 36.25 32.5781C35.1172 34.4141 33.0469 35.8594 30.4687 36.7188C30.2344 36.7969 29.6875 36.6016 29.4531 36.6407C28.0469 37.1094 26.7969 37.6172 25.1953 37.6172Z" fill="#442823"/>
<path d="M21.4844 33.2031C21.4844 33.2031 20.5078 36.1329 21.1719 37.4219L20.2734 37.0313C20.2734 37.0313 20.9375 34.0625 21.4844 33.2031ZM29.2188 33.2031C29.2188 33.2031 30.1953 36.1329 29.5312 37.4219L30.4297 37.0313C30.4297 37.0313 29.7266 34.0625 29.2188 33.2031Z" fill="#442823"/>
<path d="M18.9844 18.2422C18.6329 19.4531 17.3829 23.5547 19.8047 22.1875C19.8047 22.1875 18.7891 22.7734 18.1641 25C17.5391 27.2266 15.8985 27.5 15.8985 27.5C15.8985 27.5 13.2813 28.0078 11.3282 26.3281C9.68753 24.9219 9.41409 22.4219 10.1172 20.5078C10.8203 18.5937 12.0703 18.0469 13.9063 17.6562C15.7422 17.2266 19.3751 16.875 18.9844 18.2422Z" fill="#CCAC8D"/>
<path d="M25.3515 30C26.4062 30 29.6875 32.2656 29.7265 35.039V34.8828C29.7265 31.9922 27.0703 29.6875 25.3515 29.6875C23.6328 29.6875 20.9766 32.0312 20.9766 34.8828V35.039C21.0156 32.2656 24.2969 30 25.3515 30Z" fill="black"/>
<path d="M26.2043 24.5916C26.3715 24.5485 26.4414 24.2595 26.3606 23.9462C26.2797 23.6328 26.0787 23.4138 25.9116 23.4569C25.7445 23.5 25.6745 23.7889 25.7554 24.1023C25.8362 24.4156 26.0372 24.6347 26.2043 24.5916Z" fill="#331712"/>
<path d="M24.1965 24.5857C24.3613 24.6368 24.5727 24.4277 24.6686 24.1187C24.7645 23.8096 24.7086 23.5176 24.5437 23.4665C24.3789 23.4154 24.1675 23.6244 24.0716 23.9335C23.9757 24.2426 24.0316 24.5346 24.1965 24.5857Z" fill="#331712"/>
<path d="M14.5313 26.1328C16.4297 26.1328 17.9688 24.5938 17.9688 22.6953C17.9688 20.7968 16.4297 19.2578 14.5313 19.2578C12.6328 19.2578 11.0938 20.7968 11.0938 22.6953C11.0938 24.5938 12.6328 26.1328 14.5313 26.1328Z" fill="black"/>
<path d="M15.4297 22.0703C15.9259 22.0703 16.3281 21.668 16.3281 21.1719C16.3281 20.6757 15.9259 20.2734 15.4297 20.2734C14.9335 20.2734 14.5312 20.6757 14.5312 21.1719C14.5312 21.668 14.9335 22.0703 15.4297 22.0703Z" fill="white"/>
<path d="M26.3672 22.7344C26.3672 22.6953 25.4687 23.125 25.2344 23.164C25 23.125 24.1016 22.6953 24.1016 22.7344H26.3672Z" fill="#7F4A41"/>
<path d="M19.5312 22.5391C19.5312 22.5391 16.4453 24.6484 14.7656 26.7187C13.0859 28.789 13.125 29.1797 13.125 29.1797L14.3359 29.7265C14.3359 29.7265 16.0546 26.4844 18.164 25.2734C20.2734 24.0625 20.5468 23.0469 20.5468 23.0469L19.5312 22.5391Z" fill="#EFCCA3"/>
<path d="M12.7734 16.2891C12.7734 16.2891 11.7188 19.1797 9.375 20.3906C9.375 20.3906 13.0469 19.9609 12.7734 16.2891ZM37.4219 16.2891C37.4219 16.2891 38.4766 19.1797 40.8203 20.3906C40.8203 20.3906 37.1484 19.9609 37.4219 16.2891ZM30.7422 21.6797C30.7422 21.6797 28.4375 19.2578 25.3516 19.1797H25.3906H25.4297C22.3047 19.2578 20.0391 21.6797 20.0391 21.6797C22.7344 19.8047 25.0391 19.8438 25.4297 19.8438C25.3906 19.8438 28.0469 19.8047 30.7422 21.6797ZM28.0469 16.6016C28.0469 16.6016 26.875 14.9609 25.3125 14.9219H25.3906C24.2188 14.9609 22.6953 16.6016 22.6953 16.6016C24.0234 15.3125 25.3906 15.3516 25.3906 15.3516C25.3906 15.3516 26.6797 15.3125 28.0469 16.6016ZM14.5313 28.5938C14.5313 28.5938 12.6953 29.4922 11.3672 28.9453H11.3281C10.1562 28.2812 9.57031 26.2891 9.57031 26.2891C9.57031 26.2891 10.7422 29.8047 14.5313 28.5938ZM35.9375 28.5938C35.9375 28.5938 37.7734 29.4922 39.1016 28.9453C40.6641 28.2812 40.8984 26.2891 40.8984 26.2891C40.8984 26.2891 39.7266 29.8047 35.9375 28.5938Z" fill="#CCAC8D"/>
<path d="M16.6406 16.0938C17.6562 15.8984 19.3359 15.8594 20.6641 16.2891C22.3438 16.875 20.9766 19.0234 21.3281 19.1406C21.6797 19.2578 22.1484 17.6562 25.2734 17.8125C28.4375 17.9688 28.7891 19.375 29.2188 19.1406C29.6484 18.9063 28.7891 15.2344 33.5156 16.0938C33.5156 16.0938 28.5547 14.7656 28.7891 18.3594C28.7891 18.3594 25.9375 16.1719 21.9531 18.125C21.9922 18.125 23.0078 14.7656 16.6406 16.0938ZM33.9453 16.0938C34.0234 16.0938 34.0625 16.1328 34.1016 16.1328C34.1406 16.1328 34.0625 16.0938 33.9453 16.0938ZM15.2734 11.2891C15.2734 11.2891 11.0547 16.6016 10.4297 18.6328C9.80469 20.7031 9.33594 29.1797 8.78906 30.3906L6.83594 22.0313L10.4297 13.3203L15.2734 11.2891ZM35.1172 11.2891C35.1172 11.2891 39.3359 16.6016 39.9609 18.6328C40.5859 20.7031 41.0547 29.1797 41.6016 30.3906L43.5547 22.0313L39.9609 13.3203L35.1172 11.2891Z" fill="#CCAC8D"/>
<path d="M34.9222 11.2891C34.9222 11.2891 39.4534 15.0781 40.7815 19.4531C42.1096 23.8281 41.5628 29.1406 42.5784 29.8047C44.0237 30.7422 45.6643 25.1563 46.2112 24.5703C47.0706 23.6328 49.9221 21.25 50.1174 20.8203C50.3127 20.3906 44.3362 13.8672 41.719 12.5781C38.555 11.0938 34.6487 10.9766 34.9222 11.2891Z" fill="#56332B"/>
<path d="M38.7891 13.6328C38.7891 13.6328 44.1406 20.4687 44.0625 28.9843L46.2109 24.6093C46.1719 24.6093 44.2969 19.0234 38.7891 13.6328Z" fill="#442823"/>
<path d="M15.2735 11.2891C15.2735 11.2891 10.7422 15.0781 9.4141 19.4531C8.08597 23.8281 8.63285 29.1406 7.61722 29.8047C6.17191 30.7422 4.53129 25.1563 3.98441 24.5703C3.12504 23.6328 0.273473 21.25 0.0781604 20.8203C-0.117152 20.3906 5.85941 13.8672 8.4766 12.5781C11.6407 11.0938 15.5469 10.9766 15.2735 11.2891Z" fill="#56332B"/>
<path d="M11.4063 13.6328C11.4063 13.6328 6.0547 20.4687 6.13282 28.9843L4.02344 24.6093C4.02344 24.6093 5.89845 19.0234 11.4063 13.6328Z" fill="#442823"/>
<path d="M8.51562 29.1406C8.51562 29.1406 8.90625 31.25 9.53125 31.9141C10.1563 32.5781 9.72656 31.4063 9.72656 31.4063C9.72656 31.4063 9.0625 31.0547 9.17969 28.3594C9.29688 25.6641 8.51562 29.1406 8.51562 29.1406ZM41.8359 29.1406C41.8359 29.1406 41.4453 31.25 40.8203 31.9141C40.1953 32.5781 40.625 31.4063 40.625 31.4063C40.625 31.4063 41.2891 31.0547 41.1719 28.3594C41.0547 25.6641 41.8359 29.1406 41.8359 29.1406Z" fill="#CCAC8D"/>
<path d="M21.289 27.8517C21.4616 27.8517 21.6015 27.7117 21.6015 27.5391C21.6015 27.3665 21.4616 27.2266 21.289 27.2266C21.1165 27.2266 20.9766 27.3665 20.9766 27.5391C20.9766 27.7117 21.1165 27.8517 21.289 27.8517Z" fill="#442823"/>
<path d="M19.4922 29.7265C19.6648 29.7265 19.8047 29.5866 19.8047 29.414C19.8047 29.2415 19.6648 29.1016 19.4922 29.1016C19.3196 29.1016 19.1797 29.2415 19.1797 29.414C19.1797 29.5866 19.3196 29.7265 19.4922 29.7265Z" fill="#442823"/>
<path d="M18.9063 27.8517C19.0789 27.8517 19.2188 27.7117 19.2188 27.5391C19.2188 27.3665 19.0789 27.2266 18.9063 27.2266C18.7337 27.2266 18.5938 27.3665 18.5938 27.5391C18.5938 27.7117 18.7337 27.8517 18.9063 27.8517Z" fill="#442823"/>
<path d="M28.9063 27.8517C29.0789 27.8517 29.2189 27.7117 29.2189 27.5391C29.2189 27.3665 29.0789 27.2266 28.9063 27.2266C28.7337 27.2266 28.5938 27.3665 28.5938 27.5391C28.5938 27.7117 28.7337 27.8517 28.9063 27.8517Z" fill="#442823"/>
<path d="M30.7031 29.7265C30.8757 29.7265 31.0156 29.5866 31.0156 29.414C31.0156 29.2415 30.8757 29.1016 30.7031 29.1016C30.5305 29.1016 30.3906 29.2415 30.3906 29.414C30.3906 29.5866 30.5305 29.7265 30.7031 29.7265Z" fill="#442823"/>
<path d="M31.289 27.8517C31.4616 27.8517 31.6015 27.7117 31.6015 27.5391C31.6015 27.3665 31.4616 27.2266 31.289 27.2266C31.1165 27.2266 30.9766 27.3665 30.9766 27.5391C30.9766 27.7117 31.1165 27.8517 31.289 27.8517Z" fill="#442823"/>
</g>
<defs>
<clipPath id="clip0">
<rect width="50" height="50" fill="white"/>
</clipPath>
</defs>
</svg>
