<svg width="50" height="50" viewBox="0 0 50 50" fill="none" xmlns="http://www.w3.org/2000/svg">
<g clip-path="url(#clip0)">
<path d="M28.0527 1.40253C14.9914 -0.278823 3.04101 8.95361 1.37457 22.0141C-0.291875 35.0746 8.92611 47.0243 21.9874 48.6906C35.0487 50.372 46.9991 41.1395 48.6655 28.079C48.6655 28.064 48.6655 28.049 48.6655 28.049C50.332 14.9885 41.099 3.06887 28.0527 1.40253Z" fill="white"/>
<path d="M39.3274 12.5715C39.1923 12.6315 39.1172 12.7967 39.1773 12.9318C39.1773 12.9468 39.1923 12.9468 39.1923 12.9618C39.3424 13.262 39.3124 13.6373 39.0872 13.8925C38.9821 13.9976 38.9671 14.1778 39.0722 14.2829C39.0722 14.2829 39.0722 14.2829 39.0872 14.2979C39.1473 14.3129 39.2223 14.3129 39.2824 14.2979C39.3574 14.2979 39.4475 14.2528 39.4926 14.1928C39.8679 13.7574 39.943 13.1419 39.6727 12.6315C39.5977 12.5264 39.4475 12.4964 39.3274 12.5715Z" fill="#FF6C37"/>
<path d="M28.2028 0.216554C14.511 -1.55487 1.99015 8.12793 0.233625 21.819C-1.5229 35.51 8.14547 48.0451 21.8373 49.8015C35.5292 51.5579 48.05 41.8901 49.8216 28.1991C51.5781 14.5081 41.9097 1.97297 28.2028 0.216554C28.2178 0.216554 28.2178 0.216554 28.2028 0.216554ZM33.3523 15.7991C32.8869 15.8141 32.4515 15.9943 32.1212 16.3245L22.8432 25.602L20.8615 23.6204C29.9894 14.5081 31.6558 14.418 33.3523 15.7991ZM23.2185 25.9323L32.4665 16.7449C32.977 16.2495 33.7877 16.2495 34.2981 16.7449C34.5533 17.0001 34.6885 17.3453 34.6734 17.6906C34.6584 18.0509 34.5083 18.3812 34.2381 18.6214L24.4646 27.2383L23.2185 25.9323ZM23.9091 27.3284L21.6121 27.9139C21.5671 27.9439 21.5221 27.9439 21.477 27.9139C21.447 27.8688 21.447 27.8088 21.477 27.7637L22.8732 26.3676L23.9091 27.3284ZM18.0541 26.3676L20.5012 23.9206L22.3478 25.8122L18.1591 26.7129C18.0691 26.7279 17.979 26.6679 17.964 26.5778C17.949 26.5177 17.964 26.4727 18.009 26.4277L18.0541 26.3676ZM10.4725 39.0828C10.4124 39.0678 10.3524 39.0228 10.3374 38.9778C10.3224 38.9177 10.3224 38.8577 10.3374 38.8126L12.3041 36.831L14.8563 39.3681L10.4725 39.0828ZM15.5169 36.4557C15.3217 36.5608 15.2166 36.771 15.2616 36.9812L15.682 38.7826C15.712 38.9027 15.652 39.0228 15.5619 39.0828C15.4718 39.1579 15.3367 39.1579 15.2616 39.0828L12.7094 36.4557L20.5462 28.6044L24.3445 27.7938L26.1611 29.6102C22.9183 32.3124 19.3452 34.6092 15.5319 36.4257V36.4557H15.5169ZM26.5364 29.31L24.7949 27.5686L34.5683 18.9667C34.6584 18.8916 34.7485 18.8015 34.8236 18.6964C34.5083 21.4887 30.5749 25.4519 26.5364 29.31ZM34.163 15.8441C32.7067 14.3279 32.7668 11.926 34.2831 10.4698C35.6643 9.14875 37.7961 9.05867 39.2824 10.2596L35.9195 13.6073C35.8294 13.7124 35.8294 13.8625 35.9195 13.9676L38.5318 16.5647C37.0605 17.2853 35.289 16.9851 34.148 15.8141L34.163 15.8441ZM39.5226 15.8441C39.3425 16.0093 39.1623 16.1744 38.9521 16.3095L36.445 13.8025L39.6427 10.6049C41.0239 12.0911 40.9789 14.403 39.5226 15.8441Z" fill="#FF6C37"/>
</g>
<defs>
<clipPath id="clip0">
<rect width="50" height="50" fill="white"/>
</clipPath>
</defs>
</svg>
