<svg width="76" height="50" viewBox="0 0 76 50" fill="none" xmlns="http://www.w3.org/2000/svg">
<path fill-rule="evenodd" clip-rule="evenodd" d="M32.0447 35.5085C32.2482 37.8508 32.2273 41.6624 31.9232 43.9465C31.7688 45.1057 31.4356 45.3442 30.7401 45.8601C28.4977 47.5232 20.9954 47.9161 20.0658 44.3915C19.7176 44.3811 20.0031 43.2383 19.6677 43.2718C18.8245 43.3561 17.2054 42.5763 16.4316 41.2956C16.4428 37.4386 16.8766 23.5073 9.97659 27.2532C8.37235 28.1239 7.5583 29.3144 6.83519 31.0991C6.32902 32.3448 6.24255 33.8804 6.19335 35.5279C6.1352 37.4512 6.6205 39.5549 6.68536 41.8607C6.71368 42.8954 6.88067 43.1578 6.11433 44.0344C4.87983 45.4486 2.71798 44.2521 1.54908 42.7023C1.01607 41.9956 0.830453 40.9534 0.766343 40.0984C0.0134204 30.1345 0.58743 19.759 3.47239 10.0709C4.45641 6.7648 4.80305 6.28173 7.94818 5.53254C11.3855 4.71252 15.4893 4.55747 18.8536 4.88845C21.6864 3.97153 28.4083 -1.01714 31.3044 2.93757C40.2649 1.33034 49.227 2.25994 57.1125 7.64818C60.8808 7.98289 64.8177 7.96351 68.586 7.84945C69.1347 7.50728 69.7489 7.14126 70.3103 6.82294C70.7471 6.57545 71.1109 6.34361 71.6439 6.25937C72.2671 6.16171 73.0707 6.13413 73.2474 6.89898C73.4032 7.57363 73.4636 8.43241 73.4069 9.30088C73.3518 10.1388 72.698 11.2764 71.6819 11.3494C70.6942 11.0915 69.573 10.9573 68.586 10.3401C65.0868 10.4295 62.9331 10.2499 59.4339 10.3401C59.9982 10.9409 59.9647 11.339 60.3829 12.1404C63.1158 17.3758 60.5461 26.261 58.2896 28.2402C58.0406 32.2501 58.3403 36.3092 58.3686 40.3332C58.3783 41.7272 58.4819 43.0452 57.1736 43.9621C55.2473 45.3137 51.8868 45.6193 49.4528 44.604C48.7081 44.2924 48.2019 43.614 47.657 43.1131C47.1389 43.0989 46.6953 43.2405 46.3099 43.1339C45.5332 42.9177 44.8913 42.4332 44.4522 41.7712C44.1801 41.3597 44.0474 40.8804 43.8208 40.3533C43.8208 38.4695 43.7537 37.7293 43.7537 35.8447C39.8505 36.3718 35.9479 36.5962 32.0447 35.5085Z" fill="#9777A8" stroke="#9777A8" stroke-width="0.216"/>
<path fill-rule="evenodd" clip-rule="evenodd" d="M44.6624 35.4072C45.5144 35.3177 46.3673 35.1716 47.2193 34.9025C47.7509 37.1322 47.6323 39.7883 47.5898 42.305C46.2323 42.3385 45.1671 41.7444 44.5274 40.5218C44.3821 38.8393 44.4492 37.0897 44.6624 35.4072Z" fill="#6978AB" stroke="#9777A8" stroke-width="0.216"/>
<path fill-rule="evenodd" clip-rule="evenodd" d="M11.9708 9.7653C10.9882 9.38735 10.0892 9.2718 9.10816 9.36797C8.90241 9.38809 8.81594 9.39928 8.68846 9.62664C8.61764 9.75412 8.59006 9.90396 8.63628 10.0404C8.71604 10.2745 8.73543 10.2625 8.93819 10.3013C9.19911 10.3505 9.46822 10.2968 9.73211 10.2379C10.4001 9.8473 11.068 9.93154 11.7352 10.1365C12.0438 10.1254 12.0662 10.0016 11.9708 9.7653Z" fill="#9777A8" stroke="#9777A8" stroke-width="0.216"/>
<path fill-rule="evenodd" clip-rule="evenodd" d="M9.76572 13.1728C9.98563 12.7382 10.3718 12.3819 11.1292 12.3297C11.1806 11.9801 11.1366 11.7773 10.6923 11.79C10.0222 12.1858 9.47797 12.5884 9.14101 13.1669C8.87637 13.6216 8.88457 14.2836 8.93228 14.7875C8.96807 15.1737 9.17903 15.4853 9.47275 15.7313C10.0624 16.2278 10.919 15.9892 11.4974 15.6463C12.4561 15.0797 13.4178 13.4822 11.7323 12.8672C11.2007 12.6726 10.3613 12.9022 9.76422 13.2817C9.73217 13.3025 9.72993 13.2466 9.76572 13.1728Z" fill="#9777A8" stroke="#9777A8" stroke-width="0.216"/>
<path fill-rule="evenodd" clip-rule="evenodd" d="M10.5313 15.029C10.5335 15.1215 10.5559 15.2162 10.5842 15.319C10.6036 15.3899 10.6439 15.4346 10.6372 15.4383C10.4761 15.5337 10.2801 15.5755 10.1071 15.4957C9.52119 15.2281 9.54952 14.3947 9.8656 13.9414C10.1943 13.4673 10.8079 13.1326 11.2812 13.1564C11.5921 13.3249 11.6868 13.4725 11.5332 13.5105C11.402 13.5433 11.3386 13.559 11.2529 13.603C11.1664 13.6462 11.0554 13.7185 10.995 13.8989C11.1292 13.9437 11.1963 13.9041 11.3304 13.9489C11.3304 14.0726 11.3304 14.2471 11.3304 14.3708C11.203 14.3141 11.0576 14.2724 10.9011 14.3223C10.6416 14.4043 10.5246 14.7845 10.5313 15.029Z" fill="white"/>
<path fill-rule="evenodd" clip-rule="evenodd" d="M11.6539 26.0195C15.1271 24.9617 16.788 22.2422 16.1625 18.9539C15.7361 18.9032 15.2985 18.9032 14.7834 18.5834C14.761 18.4038 14.7379 18.2249 14.7156 18.0452C15.8241 18.5805 17.4022 18.7512 17.2054 17.0358C17.3627 16.9911 17.5871 16.9799 17.7444 16.9345C17.69 18.1287 17.4671 18.2398 16.735 18.7519C17.1033 21.2336 16.5457 23.5274 14.3123 25.9188C14.1997 26.2327 14.3443 26.715 14.4129 27.0288C13.6048 26.1298 12.6409 26.0187 11.6539 26.0195Z" fill="#9777A8" stroke="#9777A8" stroke-width="0.216"/>
<path fill-rule="evenodd" clip-rule="evenodd" d="M54.3192 44.2178C54.2454 43.1973 54.1313 42.3132 54.1008 41.2904C54.0307 38.9578 52.261 38.4494 52.1655 40.7864C52.1163 42.0083 52.1655 43.1667 52.1655 44.3185C52.8834 44.3632 53.5678 44.4422 54.3192 44.2178Z" fill="#8093D0" stroke="#9777A8" stroke-width="2.8346"/>
<path fill-rule="evenodd" clip-rule="evenodd" d="M52.2 44.3185C52.0538 43.0795 51.8876 42.0195 51.9763 40.7715C52.1284 38.6164 50.085 36.3442 49.9479 40.3489C49.9061 41.5774 49.9337 42.6449 50.0791 43.8473C50.7083 44.0553 51.4821 44.2007 52.2 44.3185Z" fill="#8093D0" stroke="#9777A8" stroke-width="2.8346"/>
<path fill-rule="evenodd" clip-rule="evenodd" d="M50.079 44.0494L49.7845 39.4729C49.578 36.0505 48.2064 36.4486 48.0908 39.2717C48.0349 40.6061 48.1453 41.3351 48.0275 42.6703C48.6663 43.1071 49.3507 43.9711 50.079 44.0494Z" fill="#8093D0" stroke="#9777A8" stroke-width="2.8346"/>
<path fill-rule="evenodd" clip-rule="evenodd" d="M26.5939 46.405C26.6498 45.1482 26.5491 44.3744 26.4254 43.2084C25.8424 40.7409 25.1245 40.4271 24.2717 42.2662C24.2717 43.7914 24.2717 44.8455 24.2717 46.3715C25.0455 46.4386 25.8201 46.5168 26.5939 46.405Z" fill="#8093D0" stroke="#9777A8" stroke-width="2.8346"/>
<path fill-rule="evenodd" clip-rule="evenodd" d="M22.3536 45.7319C22.3648 44.15 22.3753 43.1071 22.3879 41.5259C22.9709 39.2038 23.5538 39.4394 24.1375 42.2326C24.1487 43.7355 24.1599 44.7001 24.1711 46.203C23.565 46.1314 22.9597 46.0778 22.3536 45.7319Z" fill="#8093D0" stroke="#9777A8" stroke-width="2.8346"/>
<path fill-rule="evenodd" clip-rule="evenodd" d="M20.2342 42.6359C20.3125 41.3127 20.5928 39.9895 20.6718 38.6656C20.1329 36.0527 19.5499 35.5928 18.9215 37.2865C18.8991 38.9802 18.8767 40.6731 18.8536 42.3668C19.3479 42.592 19.6505 42.7716 20.2342 42.6359Z" fill="#8093D0" stroke="#9777A8" stroke-width="2.8346"/>
<path fill-rule="evenodd" clip-rule="evenodd" d="M45.8739 42.1991C45.9872 40.7984 45.8374 39.628 45.8687 38.2571C45.9067 36.588 47.5564 37.0733 47.6317 38.6052C47.7077 40.1416 47.783 40.9199 47.8591 42.4347C47.1233 42.4615 46.518 42.5375 45.8739 42.1991Z" fill="#8093D0" stroke="#9777A8" stroke-width="2.8346"/>
<path fill-rule="evenodd" clip-rule="evenodd" d="M45.7725 42.2662C45.7277 41.2345 45.7501 40.0007 45.7054 38.9683C45.806 37.5511 44.8227 35.4653 44.444 37.7912C44.2793 38.8005 44.2979 39.3611 44.2249 40.3817C44.5954 40.8528 45.2342 41.8622 45.7725 42.2662Z" fill="#B9C5EA" stroke="#9777A8" stroke-width="2.8346"/>
<path fill-rule="evenodd" clip-rule="evenodd" d="M33.5251 23.3276C34.2206 19.9857 34.9147 16.643 35.6109 13.3011C35.722 12.5146 35.9233 11.8183 36.7552 11.7527C37.0914 11.7527 37.4276 11.7527 37.7646 11.7527C38.3699 11.7527 38.7069 12.112 38.774 12.8299C38.7069 13.3234 38.6398 13.8169 38.5719 14.3104C38.5943 14.9157 38.976 15.2527 39.7162 15.3198C40.7256 15.3645 41.735 15.4092 42.7443 15.454C44.2584 15.5442 45.2677 16.1942 45.1671 18.0788C44.8533 19.7389 44.5387 21.3991 44.2248 23.0585C44.0675 24.0231 43.6419 24.5621 42.9463 24.8081C42.4976 24.7857 41.9817 24.8305 41.5329 24.8081C40.7472 24.8536 40.2977 24.5621 40.5907 23.5296C40.8829 22.2288 41.2415 20.591 41.5329 19.2901C41.647 17.7388 41.0633 17.6509 40.4565 17.5405C39.9406 17.4734 39.4248 17.5405 38.9089 17.4734C38.1448 17.5838 37.8533 18.3248 37.6297 19.1552C37.2927 20.5463 36.9573 21.9373 36.6203 23.3276C36.4638 24.0902 36.3065 24.5837 35.7459 24.8081C35.1845 24.8081 34.6239 24.8081 34.0634 24.8081C33.4349 24.6739 33.256 24.1804 33.5251 23.3276Z" fill="#9777A8" stroke="white" stroke-width="2.8346"/>
<path fill-rule="evenodd" clip-rule="evenodd" d="M20.5443 27.2003C21.2376 23.6437 21.9301 20.087 22.6219 16.5312C22.5556 15.8356 23.1833 15.2974 23.8341 15.3198C25.943 15.3198 28.0519 15.3198 30.1601 15.3198C31.5057 15.3869 32.5993 15.9273 33.1382 16.9978C33.584 17.8842 33.7175 18.4992 33.6496 19.5175C33.5408 21.1493 32.7215 22.4986 31.7755 23.4625C30.6983 24.2698 29.756 24.7186 28.6796 24.8081C27.6031 24.8304 26.5259 24.8535 25.4495 24.8759C24.827 24.8252 24.209 24.99 24.0637 25.4812C23.8654 26.1514 23.7334 26.8208 23.5351 27.491C23.4539 27.7661 23.1818 27.9532 22.8247 28.106C22.2022 28.1142 21.5798 28.1232 20.9573 28.1321C20.2953 28.1411 20.4392 27.7422 20.5443 27.2003ZM24.9552 21.0942C25.1282 20.1541 25.3488 19.1052 25.5158 18.2808C25.7626 17.7865 26.1219 17.4272 26.728 17.4734C27.4429 17.4585 28.0288 17.4816 28.6542 17.7202C29.8731 18.1861 30.1996 19.4974 29.689 20.6357C29.0382 21.6682 28.4105 22.2064 27.4004 22.5202C26.9017 22.6268 26.4544 22.6984 26.0213 22.6552C24.8322 22.5351 24.7495 22.2168 24.9552 21.0942Z" fill="#9777A8" stroke="white" stroke-width="2.8346"/>
<path fill-rule="evenodd" clip-rule="evenodd" d="M44.5685 27.2003C45.2618 23.6437 45.9551 20.087 46.6476 16.5312C46.5798 15.8356 47.2082 15.2974 47.859 15.3198C49.9672 15.3198 52.0761 15.3198 54.185 15.3198C55.5306 15.3869 56.6227 15.9273 57.1624 16.9978C57.609 17.8842 57.7417 18.4992 57.6738 19.5175C57.5657 21.1493 56.7465 22.4986 55.7997 23.4625C54.7225 24.2698 53.781 24.7186 52.7045 24.8081C51.6273 24.8304 50.5509 24.8535 49.4744 24.8759C48.8512 24.8252 48.234 24.99 48.0879 25.4812C47.8896 26.1514 47.7584 26.8208 47.5601 27.491C47.4781 27.7661 47.2067 27.9532 46.8496 28.106C46.2272 28.1142 45.6047 28.1232 44.9815 28.1321C44.3203 28.1411 44.4634 27.7422 44.5685 27.2003ZM48.9802 21.0942C49.1524 20.1541 49.373 19.1052 49.5415 18.2808C49.7875 17.7865 50.1461 17.4265 50.7529 17.4734C51.4678 17.4585 52.0545 17.4816 52.6792 17.7202C53.898 18.1861 54.2238 19.4974 53.7139 20.6357C53.0631 21.6682 52.4347 22.2064 51.4253 22.5202C50.9266 22.6268 50.4793 22.6984 50.0462 22.6552C48.8579 22.5351 48.7737 22.2168 48.9802 21.0942Z" fill="#9777A8" stroke="white" stroke-width="2.8346"/>
<path fill-rule="evenodd" clip-rule="evenodd" d="M3.84738 43.3822C3.49403 43.0541 3.23983 42.6837 3.03706 42.3184C2.64122 41.6027 2.61214 41.1465 2.56518 40.3377C1.86891 28.396 2.4787 17.958 6.28804 9.42238C6.75694 8.37351 6.8382 8.06042 7.80358 7.58481C10.1115 6.44946 13.6413 6.29068 17.1048 6.50388C17.1942 6.23477 17.3963 5.96565 17.3068 5.69654C14.5247 5.41848 11.6092 5.73828 8.8271 6.36895C6.94107 6.67086 5.10051 7.0026 4.65547 10.0031C0.84762 20.0692 1.12792 29.6104 1.52078 38.9764C1.55358 39.7502 1.59383 40.2273 1.82642 40.9743C2.5607 43.3352 3.28232 43.2606 3.84738 43.3822Z" fill="#EBEFFF"/>
<path fill-rule="evenodd" clip-rule="evenodd" d="M18.4511 41.9017C18.4511 39.4118 18.2483 36.9219 18.2483 34.4313C17.8994 32.8636 18.0224 31.5136 17.3232 30.2627C16.6142 28.9924 16.0775 28.3446 15.4222 27.5C17.3962 30.5735 18.0247 34.9927 17.3068 40.7574C17.7108 41.139 18.047 41.52 18.4511 41.9017Z" fill="#EBEFFF"/>
<path d="M16.8014 40.7521C16.9028 38.8564 16.735 37.3647 16.8357 35.469C17.52 35.5726 18.2603 35.8917 18.5853 36.983C18.5629 38.8452 18.5406 40.3034 18.5182 42.1648C17.9002 41.93 17.4186 41.5259 16.8014 40.7521Z" stroke="#9777A8" stroke-width="2.8346"/>
<path fill-rule="evenodd" clip-rule="evenodd" d="M22.2194 45.4009C21.6812 45.1989 21.2324 44.8179 20.8724 44.2566C20.7837 39.8151 20.6942 35.3736 20.604 30.9321C20.8284 31.1565 21.0528 31.3809 21.2772 31.6053C21.4345 32.5475 21.5008 33.4898 21.4792 34.4313C21.5463 34.611 21.6134 34.7906 21.6812 34.9703C21.5925 38.4472 21.9354 41.924 22.2194 45.4009Z" fill="#EBEFFF"/>
<path d="M20.5704 44.6554C20.5816 43.1518 20.5928 41.6489 20.604 40.1461C21.3226 38.8609 21.9958 38.1497 22.3536 41.4589C22.3424 43.0288 22.3312 44.5988 22.3193 46.1695C21.6022 45.9339 21.0192 45.4292 20.5704 44.6554Z" stroke="#9777A8" stroke-width="2.8346"/>
<path fill-rule="evenodd" clip-rule="evenodd" d="M17.5416 30.3268C17.587 30.1024 17.4864 29.878 17.4409 29.6536C17.5535 29.676 17.6653 29.6984 17.7779 29.7207C18.3608 30.1919 18.9438 30.663 19.5275 31.1341C19.7966 30.9992 19.9763 30.8203 20.0657 30.5959C20.2677 30.5959 20.5257 30.6854 20.6375 30.865C20.6598 31.9862 20.5816 33.1081 20.6039 34.2301C20.806 34.4313 20.9178 34.6334 20.9409 34.8354C21.658 34.8294 22.3752 34.9532 23.0938 35.0374C23.1385 35.2171 23.184 35.3289 23.2287 35.5085C22.3536 35.4407 21.5007 35.396 20.806 35.5085C20.806 35.6651 20.806 35.8559 20.806 36.0132C21.254 35.9454 21.8824 36.0356 22.6905 36.1474C22.7129 36.3047 22.7352 36.3606 22.7568 36.5179C22.0844 36.4501 21.412 36.4389 20.7389 36.5515C20.8209 39.3328 20.8514 42.0806 20.7389 44.8627C20.5145 44.3468 20.0881 43.8309 19.8637 43.3143C20.3542 39.7704 20.2633 36.1586 20.0322 32.6146C19.4641 31.65 18.5017 30.9321 17.5416 30.3268Z" fill="#9777A8" stroke="#9777A8" stroke-width="0.216"/>
<path fill-rule="evenodd" clip-rule="evenodd" d="M19.1913 5.83072C20.9029 5.30442 20.882 5.70921 22.7091 4.62008C24.6869 3.44224 27.217 2.76909 29.689 2.60061C28.8369 2.15184 27.6702 2.06238 26.4588 2.3315C23.0267 3.34086 20.8283 4.46279 19.1913 5.83072Z" fill="#EBEFFF"/>
<path fill-rule="evenodd" clip-rule="evenodd" d="M32.65 4.35023C38.6167 2.64535 44.5842 2.91521 50.5509 5.15832C45.7516 3.01361 40.391 2.13769 32.7171 3.94694C32.7171 4.21605 32.65 4.08112 32.65 4.35023Z" fill="#EBEFFF"/>
</svg>
