<svg width="50" height="50" viewBox="0 0 50 50" fill="none" xmlns="http://www.w3.org/2000/svg">
<path d="M32.5471 29.9919C33.4072 29.404 34.6002 28.8952 34.6002 28.8952C34.6002 28.8952 31.2048 29.5095 27.827 29.7902C23.6947 30.1323 19.2552 30.2024 17.0267 29.9042C11.7537 29.2023 19.9219 27.2632 19.9219 27.2632C19.9219 27.2632 16.7546 27.0528 12.8503 28.9302C8.24428 31.1588 24.2561 32.1765 32.5471 29.9919Z" fill="#5382A1"/>
<path d="M25.0546 27.1755C23.3876 23.4292 17.7637 20.139 25.0546 14.3835C34.153 7.20674 29.4853 2.53906 29.4853 2.53906C31.3716 9.95283 22.8525 12.1989 19.7728 16.8051C17.6758 19.9548 20.7994 23.3327 25.0546 27.1755Z" fill="#F8981D"/>
<path d="M35.1092 11.7163C35.118 11.7163 19.7378 15.5592 27.0813 24.0169C29.2484 26.5087 26.511 28.7548 26.511 28.7548C26.511 28.7548 32.0122 25.9122 29.4853 22.3588C27.1252 19.0423 25.3178 17.3929 35.1092 11.7163Z" fill="#F8981D"/>
<path d="M34.5742 35.4491C34.5303 35.5544 34.3987 35.6686 34.3987 35.6773C45.6551 32.7205 41.514 25.2452 36.1357 27.1405C35.6619 27.3072 35.4165 27.6933 35.4165 27.6933C35.4165 27.6933 35.7146 27.5703 36.3816 27.43C39.1012 26.8598 43.0056 31.0711 34.5742 35.4491Z" fill="#5382A1"/>
<path d="M38.7151 40.9151C38.7151 40.9151 39.9873 41.9593 37.3201 42.7752C32.2402 44.3105 16.1933 44.7755 11.7362 42.8367C10.1307 42.1435 13.1399 41.1695 14.0876 40.9679C15.0701 40.7572 15.6404 40.7922 15.6404 40.7922C13.8594 39.5376 4.12061 43.2577 10.6921 44.3194C28.6079 47.2321 43.3653 43.012 38.7151 40.9151Z" fill="#5382A1"/>
<path d="M19.0973 37.2828C12.1924 39.2131 23.3 43.1964 32.091 39.4323C30.6523 38.871 29.617 38.2217 29.617 38.2217C25.6951 38.9675 23.8791 39.02 20.3169 38.6165C17.3777 38.2831 19.0973 37.2828 19.0973 37.2828Z" fill="#5382A1"/>
<path d="M34.8723 45.8108C27.9675 47.1093 19.4483 46.9603 14.4033 46.1266C14.4033 46.118 15.4387 46.9777 20.7555 47.3199C28.8447 47.8377 41.2683 47.0303 41.5578 43.2051C41.5579 43.2051 40.9964 44.6528 34.8723 45.8108Z" fill="#5382A1"/>
<path d="M31.047 33.5101C25.8528 34.5104 22.8435 34.4841 19.0446 34.0893C16.1054 33.7821 18.0269 32.3609 18.0269 32.3609C10.4114 34.8877 22.2558 37.748 32.898 34.6333C31.7664 34.2384 31.047 33.5101 31.047 33.5101Z" fill="#5382A1"/>
</svg>
