<svg width="50" height="50" viewBox="0 0 50 50" fill="none" xmlns="http://www.w3.org/2000/svg">
<path d="M33.0223 0H7.10984C6.38841 0 5.80359 0.584821 5.80359 1.71964V49.1071C5.80359 49.4152 6.38841 50 7.10984 50H42.8902C43.6116 50 44.1964 49.4152 44.1964 49.1071V11.5875C44.1964 10.9661 44.1134 10.7661 43.967 10.6187L33.5777 0.229464C33.4304 0.0830357 33.2304 0 33.0223 0Z" fill="#E9E9E0"/>
<path d="M33.4822 0.134827V10.7143H44.0616L33.4822 0.134827Z" fill="#D9D7CA"/>
<path d="M42.8902 50H7.10984C6.38841 50 5.80359 49.4152 5.80359 48.6937V34.8214H44.1964V48.6937C44.1964 49.4152 43.6116 50 42.8902 50Z" fill="#9777A8"/>
<path d="M15.1974 38.142V45.1491C15.1974 45.5723 15.1197 45.9286 14.9652 46.217C14.8108 46.5054 14.6036 46.7375 14.3429 46.9125C14.0822 47.0875 13.7831 47.2098 13.4456 47.2786C13.1081 47.3473 12.7599 47.3821 12.4018 47.3821C12.2233 47.3821 12.0126 47.3634 11.7733 47.3268C11.534 47.2902 11.2849 47.2339 11.0286 47.1562C10.7724 47.0786 10.5259 46.9911 10.2902 46.8937C10.0545 46.7964 9.85541 46.6866 9.69202 46.5643L10.3143 45.5759C10.3956 45.6321 10.5117 45.692 10.6626 45.7527C10.8134 45.8134 10.9786 45.8705 11.1572 45.9232C11.3358 45.9759 11.5233 46.0223 11.7188 46.0634C11.9143 46.1045 12.0974 46.1241 12.2679 46.1241C12.6992 46.1241 13.0429 46.0402 13.2992 45.8741C13.5554 45.708 13.6911 45.4241 13.7081 45.0259V38.1411H15.1974V38.142Z" fill="white"/>
<path d="M22.4858 44.8554C22.4858 45.1804 22.4188 45.4964 22.284 45.8018C22.1492 46.1071 21.9608 46.3759 21.7161 46.6071C21.4715 46.8384 21.1715 47.0241 20.8126 47.1625C20.4536 47.3009 20.0483 47.3696 19.592 47.3696C19.3965 47.3696 19.1956 47.3589 18.9876 47.3393C18.7795 47.3196 18.5706 47.2839 18.359 47.2357C18.1474 47.1866 17.9456 47.1196 17.7545 47.0339C17.5635 46.9482 17.3992 46.8446 17.2599 46.7223L17.5161 45.6723C17.6304 45.7375 17.7742 45.8009 17.9492 45.8616C18.1242 45.9223 18.3045 45.9795 18.492 46.0321C18.6795 46.0848 18.8661 46.1277 19.0536 46.1607C19.2411 46.1938 19.4152 46.2098 19.5786 46.2098C20.0751 46.2098 20.4554 46.0938 20.7197 45.8616C20.984 45.6295 21.1161 45.2857 21.1161 44.8304C21.1161 44.5536 21.0233 44.3179 20.8358 44.1223C20.6483 43.9268 20.4144 43.75 20.134 43.5911C19.8536 43.4321 19.5501 43.2741 19.2242 43.1152C18.8983 42.9563 18.5938 42.7688 18.309 42.5536C18.0242 42.3384 17.7885 42.0839 17.601 41.7911C17.4135 41.4982 17.3206 41.1321 17.3206 40.6929C17.3206 40.2946 17.3938 39.9402 17.5402 39.6313C17.6867 39.3223 17.884 39.0589 18.1322 38.8438C18.3804 38.6286 18.6697 38.4634 18.9992 38.3491C19.3286 38.2348 19.6769 38.1786 20.0429 38.1786C20.417 38.1786 20.7956 38.2134 21.1777 38.2821C21.5599 38.3509 21.8688 38.4634 22.1054 38.6179C22.0563 38.7232 22.0001 38.8393 21.9349 38.9661C21.8697 39.0929 21.8081 39.2098 21.7519 39.3196C21.6956 39.4295 21.6465 39.5214 21.6054 39.5946C21.5644 39.6679 21.5402 39.7089 21.5322 39.717C21.4831 39.6929 21.4286 39.6607 21.367 39.6196C21.3054 39.5786 21.2188 39.5384 21.1045 39.4973C20.9902 39.4563 20.8402 39.4286 20.6527 39.4116C20.4652 39.3946 20.2251 39.3991 19.9322 39.4241C19.7688 39.4411 19.6152 39.4866 19.4679 39.5643C19.3206 39.642 19.1911 39.7366 19.0769 39.8509C18.9626 39.9652 18.8733 40.0929 18.8081 40.2357C18.7429 40.3786 18.7108 40.5152 18.7108 40.6446C18.7108 40.9696 18.8036 41.2321 18.9911 41.4321C19.1786 41.6321 19.4108 41.8063 19.6867 41.9571C19.9626 42.108 20.2644 42.2545 20.5902 42.3964C20.9161 42.5384 21.2188 42.7125 21.5001 42.9152C21.7813 43.1179 22.0144 43.3732 22.2019 43.6777C22.3894 43.9821 22.4858 44.375 22.4858 44.8554Z" fill="white"/>
<path d="M31.3233 42.7804C31.3233 43.5375 31.2277 44.2045 31.0366 44.7821C30.8456 45.3598 30.5804 45.8402 30.2429 46.2223C29.9054 46.6045 29.5108 46.8938 29.059 47.0893C28.6072 47.2848 28.1125 47.3821 27.5759 47.3821C27.0393 47.3821 26.5447 47.2848 26.0929 47.0893C25.6411 46.8938 25.2465 46.6054 24.909 46.2223C24.5715 45.8393 24.3063 45.3598 24.1152 44.7821C23.9241 44.2045 23.8286 43.5366 23.8286 42.7804C23.8286 42.0241 23.9241 41.358 24.1152 40.7848C24.3063 40.2116 24.5715 39.733 24.909 39.3509C25.2465 38.9688 25.6411 38.6777 26.0929 38.4777C26.5447 38.2777 27.0393 38.1786 27.5759 38.1786C28.1125 38.1786 28.6072 38.2777 29.059 38.4777C29.5108 38.6777 29.9054 38.9679 30.2429 39.3509C30.5804 39.7339 30.8456 40.2116 31.0366 40.7848C31.2277 41.358 31.3233 42.0232 31.3233 42.7804ZM27.5393 46.1866C27.8402 46.1866 28.1268 46.1277 28.4 46.0098C28.6733 45.892 28.917 45.6982 29.1322 45.4304C29.3474 45.1625 29.517 44.8098 29.6384 44.3741C29.7599 43.9384 29.8259 43.408 29.834 42.7813C29.8259 42.1705 29.7625 41.6518 29.6447 41.225C29.5268 40.7982 29.3643 40.4455 29.1563 40.1688C28.9483 39.892 28.7125 39.6929 28.4483 39.5705C28.184 39.4482 27.9054 39.3875 27.6116 39.3875C27.3108 39.3875 27.0241 39.4438 26.7509 39.558C26.4777 39.6723 26.234 39.8652 26.0188 40.1375C25.8036 40.4098 25.634 40.7616 25.5125 41.1938C25.3902 41.625 25.325 42.1536 25.317 42.7804C25.325 43.3911 25.3884 43.9116 25.5063 44.3429C25.6241 44.7741 25.7866 45.1259 25.9947 45.3991C26.2027 45.6723 26.4384 45.8705 26.7027 45.9973C26.967 46.1241 27.2465 46.1866 27.5393 46.1866Z" fill="white"/>
<path d="M39.893 38.325V47.3214H38.4037L34.876 41.1205V47.3214H33.3867V38.325H34.876L38.4037 44.5259V38.325H39.893Z" fill="white"/>
<path d="M17.4107 16.9643V13.3929C17.4107 12.9009 17.8107 12.5 18.3036 12.5C18.7973 12.5 19.1964 12.1 19.1964 11.6071C19.1964 11.1143 18.7973 10.7143 18.3036 10.7143C16.8268 10.7143 15.625 11.9161 15.625 13.3929V16.9643C15.625 17.9491 14.8241 18.75 13.8393 18.75C13.3455 18.75 12.9464 19.15 12.9464 19.6429C12.9464 20.1357 13.3455 20.5357 13.8393 20.5357C14.8241 20.5357 15.625 21.3366 15.625 22.3214V25.8929C15.625 27.3696 16.8268 28.5714 18.3036 28.5714C18.7973 28.5714 19.1964 28.1714 19.1964 27.6786C19.1964 27.1857 18.7973 26.7857 18.3036 26.7857C17.8107 26.7857 17.4107 26.3848 17.4107 25.8929V22.3214C17.4107 21.25 16.9268 20.2982 16.1768 19.6429C16.9268 18.9875 17.4107 18.0357 17.4107 16.9643Z" fill="#9777A8"/>
<path d="M24.5535 17.8571C25.2932 17.8571 25.8928 17.2575 25.8928 16.5179C25.8928 15.7782 25.2932 15.1786 24.5535 15.1786C23.8139 15.1786 23.2142 15.7782 23.2142 16.5179C23.2142 17.2575 23.8139 17.8571 24.5535 17.8571Z" fill="#9777A8"/>
<path d="M35.2678 18.75C34.283 18.75 33.4821 17.9491 33.4821 16.9643V13.3929C33.4821 11.9161 32.2803 10.7143 30.8035 10.7143C30.3098 10.7143 29.9106 11.1143 29.9106 11.6071C29.9106 12.1 30.3098 12.5 30.8035 12.5C31.2964 12.5 31.6964 12.9009 31.6964 13.3929V16.9643C31.6964 18.0357 32.1803 18.9875 32.9303 19.6429C32.1803 20.2982 31.6964 21.25 31.6964 22.3214V25.8929C31.6964 26.3848 31.2964 26.7857 30.8035 26.7857C30.3098 26.7857 29.9106 27.1857 29.9106 27.6786C29.9106 28.1714 30.3098 28.5714 30.8035 28.5714C32.2803 28.5714 33.4821 27.3696 33.4821 25.8929V22.3214C33.4821 21.3366 34.283 20.5357 35.2678 20.5357C35.7615 20.5357 36.1606 20.1357 36.1606 19.6429C36.1606 19.15 35.7615 18.75 35.2678 18.75Z" fill="#9777A8"/>
<path d="M24.5535 21.4286C24.0598 21.4286 23.6606 21.8286 23.6606 22.3214V25C23.6606 25.4929 24.0598 25.8929 24.5535 25.8929C25.0473 25.8929 25.4464 25.4929 25.4464 25V22.3214C25.4464 21.8286 25.0473 21.4286 24.5535 21.4286Z" fill="#9777A8"/>
</svg>
