<svg width="55" height="50" viewBox="0 0 55 50" fill="none" xmlns="http://www.w3.org/2000/svg">
<g clip-path="url(#clip0)">
<path fill-rule="evenodd" clip-rule="evenodd" d="M11.4237 0.105942C8.28542 0.105942 5.96331 3.22723 6.06725 6.6123C6.16699 9.86442 6.03742 14.0763 5.10428 17.5111C4.16835 20.956 2.58547 23.1383 0 23.4184V26.5816C2.58547 26.8618 4.16835 29.044 5.10428 32.4889C6.03742 35.9237 6.16699 40.1356 6.06725 43.3877C5.96331 46.7723 8.28542 49.8941 11.4242 49.8941H43.5805C46.7188 49.8941 49.0404 46.7728 48.9365 43.3877C48.8367 40.1356 48.9663 35.9237 49.8994 32.4889C50.8358 29.044 52.4145 26.8618 55 26.5816V23.4184C52.4145 23.1383 50.8358 20.956 49.8994 17.5111C48.9663 14.0768 48.8367 9.86442 48.9365 6.6123C49.0404 3.22776 46.7188 0.105942 43.5805 0.105942H11.4232H11.4237ZM37.2881 30.7537C37.2881 35.4147 34.2286 38.2415 29.1514 38.2415H20.5085C20.2612 38.2415 20.0241 38.1299 19.8493 37.9313C19.6745 37.7326 19.5763 37.4632 19.5763 37.1822V12.8178C19.5763 12.5369 19.6745 12.2674 19.8493 12.0688C20.0241 11.8701 20.2612 11.7585 20.5085 11.7585H29.102C33.3356 11.7585 36.114 14.3644 36.114 18.3655C36.114 21.1737 34.245 23.688 31.8636 24.1282V24.2749C35.1054 24.679 37.2881 27.2299 37.2881 30.7537ZM28.2089 15.1165H23.2808V23.0265H27.4315C30.6401 23.0265 32.4094 21.5583 32.4094 18.9338C32.4094 16.4746 30.8881 15.1165 28.2089 15.1165ZM23.2808 26.1653V34.8824H28.3903C31.7308 34.8824 33.5006 33.3591 33.5006 30.4963C33.5006 27.633 31.6814 26.1647 28.1754 26.1647H23.2808V26.1653Z" fill="#700E9D"/>
</g>
<defs>
<clipPath id="clip0">
<rect width="55" height="50" fill="white"/>
</clipPath>
</defs>
</svg>
