<svg width="50" height="50" viewBox="0 0 50 50" fill="none" xmlns="http://www.w3.org/2000/svg">
<g clip-path="url(#clip0)">
<path d="M6.70211 48.9362C4.49466 48.2181 2.4202 46.383 1.27658 44.1755L0.664877 42.9521L0.425515 25.0266C0.159558 4.81384 0.186154 4.25533 1.7553 2.44682C3.56381 0.319161 2.60637 0.398948 25.133 0.398948C45.0532 0.398948 45.0798 0.398948 46.1436 0.984054C47.367 1.62235 48.1383 2.42022 48.8298 3.72342C49.3085 4.60108 49.3351 5.61171 49.3351 23.4043C49.3351 40.7979 49.3085 42.2341 48.8564 43.3511C48.1383 45.1862 47.101 46.4894 45.5319 47.6064C42.9787 49.4415 43.2713 49.4149 24.7074 49.3883C9.9202 49.3883 7.92552 49.3351 6.70211 48.9362V48.9362ZM42.7925 44.7607C44.1755 43.75 45.3457 42.1809 45.5585 41.0904C45.6383 40.6383 45.5053 39.8138 45.2659 39.1755C44.7872 38.0319 43.2979 36.1702 42.8191 36.1702C42.6862 36.1702 42.5532 36.0904 42.5532 35.9841C42.5532 35.8511 42.0213 35.5585 41.3564 35.2926C40.2925 34.8404 40.1596 34.7075 40.1862 33.9628C40.1862 33.4841 40.2659 33.2713 40.3457 33.4575C40.5851 34.0692 41.1968 33.7766 41.5159 32.8458C41.8351 31.9947 41.9415 31.9149 42.9521 31.9149C44.7606 31.9149 45.4255 31.4362 45.6117 30C45.7181 29.3085 45.7181 28.617 45.6117 28.4841C45.3191 28.0053 45.2127 24.7341 45.4787 24.7341C45.6383 24.7341 45.7447 23.4309 45.7447 21.5426C45.7447 18.9894 45.8244 18.3511 46.117 18.3511C46.3298 18.3511 46.5425 18.1649 46.6489 17.9521C46.7553 17.6862 46.6223 17.5532 46.2766 17.5532C45.7713 17.5532 45.7447 17.367 45.7447 14.2287C45.7447 11.0638 45.7713 10.9043 46.2766 10.9043C46.7819 10.9043 46.8085 10.7979 46.6489 9.92022C46.4627 8.8032 46.25 8.48405 46.0904 8.98937C46.0106 9.14895 45.851 9.30852 45.7181 9.30852C45.5585 9.30852 45.5319 8.37767 45.6383 6.91491L45.8245 4.52129H45.1064C44.734 4.52129 44.4149 4.38831 44.4149 4.22873C44.4149 4.04256 44.2021 3.75001 43.9627 3.53725C43.5106 3.1915 43.5372 3.16491 44.1223 3.29788C44.601 3.40427 44.6808 3.35108 44.4415 3.11171C43.883 2.5532 37.4202 2.36703 35.1862 2.87235C33.9627 3.13831 33.2447 3.43086 33.2447 3.64363C33.2447 3.8298 33.0053 3.98937 32.7127 3.98937C32.4202 3.98937 32.1808 3.88299 32.1808 3.72342C32.1808 3.24469 31.4096 3.45746 31.25 3.98937C31.117 4.36171 30.851 4.52129 30.2659 4.52129C29.601 4.52129 29.5213 4.4681 29.7606 4.14895C30.1862 3.64363 30 3.56384 27.5798 3.1915C25.3191 2.81916 21.0904 2.95214 19.867 3.43086C19.2819 3.67022 18.9362 3.61703 18.2713 3.27129C17.0745 2.63299 12.3138 2.50001 10.2393 3.05852C8.77658 3.43086 8.6436 3.43086 7.84573 2.92554C6.7819 2.26065 6.03722 2.26065 5.42552 2.87235C4.99998 3.29788 4.99998 3.32448 5.39892 3.40427C6.48934 3.61703 5.5053 4.78725 4.2553 4.78725C3.82977 4.78725 3.72339 4.65427 3.82977 4.38831C4.09573 3.64363 3.45743 3.98937 2.92552 4.86703C2.28722 5.90427 2.26062 6.54257 2.81913 7.87235C3.19147 8.75001 3.21807 9.14895 2.95211 10.5851C2.4202 13.5106 2.28722 16.3298 2.65956 17.0213C2.97871 17.6064 3.0319 17.6064 3.32445 17.2075C3.51062 16.9415 3.82977 16.8085 4.09573 16.9149C4.62764 17.1277 4.65424 17.8192 4.12232 17.8192C3.77658 17.8192 3.74998 17.9255 3.98935 18.3777C4.17552 18.6968 4.46807 18.8564 4.68083 18.7766C5.26594 18.5638 5.13296 19.6011 4.49466 20.2394C3.98935 20.7447 3.96275 20.9841 4.12232 22.6862C4.30849 24.4415 4.2819 24.5479 3.88296 24.2287C3.6436 24.016 3.37764 23.9096 3.32445 23.9894C3.24466 24.0692 3.13828 24.9468 3.05849 25.9575C3.0053 26.9681 3.0053 27.5798 3.08509 27.3404C3.16488 27.0745 3.40424 26.8617 3.617 26.8617C3.90956 26.8617 3.98935 27.4468 3.98935 29.9202C3.98935 32.4734 3.90956 32.9787 3.59041 32.9787C2.92552 32.9787 3.13828 33.4309 3.98935 33.7766C4.44147 33.9628 4.99998 34.4681 5.21275 34.8936C5.5319 35.5319 5.69147 35.6117 6.01062 35.3458C6.7553 34.7341 6.46275 36.5426 5.69147 37.2607C5.31913 37.6064 4.81381 38.3511 4.60105 38.9096C4.12232 40.1064 3.19147 40.3192 3.19147 39.2021C3.19147 38.3777 2.76594 38.4575 2.20743 39.3883C1.94147 39.8404 1.86169 40.3458 1.96807 40.7979C2.15424 41.5426 2.76594 41.7287 3.0319 41.0904C3.21807 40.5585 4.2553 40.5851 4.2553 41.117C4.2553 41.7021 5.02658 43.0053 5.98403 43.9894C7.68615 45.7447 7.15424 45.6915 25.2659 45.6649L41.6489 45.6117L42.7925 44.7607V44.7607ZM46.8085 4.41491C46.8085 4.20214 46.5159 3.98937 46.1702 3.93618C45.5319 3.8032 45.5319 3.8298 45.9308 4.41491C46.3298 5.0532 46.8085 5.0532 46.8085 4.41491Z" fill="black"/>
<path d="M27.3935 21.0106C26.835 20.4521 26.8084 20.266 26.9946 18.2447C27.101 17.0745 27.2606 16.0372 27.3935 15.9575C27.4999 15.8777 27.6329 15.5851 27.6861 15.2926C27.7659 14.867 28.0318 14.734 29.0159 14.6809C29.6808 14.6277 30.5318 14.7341 30.9308 14.867C31.5159 15.1064 31.6489 15.3192 31.6489 16.0904C31.6489 16.5957 31.7818 17.0213 31.9148 17.0213C32.0744 17.0213 32.1808 17.6862 32.1808 18.5106C32.1808 19.8138 32.0744 20.1064 31.4627 20.6915C30.3989 21.6755 28.218 21.8351 27.3935 21.0106Z" fill="black"/>
<path d="M18.2181 20.8244C17.8989 19.9734 17.7659 17.1808 18.0053 16.0904C18.2181 15.0797 18.2978 15 19.4681 14.7872C21.25 14.4414 22.0744 14.7074 22.0744 15.6914C22.0744 16.2234 22.2074 16.4893 22.4734 16.4893C22.7925 16.4893 22.8723 16.8883 22.8723 18.5106C22.8723 21.0904 22.6861 21.2766 20.2659 21.2766C18.75 21.2766 18.3776 21.1968 18.2181 20.8244Z" fill="black"/>
<path d="M18.8829 21.3031C18.8829 21.1701 18.6436 21.0106 18.351 20.9308C17.8723 20.7978 17.8191 20.5584 17.8191 18.1116C17.8191 15.6116 17.8457 15.4255 18.351 15.4255C18.6702 15.4255 18.8829 15.2393 18.8829 14.9999C18.8829 14.601 19.1223 14.5744 20.5053 14.734C21.4095 14.8138 22.3138 15.0265 22.5265 15.2127C23.0053 15.585 22.8989 18.1116 22.4202 18.2978C22.2074 18.351 22.0744 18.1648 22.0744 17.8723C22.0744 17.5265 21.9148 17.367 21.6223 17.3936C21.2499 17.4201 21.1702 17.234 21.2233 16.5957C21.3031 15.6116 20.9042 15.3457 19.7606 15.6648C19.1489 15.8244 19.0425 16.0106 19.0957 16.5691C19.1223 16.968 19.0425 17.2872 18.8829 17.2872C18.7499 17.2872 18.617 17.5797 18.617 17.9521C18.617 18.3244 18.7499 18.617 18.9095 18.617C19.0425 18.617 19.0957 18.7499 19.0159 18.9095C18.7499 19.335 19.1223 20.4787 19.4946 20.4787C19.7074 20.4787 19.8404 20.2127 19.8404 19.9201C19.8138 19.601 19.9733 19.2819 20.1595 19.2287C20.3457 19.1489 20.4787 19.2021 20.4521 19.335C20.3457 19.9733 20.5319 20.4787 20.9042 20.4787C21.3829 20.4787 22.0744 19.867 22.0744 19.4414C22.0744 19.2819 22.2074 19.1489 22.3404 19.1489C22.4999 19.1489 22.6063 19.5744 22.6063 20.0797C22.6063 20.718 22.4733 21.0106 22.2074 21.0106C21.9946 21.0106 21.8085 21.1436 21.8085 21.2765C21.8085 21.4361 21.1436 21.5425 20.3457 21.5425C19.5478 21.5425 18.8829 21.4361 18.8829 21.3031V21.3031Z" fill="#0F0C03"/>
<path d="M28.7234 21.1702C28.7234 20.9574 29.0159 20.7181 29.3883 20.6383C30.3723 20.3989 31.383 19.3085 31.383 18.5106C31.383 18.1117 31.2766 17.8457 31.1436 17.9521C30.984 18.0319 30.7447 17.8457 30.5851 17.5532C30.3989 17.2075 30.3989 17.0213 30.5851 17.0213C31.0372 17.0213 30.8776 16.0106 30.3989 15.7181C30 15.5053 30.1064 15.4521 30.9042 15.4255C32.1542 15.4255 32.2872 15.8511 32.0479 18.6436C31.8883 20.3723 31.7553 20.8245 31.3032 21.1436C30.5585 21.6489 28.7234 21.6755 28.7234 21.1702Z" fill="#0F0C03"/>
<path d="M26.8617 17.6063C26.8617 15.2659 27.0745 14.8936 28.3777 14.8936C29.2819 14.8936 29.5479 15.2393 28.8564 15.5319C28.6436 15.6116 28.4574 15.984 28.4574 16.3563C28.4574 16.7819 28.3511 16.9946 28.1649 16.8616C27.9787 16.7553 27.8989 16.9946 27.9255 17.5797C27.9787 18.7765 27.6862 19.6808 27.234 19.6808C26.9415 19.6808 26.8617 19.2021 26.8617 17.6063Z" fill="#0F0C03"/>
<path d="M4.89363 48.085C4.76065 47.8723 4.84044 47.8457 5.13299 47.9521C5.37236 48.0319 5.63831 48.0053 5.7181 47.8723C5.82448 47.7127 6.09044 47.6063 6.3298 47.6063C6.72874 47.6329 6.72874 47.6595 6.27661 48.0053C5.63831 48.484 5.15959 48.5106 4.89363 48.085Z" fill="#0C0E0C"/>
<path d="M48.0054 44.1489C47.899 43.9893 47.9256 43.7234 48.0851 43.5638C48.2447 43.4042 48.4043 43.4042 48.5373 43.617C48.6437 43.7766 48.6171 44.0425 48.4575 44.2021C48.2979 44.3617 48.1383 44.3617 48.0054 44.1489Z" fill="#0C0E0C"/>
<path d="M0.691503 42.3936C0.452141 41.7819 0.638311 41.6489 1.03725 42.1277C1.22342 42.3404 1.25001 42.5798 1.11703 42.6596C0.95746 42.7394 0.77129 42.633 0.691503 42.3936Z" fill="#0C0E0C"/>
<path d="M41.0372 34.6543C40.6915 34.6011 40.4255 34.3618 40.4255 34.149C40.4255 33.6703 40.6117 33.6969 41.7553 34.3086C42.6862 34.8139 42.4468 34.9203 41.0372 34.6543Z" fill="#0C0E0C"/>
<path d="M4.12232 34.3086C4.04253 34.1756 4.14891 34.0426 4.36168 34.0426C4.57444 34.0426 4.8404 34.1756 4.92019 34.3086C4.99998 34.4681 4.89359 34.5745 4.68083 34.5745C4.46806 34.5745 4.2021 34.4681 4.12232 34.3086V34.3086Z" fill="#0C0E0C"/>
<path d="M41.8085 33.8563C41.3298 33.7765 41.2234 33.617 41.383 33.2978C41.4894 33.0584 41.5958 32.4999 41.5958 32.101C41.6224 31.4361 41.7022 31.3563 42.4202 31.4361C43.0585 31.4893 43.2447 31.6489 43.2979 32.234C43.3777 32.8191 43.2979 32.9255 42.8458 32.7925C42.2075 32.6329 42.0745 33.1914 42.6064 33.7233C42.9256 34.0425 42.8724 34.0691 41.8085 33.8563V33.8563Z" fill="#0C0E0C"/>
<path d="M46.2766 32.7926C46.2766 32.1808 45.6649 31.9415 45.3723 32.4202C45.2925 32.5532 44.9734 32.7128 44.6808 32.7926C44.2553 32.8989 44.1489 32.7925 44.1489 32.2872C44.1489 31.9415 44.3085 31.6489 44.4947 31.6489C44.7074 31.6489 45 31.3564 45.1596 30.984C45.5053 30.266 46.7287 30 46.4627 30.7181C46.3564 30.9309 46.4096 31.1702 46.5425 31.25C46.8883 31.4628 46.8617 32.4734 46.5425 32.9787C46.3298 33.2979 46.2766 33.2713 46.2766 32.7926V32.7926Z" fill="#0C0E0C"/>
<path d="M42.8192 28.5904C42.8192 27.6861 42.8458 27.6595 43.9628 27.6329C44.5745 27.6329 44.9203 27.5532 44.7607 27.4734C44.5745 27.4202 44.415 27.0744 44.415 26.7021C44.415 26.2766 44.5213 26.117 44.7873 26.2234C45.3458 26.4361 45.6384 25.7712 45.133 25.3989C44.4681 24.9202 44.5745 24.734 45.6118 24.734C46.2501 24.734 46.5426 24.867 46.5426 25.1063C46.5426 25.3191 46.4096 25.5319 46.2235 25.5851C46.0107 25.6649 45.9841 25.8776 46.1437 26.2234C46.2501 26.4893 46.383 27.0744 46.4096 27.4734C46.4894 28.1915 46.4096 28.2446 45.7181 28.1383C45.0267 28.0319 44.9469 28.0851 44.9469 28.7766C44.9469 29.2553 44.8139 29.5212 44.5479 29.5212C44.3352 29.5212 44.149 29.3351 44.149 29.1223C44.149 28.9095 44.0426 28.7234 43.883 28.7234C43.7501 28.7234 43.6171 28.9095 43.6171 29.1223C43.6171 29.3351 43.4309 29.5212 43.2181 29.5212C42.9522 29.5212 42.8192 29.2287 42.8192 28.5904V28.5904Z" fill="#0C0E0C"/>
<path d="M3.08511 20.9574C2.84575 19.9733 2.89894 19.3616 3.24469 19.5744C3.40426 19.6808 3.67022 19.5744 3.82979 19.3616C3.98937 19.1489 4.33511 18.9095 4.60107 18.8031C4.94682 18.6701 5.0532 18.7765 5.0532 19.2818C5.0532 19.6808 4.89362 19.9467 4.68086 19.9467C4.4415 19.9467 4.25533 20.2659 4.20213 20.6648C4.09575 21.5957 3.32448 21.8084 3.08511 20.9574V20.9574Z" fill="#0C0E0C"/>
<path d="M44.4149 4.44145C43.5638 4.01592 43.3245 3.05847 44.0957 3.24464C44.4681 3.35102 44.6011 3.29783 44.5213 3.05847C44.4415 2.8723 44.4947 2.63294 44.6542 2.55315C44.9468 2.36698 45.3191 2.8723 45.3457 3.45741C45.3457 3.69677 45.5585 3.82975 45.8777 3.80315C46.1702 3.77656 46.2766 3.80315 46.0904 3.88294C45.9043 3.96273 45.8511 4.20209 45.9308 4.41485C46.117 4.89358 45.3191 4.89358 44.4149 4.44145V4.44145Z" fill="#0C0E0C"/>
<path d="M31.0639 4.33504L29.8405 4.22866L30.266 3.45738C31.0639 2.101 32.633 2.18078 33.2979 3.61695L33.7234 4.52121L33.0053 4.46802C32.633 4.44142 31.7553 4.38823 31.0639 4.33504Z" fill="#0C0E0C"/>
<path d="M0.797852 3.88297C0.797852 3.67021 0.93083 3.40425 1.06381 3.32446C1.22338 3.24468 1.32977 3.35106 1.32977 3.56383C1.32977 3.77659 1.22338 4.04255 1.06381 4.12234C0.93083 4.20212 0.797852 4.09574 0.797852 3.88297Z" fill="#0C0E0C"/>
<path d="M2.44681 1.70211C2.68617 1.46275 3.00532 1.35636 3.19149 1.46275C3.56383 1.70211 3.05851 2.12764 2.39362 2.12764C2.07447 2.12764 2.07447 2.04785 2.44681 1.70211Z" fill="#0C0E0C"/>
<path d="M5.47871 45.0798C5.05318 44.4149 5.05318 44.4149 5.85105 44.4149C6.51595 44.4149 6.64893 44.5213 6.64893 45.0798C6.64893 45.4787 6.48935 45.7447 6.27659 45.7447C6.09042 45.7447 5.71807 45.4522 5.47871 45.0798Z" fill="#181818"/>
<path d="M3.45747 41.9148C3.45747 41.702 3.35108 41.4893 3.2181 41.4361C2.89895 41.3297 3.29789 38.8829 3.67023 38.5105C3.8564 38.3244 4.04257 38.2712 4.14896 38.351C4.36172 38.5903 3.96278 42.2871 3.69683 42.2871C3.56385 42.2871 3.45747 42.1276 3.45747 41.9148Z" fill="#181818"/>
<path d="M5.93085 35.4255C6.32979 35.0265 6.64894 34.3882 6.67554 34.0159C6.67554 33.6701 6.75532 33.5372 6.83511 33.7233C6.8883 33.9095 7.42022 34.0425 8.00532 34.0425C8.85639 34.0425 9.04256 34.1223 9.04256 34.5744C9.04256 35.2127 7.28724 36.1702 6.09043 36.1702H5.21277L5.93085 35.4255V35.4255Z" fill="#181818"/>
<path d="M42.766 32.6862C41.9149 32.2075 42.2607 31.9149 43.7501 31.9149C45.2394 31.9149 45.6118 32.2075 44.7075 32.7128C44.0426 33.0585 43.3511 33.0319 42.766 32.6862V32.6862Z" fill="#181818"/>
<path d="M45.4788 27.8723C45.4788 26.8085 45.4788 26.7819 46.0107 27.2606C46.3032 27.5266 46.5426 28.0319 46.5426 28.3777C46.5426 28.8032 46.383 28.9894 46.0107 28.9894C45.5585 28.9894 45.4788 28.8032 45.4788 27.8723Z" fill="#181818"/>
<path d="M44.8936 25.3457C43.9362 25.1063 44.3617 24.468 45.4787 24.468C46.3564 24.468 46.5426 24.5478 46.5426 24.9999C46.5426 25.5318 46.0107 25.6382 44.8936 25.3457Z" fill="#181818"/>
<path d="M3.37771 20.2393C3.4575 19.9467 3.75005 19.5212 4.01601 19.2553C4.49473 18.8031 4.52133 18.8297 4.52133 19.7606C4.52133 20.6116 4.44154 20.7446 3.88303 20.7446C3.37771 20.7446 3.27133 20.6382 3.37771 20.2393Z" fill="#181818"/>
<path d="M45.4788 5.18612C45.4788 4.14889 45.6383 4.0425 46.1703 4.73399C46.7022 5.42548 46.6224 6.11697 46.0107 6.11697C45.5851 6.11697 45.4788 5.9308 45.4788 5.18612Z" fill="#181818"/>
<path d="M22.8724 3.85635C22.8724 3.03188 26.649 2.95209 26.8086 3.80316C26.8884 4.20209 26.649 4.25528 24.8937 4.25528C23.298 4.25528 22.8724 4.1755 22.8724 3.85635Z" fill="#181818"/>
<path d="M32.1809 3.88291C32.1809 3.69674 32.4203 3.45738 32.7394 3.37759C33.0586 3.2978 33.2181 3.2978 33.1384 3.37759C33.0586 3.48397 33.1118 3.69674 33.2713 3.9095C33.5107 4.17546 33.4309 4.25525 32.8724 4.25525C32.4735 4.25525 32.1809 4.09568 32.1809 3.88291Z" fill="#181818"/>
<path d="M7.10107 46.0639C4.57447 45.0532 2.84575 42.0213 3.29787 39.4947C3.56383 38.1649 4.25532 38.2447 4.25532 39.6277C4.25532 40.8511 4.81383 43.0851 5.10639 43.0851C5.21277 43.0851 5.31915 43.4575 5.31915 43.883C5.31915 44.6277 5.39894 44.6809 6.25 44.6809C6.8883 44.6809 7.18085 44.8139 7.18085 45.0798C7.18085 45.3724 7.5 45.4788 8.51064 45.4788C9.65426 45.4788 9.84043 45.5585 9.84043 46.0107C9.84043 46.4362 9.68085 46.5426 8.98936 46.516C8.51064 46.4894 7.65958 46.3032 7.10107 46.0639V46.0639Z" fill="#3E3262"/>
<path d="M39.8937 46.0372C39.8937 45.6117 40.1596 45.5053 41.6224 45.3457C43.4841 45.133 44.0692 45.3191 43.2181 45.8244C42.4469 46.2766 41.7288 46.4893 40.7713 46.5159C40.0798 46.5425 39.8937 46.4361 39.8937 46.0372Z" fill="#3E3262"/>
<path d="M44.6809 43.5639C44.6809 43.032 44.8139 42.5532 44.9735 42.5001C45.133 42.4469 45.3458 41.5426 45.4256 40.4788C45.5586 38.4309 46.0905 37.8458 46.4096 39.3618C46.7288 40.7713 46.3032 42.6862 45.4788 43.6437L44.7075 44.5479L44.6809 43.5639V43.5639Z" fill="#3E3262"/>
<path d="M3.90957 37.7925C3.98936 37.5 4.28191 37.0744 4.54787 36.8085C5.02659 36.3564 5.05319 36.383 5.05319 37.3138C5.05319 38.1649 4.9734 38.2978 4.41489 38.2978C3.90957 38.2978 3.80319 38.1915 3.90957 37.7925V37.7925Z" fill="#3E3262"/>
<path d="M43.0851 36.1702C43.0851 36.0372 42.8457 35.9043 42.5532 35.9043C42.2606 35.9043 42.0213 35.7181 42.0213 35.5053C42.0213 35.2394 41.7553 35.1064 41.2234 35.1064C40.5585 35.1064 40.4255 35 40.4255 34.4415C40.4255 34.0692 40.4787 33.7766 40.5585 33.7766C40.8245 33.7766 43.2181 35 43.2979 35.1862C43.3511 35.2926 43.5372 35.3724 43.6968 35.3724C43.883 35.3724 44.1755 35.6117 44.3617 35.9043C44.6543 36.383 44.6277 36.4362 43.883 36.4362C43.4574 36.4362 43.0851 36.3298 43.0851 36.1702Z" fill="#3E3262"/>
<path d="M7.44678 34.8936C7.44678 34.7074 7.8989 34.4149 9.12231 33.8298C9.22869 33.7766 9.30848 34.0425 9.30848 34.4149C9.30848 35.0266 9.2021 35.1064 8.37763 35.1064C7.87231 35.1064 7.44678 35 7.44678 34.8936V34.8936Z" fill="#3E3262"/>
<path d="M13.8298 17.6595C13.8298 17.2872 13.7234 17.0478 13.5638 17.1542C13.4042 17.2606 13.2979 16.2766 13.2979 14.3617C13.2979 11.6489 13.3244 11.4361 13.75 11.6755C14.1489 11.8883 14.3085 11.7021 14.8138 10.3191C15.1596 9.44147 15.4255 8.32445 15.4255 7.87232C15.4521 6.91487 15.9574 6.117 16.5957 6.117C16.8351 6.117 17.0213 5.93083 17.0213 5.71806C17.0213 5.5053 17.1542 5.31913 17.2872 5.31913C17.4468 5.31913 17.5532 5.45211 17.5532 5.58508C17.5532 6.117 18.1649 5.82445 19.4947 4.65423C20.2127 3.98934 20.9574 3.48402 21.117 3.53721C21.3032 3.617 22.5532 3.5904 23.9361 3.48402C26.0372 3.32445 26.7287 3.37764 28.0319 3.77657C29.1489 4.14891 29.6808 4.20211 29.867 4.01594C30.3191 3.56381 30.7713 3.67019 30.9308 4.20211C30.984 4.49466 31.383 4.78721 31.8883 4.867C32.4734 4.99998 32.7127 5.18615 32.7127 5.58508C32.7127 5.93083 32.8989 6.117 33.2181 6.117C33.9627 6.117 34.3085 6.70211 34.2819 7.87232C34.2819 8.45742 34.4947 9.36168 34.8138 9.97338C35.133 10.5319 35.3723 11.1968 35.3723 11.383C35.3723 11.6223 35.5585 11.7287 35.8776 11.6223C36.3032 11.5159 36.383 11.7021 36.5425 12.8723C36.6223 13.617 36.7021 14.9202 36.7021 15.7978C36.7021 17.0744 36.6223 17.3138 36.3032 17.1808C36.0106 17.0744 35.9042 17.2074 35.9042 17.6861C35.9042 18.3244 35.8244 18.351 34.3085 18.351H32.7127V16.8883V15.4255H29.2287C26.1436 15.4255 25.6117 15.3457 24.3883 14.7872C22.4734 13.9095 21.5425 12.7659 20.8776 10.4521C20.6383 9.57445 20.0798 9.70742 18.9361 10.9308C17.4202 12.6064 17.0479 13.6436 17.0213 16.1702V18.351H15.4255C13.883 18.351 13.8298 18.3244 13.8298 17.6595V17.6595Z" fill="#8E562E"/>
<path d="M35.1063 9.52124C35.1063 9.01593 35.1595 8.98933 35.3723 9.30848C35.718 9.8138 35.718 10.1063 35.3723 10.1063C35.2393 10.1063 35.1063 9.84039 35.1063 9.52124Z" fill="#8E562E"/>
<path d="M3.19141 30.6117C3.19141 28.3511 3.218 28.1915 3.72332 28.1915C4.25523 28.1915 4.28183 28.3245 4.20204 30.5054C4.12226 32.4734 4.04247 32.8458 3.67013 32.9256C3.2446 33.0054 3.19141 32.766 3.19141 30.6117Z" fill="#875D32"/>
<path d="M42.7393 31.1969C42.6329 31.1171 42.5531 30.2661 42.5531 29.3352V27.6597H43.484C44.3616 27.6597 44.4148 27.7129 44.3882 28.5373C44.3616 28.9895 44.3084 29.1756 44.2286 28.9363C44.0159 28.1118 43.6169 28.4309 43.6169 29.3884C43.6169 29.8937 43.7499 30.3192 43.8829 30.3192C44.0425 30.3192 44.1488 30.2129 44.1488 30.0533C44.1488 29.9203 44.2818 29.7873 44.4148 29.7873C44.5744 29.7873 44.6808 30.1597 44.6808 30.5852C44.6808 31.3033 44.601 31.3831 43.8031 31.3831C43.2978 31.3831 42.8191 31.3033 42.7393 31.1969Z" fill="#875D32"/>
<path d="M3.45739 23.6969C2.87228 22.5798 3.27122 19.6809 3.9893 19.6809C4.14888 19.6809 4.25526 20.665 4.25526 21.9415C4.25526 24.1756 4.0159 24.7075 3.45739 23.6969Z" fill="#875D32"/>
<path d="M17.5531 18.0852C17.5531 16.0639 17.5797 15.9575 18.1648 15.9575C18.7233 15.9575 18.7499 16.0639 18.7499 18.0852C18.7499 20.1065 18.7233 20.2128 18.1648 20.2128C17.5797 20.2128 17.5531 20.1065 17.5531 18.0852Z" fill="#875D32"/>
<path d="M22.0212 18.3511C22.1276 16.25 21.9148 15.8245 20.718 15.5585C19.5212 15.2926 19.734 14.6277 21.0106 14.6277C21.968 14.6277 22.0744 14.7075 22.0744 15.2926C22.0744 15.7713 22.2074 15.9575 22.6063 15.9575C23.085 15.9575 23.1382 16.1436 23.1382 18.0851C23.1382 20.1064 23.1116 20.2128 22.5531 20.2128C21.968 20.2128 21.9414 20.133 22.0212 18.3511V18.3511Z" fill="#875D32"/>
<path d="M26.5957 18.2182C26.5957 16.4097 26.6489 16.2235 27.1276 16.2235C27.6063 16.2235 27.6595 16.4097 27.6595 17.7927C27.6595 18.6703 27.7393 19.548 27.8191 19.7873C27.9521 20.1065 27.8191 20.2129 27.2872 20.2129C26.5957 20.2129 26.5957 20.1863 26.5957 18.2182Z" fill="#875D32"/>
<path d="M13.8297 17.8192C13.8297 17.2341 13.7234 17.0745 13.4308 17.1809C13.0851 17.3139 13.0319 16.9415 13.0319 14.6543C13.0319 12.1543 13.0585 11.9681 13.5638 11.9681C14.0691 11.9681 14.0957 12.1543 14.0957 14.7607V17.5532H15.1595C15.9308 17.5532 16.2234 17.4469 16.2234 17.1543C16.2234 16.9415 16.4095 16.7554 16.6223 16.7554C16.8882 16.7554 17.0212 17.0479 17.0212 17.6862V18.6171H15.4255C13.8297 18.6171 13.8297 18.6171 13.8297 17.8192Z" fill="#875D32"/>
<path d="M32.7128 17.6862C32.7128 17.0479 32.8457 16.7554 33.1117 16.7554C33.3245 16.7554 33.5106 16.9415 33.5106 17.1543C33.5106 17.4469 33.8298 17.5532 34.7074 17.5532C35.7181 17.5532 35.9043 17.633 35.9043 18.0852C35.9043 18.5639 35.7181 18.6171 34.3085 18.6171H32.7128V17.6862Z" fill="#875D32"/>
<path d="M30.718 15.9841C30.6383 15.8511 30.2127 15.6649 29.7872 15.5585C28.5638 15.2926 28.7766 14.6277 30.0531 14.6277C31.0638 14.6277 31.117 14.6809 31.117 15.4256C31.117 16.25 31.0106 16.4096 30.718 15.9841Z" fill="#875D32"/>
<path d="M23.9362 14.2287C23.9362 13.4309 23.9893 13.4309 25.1596 13.9894C26.3564 14.5745 26.3032 14.8936 25 14.8936C24.0425 14.8936 23.9362 14.8404 23.9362 14.2287Z" fill="#875D32"/>
<path d="M35.7978 14.3085C35.4787 13.1117 35.6117 12.5 36.1702 12.5C36.6223 12.5 36.7021 12.6862 36.7021 13.6968C36.7021 15 36.0904 15.3989 35.7978 14.3085Z" fill="#875D32"/>
<path d="M21.2765 11.5692C21.2765 11.1968 21.1702 10.9043 21.0106 10.9043C20.8776 10.9043 20.7446 10.4256 20.7446 9.84047C20.7446 8.53728 21.4095 8.35111 21.6755 9.60111C21.7819 10.0532 22.0212 10.7181 22.234 11.1171C22.7393 12.1011 22.7127 12.2341 21.9414 12.2341C21.4095 12.2341 21.2765 12.1011 21.2765 11.5692V11.5692Z" fill="#875D32"/>
<path d="M34.9468 10.3457C35.0266 9.8936 35.1064 9.41487 35.1064 9.28189C35.1064 9.14892 35.2926 9.12232 35.5053 9.20211C36.0373 9.41487 36.0107 10.1064 35.4787 10.1064C35.1862 10.1064 35.0798 10.2659 35.1862 10.6383C35.266 10.9308 35.1862 11.1702 35.0532 11.1702C34.8936 11.1702 34.8404 10.851 34.9468 10.3457Z" fill="#875D32"/>
<path d="M18.4309 9.89362C18.6968 9.62766 18.883 9.28191 18.883 9.12234C18.883 8.96277 19.2287 8.85638 19.6809 8.88298C20.3192 8.90957 20.4787 9.04255 20.4787 9.46808C20.4787 10.133 20.0266 10.3723 18.8298 10.3723C18.0319 10.3723 18.0319 10.3457 18.4309 9.89362V9.89362Z" fill="#875D32"/>
<path d="M44.9468 9.06922C44.9468 8.37773 45.0532 8.24475 45.6117 8.24475C46.5425 8.24475 46.4627 8.72348 45.4255 9.54794C45 9.86709 44.9468 9.8405 44.9468 9.06922Z" fill="#875D32"/>
<path d="M16.5691 8.6171C16.4893 8.37774 16.2233 8.24476 15.9308 8.32455C15.2127 8.51072 15.2393 7.10114 15.984 6.0905C16.7021 5.07986 17.4202 5.07986 17.7925 6.1171C18.0585 6.88837 17.9255 7.07455 17.1808 6.94157C17.0744 6.91497 16.8085 7.10114 16.6223 7.3671C16.3563 7.73944 16.3563 7.87242 16.6489 8.19157C17.0212 8.53731 17.1542 9.04263 16.8882 9.04263C16.8085 9.04263 16.6755 8.85646 16.5691 8.6171V8.6171Z" fill="#875D32"/>
<path d="M3.32444 7.97882C3.08508 6.91499 3.40423 5.58521 3.88295 5.58521C4.14891 5.58521 4.25529 5.98414 4.25529 7.18095C4.25529 8.37776 4.14891 8.77669 3.88295 8.77669C3.67018 8.77669 3.43082 8.43095 3.32444 7.97882Z" fill="#875D32"/>
<path d="M33.4574 7.60649C33.1914 7.26074 32.7925 6.99478 32.5265 7.02138C32.2074 7.02138 32.0212 6.83521 31.968 6.46287C31.9148 6.01074 31.5957 5.79798 30.851 5.58521C30.1063 5.37244 29.8403 5.18627 29.9467 4.92032C30.0531 4.65436 29.9467 4.52138 29.6542 4.52138C29.2818 4.52138 29.3084 4.415 29.8137 4.01606C30.1595 3.72351 30.5052 3.59053 30.585 3.69691C30.6648 3.7767 31.0106 3.98947 31.3829 4.14904C32.6063 4.68095 33.7765 5.85117 33.7765 6.54266C33.7765 6.8884 33.9095 7.18095 34.0425 7.18095C34.202 7.18095 34.3084 7.42032 34.3084 7.71287C34.3084 8.40436 34.0159 8.37776 33.4574 7.60649Z" fill="#875D32"/>
<path d="M15.4786 3.80331C15.5318 3.43097 15.8244 3.32458 16.6222 3.32458C17.4201 3.32458 17.7127 3.43097 17.7659 3.80331C17.8456 4.17565 17.6595 4.25544 16.6222 4.25544C15.585 4.25544 15.3988 4.17565 15.4786 3.80331Z" fill="#875D32"/>
<path d="M25.9839 3.85639C25.7446 3.29788 26.1701 3.13831 27.0212 3.48405C27.6329 3.69682 27.6861 3.8032 27.3935 3.98937C26.8084 4.36171 26.1435 4.30852 25.9839 3.85639V3.85639Z" fill="#875D32"/>
<path d="M35.1063 3.90959C35.1063 3.37767 35.3457 3.2447 35.9308 3.37767C36.6755 3.59044 36.5691 4.25533 35.7712 4.25533C35.3989 4.25533 35.1063 4.09576 35.1063 3.90959Z" fill="#875D32"/>
<path d="M38.351 3.80331C38.4042 3.45756 38.6968 3.32458 39.3616 3.32458C40.0265 3.32458 40.3191 3.45756 40.3723 3.80331C40.4521 4.17565 40.2659 4.25544 39.3616 4.25544C38.4574 4.25544 38.2712 4.17565 38.351 3.80331Z" fill="#875D32"/>
<path d="M42.5531 3.88304C42.5531 3.37772 43.9893 3.08516 44.6542 3.4575C45.585 3.93623 45.2925 4.25538 43.8829 4.25538C42.8988 4.25538 42.5531 4.14899 42.5531 3.88304Z" fill="#875D32"/>
<path d="M42.2606 32.367C42.0212 32.1808 41.7021 31.7819 41.5159 31.4627C41.25 30.9308 41.2766 30.851 41.7287 30.851C42.0744 30.851 42.2872 30.6383 42.3404 30.2659C42.4468 29.468 43.2446 29.3351 43.4308 30.0798C43.5904 30.6649 44.1489 30.5585 44.1489 29.8936C44.1489 29.6808 44.3351 29.5212 44.5478 29.5212C44.8404 29.5212 44.9468 29.8138 44.9468 30.5851C44.9468 31.5691 44.867 31.6755 44.1489 31.8351C43.7234 31.9149 43.351 32.1542 43.351 32.3404C43.351 32.7925 42.8191 32.8191 42.2606 32.367V32.367Z" fill="#71CB6D"/>
<path d="M7.71277 28.1915V27.1277H8.90958C10.1064 27.1277 10.1064 27.1277 10.1064 28.0585C10.1064 28.6968 9.97341 28.9894 9.70745 28.9894C9.49468 28.9894 9.30851 28.8032 9.30851 28.5904C9.30851 28.0053 8.75 28.1117 8.59043 28.7234C8.32447 29.7075 7.71277 29.3351 7.71277 28.1915V28.1915Z" fill="#71CB6D"/>
<path d="M13.1649 24.335L12.3671 23.5372L13.1117 23.4574C14.0692 23.351 14.149 23.4308 14.0426 24.3882L13.9628 25.1329L13.1649 24.335Z" fill="#71CB6D"/>
<path d="M5.23934 24.2819C4.94679 24.016 5.02657 22.3404 5.31913 22.3404C5.4787 22.3404 5.58508 22.4734 5.58508 22.6064C5.58508 22.766 5.77125 22.8723 5.98402 22.8723C6.19678 22.8723 6.38295 22.6862 6.38295 22.4734C6.38295 22.2606 6.62232 22.0745 6.91487 22.0745C7.367 22.0745 7.44678 22.2606 7.44678 23.2713V24.4681H6.43615C5.87764 24.4681 5.31913 24.3883 5.23934 24.2819Z" fill="#71CB6D"/>
<path d="M39.6277 23.0053C39.6277 21.9415 40.266 21.7021 40.5053 22.6596C40.6383 23.1383 40.7181 23.1649 41.0639 22.8723C41.4362 22.5798 41.4894 22.633 41.4894 23.2447C41.4894 23.8564 41.383 23.9362 40.5585 23.9362C39.6809 23.9362 39.6277 23.883 39.6277 23.0053Z" fill="#71CB6D"/>
<path d="M6.27662 20.1596C6.01066 19.0958 6.09045 18.6171 6.59577 18.6171C7.18087 18.6437 7.79257 19.1224 8.19151 19.8671C8.64364 20.6915 8.61704 20.7447 7.47342 20.7447C6.62236 20.7447 6.4096 20.6383 6.27662 20.1596Z" fill="#71CB6D"/>
<path d="M10.2925 19.7607C10.1861 19.6809 10.1063 19.3617 10.1063 19.0958C10.1063 18.75 10.3191 18.6171 10.9042 18.6171C11.5691 18.6171 11.7021 18.7234 11.7021 19.282C11.7021 19.8139 11.5691 19.9469 11.0904 19.9469C10.7446 19.9469 10.3723 19.8671 10.2925 19.7607Z" fill="#71CB6D"/>
<path d="M37.5 11.5691C37.5 10.8245 37.6596 10.7713 38.6702 11.1702C39.7074 11.5691 39.5479 12.234 38.4308 12.234C37.6064 12.234 37.5 12.1543 37.5 11.5691Z" fill="#71CB6D"/>
<path d="M4.92022 9.84044C4.60107 9.73406 4.20213 9.4415 4.01596 9.20214C3.69681 8.8298 3.7766 8.77661 4.62767 8.77661C5.47873 8.77661 5.58511 8.8564 5.58511 9.4415C5.58511 9.81384 5.55852 10.1064 5.53192 10.0798C5.47873 10.0798 5.21277 9.97342 4.92022 9.84044Z" fill="#71CB6D"/>
<path d="M43.6171 9.3883C43.6171 8.43085 44.4149 7.71277 45.4788 7.71277C46.0639 7.71277 46.2766 7.84575 46.2766 8.19149C46.2766 8.82979 45.266 9.76064 44.3617 9.97341C43.6703 10.1596 43.6171 10.1064 43.6171 9.3883Z" fill="#71CB6D"/>
<path d="M42.3405 9.65424C42.1543 9.60105 41.8883 9.30849 41.7554 9.01594C41.4894 8.56381 41.5692 8.51062 42.2873 8.51062C42.9522 8.51062 43.0851 8.617 43.0851 9.17551C43.0851 9.84041 42.9788 9.9202 42.3405 9.65424Z" fill="#71CB6D"/>
<path d="M13.2979 8.51061C13.2979 7.55316 13.3776 7.44678 13.9627 7.44678C14.734 7.44678 14.7872 7.71274 14.2287 8.77657C13.6702 9.86699 13.2979 9.76061 13.2979 8.51061Z" fill="#71CB6D"/>
<path d="M32.1808 4.65421C32.1808 3.82974 32.2872 3.4574 32.5265 3.4574C33.0053 3.4574 33.9361 4.49463 34.1755 5.26591C34.335 5.79782 34.2553 5.85101 33.2712 5.85101H32.1808V4.65421Z" fill="#71CB6D"/>
<path d="M45.2128 5.3191C45.2128 4.89357 45.0266 4.78718 44.2819 4.78718C43.4575 4.78718 43.3511 4.7074 43.3511 4.12229C43.3511 3.59038 43.4841 3.4574 44.0426 3.4574C45 3.4574 45.6649 3.88293 46.1436 4.78718C46.6755 5.79782 46.6489 5.85101 45.8777 5.85101C45.3989 5.85101 45.2128 5.71804 45.2128 5.3191Z" fill="#71CB6D"/>
<path d="M30.6649 5.00002C29.5478 4.30853 29.5478 3.98938 30.718 3.98938C31.5691 3.98938 31.6489 4.04257 31.6489 4.78725C31.6489 5.23938 31.6223 5.58512 31.5957 5.55853C31.5425 5.55853 31.117 5.29257 30.6649 5.00002V5.00002Z" fill="#71CB6D"/>
<path d="M10.0267 5.07976C9.57452 4.92019 9.60112 4.8404 10.2128 4.17551C10.9309 3.40423 12.3139 3.19147 13.3245 3.72338C14.0692 4.14891 13.9362 4.46806 12.8724 4.92019C11.8352 5.34572 10.8245 5.39891 10.0267 5.07976Z" fill="#71CB6D"/>
<path d="M4.86703 4.86705C3.59044 4.73407 3.43086 4.49471 4.30852 3.88301C5.21278 3.24471 7.04789 3.32449 7.71278 4.04258C8.00533 4.36173 8.24469 4.70747 8.24469 4.84045C8.24469 5.05322 7.07448 5.05322 4.86703 4.86705V4.86705Z" fill="#71CB6D"/>
<path d="M8.9361 46.3297C8.85632 46.1968 8.72334 45.1861 8.61696 44.0691L8.43079 42.0212H24.8404H41.2233V43.484V44.9468H25.9308C15.9042 44.9468 10.6382 45.0266 10.6382 45.2127C10.6382 45.3989 15.5584 45.4787 24.867 45.4787C38.9095 45.4787 39.0957 45.4787 39.0957 46.0106C39.0957 46.5425 38.9095 46.5425 24.0957 46.5425C15.8244 46.5425 9.01589 46.4361 8.9361 46.3297V46.3297Z" fill="#00BCF1"/>
<path d="M9.30854 32.9786C9.30854 32.8457 9.01599 32.7127 8.67024 32.7127C8.2979 32.7127 7.6862 32.4201 7.28727 32.101C6.67556 31.5691 6.54259 31.1967 6.4362 29.8403C6.30322 28.0318 6.64897 27.234 7.84578 26.4361C8.3245 26.1435 8.77663 26.0638 9.5745 26.1967C10.4788 26.3563 10.6383 26.4627 10.6383 27.0212C10.6383 27.3669 10.5319 27.6595 10.3724 27.6595C10.2394 27.6595 10.1064 27.8989 10.1064 28.1914C10.1064 28.484 9.92024 28.7233 9.70748 28.7233C9.49471 28.7233 9.30854 28.5372 9.30854 28.3244C9.30854 28.1116 9.12237 27.9255 8.90961 27.9255C8.45748 27.9255 8.43088 28.1382 8.67024 29.601C8.82982 30.5584 9.30854 31.0106 9.30854 30.1861C9.30854 29.9733 9.49471 29.7872 9.70748 29.7872C10.0266 29.7872 10.1064 30.1595 10.1064 31.5159C10.1064 32.8723 10.0266 33.2446 9.70748 33.2446C9.49471 33.2446 9.30854 33.1382 9.30854 32.9786Z" fill="#77D673"/>
<path d="M3.45744 31.7553C3.45744 31.0372 3.37765 29.4681 3.27127 28.2447L3.11169 26.0372L4.28191 26.117L5.45212 26.1968L5.53191 29.4681L5.6117 32.7128H4.9468C4.60106 32.7128 4.12233 32.7925 3.88297 32.8723C3.53723 33.0053 3.45744 32.8191 3.45744 31.7553V31.7553Z" fill="#77D673"/>
<path d="M42.4202 32.4468C42.3404 32.3138 42.3404 32.0744 42.4202 31.9149C42.5 31.7819 42.3404 31.6489 42.0745 31.6489C41.4096 31.6489 41.2234 31.1702 41.2234 29.5212C41.2234 27.8989 41.6489 26.9415 42.5798 26.4361C44.6542 25.3723 46.5425 26.8351 46.5425 29.5212C46.5425 30.7712 45.984 32.0478 45.2393 32.4468C44.5745 32.7925 42.633 32.7925 42.4202 32.4468ZM43.7234 30.9574C44.3085 30.7447 44.3351 28.4574 43.75 28.4574C43.484 28.4574 43.351 28.7234 43.351 29.3617C43.351 29.867 43.2713 30.4521 43.1915 30.6915C43.0053 31.1702 43.0851 31.1968 43.7234 30.9574Z" fill="#77D673"/>
<path d="M5.05314 24.9733C3.67016 24.4148 3.4574 23.9893 3.4574 21.8882C3.4574 20.1595 3.53718 19.8403 4.12229 19.2818C4.57442 18.8031 5.05314 18.6169 5.82442 18.6169C6.75527 18.6169 6.91485 18.6967 7.07442 19.3084C7.2074 19.7872 7.39357 19.9467 7.73931 19.8669C8.32442 19.7074 8.51059 20.1595 8.51059 21.835C8.51059 23.5372 7.95208 24.601 6.88825 24.9733C5.90421 25.3191 5.9308 25.3191 5.05314 24.9733ZM6.5425 23.085C6.46272 22.7393 6.38293 22.0744 6.38293 21.6223C6.38293 21.0106 6.24995 20.7446 5.98399 20.7446C5.50527 20.7446 5.42548 22.3403 5.85102 23.1648C6.24995 23.8829 6.75527 23.8031 6.5425 23.085Z" fill="#77D673"/>
<path d="M9.49464 25.1063C9.38826 24.9999 9.30847 23.484 9.30847 21.7552V18.6169H10.0532C11.5425 18.6435 11.7287 19.0425 11.6489 22.234L11.5691 25.1329L10.6383 25.2127C10.1063 25.2659 9.60103 25.2127 9.49464 25.1063Z" fill="#77D673"/>
<path d="M14.0957 24.9468C12.9521 24.5213 12.5 23.7234 12.5 22.0213C12.5 20.3192 12.8191 19.4149 13.4309 19.4149C13.6436 19.4149 13.8298 19.2287 13.8298 19.016C13.8298 18.1383 14.6011 18.6436 14.7606 19.6277C14.867 20.1596 15.2128 21.3298 15.5851 22.2075C16.4628 24.3883 16.4362 25.133 15.4787 25.1596C15.0798 25.1596 14.4415 25.0798 14.0957 24.9468Z" fill="#77D673"/>
<path d="M35.3723 24.5478C35.3723 23.8031 34.8403 22.6595 34.8403 23.351C34.8403 23.5106 34.734 23.6702 34.5744 23.6702C34.1755 23.6702 34.2552 22.0212 34.7074 20.7446C34.9201 20.1329 35.1063 19.2021 35.1063 18.7233C35.1063 18.085 35.2393 17.8191 35.5052 17.8191C35.718 17.8191 35.9042 18.0053 35.9042 18.218C35.9042 18.4574 36.1435 18.617 36.5691 18.617H37.234V21.9414V25.2659H36.3031C35.4786 25.2659 35.3723 25.1861 35.3723 24.5478Z" fill="#77D673"/>
<path d="M39.7074 24.8935C38.5904 24.3882 38.2979 23.7499 38.2979 21.8084C38.2979 20.3457 38.3776 20.0797 39.0691 19.3882C39.6542 18.8297 40.1064 18.6169 40.8244 18.6169C41.5425 18.6169 41.9947 18.8297 42.5798 19.3882C43.2713 20.0797 43.351 20.3457 43.351 21.7818C43.351 23.1648 43.2447 23.5106 42.633 24.1755C41.7287 25.1595 40.8244 25.3723 39.7074 24.8935V24.8935ZM41.1702 21.8616C41.2234 20.984 41.1702 20.7446 40.851 20.7446C40.5319 20.7446 40.4255 21.0372 40.4255 21.968C40.4255 23.5372 41.0638 23.4308 41.1702 21.8616V21.8616Z" fill="#77D673"/>
<path d="M44.2552 21.8883L44.3084 18.484L45.4254 18.4042L46.5425 18.3245V21.7819V25.266H45.3988H44.2286L44.2552 21.8883V21.8883Z" fill="#77D673"/>
<path d="M3.29786 17.3936C3.37765 17.1543 3.45743 15.6117 3.45743 13.9362V10.8777L4.46807 10.9575L5.45212 11.0373L5.5319 14.2022C5.61169 17.6862 5.5585 17.8192 4.01595 17.8192C3.32446 17.8192 3.16488 17.7394 3.29786 17.3936V17.3936Z" fill="#77D673"/>
<path d="M6.86166 17.6329C6.43613 17.5265 6.38293 17.1276 6.38293 14.202V10.9042H7.44676H8.53719L8.4574 14.3084C8.37761 17.4733 8.35102 17.6861 7.8457 17.7393C7.55315 17.7393 7.10102 17.7127 6.86166 17.6329Z" fill="#77D673"/>
<path d="M10.399 16.8883C8.85641 15.5851 9.04258 12.4468 10.7447 11.4095C11.7554 10.7978 12.0479 10.7978 13.1649 11.3032L14.016 11.7287L13.9096 14.3085C13.75 17.1808 13.5373 17.5532 12.0745 17.5532C11.5426 17.5532 10.9043 17.2872 10.399 16.8883V16.8883ZM12.3671 14.2819C12.3671 12.8989 11.8617 12.9255 11.7554 14.3351C11.7022 15.1861 11.7554 15.4521 12.0213 15.3723C12.2341 15.2925 12.3671 14.8404 12.3671 14.2819Z" fill="#77D673"/>
<path d="M36.383 17.234C36.0904 16.9681 35.9309 16.1968 35.8245 14.3351L35.6649 11.8085L36.4096 11.3564C37.2607 10.851 38.2979 10.7446 38.2979 11.1702C38.2979 11.3032 38.4575 11.3564 38.6436 11.2766C39.2553 11.0638 40.2128 12.3936 40.3458 13.6702C40.5319 15.2393 40.2926 16.1436 39.4415 16.9149C38.6702 17.6329 37.1011 17.7925 36.383 17.234V17.234ZM38.1915 14.7074C38.3777 13.9893 38.0851 13.2181 37.633 13.2446C37.3139 13.2978 37.1277 14.4946 37.3404 15.0532C37.5798 15.6649 38.0053 15.4787 38.1915 14.7074Z" fill="#77D673"/>
<path d="M41.2234 14.2286V10.9042H42.2872H43.351V14.2286V17.5531H42.2872H41.2234V14.2286Z" fill="#77D673"/>
<path d="M44.2021 14.3085L44.2819 11.0373L45.4255 10.9575L46.5425 10.8777V14.2022V17.5532H45.3457H44.1223L44.2021 14.3085V14.3085Z" fill="#77D673"/>
<path d="M4.4947 9.49465C3.61704 8.90955 3.59045 8.82976 3.51066 6.96806C3.43087 4.68082 3.72343 3.98933 4.78726 3.98933C5.23938 3.98933 5.58513 3.88295 5.58513 3.72338C5.58513 3.5904 5.98407 3.45742 6.46279 3.48401C7.15428 3.48401 7.23407 3.53721 6.78194 3.72338C6.30321 3.90955 6.30321 3.96274 6.70215 4.12231C6.94151 4.22869 7.26066 4.22869 7.42024 4.14891C7.92555 3.82976 8.51066 5.15955 8.51066 6.56912C8.51066 8.27125 8.08513 9.22869 7.15428 9.73401C6.11704 10.2659 5.53194 10.2127 4.4947 9.49465ZM6.383 6.62231C6.383 5.87763 6.27662 5.58508 5.98407 5.58508C5.69151 5.58508 5.58513 5.87763 5.58513 6.59572C5.58513 7.15423 5.66492 7.71274 5.7447 7.79252C6.11704 8.13827 6.383 7.63295 6.383 6.62231V6.62231Z" fill="#77D673"/>
<path d="M11.1702 9.73399C9.89362 9.33506 9.22873 8.03187 9.4149 6.27655C9.57447 4.78718 10.2128 3.88293 10.8777 4.22867C11.516 4.57442 12.0745 4.30846 11.6755 3.82974C11.4362 3.53718 11.4628 3.4574 11.7819 3.4574C12.0213 3.4574 12.2606 3.56378 12.3404 3.69676C12.4202 3.82974 12.7128 3.88293 13.0053 3.80314C13.883 3.59038 14.6277 4.89357 14.6277 6.67548C14.6277 7.55314 14.5213 8.24463 14.3617 8.24463C14.2287 8.24463 14.0957 8.48399 14.0957 8.74995C14.0957 9.6808 12.5532 10.1861 11.1702 9.73399ZM12.4468 6.64889C12.3936 6.14357 12.234 5.71804 12.0745 5.66484C11.6755 5.53187 11.4628 7.02123 11.7819 7.57974C12.1543 8.24463 12.5532 7.65953 12.4468 6.64889Z" fill="#77D673"/>
<path d="M35.1064 6.78187V3.4574H36.1703H37.2341V6.78187V10.1063H36.1703H35.1064V6.78187Z" fill="#77D673"/>
<path d="M38.2447 7.65952C38.1915 6.30314 38.1915 4.78718 38.2447 4.33506C38.3245 3.51059 38.3777 3.4574 39.3883 3.4574H40.4522L40.3724 6.72867L40.2926 9.97335L39.3086 10.0531L38.3245 10.1329L38.2447 7.65952V7.65952Z" fill="#77D673"/>
<path d="M42.6596 9.6808C41.5957 9.17548 41.2234 8.32442 41.2234 6.51591C41.2234 4.76059 42.1276 3.4574 43.3776 3.4574C43.8032 3.4574 44.1489 3.56378 44.1489 3.69676C44.1489 3.85633 44.4681 3.93612 44.8404 3.90953C45.8245 3.82974 46.4893 5.02655 46.5159 6.80846C46.5425 7.8191 46.4096 8.35101 46.0106 8.80314C45.5851 9.33506 45.5053 9.36165 45.4787 8.98931C45.4787 8.53718 45.4521 8.53718 44.9468 8.96272C44.6542 9.22867 44.4149 9.57442 44.4149 9.76059C44.4149 10.2127 43.6702 10.1861 42.6596 9.6808V9.6808ZM44.1489 6.62229C44.1489 5.87761 44.0425 5.58506 43.8298 5.63825C43.4574 5.77123 43.2181 6.99463 43.4574 7.60633C43.7234 8.32442 44.1489 7.71272 44.1489 6.62229V6.62229Z" fill="#77D673"/>
<path d="M15.4255 6.03718V3.4574H16.6223H17.8192L17.7394 4.78718C17.7128 5.50527 17.6064 6.11697 17.5266 6.11697C17.4202 6.11697 16.9149 6.67548 16.383 7.36697L15.4255 8.59038V6.03718V6.03718Z" fill="#77D673"/>
<path d="M32.6862 6.64892C31.8617 5.77126 30.8777 4.94679 30.4787 4.81381C28.9096 4.20211 30.133 3.32445 32.3936 3.43083C32.8723 3.45743 32.9787 3.617 32.9787 4.2819C32.9787 4.97338 33.0585 5.10636 33.5106 4.97338C34.1489 4.81381 34.3883 5.4787 34.2553 7.12764L34.1755 8.21807L32.6862 6.64892V6.64892Z" fill="#77D673"/>
<path d="M19.1489 4.8936C19.1489 4.60104 21.0904 3.43083 21.25 3.617C21.383 3.74998 20.984 4.09573 20.3191 4.41487C19.6808 4.73402 19.1489 4.94679 19.1489 4.8936Z" fill="#77D673"/>
<path d="M7.55324 32.3404C7.28728 32.1276 7.12771 31.8617 7.26069 31.7553C7.36707 31.6489 7.60643 31.7021 7.76601 31.8617C7.95218 32.0479 8.29792 32.1808 8.56388 32.1808C8.82984 32.1808 9.0426 32.3138 9.0426 32.4468C9.0426 32.8457 8.16494 32.7659 7.55324 32.3404V32.3404Z" fill="#80C37D"/>
<path d="M46.3564 29.5213C46.3564 28.7234 46.4096 28.3777 46.4628 28.8032C46.516 29.2021 46.516 29.8404 46.4628 30.2659C46.4096 30.6649 46.3564 30.3191 46.3564 29.5213Z" fill="#80C37D"/>
<path d="M3.27136 27.5265C3.27136 26.6489 3.32455 26.3297 3.37775 26.8084C3.43094 27.2872 3.43094 28.0052 3.37775 28.4042C3.32455 28.8031 3.27136 28.4042 3.27136 27.5265Z" fill="#80C37D"/>
<path d="M46.2767 21.9681V18.6436L45.2926 18.5372L44.282 18.4309L45.4256 18.4043L46.5426 18.3511V21.8085C46.5426 23.7234 46.4894 25.266 46.4096 25.266C46.3299 25.266 46.2767 23.7766 46.2767 21.9681V21.9681Z" fill="#80C37D"/>
<path d="M3.19153 17.6064C3.19153 17.5 3.61706 17.4468 4.12238 17.5C4.6277 17.5532 5.05323 17.6596 5.05323 17.7128C5.05323 17.766 4.6277 17.8191 4.12238 17.8191C3.61706 17.8191 3.19153 17.7128 3.19153 17.6064Z" fill="#80C37D"/>
<path d="M46.3829 14.2287C46.3829 12.3138 46.4095 11.5957 46.4627 12.5798C46.5159 13.5638 46.5159 15.1329 46.4627 16.0372C46.4095 16.9415 46.3829 16.1436 46.3829 14.2287Z" fill="#80C37D"/>
<path d="M35.6915 12.4999C35.6915 11.9946 35.7447 11.7818 35.8245 12.0478C35.8777 12.2871 35.8777 12.7127 35.8245 12.9786C35.7447 13.218 35.6915 13.0052 35.6915 12.4999Z" fill="#80C37D"/>
<path d="M46.3564 6.78188C46.3564 5.90422 46.4096 5.58508 46.4628 6.0638C46.516 6.54252 46.516 7.26061 46.4628 7.65954C46.4096 8.05848 46.3564 7.65954 46.3564 6.78188Z" fill="#80C37D"/>
<path d="M42.4202 3.72338C42.5 3.5904 42.9787 3.45742 43.4309 3.48401C44.1489 3.48401 44.2021 3.53721 43.75 3.72338C43.0053 4.04253 42.234 4.04253 42.4202 3.72338Z" fill="#80C37D"/>
<path d="M8.90953 46.4096C8.77655 46.3564 8.21804 46.25 7.68612 46.1702C5.85101 45.8511 3.48399 43.1117 3.4574 41.2766C3.4574 40.7447 3.56378 40.6649 4.33506 40.7447C5.10633 40.8245 5.18612 40.9043 5.26591 41.8351C5.3191 42.5 5.47867 42.8192 5.74463 42.8192C5.9574 42.8192 6.35633 43.1649 6.5957 43.6171C6.83506 44.0426 7.26059 44.4149 7.52655 44.4149C7.8191 44.4149 8.08506 44.6543 8.16485 44.9734C8.29782 45.4522 8.4574 45.4788 9.33506 45.3458C9.89357 45.2394 10.718 45.2394 11.1702 45.3458C12.0212 45.5319 12.234 46.1171 11.5425 46.383C11.117 46.5426 9.36165 46.5692 8.90953 46.4096V46.4096Z" fill="#8368DC"/>
<path d="M38.2447 46.3831C37.7394 45.8777 38.0585 45.4788 38.9628 45.4788C39.5745 45.4788 39.8936 45.3458 39.8936 45.1065C39.8936 44.7607 40.984 44.415 42.1277 44.415C42.766 44.415 43.617 43.5639 43.617 42.9522C43.617 42.7394 43.75 42.5533 43.883 42.5533C44.0426 42.5533 44.1489 42.3139 44.1489 42.0214C44.1489 41.7288 44.3085 41.4894 44.5213 41.4894C45.2128 41.4894 45.4521 39.8405 44.867 39.0692C44.6809 38.8565 44.3351 38.5905 44.0957 38.4841C43.8298 38.4043 43.617 38.0586 43.617 37.766C43.617 37.3405 43.4574 37.2341 42.7394 37.2341C42.2606 37.2341 41.7553 37.1277 41.6223 36.9948C41.4628 36.8618 41.0638 36.7022 40.6915 36.649C40.0798 36.5692 40.0266 36.4628 39.9468 34.9203C39.8936 33.8831 39.9734 33.2448 40.1596 33.2448C40.2926 33.2448 40.4255 33.3511 40.4255 33.4575C40.4255 33.5905 41.117 34.0426 41.9681 34.4682C43.8564 35.4256 45.4521 36.8352 45.9309 37.9522C46.4096 39.149 46.383 41.8618 45.8511 43.0054C45.266 44.1756 43.9894 45.4522 42.8989 45.9043C41.8883 46.3299 38.5106 46.6756 38.2447 46.3831V46.3831Z" fill="#8368DC"/>
<path d="M3.4574 39.6277C3.4574 38.5905 4.25527 37.0479 5.23931 36.1436C5.63825 35.7447 6.72867 35.0532 7.65952 34.6011C8.56378 34.149 9.30846 33.5905 9.30846 33.3777C9.30846 33.1649 9.49463 32.9788 9.7074 32.9788C9.99995 32.9788 10.1063 33.2979 10.1063 34.2554C10.1063 35.4522 10.0531 35.5319 8.98931 36.0905C8.35101 36.4096 7.57974 36.7288 7.26059 36.8351C6.91484 36.9149 6.64889 37.1809 6.64889 37.3937C6.64889 37.6064 6.40953 37.9788 6.11697 38.2181C5.82442 38.4841 5.58506 38.9362 5.58506 39.2288C5.58506 40 5.07974 40.4256 4.20208 40.4256C3.53718 40.4256 3.4574 40.3192 3.4574 39.6277V39.6277Z" fill="#8368DC"/>
<path d="M5.58508 42.0212C5.58508 40.984 5.61168 40.9574 6.51593 40.9574C7.42019 40.9574 7.44678 40.984 7.44678 42.0212C7.44678 43.0585 7.42019 43.0851 6.51593 43.0851C5.61168 43.0851 5.58508 43.0585 5.58508 42.0212Z" fill="#F7894A"/>
<path d="M21.0107 26.3298C20.8511 26.0372 20.7447 25.1596 20.7979 24.3883L20.8777 23.0053L22.0213 22.9255C23.0319 22.8457 23.1117 22.7925 22.7394 22.4468C22.4734 22.1808 22.3404 21.5159 22.3404 20.5851V19.1489H24.8404C26.3564 19.1489 27.4202 19.2553 27.5266 19.4415C27.8192 19.867 27.3936 22.0213 26.9681 22.4734C26.5958 22.8191 26.649 22.8723 27.3404 22.8723C28.8298 22.8723 28.9894 23.0585 28.9894 24.7074C28.9894 25.5319 28.8564 26.3564 28.6702 26.5425C28.4575 26.7553 27.2075 26.8617 24.8139 26.8617C21.5426 26.8617 21.2766 26.8351 21.0107 26.3298V26.3298ZM25.5319 23.1383C25.8245 22.9521 25.6383 22.8723 24.867 22.8723C24.0958 22.8723 23.9096 22.9521 24.2021 23.1383C24.4149 23.2713 24.7341 23.4042 24.867 23.4042C25.0266 23.4042 25.3192 23.2713 25.5319 23.1383Z" fill="#F7894A"/>
<path d="M38.5637 45.9575C38.5637 45.532 39.6541 44.149 39.9999 44.149C40.3988 44.149 42.2871 41.8351 42.4201 41.1703C42.6595 40.1862 41.8882 38.883 40.6116 38.0586L39.6276 37.4202V35.1862C39.6276 33.4309 39.7073 32.9788 40.0265 32.9788C40.3722 32.9788 40.5318 33.5107 40.7712 35.3724C40.8244 35.6383 41.0637 35.7447 41.5158 35.6915C41.968 35.6383 42.2871 35.7713 42.3669 36.0107C42.5531 36.4628 43.6169 36.5958 43.6169 36.1703C43.6169 36.0373 43.8031 35.9043 44.0158 35.9043C44.2818 35.9043 44.4148 36.1703 44.4148 36.7022C44.4148 37.2341 44.5744 37.5798 44.8935 37.6862C45.1329 37.7926 45.4786 38.0585 45.6648 38.2713C46.1169 38.883 46.3829 41.2234 46.0637 41.5426C45.9041 41.7022 45.851 41.9947 45.9307 42.2075C46.0637 42.5266 45.9573 42.5798 45.4786 42.4203C44.9467 42.2607 44.8935 42.3139 45.0265 42.7926C45.1063 43.1383 45.0265 43.3511 44.8137 43.3511C44.601 43.3511 44.5478 43.5905 44.6275 44.0426C44.7073 44.5479 44.6541 44.7075 44.4148 44.6277C44.202 44.5745 43.8297 44.7341 43.5637 45C43.2446 45.3192 42.8722 45.4256 42.4467 45.3192C42.101 45.2394 41.7286 45.2926 41.6488 45.4522C41.5424 45.5851 41.3031 45.6649 41.0903 45.5586C40.851 45.4788 40.6914 45.5851 40.6914 45.8245C40.6914 46.0905 40.3456 46.25 39.6276 46.3298C38.7499 46.4096 38.5637 46.3298 38.5637 45.9575V45.9575Z" fill="#8C6FDC"/>
<path d="M7.36697 45.7447C7.28718 45.4522 7.02123 45.2128 6.72867 45.2128C6.46272 45.2128 6.03718 44.8405 5.77123 44.3883C5.47867 43.8564 5.18612 43.6171 4.92016 43.7235C4.62761 43.8298 4.52123 43.6703 4.49463 43.1383C4.44144 41.7554 4.38825 41.6224 3.93612 41.649C3.53718 41.7022 3.4574 41.4628 3.4574 40.5054C3.4574 39.5745 3.53718 39.3352 3.82974 39.4415C4.0425 39.5213 4.36165 39.4149 4.52123 39.2288C4.78718 38.9096 4.73399 38.7766 4.22867 38.5905C3.74995 38.3777 3.69676 38.3245 4.0691 38.3245C4.54782 38.2979 5.85101 37.0745 5.85101 36.649C5.85101 36.2766 6.5691 35.6383 6.75527 35.8245C6.99463 36.0639 9.30846 34.7607 9.30846 34.3883C9.30846 34.2022 9.49463 34.0426 9.7074 34.0426C10.0265 34.0426 10.1063 34.4149 10.1063 35.7181C10.1063 37.3937 10.0797 37.4203 9.12229 38.0586C7.97867 38.7766 7.04782 40.4256 7.28718 41.3032C7.47335 42.0745 9.49463 44.149 10.0531 44.149C10.2659 44.149 10.9042 45.4256 10.9042 45.9043C10.9042 46.0905 10.2925 46.2235 9.20208 46.25C7.71272 46.2766 7.49995 46.2235 7.36697 45.7447V45.7447Z" fill="#8C6FDC"/>
<path d="M9.30855 33.1383C9.30855 32.9255 8.90961 32.6862 8.3777 32.6064C7.39366 32.4202 7.04791 32.1011 7.31387 31.6223C7.44685 31.4362 7.60642 31.4894 7.79259 31.7287C7.97876 31.9415 8.3777 32.1808 8.72344 32.2606C9.17557 32.367 9.30855 32.2872 9.30855 31.8617C9.30855 30.9308 9.97344 31.5159 10.0532 32.5266C10.1064 33.2713 10.0266 33.5106 9.73408 33.5106C9.49472 33.5106 9.30855 33.3511 9.30855 33.1383V33.1383Z" fill="#8ACF87"/>
<path d="M44.1489 29.6543C44.1489 29.1756 44.2553 29.0426 44.5479 29.149C44.7606 29.2554 44.9468 29.4681 44.9468 29.6543C44.9468 29.8405 44.7606 30.0532 44.5479 30.1596C44.2553 30.266 44.1489 30.133 44.1489 29.6543Z" fill="#8ACF87"/>
<path d="M9.30859 27.6331C9.30859 27.3405 9.46817 26.915 9.68093 26.7022C10.2394 26.1437 10.9043 26.2501 10.9043 26.8618C10.9043 27.1543 10.798 27.3937 10.6384 27.3937C10.5054 27.3937 10.3724 27.5799 10.3724 27.7926C10.3724 28.0054 10.1331 28.1916 9.84051 28.1916C9.46817 28.1916 9.30859 28.0054 9.30859 27.6331Z" fill="#8ACF87"/>
<path d="M15.9309 25.1862C15.6915 25.0001 15.4255 24.6011 15.3192 24.2554C15.1596 23.7501 15.2128 23.6703 15.7979 23.6703C16.4096 23.6703 16.4894 23.7767 16.4894 24.6011C16.4894 25.6384 16.516 25.6384 15.9309 25.1862Z" fill="#8ACF87"/>
<path d="M36.8086 17.3139C36.8883 17.1809 37.2075 17.1277 37.5 17.2075C38.2447 17.3937 38.1649 17.5533 37.3405 17.5533C36.9681 17.5533 36.7288 17.4469 36.8086 17.3139V17.3139Z" fill="#8ACF87"/>
<path d="M43.0852 8.11173C43.0852 7.87237 43.2182 7.7128 43.3778 7.76599C43.5373 7.81918 43.6703 7.97875 43.6703 8.11173C43.6703 8.24471 43.5373 8.40428 43.3778 8.45747C43.2182 8.51067 43.0852 8.35109 43.0852 8.11173Z" fill="#8ACF87"/>
<path d="M43.3511 5.45216C43.3511 5.23939 43.5372 5.05322 43.7766 5.05322C44.1489 5.05322 44.1489 5.13301 43.883 5.45216C43.6968 5.66492 43.5106 5.8511 43.4575 5.8511C43.4043 5.8511 43.3511 5.66492 43.3511 5.45216Z" fill="#8ACF87"/>
<path d="M14.3883 22.101C14.2287 21.8085 14.0159 20.7446 13.9361 19.7074C13.75 17.8989 13.7766 17.8191 14.3351 17.8191C14.7606 17.8191 14.8936 17.9787 14.8936 18.5904C14.8936 18.9893 14.9734 20.0797 15.0532 20.984C15.2393 22.6595 14.9468 23.1382 14.3883 22.101V22.101Z" fill="#C6CF54"/>
<path d="M34.8405 19.9467C34.8405 18.5371 34.8936 18.351 35.3724 18.351C35.7979 18.351 35.9043 18.5371 35.9043 19.3616C35.9043 20.7446 35.6383 21.5424 35.2128 21.5424C34.9468 21.5424 34.8405 21.1169 34.8405 19.9467Z" fill="#C6CF54"/>
<path d="M9.5744 45.2393C9.5744 45.0797 9.12227 44.734 8.59036 44.4148C7.18078 43.6169 6.62227 42.7659 6.48929 41.1435C6.32972 39.4148 6.91483 38.1648 8.3244 37.2606C8.85631 36.9148 9.30844 36.4627 9.30844 36.2499C9.30844 36.0638 9.49461 35.9042 9.70738 35.9042C10.0531 35.9042 10.1063 36.4627 10.1063 39.3616C10.1063 42.2606 10.0531 42.8191 9.70738 42.8191C9.49461 42.8191 9.30844 42.9786 9.30844 43.1914C9.30844 43.4042 9.49461 43.7499 9.70738 43.9893C10.1595 44.4148 10.2393 45.4786 9.84036 45.4786C9.70738 45.4786 9.5744 45.3723 9.5744 45.2393V45.2393Z" fill="#F5C13B"/>
<path d="M39.6276 44.8138C39.6276 44.3882 39.7871 44.1489 40.0265 44.1489C40.2659 44.1489 40.4254 43.9095 40.4254 43.484C40.4254 43.0584 40.2659 42.8191 40.0265 42.8191C39.6808 42.8191 39.6276 42.2606 39.6276 39.3616C39.6276 36.4627 39.6808 35.9042 40.0265 35.9042C40.2393 35.9042 40.4254 36.0637 40.4254 36.2765C40.4254 36.4893 40.851 36.8882 41.3563 37.2074C42.7925 38.0584 43.4042 39.2021 43.2978 40.9574C43.1914 42.6063 42.6329 43.5638 41.3563 44.3084C40.9308 44.5744 40.452 44.9201 40.3456 45.1329C39.9999 45.6914 39.6276 45.5318 39.6276 44.8138Z" fill="#F5C13B"/>
<path d="M15.6914 26.4627C15.6914 26.25 15.8776 26.0638 16.0904 26.0638C16.6489 26.0638 16.5957 25.9574 15.6914 24.6808C14.7872 23.4308 14.2021 21.6223 14.0159 19.3617L13.8563 17.8191H15.0531H16.2233V15.5585C16.2233 12.234 17.1276 10.4787 19.468 9.28189C20.7712 8.617 21.5425 8.617 21.5425 9.30849C21.5425 10.2659 22.6595 12.234 23.6967 13.1383C25.1329 14.3617 26.3031 14.6276 30.1595 14.6276H33.5106V16.2234V17.8191H34.7074H35.9308L35.7446 19.6276C35.5318 21.7819 35.1595 22.8989 34.0691 24.6276C33.4574 25.6383 33.351 25.9574 33.6436 26.0106C33.8563 26.0638 34.0425 26.2766 34.0425 26.4893C34.0425 26.7819 33.3776 26.8617 30.4521 26.8617C27.7393 26.8617 26.8616 26.7819 26.8616 26.5159C26.8616 26.3298 27.1276 26.0638 27.4733 25.9308C27.8723 25.7447 28.085 25.3989 28.1382 24.8138C28.218 24.0691 28.1116 23.9361 27.5531 23.7766C27.101 23.6702 26.6223 23.7766 26.1967 24.0425C25.3989 24.5744 24.5478 24.5744 23.6702 24.0691C22.7925 23.5638 21.835 23.5638 21.6489 24.0691C21.3829 24.734 21.8084 25.851 22.3404 25.984C22.6329 26.0638 22.8723 26.3032 22.8723 26.4893C22.8723 26.7819 22.1542 26.8617 19.2819 26.8617C16.2765 26.8617 15.6914 26.8085 15.6914 26.4627ZM26.0106 21.8617C26.1967 21.7287 26.4361 21.25 26.5691 20.7979L26.835 19.9468H24.9733C23.218 19.9468 23.1382 19.9734 23.1382 20.5851C23.1382 20.9574 23.3244 21.4361 23.5638 21.6489C23.9893 22.101 25.4255 22.2074 26.0106 21.8617V21.8617ZM21.6755 20.0798C22.2074 19.5744 22.3404 19.1755 22.3404 18.1383C22.3404 15.6915 20.5053 14.5744 19.0159 16.0904C18.484 16.5957 18.351 16.9947 18.351 18.0851C18.351 19.1755 18.484 19.5744 19.0159 20.0798C19.3616 20.4521 19.9733 20.7447 20.3457 20.7447C20.718 20.7447 21.3297 20.4521 21.6755 20.0798ZM30.718 20.0798C32.1276 18.6968 31.3031 15.4255 29.5212 15.4255C28.2712 15.4255 27.6063 16.1968 27.4467 17.8457C27.367 19.0957 27.4201 19.3617 28.0319 20.0266C28.8563 20.9308 29.867 20.9574 30.718 20.0798Z" fill="#F5C13B"/>
<path d="M10.6117 46.2235C9.86706 45.9841 9.30854 45.0267 9.33514 44.0692C9.33514 43.7501 9.41493 43.6437 9.49471 43.8299C9.54791 43.9895 9.78727 44.149 10 44.149C10.2128 44.149 10.3724 44.3086 10.3724 44.5214C10.3724 44.7341 10.6383 44.9469 10.9575 45.0001C11.5692 45.0799 11.9415 45.9044 11.516 46.2767C11.4096 46.3831 10.9841 46.3565 10.6117 46.2235V46.2235Z" fill="#38C7F3"/>
<path d="M37.9787 46.3564C37.6596 46.2766 37.5 45.9841 37.5 45.4522C37.5 44.8139 37.6064 44.6809 38.1383 44.6809C38.5106 44.6809 38.883 44.5745 38.9628 44.4149C39.2287 43.9894 40.4255 44.0958 40.4255 44.5213C40.4255 45.266 40.0798 45.7713 39.3351 46.1437C38.9362 46.3564 38.5638 46.516 38.5106 46.516C38.4574 46.4894 38.2181 46.4362 37.9787 46.3564Z" fill="#38C7F3"/>
<path d="M9.30847 42.2873C9.30847 41.7554 9.49464 41.7554 24.867 41.7554C40.2393 41.7554 40.4255 41.7554 40.4255 42.2873C40.4255 42.8192 40.2393 42.8192 24.867 42.8192C9.49464 42.8192 9.30847 42.8192 9.30847 42.2873Z" fill="#38C7F3"/>
<path d="M10.984 46.1968C10.9042 46.0638 10.5585 45.8776 10.2128 45.7447C9.76063 45.5585 9.57446 45.2925 9.57446 44.8138V44.1489H25C35.9574 44.1489 40.4255 44.2287 40.4255 44.4415C40.4255 44.9202 39.2553 45.7181 38.75 45.5851C38.4574 45.4787 38.2979 45.5851 38.2979 45.8511C38.2979 46.2234 36.7819 46.2766 24.7074 46.3298C17.234 46.383 11.0638 46.3032 10.984 46.1968V46.1968Z" fill="#31D1F7"/>
<path d="M9.30847 35C9.30847 27.9787 9.33507 27.4202 9.81379 26.8351L10.3191 26.1968L24.1223 26.117C31.7021 26.0638 38.2978 26.117 38.75 26.1968C40.3457 26.4893 40.4255 26.9947 40.4255 35.2393V42.5532H24.867H9.30847V35ZM23.6702 36.9681V35.9042H22.6063H21.5425V36.9681V38.0319H22.6063H23.6702V36.9681ZM28.4042 36.9149L28.484 35.9042H27.2872H26.0638V36.9947V38.0585L27.2074 37.9787C28.2978 37.8989 28.3244 37.8723 28.4042 36.9149V36.9149ZM23.6702 32.4202C23.6702 31.383 23.6702 31.3829 22.6063 31.3829C21.5425 31.3829 21.5425 31.383 21.5425 32.3936C21.5425 32.9521 21.5957 33.484 21.6755 33.5372C21.7287 33.617 22.2074 33.617 22.7393 33.5638C23.617 33.4574 23.6702 33.4042 23.6702 32.4202V32.4202ZM28.4574 32.8723C28.4574 31.6755 28.1915 31.3829 27.101 31.3829C26.0638 31.3829 26.0638 31.3829 26.0638 32.4468V33.5106H27.2606C28.351 33.5106 28.4574 33.4574 28.4574 32.8723Z" fill="#E5E5E5"/>
<path d="M20.7446 36.968V35.1063H22.6063H24.468V36.968V38.8297H22.6063H20.7446V36.968Z" fill="#F1F1F1"/>
<path d="M25.2659 36.968V35.1063H27.2606H29.2818L29.202 36.9148L29.1223 38.6967L27.2074 38.7765L25.2659 38.8563V36.968V36.968Z" fill="#F1F1F1"/>
<path d="M20.9308 34.3883C20.8244 34.3085 20.7446 33.4042 20.7446 32.3936V30.5851H22.6063H24.468V32.4202V34.2287L23.2446 34.4149C21.6755 34.6276 21.1436 34.6276 20.9308 34.3883Z" fill="#F1F1F1"/>
<path d="M25.2659 32.4468V30.5851H27.101C29.202 30.5851 29.2552 30.6383 29.2552 32.8723V34.3085H27.2606H25.2659V32.4468Z" fill="#F1F1F1"/>
</g>
<defs>
<clipPath id="clip0">
<rect width="50" height="49.734" fill="white"/>
</clipPath>
</defs>
</svg>
