<svg width="50" height="50" viewBox="0 0 50 50" fill="none" xmlns="http://www.w3.org/2000/svg">
<g clip-path="url(#clip0)">
<path d="M3.14831 1.6552L6.39341 43.1704C6.44212 43.7938 6.8641 44.3254 7.46021 44.5144L24.536 49.9282C24.838 50.024 25.1622 50.024 25.4641 49.9282L42.5399 44.5144C43.136 44.3254 43.558 43.7938 43.6067 43.1704L46.8518 1.6552C46.9216 0.762645 46.2162 0 45.321 0H4.67924C3.78404 0 3.07863 0.762645 3.14831 1.6552ZM38.53 14.536H17.381L18.0193 20.4217H38.07L36.7583 37.2009L25.0001 40.9288L13.2419 37.2009L12.5566 28.4347H18.7283V32.7347L25.165 34.4622L31.5633 32.7347L32.0597 25.8818H12.3571L11.049 9.14656H38.9511L38.53 14.536Z" fill="#FC490B"/>
</g>
<defs>
<clipPath id="clip0">
<rect width="50" height="50" fill="white"/>
</clipPath>
</defs>
</svg>
