<svg width="50" height="50" viewBox="0 0 50 50" fill="none" xmlns="http://www.w3.org/2000/svg">
<path fill-rule="evenodd" clip-rule="evenodd" d="M10.9482 14.0625C8.35346 14.0625 6.25 16.1598 6.25 18.7481V29.6894C6.25 32.2772 8.33749 34.375 10.9482 34.375H37.4893C40.084 34.375 42.1875 32.2777 42.1875 29.6894V18.7481C42.1875 16.1603 40.1 14.0625 37.4893 14.0625H10.9482ZM14.0625 24.2188L10.9375 18.75H12.5L14.8438 22.8516L17.1875 18.75H18.75L15.625 24.2188L18.75 29.6875H17.1875L14.8438 25.5859L12.5 29.6875H10.9375L14.0625 24.2188ZM24.2188 23.4375L21.875 18.75H21.0938H20.3125V29.6875H21.875V21.875L23.4375 25H24.2188H25L26.5625 21.875V29.6875H28.125V18.75H27.3438H26.5625L24.2188 23.4375ZM37.5 28.125V29.6875H29.6875V18.75H31.25V28.125H37.5Z" fill="#FC490B"/>
</svg>
