<svg width="50" height="50" viewBox="0 0 50 50" fill="none" xmlns="http://www.w3.org/2000/svg">
<g clip-path="url(#clip0)">
<path d="M36.4199 19.82C33.6199 7.66 27.7799 4.42 26.2999 2.14C25.6799 1.12 25.1399 0.08 24.6799 -1C24.5999 0.08 24.4599 0.76 23.5199 1.58C21.6399 3.22 13.6999 9.6 13.0199 23.42C12.3999 36.3 22.6399 44.24 23.9999 45.06C25.0399 45.56 26.2999 45.06 26.9199 44.6C31.8599 41.26 38.5999 32.38 36.4199 19.82Z" fill="#10AA50"/>
<path d="M24.9 39C24.64 42.16 24.44 44 23.76 45.8C23.76 45.8 24.22 48.82 24.52 52H25.64C25.9 49.76 26.3 47.52 26.84 45.32C25.42 44.66 24.96 41.78 24.9 39Z" fill="#B8C4C2"/>
<path d="M26.0599 44.5C24.6799 43.86 24.2799 40.88 24.2199 38.1C24.5599 33.5 24.6599 28.9 24.5199 24.28C24.4399 21.88 24.5599 1.92 23.9199 -1C24.3599 -0.02 24.8599 0.94 25.3999 1.88C26.8799 4.18 32.6599 7.42 35.4199 19.64C37.5799 32.22 30.9399 41.12 26.0599 44.5Z" fill="#12924F"/>
</g>
<defs>
<clipPath id="clip0">
<rect width="50" height="50" fill="white"/>
</clipPath>
</defs>
</svg>
