<svg width="50" height="50" viewBox="0 0 50 50" fill="none" xmlns="http://www.w3.org/2000/svg">
<path d="M14.5833 25C14.5833 19.2471 19.247 14.5833 25 14.5833C26.6052 14.5833 28.1074 14.9765 29.4655 15.625H48.1657C44.4553 6.46667 35.4891 0 25 0C16.9746 0 9.85143 3.79651 5.2771 9.67484L14.6717 25.8773C14.6468 25.5833 14.5833 25.3005 14.5833 25Z" fill="#F44336"/>
<path d="M25 35.4167C19.5475 35.4167 15.1243 31.2127 14.6717 25.8773L5.27712 9.67484C1.98161 13.9098 0 19.2182 0 25C0 37.6511 9.40603 48.0801 21.6008 49.7423L30.8739 33.5964C29.2009 34.7418 27.1806 35.4167 25 35.4167Z" fill="#00B060"/>
<path d="M29.4655 15.625C32.9742 17.3008 35.4166 20.8523 35.4166 25C35.4166 28.5723 33.6146 31.7198 30.8739 33.5964L21.6008 49.7423C22.7152 49.8942 23.8439 50 25 50C38.8071 50 50 38.807 50 25C50 21.682 49.3394 18.522 48.1657 15.625H29.4655Z" fill="#FFC107"/>
<path d="M25 33.3333C29.6023 33.3333 33.3333 29.6024 33.3333 25C33.3333 20.3976 29.6023 16.6667 25 16.6667C20.3976 16.6667 16.6666 20.3976 16.6666 25C16.6666 29.6024 20.3976 33.3333 25 33.3333Z" fill="#2196F3"/>
<path d="M34.283 20.3355L48.1657 15.625H29.4655C31.5487 16.6199 33.2396 18.286 34.283 20.3355Z" fill="url(#paint0_linear)"/>
<path d="M16.3189 19.2929L5.2981 9.62537L14.6482 25.8203C14.4682 23.5187 15.0657 21.2213 16.3189 19.2929Z" fill="url(#paint1_linear)"/>
<path d="M24.3979 35.3716L21.536 49.7496L30.8862 33.5547C28.983 34.8614 26.6946 35.4927 24.3979 35.3716Z" fill="url(#paint2_linear)"/>
<path d="M25 50C38.8071 50 50 38.8071 50 25C50 11.1929 38.8071 0 25 0C11.1929 0 0 11.1929 0 25C0 38.8071 11.1929 50 25 50Z" fill="url(#paint3_linear)"/>
<defs>
<linearGradient id="paint0_linear" x1="34.1405" y1="10.9499" x2="43.4907" y2="20.3001" gradientUnits="userSpaceOnUse">
<stop stop-opacity="0.1"/>
<stop offset="1" stop-opacity="0"/>
</linearGradient>
<linearGradient id="paint1_linear" x1="3.92522" y1="10.9982" x2="16.6977" y2="23.7708" gradientUnits="userSpaceOnUse">
<stop stop-opacity="0.1"/>
<stop offset="1" stop-opacity="0"/>
</linearGradient>
<linearGradient id="paint2_linear" x1="22.1642" y1="37.6053" x2="27.9223" y2="43.3634" gradientUnits="userSpaceOnUse">
<stop stop-opacity="0.1"/>
<stop offset="1" stop-opacity="0"/>
</linearGradient>
<linearGradient id="paint3_linear" x1="2.3369" y1="14.432" x2="47.6631" y2="35.568" gradientUnits="userSpaceOnUse">
<stop stop-color="white" stop-opacity="0.2"/>
<stop offset="1" stop-color="white" stop-opacity="0"/>
</linearGradient>
</defs>
</svg>
