<svg width="50" height="50" viewBox="0 0 50 50" fill="none" xmlns="http://www.w3.org/2000/svg">
<path d="M0 0H50V50H0V0Z" fill="#34BDB2"/>
<path d="M32.9026 17.0002C30.2627 15.4685 27.9194 14.2641 24.8537 14.3172C23.0998 14.3477 21.594 15.301 21.2774 17.0457C20.9826 18.6689 22.4256 19.5693 23.9268 20.1221C26.4164 21.0389 28.5838 22.0068 31.0301 23.0262C35.4772 24.8795 37.7574 27.8809 37.4879 31.7318C37.1449 36.6316 34.1961 40.1459 29.5096 41.3045C23.3858 42.8186 17.4391 40.5123 12.4147 37.2928C13.6828 35.3609 15.1541 34.0422 16.4147 32.1221C19.3174 33.3576 21.5979 35.0271 24.6346 35.2875C26.7758 35.4711 29.202 35.3689 29.683 32.8539C30.1166 30.5859 28.1428 29.3701 26.2176 28.691C23.9256 27.8826 21.6379 26.8937 19.3903 25.9758C15.2354 24.2787 13.5448 20.9594 13.8293 17.049C13.8293 14.7562 15.7317 10.1221 20.3959 8.68066C27.5623 6.46582 31.5108 8.73378 36.7074 12.0734C35.3272 13.8988 34.266 15.1967 32.9026 17.0002Z" fill="white"/>
</svg>
