<svg width="50" height="50" viewBox="0 0 50 50" fill="none" xmlns="http://www.w3.org/2000/svg">
<path d="M43.3981 11.1796H6.6019C4.81206 11.1796 3.35913 12.6326 3.35913 14.4154V35.5778C3.35913 37.3676 4.81206 38.8205 6.6019 38.8205H43.4051C45.1948 38.8205 46.6479 37.3676 46.641 35.5849V14.4153C46.641 12.6325 45.1879 11.1796 43.3981 11.1796Z" fill="white"/>
<path d="M43.4051 39.797H6.6019C4.27534 39.797 2.38257 37.9042 2.38257 35.5777V14.4153C2.38257 12.0926 4.27534 10.2029 6.6019 10.2029H43.398C45.7246 10.2029 47.6174 12.0926 47.6174 14.4153V35.5848C47.6218 36.7022 47.1871 37.7588 46.3932 38.5557C45.5959 39.3562 44.5346 39.797 43.4051 39.797ZM6.6019 12.1561C5.35229 12.1561 4.33569 13.1696 4.33569 14.4154V35.5778C4.33569 36.8273 5.35229 37.8439 6.6019 37.8439H43.4051C44.0116 37.8439 44.5813 37.6072 45.0095 37.1774C45.4342 36.7512 45.6667 36.1868 45.6644 35.5887V14.4153C45.6644 13.1695 44.6478 12.1561 43.3981 12.1561H6.6019V12.1561Z" fill="black"/>
<path d="M26.0643 32.342H21.7477V23.9191L17.431 29.3168L13.1144 23.9191V32.342H8.78357V17.6581H13.1004L17.4171 23.0559L21.7338 17.6581H26.0504V32.342H26.0643Z" fill="black"/>
<path d="M35.5612 32.5596L29.0826 25.0001H33.3993V17.6581H37.716V25.0001H42.0327L35.5612 32.5596Z" fill="black"/>
</svg>
