<svg width="50" height="50" viewBox="0 0 50 50" fill="none" xmlns="http://www.w3.org/2000/svg">
<path d="M18.9457 23.4621H29.2049C32.058 23.4621 34.3347 21.1085 34.3347 18.2459V8.45732C34.3347 5.67168 31.9907 3.58711 29.2049 3.1164C25.766 2.54961 22.0293 2.57842 18.9457 3.12588C14.6037 3.89443 13.8161 5.49873 13.8161 8.46699V10.562H24.0849V13.683H9.96407C6.97667 13.683 4.36359 15.4793 3.54718 18.8896C2.60577 22.7992 2.56739 25.2392 3.54718 29.3218C4.27726 32.3574 6.01593 34.5282 9.00343 34.5282H12.5289V29.8406C12.5288 26.4497 15.4587 23.4621 18.9457 23.4621Z" fill="#347AB4"/>
<path d="M46.3842 20.4465C45.6445 17.4782 44.2421 15.2399 41.2546 15.2399H37.4028V19.7933C37.4028 23.3283 34.4055 26.3061 30.9858 26.3061H20.7265C17.9214 26.3061 15.5968 28.7078 15.5968 31.5223V41.3014C15.5968 44.0869 18.0175 45.7199 20.7265 46.5175C23.9733 47.4684 27.0951 47.6414 30.9857 46.5175C33.5698 45.768 36.1155 44.2601 36.1155 41.3014V39.2509H25.8658V36.0852H41.2545C44.2421 36.0852 45.3467 34.0006 46.3841 30.8787C47.4601 27.6606 47.4121 24.5674 46.3842 20.4465Z" fill="#FFCA1D"/>
<path d="M18.3021 8.74941C17.2788 8.74941 16.4491 7.91044 16.4491 6.87792C16.4583 5.83613 17.2788 4.99716 18.3021 4.99716C19.3163 4.99716 20.1553 5.84531 20.1553 6.87792C20.1552 7.91044 19.3255 8.74941 18.3021 8.74941Z" fill="white"/>
<path d="M30.7527 44.9293C29.7293 44.9293 28.8995 44.0903 28.8995 43.0578C28.9088 42.016 29.7292 41.1771 30.7527 41.1771C31.7668 41.1771 32.6058 42.0252 32.6058 43.0578C32.6058 44.0903 31.7761 44.9293 30.7527 44.9293Z" fill="white"/>
</svg>
