<svg width="50" height="50" viewBox="0 0 50 50" fill="none" xmlns="http://www.w3.org/2000/svg">
<path d="M25 50C38.8071 50 50 38.8071 50 25C50 11.1929 38.8071 0 25 0C11.1929 0 0 11.1929 0 25C0 38.8071 11.1929 50 25 50Z" fill="#0769AD"/>
<path d="M11.3574 17.0215C8.59377 20.9961 8.93556 26.1719 11.0449 30.4004C11.0938 30.498 11.1524 30.5957 11.2012 30.7031C11.2305 30.7715 11.2695 30.8301 11.2988 30.8984C11.3184 30.9375 11.3379 30.9668 11.3574 31.0059C11.3965 31.0742 11.4258 31.1328 11.4649 31.2012C11.5332 31.3184 11.6016 31.4355 11.6699 31.543C11.709 31.6113 11.7481 31.6699 11.7871 31.7285C11.8653 31.8457 11.9434 31.9727 12.0215 32.0996C12.0508 32.1484 12.0899 32.207 12.1192 32.2559C12.2266 32.4219 12.3438 32.5781 12.461 32.7441L12.4707 32.7539C12.4903 32.7832 12.5098 32.8027 12.5293 32.832C12.627 32.9688 12.7344 33.1055 12.8418 33.2422C12.8809 33.291 12.9199 33.3398 12.959 33.3887C13.0567 33.5059 13.1445 33.623 13.2422 33.7402C13.2813 33.7793 13.3106 33.8281 13.3496 33.8672C13.4766 34.0234 13.6133 34.1699 13.75 34.3262L13.7598 34.3359C13.7695 34.3457 13.7695 34.3457 13.7793 34.3555C13.9063 34.502 14.043 34.6387 14.1797 34.7852C14.2188 34.834 14.2676 34.873 14.3067 34.9121C14.4141 35.0195 14.5215 35.127 14.6289 35.2344C14.6778 35.2734 14.7168 35.3223 14.7656 35.3613C14.9121 35.498 15.0586 35.6348 15.2051 35.7617C15.2051 35.7617 15.2051 35.7617 15.2149 35.7617C15.2442 35.7813 15.2637 35.8105 15.293 35.8301C15.4297 35.9473 15.5567 36.0547 15.6934 36.1719C15.752 36.2207 15.8008 36.2598 15.8594 36.3086C15.9668 36.3965 16.084 36.4844 16.1914 36.5723C16.25 36.6211 16.3086 36.6602 16.3672 36.709C16.4942 36.7969 16.6113 36.8945 16.7383 36.9824C16.7871 37.0215 16.8262 37.0508 16.875 37.0801C16.8848 37.0898 16.9043 37.0996 16.9141 37.1094C17.0313 37.1973 17.1582 37.2754 17.2852 37.3535C17.334 37.3926 17.3926 37.4219 17.4414 37.4609C17.627 37.5781 17.8223 37.6953 18.0176 37.8125C18.0664 37.8418 18.125 37.8711 18.1738 37.9004C18.3203 37.9785 18.457 38.0566 18.6035 38.1445C18.6817 38.1836 18.7598 38.2227 18.8379 38.2617C18.9453 38.3105 19.043 38.3691 19.1406 38.418C19.1602 38.4277 19.1895 38.4375 19.209 38.457C19.2481 38.4766 19.2969 38.4961 19.336 38.5156C19.4922 38.5938 19.6582 38.6719 19.8242 38.7402C19.8633 38.7598 19.8926 38.7695 19.9317 38.7891C20.1172 38.877 20.3125 38.9551 20.4981 39.0234C20.5469 39.043 20.586 39.0625 20.6348 39.082C20.8106 39.1504 20.9863 39.2188 21.1719 39.2773C21.1914 39.2871 21.2207 39.2871 21.2402 39.2969C21.4356 39.3652 21.6406 39.4336 21.836 39.4922C21.8848 39.502 21.9336 39.5215 21.9824 39.5312C22.1875 39.5996 22.3828 39.668 22.5977 39.707C35.9766 42.1484 39.8633 31.6699 39.8633 31.6699C36.6016 35.918 30.8106 37.041 25.3125 35.791C25.1074 35.7422 24.9024 35.6836 24.6973 35.6152C24.6485 35.6055 24.5996 35.5859 24.541 35.5664C24.3457 35.5078 24.1504 35.4395 23.9551 35.3711C23.9258 35.3613 23.8965 35.3516 23.877 35.3418C23.7012 35.2734 23.5254 35.2148 23.3594 35.1465C23.3106 35.127 23.2617 35.1074 23.2129 35.0879C23.0274 35.0098 22.832 34.9316 22.6465 34.8535C22.6074 34.834 22.5684 34.8242 22.5391 34.8047C22.3828 34.7363 22.2266 34.6582 22.0606 34.5801C22.0117 34.5605 21.9727 34.541 21.9238 34.5117C21.8067 34.4531 21.6797 34.3848 21.5527 34.3262C21.4746 34.2871 21.3867 34.2383 21.3086 34.1992C21.1621 34.1211 21.0156 34.043 20.8692 33.9551C20.8203 33.9258 20.7715 33.9062 20.7227 33.877C20.5274 33.7598 20.3418 33.6426 20.1465 33.5254C20.0977 33.4961 20.0391 33.457 19.9902 33.4277C19.8535 33.3398 19.7168 33.252 19.5801 33.1543C19.5313 33.125 19.4922 33.0859 19.4531 33.0664C19.3262 32.9785 19.1992 32.8809 19.0723 32.7832C19.0137 32.7441 18.9551 32.6953 18.9063 32.6562C18.7891 32.5684 18.6719 32.4805 18.5547 32.3828C18.5059 32.3438 18.4473 32.2949 18.3985 32.2559C18.252 32.1387 18.1055 32.0117 17.9688 31.8945C17.9492 31.8848 17.9395 31.8652 17.9199 31.8555C17.7637 31.7188 17.6172 31.582 17.461 31.4453C17.4121 31.4062 17.3731 31.3672 17.334 31.3281C17.2266 31.2207 17.1094 31.1133 17.0117 31.0059C16.9727 30.9668 16.9238 30.918 16.8848 30.8789C16.7481 30.7422 16.6113 30.5957 16.4844 30.4492C16.4746 30.4395 16.4746 30.4395 16.4649 30.4297C16.3281 30.2734 16.1914 30.127 16.0547 29.9707C16.0156 29.9316 15.9863 29.8828 15.9473 29.8438C15.8496 29.7266 15.752 29.5996 15.6543 29.4824C15.6153 29.4434 15.586 29.3945 15.5469 29.3457C15.4297 29.1992 15.3223 29.043 15.2051 28.8965C12.1582 24.7363 11.0645 19.0039 13.4961 14.2969" fill="white"/>
<path d="M19.9512 13.6621C17.9492 16.543 18.0566 20.4004 19.6191 23.4375C19.8828 23.9453 20.1758 24.4434 20.5078 24.9121C20.8105 25.3418 21.1426 25.8496 21.5332 26.2012C21.6797 26.3574 21.8262 26.5137 21.9824 26.6699C22.0215 26.709 22.0605 26.748 22.0996 26.7871C22.2461 26.9336 22.4023 27.0703 22.5586 27.2168C22.5683 27.2266 22.5683 27.2266 22.5781 27.2363C22.7539 27.3926 22.9297 27.5391 23.1152 27.6758C23.1543 27.7051 23.1933 27.7441 23.2324 27.7734C23.418 27.9102 23.6035 28.0469 23.7891 28.1836C23.7988 28.1836 23.7988 28.1934 23.8086 28.1934C23.8965 28.252 23.9746 28.3008 24.0625 28.3594C24.1015 28.3887 24.1406 28.418 24.1797 28.4375C24.3164 28.5254 24.4531 28.6133 24.5898 28.6914C24.6094 28.7012 24.6289 28.7109 24.6484 28.7305C24.7656 28.7988 24.8926 28.8672 25.0195 28.9355C25.0586 28.9551 25.1074 28.9844 25.1465 29.0039C25.2344 29.0527 25.3125 29.0918 25.4004 29.1406C25.4101 29.1504 25.4297 29.1504 25.4394 29.1602C25.6152 29.248 25.791 29.3262 25.9765 29.4141C26.0156 29.4336 26.0547 29.4434 26.0937 29.4629C26.2402 29.5215 26.3867 29.5801 26.5332 29.6387C26.5918 29.6582 26.6601 29.6875 26.7187 29.707C26.8555 29.7559 26.9922 29.8047 27.1191 29.8438C27.1777 29.8633 27.2363 29.8828 27.3047 29.9023C27.5 29.9609 27.6855 30.0391 27.8906 30.0684C38.2422 31.7773 40.625 23.8281 40.625 23.8281C38.4765 26.9238 34.3164 28.3984 29.873 27.2461C29.6777 27.1973 29.4824 27.1387 29.2871 27.0801C29.2285 27.0605 29.1699 27.041 29.1113 27.0215C28.9746 26.9727 28.8379 26.9336 28.7012 26.875C28.6426 26.8555 28.5742 26.8262 28.5156 26.8066C28.3691 26.748 28.2226 26.6895 28.0762 26.6309C28.0371 26.6113 27.998 26.6016 27.959 26.582C27.7734 26.5039 27.5976 26.416 27.4219 26.3281C27.334 26.2891 27.2363 26.2402 27.1484 26.1914C27.0996 26.1621 27.041 26.1328 26.9922 26.1133C26.875 26.0547 26.7676 25.9863 26.6504 25.918C26.6211 25.8984 26.5918 25.8887 26.5723 25.8691C26.4355 25.791 26.2988 25.7031 26.1621 25.6152C26.123 25.5859 26.0742 25.5566 26.0351 25.5273C25.9473 25.4688 25.8594 25.4102 25.7715 25.3516C25.5762 25.2246 25.4004 25.0781 25.2148 24.9414C25.1758 24.9023 25.1269 24.873 25.0879 24.8438C23.1445 23.3105 21.6015 21.2109 20.8691 18.8281C20.0976 16.3574 20.2637 13.5938 21.6015 11.3477" fill="white"/>
<path d="M27.168 11.1621C25.9864 12.9004 25.8692 15.0488 26.6895 16.9727C27.5489 19.0137 29.3165 20.6055 31.3868 21.3574C31.4747 21.3867 31.5528 21.416 31.6407 21.4453C31.6798 21.4551 31.7188 21.4648 31.7579 21.4844C31.8751 21.5234 32.002 21.5625 32.129 21.5918C37.8321 22.6953 39.3751 18.6621 39.795 18.0664C38.4376 20.0195 36.1622 20.4883 33.3692 19.8047C33.1446 19.7559 32.9102 19.668 32.6954 19.5996C32.4219 19.502 32.1485 19.3945 31.8946 19.2676C31.3966 19.0332 30.9278 18.7402 30.4884 18.4082C27.9884 16.5137 26.4356 12.8906 28.0665 9.94141" fill="white"/>
</svg>
