<svg width="50" height="50" viewBox="0 0 50 50" fill="none" xmlns="http://www.w3.org/2000/svg">
<path d="M4.89506 25.7449C3.9295 27.702 2.54454 28.1198 0.448291 28.1704V50H49.767V32.2129L49.5232 24.2128L45.7245 21.1634L35.6182 14.8301C37.2117 11.0689 36.1777 6.99705 31.5757 6.74508C31.3186 1.20299 23.2693 -1.99528 18.7304 1.38563C16.4638 3.07391 17.1774 5.70041 14.1925 7.01302C10.3597 8.69855 3.74925 9.98661 1.31666 13.6551C-1.14903 17.3736 -0.258382 25.399 4.89506 25.7449Z" fill="black"/>
<path d="M20.9126 3.92489C18.9779 5.53066 25.1909 9.96846 27.4047 8.11775C31.3526 4.81744 23.3567 1.89644 20.9126 3.92489Z" fill="#69EAFF"/>
<path d="M26.3203 24.9364C29.4621 25.8693 27.7261 30.8031 30.7748 30.8863C34.1519 30.9785 38.1407 24.3673 41.1855 25.4645C42.8704 26.0717 42.1759 28.499 42.906 29.7275C43.7529 31.153 45.5037 30.9951 46.9372 31.0002C46.9372 29.4186 47.4029 26.9384 46.5216 25.55C45.2676 23.5736 41.9823 22.1721 40.0649 20.8939C35.6387 17.943 31.152 15.0866 26.7246 12.1351C24.8143 10.8616 22.5953 8.78784 20.2566 8.4591C17.881 8.12519 15.4727 9.70743 13.3843 10.616C10.795 11.7425 4.20721 13.454 3.40651 16.4646C3.10768 17.5882 2.67804 22.2539 4.5129 22.2539C6.47437 22.2539 7.67702 18.3142 9.35798 17.3679C14.1772 14.6549 23.3762 12.3259 26.0764 19.2931C26.7086 20.9242 26.3203 23.2099 26.3203 24.9364Z" fill="#FFC83D"/>
<path d="M27.9374 9.57481C29.0727 16.5955 37.2101 9.80123 30.3645 9.58103C29.5568 9.55508 28.7453 9.57481 27.9374 9.57481Z" fill="#69EAFF"/>
<path d="M19.4481 18.8726C14.9396 15.1554 7.13032 18.8231 7.85203 24.9364C8.0415 26.5414 9.55271 31.2985 12.0156 30.1265C15.4758 28.48 16.4567 21.4352 19.4481 18.8726Z" fill="#F03A17"/>
<path d="M19.0439 18.8726L18.6396 20.4896L20.6609 20.8938L21.0652 19.2768L19.0439 18.8726Z" fill="white"/>
<path d="M21.0651 19.6812L20.2566 20.8939V21.2982C21.3657 24.071 18.5311 25.4366 16.6184 26.9577V27.3619C17.5475 29.5198 16.3709 31.1825 14.1929 31.8087C16.146 34.5847 20.93 33.2891 23 31.2714C26.6135 27.7491 25.0322 21.995 21.0651 19.6812Z" fill="#FFC83D"/>
<path d="M17.964 20.9128C15.7942 22.1324 16.0247 26.8635 19.0002 25.3215C21.2776 24.1414 20.719 19.3643 17.964 20.9128Z" fill="black"/>
<path d="M15.8098 24.9364L15.4055 26.5534L17.831 25.7449L15.8098 24.9364Z" fill="white"/>
<path d="M8.9376 28.1703L3.27808 31.0001V37.4681C5.59432 36.5901 8.90449 32.723 11.3553 33.0303C14.4982 33.4248 12.1701 39.2161 15.8117 38.3935C18.6065 37.7624 22.6157 32.0859 25.4882 33.1232C27.9424 34.0098 26.128 38.1921 28.7696 38.4658C32.5879 38.8616 35.5467 32.1643 39.2124 33.0092C41.9633 33.6431 39.6874 38.1226 42.5143 38.4986C46.8758 39.0783 46.9372 34.2078 46.9372 31.4044C45.144 31.2414 43.4009 30.6986 42.5018 28.9714C41.9613 27.9333 42.486 25.2391 40.8136 25.1874C37.1851 25.0753 34.0857 31.716 30.3706 30.7122C27.6803 29.9851 29.272 25.2974 27.0768 25.1774C24.9154 25.0593 24.2607 29.6178 23.0003 30.9577C18.6354 35.5981 12.2652 32.3382 8.9376 28.1703Z" fill="#00BCF2"/>
<path d="M14.4068 26.9767C12.0715 28.3677 12.6023 33.0667 15.7234 31.326C18.0854 30.0084 17.0418 25.4072 14.4068 26.9767Z" fill="black"/>
<path d="M11.363 30.5959V31.0002L12.5758 31.4044V30.1917L11.363 30.5959Z" fill="#F8892C"/>
<path d="M3.27806 47.1702H46.9372V36.6597C45.5118 37.1137 43.2533 39.0824 41.8105 38.0107C40.1062 36.7446 41.7612 32.8169 38.8344 32.8015C35.1654 32.7825 32.4307 38.8544 28.7696 38.2779C26.0899 37.8559 28.0923 33.6512 25.4882 32.9046C21.9472 31.8895 18.8397 38.0814 15.4134 38.2888C12.3936 38.4715 14.3049 33.6391 11.7437 32.9046C10.1544 32.449 8.49868 34.0397 7.32057 34.8713C2.41349 38.3333 3.27806 41.5103 3.27806 47.1702Z" fill="#69EAFF"/>
</svg>
