<svg width="27" height="24" viewBox="0 0 27 24" fill="none" xmlns="http://www.w3.org/2000/svg">
<path d="M6.0557 22.7601H16.3825C16.361 21.7166 15.5433 19.6534 16.3093 18.7978C17.2312 17.7684 19.3842 18.2137 19.9586 16.6667C20.2675 15.8349 19.6554 14.3312 19.7019 13.3553L17.1202 13.1709C17.5934 12.6238 18.3085 12.1602 18.643 11.5111C18.8872 11.0373 18.627 10.5195 18.8925 10.0526C19.1878 9.53329 20.0373 9.12575 19.686 8.41486C19.2086 7.44915 17.7005 7.53411 17.0726 6.67724C16.0941 5.34196 16.6699 3.21459 15.2414 2.03971C14.0448 1.05553 12.3178 1.00009 10.8503 1C7.2479 0.999779 2.50862 2.1025 1.31716 6.16342C0.617882 8.54708 1.08831 11.928 2.59621 13.9078C3.50737 15.1041 4.90721 15.8764 5.61257 17.2281C6.43577 18.8055 6.0557 21.0324 6.0557 22.7601Z" fill="#FFC83D" stroke="black" stroke-width="2"/>
<mask id="path-2-inside-1" fill="white">
<path d="M24.1277 5.61023L20.2551 10.5892C21.9629 10.9652 24.4561 7.67895 25.603 6.53227L24.1277 5.61023Z"/>
</mask>
<path d="M24.1277 5.61023L20.2551 10.5892C21.9629 10.9652 24.4561 7.67895 25.603 6.53227L24.1277 5.61023Z" fill="#FFC83D"/>
<path d="M24.1277 5.61023L25.1877 3.91423L23.6571 2.95762L22.549 4.38235L24.1277 5.61023ZM20.2551 10.5892L18.6764 9.36136L16.7319 11.8614L19.8251 12.5425L20.2551 10.5892ZM25.603 6.53227L27.0171 7.94657L28.795 6.16883L26.663 4.83627L25.603 6.53227ZM22.549 4.38235L18.6764 9.36136L21.8338 11.8171L25.7064 6.83811L22.549 4.38235ZM19.8251 12.5425C20.9497 12.7901 21.9546 12.3938 22.6209 12.0237C23.3211 11.6349 23.967 11.0968 24.5065 10.5916C25.0574 10.0756 25.5739 9.52039 26.003 9.04878C26.4639 8.54219 26.7749 8.18875 27.0171 7.94657L24.1888 5.11796C23.8576 5.44913 23.4268 5.93648 23.0444 6.35683C22.6301 6.81215 22.2015 7.26998 21.7723 7.67198C21.3317 8.08461 20.9624 8.36932 20.6789 8.52676C20.3616 8.70295 20.4144 8.57642 20.6852 8.63602L19.8251 12.5425ZM26.663 4.83627L25.1877 3.91423L23.0677 7.30623L24.543 8.22827L26.663 4.83627Z" fill="#FFC83D" mask="url(#path-2-inside-1)"/>
<mask id="path-4-inside-2" fill="white">
<path d="M21.3616 11.88L26.3406 12.2489V10.4048C25.054 10.4155 21.6172 10.3478 21.3616 11.88Z"/>
</mask>
<path d="M21.3616 11.88L26.3406 12.2489V10.4048C25.054 10.4155 21.6172 10.3478 21.3616 11.88Z" fill="#FFC83D"/>
<path d="M21.3616 11.88L19.3888 11.551L19.0282 13.7127L21.2138 13.8746L21.3616 11.88ZM26.3406 12.2489L26.1928 14.2434L28.3406 14.4025V12.2489H26.3406ZM26.3406 10.4048H28.3406V8.38809L26.324 8.40485L26.3406 10.4048ZM21.2138 13.8746L26.1928 14.2434L26.4883 10.2543L21.5093 9.88551L21.2138 13.8746ZM28.3406 12.2489V10.4048H24.3406V12.2489H28.3406ZM26.324 8.40485C25.749 8.40963 24.3795 8.39101 23.1345 8.59924C22.5162 8.70266 21.7653 8.88551 21.0981 9.25466C20.4116 9.63456 19.5891 10.3505 19.3888 11.551L23.3343 12.2091C23.2619 12.6435 22.9648 12.7933 23.0347 12.7546C23.1241 12.7052 23.3608 12.617 23.7944 12.5444C24.6534 12.4008 25.6456 12.4106 26.3572 12.4047L26.324 8.40485Z" fill="#FFC83D" mask="url(#path-4-inside-2)"/>
<mask id="path-6-inside-3" fill="white">
<path d="M26.525 17.4122C26.0441 16.7296 25.4593 16.156 24.8654 15.5689C24.4482 15.1566 24.0171 14.7678 23.5745 14.3835C23.2512 14.1027 22.0057 12.6053 21.515 13.1251C21.054 13.6134 22.2717 14.6906 22.5437 15.0149C23.63 16.3098 24.723 18.6282 26.525 17.4122Z"/>
</mask>
<path d="M26.525 17.4122C26.0441 16.7296 25.4593 16.156 24.8654 15.5689C24.4482 15.1566 24.0171 14.7678 23.5745 14.3835C23.2512 14.1027 22.0057 12.6053 21.515 13.1251C21.054 13.6134 22.2717 14.6906 22.5437 15.0149C23.63 16.3098 24.723 18.6282 26.525 17.4122Z" fill="#FFC83D"/>
<path d="M26.525 17.4122L27.6437 19.0701L29.3353 17.9286L28.16 16.2604L26.525 17.4122ZM24.8654 15.5689L26.2714 14.1465L26.2714 14.1465L24.8654 15.5689ZM23.5745 14.3835L22.2628 15.8933L22.2632 15.8936L23.5745 14.3835ZM21.515 13.1251L22.9693 14.4981L22.9694 14.498L21.515 13.1251ZM22.5437 15.0149L21.0112 16.3L21.0114 16.3004L22.5437 15.0149ZM28.16 16.2604C27.5584 15.4064 26.8394 14.7081 26.2714 14.1465L23.4593 16.9912C24.0792 17.604 24.5298 18.0528 24.89 18.5641L28.16 16.2604ZM26.2714 14.1465C25.8121 13.6926 25.3458 13.2728 24.8858 12.8734L22.2632 15.8936C22.6883 16.2628 23.0843 16.6206 23.4593 16.9913L26.2714 14.1465ZM24.8862 12.8737C24.9121 12.8963 24.9086 12.8954 24.8366 12.8224C24.8222 12.8078 24.6585 12.6406 24.6072 12.5888C24.4267 12.4064 24.1709 12.1536 23.8884 11.918C23.6374 11.7087 23.216 11.3838 22.7016 11.1906C22.1715 10.9915 20.9875 10.7703 20.0606 11.7522L22.9694 14.498C22.6886 14.7955 22.3111 14.97 21.9324 15.0083C21.6055 15.0413 21.3737 14.9647 21.2952 14.9352C21.1624 14.8854 21.1646 14.8549 21.3267 14.9901C21.4573 15.099 21.6041 15.2407 21.7634 15.4018C21.8821 15.5217 21.8725 15.5135 21.99 15.6326C22.0499 15.6932 22.156 15.8005 22.2628 15.8933L24.8862 12.8737ZM20.0608 11.7521C19.2647 12.5953 19.3606 13.6117 19.5309 14.1671C19.6882 14.6802 19.9751 15.0947 20.1599 15.3387C20.3662 15.6112 20.5884 15.8537 20.7472 16.0224C20.8224 16.1023 20.9093 16.1927 20.953 16.2387C21.0156 16.3045 21.0229 16.3141 21.0112 16.3L24.0762 13.7299C23.9964 13.6347 23.9062 13.5396 23.8519 13.4825C23.7788 13.4057 23.7295 13.3548 23.6595 13.2805C23.5279 13.1407 23.4235 13.0226 23.349 12.9243C23.3321 12.902 23.3194 12.8841 23.3103 12.8706C23.3011 12.857 23.2972 12.8503 23.2973 12.8504C23.2974 12.8507 23.2989 12.8533 23.3016 12.8584C23.3042 12.8634 23.3082 12.8714 23.3132 12.8823C23.3227 12.9032 23.3388 12.9411 23.3551 12.9945C23.3849 13.0917 23.4369 13.3086 23.398 13.5989C23.3548 13.9209 23.2105 14.2426 22.9693 14.4981L20.0608 11.7521ZM21.0114 16.3004C21.2335 16.5651 21.4329 16.8534 21.7667 17.3015C22.0578 17.6923 22.4441 18.1924 22.9045 18.6202C23.3616 19.0451 24.0398 19.5401 24.9439 19.7016C25.9195 19.8758 26.8453 19.6089 27.6437 19.0701L25.4063 15.7544C25.3037 15.8236 25.4172 15.7228 25.6471 15.7639C25.8055 15.7922 25.8046 15.8547 25.6274 15.6901C25.4535 15.5285 25.2503 15.2822 24.9746 14.912C24.7416 14.5993 24.397 14.1122 24.0759 13.7295L21.0114 16.3004Z" fill="#FFC83D" mask="url(#path-6-inside-3)"/>
</svg>
